<svg width="63" height="63" viewBox="0 0 63 63" fill="none" xmlns="http://www.w3.org/2000/svg">
<path d="M61.6378 29.2988L51.5205 24.2404L61.6378 19.1815C63.4474 18.2769 63.4494 15.6852 61.6378 14.7792L32.5986 0.259553C31.9055 -0.0865177 31.0903 -0.0865177 30.3972 0.259553L1.35797 14.7792C-0.451695 15.6842 -0.453617 18.2759 1.35797 19.1815L11.4753 24.2404L1.35797 29.2988C-0.451695 30.2038 -0.453617 32.795 1.35797 33.7011L11.4753 38.76L1.35797 43.8184C-0.451695 44.7234 -0.453617 47.3146 1.35797 48.2207L30.3972 62.7403C31.0888 63.0859 31.904 63.0873 32.5986 62.7403L61.6378 48.2207C63.4474 47.3156 63.4494 44.7244 61.6378 43.8184L51.5205 38.76L61.6378 33.7011C63.4474 32.7965 63.4494 30.2048 61.6378 29.2988ZM31.4979 5.21221L55.0341 16.9806L31.4979 28.7484L7.96168 16.9806L31.4979 5.21221ZM55.0341 46.0198L31.4979 57.7876L7.96168 46.0198L16.9783 41.5112L30.3972 48.2207C31.0893 48.5663 31.904 48.5677 32.5986 48.2207L46.0175 41.5112L55.0341 46.0198ZM31.4979 43.268L7.96168 31.5002L16.9783 26.9916L30.3972 33.7011C31.0893 34.0467 31.904 34.0481 32.5986 33.7011L46.0175 26.9916L55.0341 31.5002L31.4979 43.268Z" fill="#F84E1D"/>
</svg>
