<svg width="64" height="63" viewBox="0 0 64 63" fill="none" xmlns="http://www.w3.org/2000/svg">
<path d="M10.2177 38.2959C10.639 38.5778 11.1154 38.7126 11.5867 38.7126C12.3819 38.7126 13.1627 38.3284 13.6382 37.6179C17.6225 31.6641 24.2829 28.1096 31.4546 28.1096C38.6052 28.1096 45.2546 31.6478 49.2417 37.5744C50.002 38.7043 51.5341 39.004 52.6639 38.2438C53.7939 37.4836 54.0936 35.9514 53.3334 34.8216C50.1478 30.0866 45.5804 26.5928 40.3612 24.7237C43.4912 22.1669 45.4931 18.2788 45.4931 13.9315C45.4931 6.24958 39.2436 0 31.5616 0C23.8797 0 17.6301 6.24958 17.6301 13.9315C17.6301 18.2476 19.603 22.1113 22.6943 24.6688C17.3934 26.5309 12.7574 30.067 9.53975 34.8752C8.7824 36.007 9.08593 37.5385 10.2177 38.2959ZM31.5616 4.93151C36.5242 4.93151 40.5616 8.96893 40.5616 13.9315C40.5616 18.8941 36.5242 22.9315 31.5616 22.9315C26.5991 22.9315 22.5616 18.8941 22.5616 13.9315C22.5616 8.96893 26.5991 4.93151 31.5616 4.93151ZM41.3948 43.6599L37.7189 46.3117C37.172 46.7062 36.943 47.4056 37.152 48.044L38.6323 52.3346C38.6948 52.5257 38.7189 52.7124 38.7108 52.8904C38.6585 54.0428 37.2141 54.8311 36.1549 54.0669L32.479 51.4144C32.2056 51.2172 31.8837 51.1185 31.5618 51.1185C31.2399 51.1185 30.918 51.2172 30.6445 51.4144L26.9687 54.0669C25.9094 54.8311 24.4582 54.0428 24.4123 52.8904C24.4053 52.7124 24.4299 52.5256 24.4925 52.3346L25.9714 48.044C26.1804 47.4056 25.9514 46.7062 25.4045 46.3117L21.7286 43.6599C20.5056 42.7776 21.1341 40.6849 22.6458 40.6849H27.1895C27.8656 40.6849 28.4648 40.4247 28.6736 39.7863L30.0776 35.4679C30.3113 34.7542 30.9365 34.3973 31.5618 34.3973C32.1871 34.3973 32.8123 34.7542 33.0459 35.4679L34.4499 39.7863C34.6589 40.4247 35.2579 40.6849 35.934 40.6849H40.4777C41.9893 40.6849 42.6178 42.7776 41.3948 43.6599ZM62.477 52.29L58.8011 54.9418C58.2542 55.3363 58.0252 56.0357 58.2342 56.6741L59.7145 60.9648C59.777 61.1559 59.8011 61.3425 59.793 61.5205C59.7406 62.6729 58.2963 63.4612 57.237 62.6971L53.5612 60.0445C53.2878 59.8473 52.9659 59.7487 52.644 59.7487C52.3221 59.7487 52.0002 59.8473 51.7267 60.0445L48.0509 62.6971C46.9916 63.4612 45.5404 62.6729 45.4945 61.5205C45.4875 61.3425 45.5121 61.1557 45.5746 60.9648L47.0536 56.6741C47.2626 56.0357 47.0336 55.3363 46.4867 54.9418L42.8108 52.29C41.5878 51.4078 42.2163 49.3151 43.728 49.3151H48.2717C48.9478 49.3151 49.547 49.0548 49.7558 48.4164L51.1598 44.098C51.3935 43.3843 52.0186 43.0274 52.644 43.0274C53.2693 43.0274 53.8945 43.3843 54.1281 44.098L55.5321 48.4164C55.7411 49.0548 56.3401 49.3151 57.0162 49.3151H61.5599C63.0715 49.3151 63.7 51.4078 62.477 52.29ZM20.3126 52.29L16.6367 54.9418C16.0898 55.3363 15.8608 56.0357 16.0698 56.6741L17.5501 60.9648C17.6126 61.1559 17.6367 61.3425 17.6287 61.5205C17.5763 62.6729 16.1319 63.4612 15.0727 62.6971L11.3967 60.0445C11.1233 59.8473 10.8014 59.7487 10.4795 59.7487C10.1575 59.7487 9.83564 59.8473 9.56219 60.0445L5.88637 62.6971C4.82708 63.4612 3.37586 62.6729 3.33 61.5205C3.32297 61.3425 3.34763 61.1557 3.41014 60.9648L4.8891 56.6741C5.09807 56.0357 4.86912 55.3363 4.32222 54.9418L0.646274 52.29C-0.57674 51.4078 0.0517807 49.3151 1.56353 49.3151H6.10718C6.78329 49.3151 7.38247 49.0548 7.59132 48.4164L8.99531 44.098C9.22894 43.3843 9.85414 43.0274 10.4795 43.0274C11.1048 43.0274 11.73 43.3843 11.9636 44.098L13.3676 48.4164C13.5766 49.0548 14.1756 49.3151 14.8517 49.3151H19.3954C20.9071 49.3151 21.5356 51.4078 20.3126 52.29Z" fill="#F84E1D"/>
</svg>
