<svg width="63" height="63" viewBox="0 0 63 63" fill="none" xmlns="http://www.w3.org/2000/svg">
<path d="M33.292 31.5C34.3127 31.5 35.143 32.328 35.143 33.3457C35.143 35.2318 32.6138 35.9047 31.6778 34.2501C31.1756 33.3624 30.0474 33.0493 29.1579 33.5503C28.2684 34.0515 27.9545 35.1774 28.4568 36.065C29.1256 37.247 30.1969 38.1235 31.4427 38.564V38.8828C31.4427 39.9021 32.2708 40.7285 33.2922 40.7285C34.3136 40.7285 35.1417 39.9021 35.1417 38.8828V38.5655C37.2953 37.8037 38.8423 35.752 38.8423 33.3457C38.8423 30.2925 36.3525 27.8086 33.2922 27.8086C32.2715 27.8086 31.4412 26.9806 31.4412 25.9629C31.4412 24.9452 32.2715 24.1172 33.2922 24.1172C33.9593 24.1172 34.578 24.478 34.9065 25.0586C35.4089 25.9462 36.5373 26.2597 37.4265 25.7581C38.3161 25.257 38.6298 24.1311 38.1275 23.2434C37.4587 22.0614 36.3872 21.1851 35.1417 20.7446V20.4258C35.1417 19.4065 34.3136 18.5801 33.2922 18.5801C32.2708 18.5801 31.4427 19.4065 31.4427 20.4258V20.7431C29.2891 21.5049 27.742 23.5566 27.742 25.9629C27.7419 29.0161 30.2317 31.5 33.292 31.5Z" fill="#F84E1D"/>
<path d="M61.0271 36.5182C58.9302 34.6357 55.8769 34.4974 53.6445 36.0446V30.6677C53.6445 22.2133 49.0573 14.5246 41.775 10.4606C44.6456 6.38982 44.3692 1.96457 44.3869 1.84361C44.3858 0.825152 43.558 0 42.5373 0H24.0469C23.0262 0 22.1985 0.825029 22.1974 1.84361C22.226 2.03261 21.8721 6.23811 24.8224 10.4533C17.5323 14.5155 12.9399 22.2082 12.9399 30.6677V38.1022C10.1065 39.2817 7.79526 41.368 6.25349 44.4199H1.84964C0.828105 44.4199 0 45.2463 0 46.2656V61.1543C0 62.1736 0.828105 63 1.84952 63H42.5434C43.0329 63 43.5025 62.8064 43.8491 62.4617L61.2483 45.1578C63.6684 42.751 63.568 38.7993 61.0271 36.5182ZM40.5836 3.69141C40.2964 5.74309 39.4236 7.65462 38.0473 9.22852H28.5493C27.1897 7.66988 26.3035 5.73103 26.0066 3.69141H40.5836ZM16.6389 30.6677C16.6389 22.9896 21.1412 16.0649 28.1379 12.9199H38.4462C45.4429 16.065 49.9453 22.9896 49.9453 30.6677V39.6681L43.8361 45.9095C42.9202 44.0524 40.9756 42.7588 38.7653 42.7588H28.7416C26.0454 38.8274 21.4435 36.6795 16.6388 37.1669L16.6389 30.6677ZM58.637 42.5431L41.7792 59.3086H3.69916V48.1113H7.39216C8.9791 48.1113 9.25595 46.4602 9.64047 45.9154C12.8937 39.4768 21.8916 39.0253 25.8085 45.022C26.0291 45.2625 26.4275 46.4501 27.7435 46.4501H38.7654C39.8009 46.4501 40.6656 47.2539 40.6932 48.242C40.7221 49.2822 39.887 50.1415 38.8429 50.1415H25.891C24.8695 50.1415 24.0415 50.9679 24.0415 51.9872C24.0415 53.0065 24.8696 53.8329 25.891 53.8329H38.8429C40.1946 53.8329 41.4674 53.3564 42.4756 52.4821C42.8987 52.2402 42.2157 52.812 55.4143 39.3634C56.267 38.4921 57.6457 38.4477 58.5532 39.2623C59.516 40.1271 59.5616 41.6236 58.637 42.5431Z" fill="#F84E1D"/>
</svg>
