<svg width="48" height="48" viewBox="0 0 48 48" fill="none" xmlns="http://www.w3.org/2000/svg">
<path d="M46.5938 39.5624H42.375V23.4373C42.3816 23.4424 42.3889 23.4472 42.3955 23.4519C42.6442 23.6318 42.932 23.7182 43.2177 23.7182C43.6454 23.7182 44.0676 23.5237 44.3434 23.156L47.7188 18.6567C47.9451 18.3553 48.0407 17.9759 47.9847 17.6035C47.9286 17.2307 47.7254 16.8963 47.4203 16.6751C47.1955 16.5118 24.9245 0.339435 24.83 0.270953C24.336 -0.0901343 23.6655 -0.0901343 23.1718 0.269854C23.1088 0.315631 18.8593 3.40172 14.0626 6.88478V4.31249C14.0626 3.53575 13.4327 2.90623 12.6564 2.90623H7.03131C6.25457 2.90623 5.62505 3.53575 5.62505 4.31249V13.0115C2.73965 15.107 0.648199 16.6257 0.580083 16.6751C0.275027 16.8967 0.071778 17.2311 0.0157472 17.6035C-0.0402836 17.9763 0.0552984 18.3557 0.281619 18.6571L3.65701 23.156C4.11698 23.7694 4.98344 23.9009 5.60491 23.4523C5.61186 23.4472 5.61809 23.4424 5.62505 23.4377V39.5628H1.40626C0.629522 39.5628 0 40.1923 0 40.9691C0 41.7454 0.629522 42.375 1.40626 42.375H13.1932L11.3984 45.965C11.1805 46.4011 11.204 46.9186 11.4599 47.3331C11.7163 47.7477 12.1689 48 12.6564 48H35.2499C35.7374 48 36.19 47.7477 36.4464 47.3331C36.7027 46.9186 36.7258 46.4011 36.5079 45.965L34.7131 42.375H46.5938C47.3705 42.375 48 41.7454 48 40.9691C48 40.1923 47.3705 39.5624 46.5938 39.5624ZM8.43757 5.71875H11.2501V8.92715C10.2976 9.61857 9.35091 10.306 8.43757 10.9695V5.71875ZM5.07792 20.3637L3.38858 18.1118C17.5702 7.8135 22.3713 4.32714 24.0002 3.14427C27.135 5.42066 38.3946 13.5968 44.6118 18.1118L42.9225 20.3637C42.7972 20.2736 25.1351 7.52272 24.8275 7.30043C24.3346 6.94191 23.6677 6.94191 23.1748 7.29897C23.0909 7.35939 5.16215 20.3029 5.07792 20.3637ZM8.43757 21.4074C18.7644 13.952 22.5848 11.1937 24.0002 10.1719C26.5161 11.9883 34.2245 17.5537 39.5625 21.407V39.5628H33.8437V26.8127C33.8437 26.0359 33.2141 25.4064 32.4374 25.4064H15.4689C14.6921 25.4064 14.0626 26.0359 14.0626 26.8127V39.5628H8.43757V21.4074ZM25.4065 39.5624V28.2186H31.0315V39.5624H25.4065ZM16.8751 39.5624V28.2186H22.5939V39.5624H16.8751ZM14.9316 45.1875L16.3379 42.375H31.5684L32.9746 45.1875H14.9316Z" fill="white"/>
<path d="M24.0002 22.5939C26.3264 22.5939 28.219 20.7013 28.219 18.3751C28.219 16.0489 26.3264 14.1563 24.0002 14.1563C21.674 14.1563 19.7814 16.0489 19.7814 18.3751C19.7814 20.7013 21.674 22.5939 24.0002 22.5939ZM24.0002 16.9689C24.7755 16.9689 25.4065 17.5995 25.4065 18.3751C25.4065 19.1504 24.7755 19.7814 24.0002 19.7814C23.2246 19.7814 22.5939 19.1504 22.5939 18.3751C22.5939 17.5995 23.2246 16.9689 24.0002 16.9689Z" fill="white"/>
</svg>
