<svg width="55" height="55" viewBox="0 0 55 55" fill="none" xmlns="http://www.w3.org/2000/svg">
<path d="M39.5065 48.3334V31.0068C39.5065 28.9062 38.1594 27.1151 36.2839 26.45V21.5579C36.2839 17.4626 32.9523 14.1309 28.8571 14.1309H10.6496C6.55435 14.1309 3.22266 17.4626 3.22266 21.5579V26.45C1.34729 27.1151 0 28.9062 0 31.0068V48.3334C0 49.2233 0.721445 49.9447 1.61133 49.9447H3.22266V53.3887C3.22266 54.2786 3.9441 55 4.83398 55C5.72387 55 6.44531 54.2786 6.44531 53.3887V49.9447H33.0614V53.3887C33.0614 54.2786 33.7829 55 34.6728 55C35.5627 55 36.2841 54.2786 36.2841 53.3887V49.9447H37.8954C38.7852 49.9447 39.5065 49.2233 39.5065 48.3334ZM10.6496 17.3536H28.8572C31.1754 17.3536 33.0613 19.2396 33.0613 21.5579V26.45C31.1859 27.1151 29.8387 28.9062 29.8387 31.0068V32.7634C23.3174 29.6664 16.6764 29.435 9.66786 32.7634V31.0068C9.66786 28.9062 8.32068 27.1151 6.44521 26.45V21.5579C6.44521 19.2396 8.33132 17.3536 10.6496 17.3536ZM29.8387 40.2768H9.66786V36.3801C16.5271 32.6123 22.9796 32.6123 29.8387 36.3801V40.2768ZM9.66786 43.4994H29.8387V46.7221H9.66786V43.4994ZM3.22266 31.0068C3.22266 30.1183 3.9455 29.3955 4.83398 29.3955C5.72247 29.3955 6.44531 30.1183 6.44531 31.0068V46.7221H3.22266V31.0068ZM36.284 46.7221H33.0613V31.0068C33.0613 30.1183 33.7841 29.3955 34.6727 29.3955C35.5613 29.3955 36.284 30.1183 36.284 31.0068V46.7221Z" fill="white"/>
<path d="M54.9588 10.6373L52.8103 1.25179C52.6426 0.519277 51.9911 0 51.2397 0H41.8542C41.1028 0 40.4513 0.519277 40.2835 1.25179L38.1351 10.6373C37.9045 11.6455 38.6713 12.6082 39.7058 12.6082H44.9356V51.7773H40.5989C39.709 51.7773 38.9876 52.4988 38.9876 53.3887C38.9876 54.2786 39.709 55 40.5989 55H52.495C53.3849 55 54.1064 54.2786 54.1064 53.3887C54.1064 52.4988 53.3849 51.7773 52.495 51.7773H48.1582V12.6082H53.388C54.4223 12.6082 55.1895 11.6457 54.9588 10.6373ZM41.7276 9.38556L43.1383 3.22266H49.9555L51.3662 9.38556H41.7276Z" fill="white"/>
</svg>
