<svg width="55" height="55" viewBox="0 0 55 55" fill="none" xmlns="http://www.w3.org/2000/svg">
<path d="M54.9716 1.54885C54.9262 0.728896 54.2712 0.0738548 53.4512 0.0289544C53.4298 0.0276955 52.9145 0 52.0253 0C49.5718 0 44.6231 0.205618 39.0491 1.58368C32.0044 3.32514 26.3025 6.33808 22.1016 10.539C20.2732 12.3673 18.6723 14.4751 17.3039 16.8498L15.4689 15.0152C14.9872 14.5334 14.2549 14.4067 13.6397 14.6984L0.921602 20.7221C0.340835 20.9974 -0.0208858 21.5916 0.000934899 22.2341L0.670664 41.6457C0.692484 42.2869 1.09323 42.8538 1.68994 43.0892C1.88171 43.1652 2.08188 43.2017 2.28036 43.2017C2.69999 43.2017 3.11249 43.0376 3.42008 42.7296L14.3292 31.8205L17.6153 35.1062L6.70577 46.0153C6.07675 46.6448 6.07675 47.6649 6.70577 48.2943C7.0205 48.609 7.43299 48.7664 7.84507 48.7664C8.25756 48.7664 8.67006 48.609 8.98478 48.2943L19.8939 37.3848L23.1796 40.6705L12.2709 51.58C11.8169 52.0336 11.6759 52.7134 11.9109 53.3102C12.1463 53.9073 12.7132 54.3076 13.3544 54.3299L32.766 54.9992C32.7849 55 32.8034 55 32.8218 55C33.4429 55 34.0106 54.6425 34.278 54.0785L40.3026 41.3608C40.5942 40.7452 40.4671 40.0129 39.9858 39.5312L38.1503 37.6966C40.5254 36.3277 42.6332 34.7269 44.4611 32.899C47.1337 30.2263 49.3494 26.9024 51.0459 23.0192C52.3883 19.9475 53.4114 16.5191 54.0861 12.8298C55.2313 6.56972 54.9825 1.75111 54.9716 1.54885ZM3.25852 23.1812L13.9931 18.0965L15.7572 19.8611C14.5361 22.5417 13.5676 25.5047 12.8559 28.7362L3.76333 37.8288L3.25852 23.1812ZM36.904 41.0075L31.8189 51.742L17.1713 51.2368L26.2634 42.1442C29.4954 41.4325 32.4584 40.464 35.139 39.2429L36.904 41.0075ZM50.9016 12.3279C49.9138 17.6832 47.5987 25.2038 42.1825 30.6199C40.1469 32.6556 37.7076 34.3823 34.886 35.7919C34.7966 35.8263 34.7106 35.8699 34.6271 35.9211C32.0518 37.1796 29.1627 38.1775 25.9743 38.9076L22.1729 35.1062L27.7271 29.552C28.3566 28.9225 28.3566 27.9024 27.7271 27.273C27.0981 26.6435 26.0775 26.644 25.4485 27.273L19.8939 32.8272L16.0925 29.0258C16.8222 25.8378 17.8205 22.9491 19.079 20.3739C19.1302 20.2903 19.1738 20.2035 19.2086 20.1137C20.6182 17.2925 22.3445 14.8532 24.3801 12.8176C33.116 4.08174 47.2474 3.25129 51.7757 3.22317C51.7635 5.06241 51.6225 8.42322 50.9016 12.3279Z" fill="white"/>
<path d="M37.9669 23.378C39.6614 23.378 41.2547 22.7179 42.4536 21.5194C44.9269 19.0457 44.9269 15.0206 42.4532 12.5473C41.2547 11.3489 39.6618 10.6888 37.9669 10.6888C36.272 10.6888 34.6791 11.3489 33.4807 12.5473C32.2822 13.7454 31.6221 15.3387 31.6221 17.0336C31.6221 18.7285 32.2822 20.3214 33.4807 21.5199C34.6791 22.7179 36.272 23.378 37.9669 23.378ZM35.7597 14.8259C36.3492 14.2364 37.1331 13.9116 37.9669 13.9116C38.8007 13.9116 39.5846 14.2364 40.1746 14.8259C41.3915 16.0429 41.3915 18.0235 40.1746 19.2409C39.585 19.8304 38.8007 20.1552 37.9669 20.1552C37.1331 20.1552 36.3492 19.8304 35.7592 19.2409C35.1697 18.6513 34.8449 17.8674 34.8449 17.0336C34.8449 16.1994 35.1697 15.4155 35.7597 14.8259Z" fill="white"/>
</svg>
