<svg width="42" height="45" viewBox="0 0 42 45" fill="none" xmlns="http://www.w3.org/2000/svg">
<path d="M39.494 11.2136H39.0379C38.7683 10.2666 38.3916 9.35802 37.9128 8.499L38.237 8.17469C38.608 7.80389 38.8121 7.30934 38.8121 6.7821C38.8121 6.25485 38.608 5.76039 38.2367 5.38915L36.0764 3.2314C35.7054 2.85814 35.2103 2.65265 34.6821 2.65265C34.1539 2.65265 33.6587 2.85814 33.2896 3.22955L32.9657 3.55342C32.106 3.07311 31.1971 2.69572 30.2507 2.42616V1.97011C30.2508 0.883807 29.3671 0 28.2807 0H25.2264C24.1401 0 23.2563 0.883807 23.2563 1.97011V2.42616C22.3101 2.69563 21.4006 3.07311 20.5392 3.55377L20.2168 3.2314C19.8457 2.85814 19.3505 2.65265 18.8224 2.65274C18.2943 2.65274 17.7991 2.85831 17.43 3.22964L15.2701 5.38959C14.8991 5.76039 14.695 6.25494 14.695 6.78218C14.695 7.30943 14.8991 7.80389 15.27 8.17469L15.5942 8.49891C15.1133 9.36057 14.7365 10.2693 14.4683 11.2136H14.0105C12.9242 11.2136 12.0404 12.0974 12.0404 13.1837V16.2407C12.0404 17.327 12.9242 18.2108 14.0105 18.2108H14.4683C14.7365 19.155 15.1133 20.0637 15.5942 20.9255L15.27 21.2497C14.899 21.6205 14.6949 22.115 14.6949 22.6423C14.6949 23.1694 14.899 23.664 15.2699 24.0348L17.4281 26.193C17.7991 26.5662 18.2942 26.7717 18.8223 26.7717C19.3504 26.7717 19.8458 26.5662 20.215 26.1948L20.5391 25.8706C21.4014 26.3517 22.3109 26.7287 23.2562 26.9967V27.4544C23.2562 28.5407 24.14 29.4245 25.2263 29.4245H28.2806C29.3669 29.4245 30.2507 28.5407 30.2507 27.4544V26.9967C31.1963 26.7286 32.1051 26.3518 32.9657 25.871L33.2877 26.193C33.6587 26.5662 34.1539 26.7717 34.682 26.7717C35.2102 26.7717 35.7054 26.5662 36.0742 26.1952L38.237 24.0348C38.6079 23.6639 38.812 23.1694 38.812 22.6422C38.812 22.115 38.6079 21.6205 38.237 21.2497L37.9127 20.9254C38.3915 20.0664 38.7681 19.1578 39.0378 18.2108H39.494C40.5803 18.2108 41.4641 17.327 41.4641 16.2407V13.1837C41.4642 12.0974 40.5804 11.2136 39.494 11.2136ZM28.493 27.4543C28.493 27.5694 28.3958 27.6666 28.2807 27.6666H25.2264C25.1113 27.6666 25.0141 27.5694 25.0141 27.4543V20.7725C25.0141 20.4049 24.7854 20.0762 24.4408 19.9484C22.0791 19.0725 20.4924 16.7995 20.4924 14.2924C20.4924 12.3055 21.4817 10.443 23.1384 9.31056C23.2128 9.25976 23.2785 9.21828 23.336 9.18427C23.3328 9.29852 23.3247 9.40715 23.3204 9.46384C23.3139 9.55305 23.3086 9.62345 23.3086 9.69332V13.8414C23.3086 15.7453 24.7963 17.3354 26.6953 17.4613C26.734 17.4639 26.7729 17.4639 26.8116 17.4613C28.7093 17.3355 30.1959 15.7454 30.1959 13.8414V9.69332C30.1959 9.6238 30.1907 9.55384 30.1842 9.46516C30.18 9.40821 30.1719 9.29896 30.1688 9.18418C30.2261 9.2181 30.2915 9.2595 30.3656 9.31021C32.0227 10.4429 33.0121 12.3055 33.0121 14.2923C33.0121 16.7992 31.4262 19.0723 29.0659 19.9484C28.7215 20.0763 28.4929 20.4049 28.4929 20.7724L28.493 27.4543ZM39.7064 16.2407C39.7064 16.3538 39.6072 16.453 39.494 16.453H38.3555C37.9449 16.453 37.589 16.7373 37.4984 17.1378C37.22 18.3677 36.7379 19.5306 36.0655 20.5943C35.846 20.9416 35.8964 21.3948 36.187 21.6854L36.9942 22.4926C37.0466 22.545 37.0544 22.6088 37.0544 22.6422C37.0544 22.6755 37.0466 22.7394 36.9945 22.7914L34.8299 24.9537C34.7804 25.0034 34.7221 25.0139 34.6821 25.0139C34.6421 25.0139 34.5839 25.0034 34.5326 24.9517L33.7253 24.1445C33.4343 23.8536 32.9807 23.8035 32.6334 24.0235C31.8832 24.4989 31.0846 24.8762 30.2508 25.1549V21.357C32.9775 20.0881 34.77 17.3228 34.77 14.2923C34.77 11.7244 33.4943 9.31944 31.3578 7.85899C31.0305 7.63532 30.0351 6.9548 29.1646 7.45585C28.3098 7.94803 28.395 9.10174 28.4312 9.59444C28.4344 9.63724 28.4375 9.67319 28.4382 9.69332V13.8414C28.4382 14.8034 27.7029 15.61 26.7535 15.7027C25.8029 15.6099 25.0664 14.8033 25.0664 13.8414L25.0663 9.69965C25.0671 9.67319 25.0703 9.63724 25.0735 9.59427C25.1101 9.10183 25.196 7.94873 24.3419 7.45629C23.4717 6.95436 22.4749 7.63514 22.147 7.85899C20.0102 9.31953 18.7346 11.7245 18.7346 14.2923C18.7346 17.3234 20.5281 20.0888 23.2563 21.3574V25.155C22.4223 24.8762 21.6228 24.4988 20.8704 24.0232C20.7257 23.9318 20.5629 23.8872 20.401 23.8872C20.1739 23.8872 19.9488 23.975 19.7792 24.1447L18.9703 24.9537C18.9208 25.0035 18.8626 25.014 18.8225 25.014C18.7824 25.014 18.7243 25.0035 18.673 24.9519L16.513 22.7919C16.4606 22.7395 16.4527 22.6756 16.4527 22.6423C16.4527 22.6089 16.4606 22.5451 16.513 22.4926L17.3202 21.6854C17.6108 21.3948 17.6612 20.9416 17.4417 20.5943C16.7658 19.525 16.2838 18.3626 16.0092 17.1393C15.9192 16.7381 15.5629 16.4529 15.1516 16.4529H14.0107C13.8976 16.4529 13.7983 16.3537 13.7983 16.2406V13.1836C13.7983 13.0685 13.8955 12.9713 14.0107 12.9713H15.1516C15.5629 12.9713 15.9191 12.6861 16.0092 12.2849C16.2838 11.0617 16.7657 9.89915 17.4417 8.8299C17.6612 8.48256 17.6108 8.02941 17.3202 7.73885L16.5129 6.93159C16.4606 6.87921 16.4527 6.81541 16.4527 6.78201C16.4527 6.74861 16.4606 6.6848 16.513 6.63233L18.6748 4.47045C18.7243 4.42071 18.7825 4.41025 18.8226 4.41025C18.8626 4.41025 18.9208 4.42071 18.9722 4.4723L19.7793 5.27955C20.0701 5.5702 20.5232 5.62056 20.8705 5.40102C21.9384 4.72586 23.1021 4.24291 24.329 3.9658C24.7297 3.87527 25.0142 3.51923 25.0142 3.10853V1.97011C25.0142 1.85498 25.1114 1.75777 25.2266 1.75777H28.2809C28.396 1.75777 28.4932 1.85498 28.4932 1.97011V3.10871C28.4932 3.5195 28.7777 3.87545 29.1784 3.96597C30.4064 4.24335 31.5688 4.72603 32.6336 5.40075C32.981 5.62082 33.4345 5.57073 33.7255 5.27982L34.5345 4.47072C34.584 4.42097 34.6422 4.41051 34.6822 4.41051C34.7223 4.41051 34.7805 4.42097 34.8322 4.47291L36.9944 6.6326C37.0468 6.68498 37.0546 6.74879 37.0546 6.78218C37.0546 6.81558 37.0468 6.87939 36.9943 6.93186L36.1872 7.73911C35.8966 8.02967 35.8461 8.48283 36.0657 8.83016C36.738 9.89388 37.2202 11.0567 37.4985 12.2866C37.5891 12.6872 37.9451 12.9715 38.3557 12.9715H39.4942C39.6094 12.9715 39.7066 13.0687 39.7066 13.1838L39.7064 16.2407Z" fill="#F84E1D"/>
<path d="M31.8746 38.6992C31.5313 39.0424 31.5313 39.5989 31.8746 39.9422C32.0462 40.1138 32.2711 40.1997 32.496 40.1997C32.7209 40.1997 32.9459 40.1138 33.1175 39.9422L33.12 39.9398C33.4632 39.5966 33.462 39.0413 33.1187 38.698C32.7753 38.3548 32.2178 38.3562 31.8746 38.6992Z" fill="#F84E1D"/>
<path d="M35.9461 30.1853L28.9685 33.7686C28.377 33.1561 27.5482 32.7739 26.6315 32.7739H21.8507C21.583 32.7739 21.5176 32.7526 21.5132 32.7511C21.4744 32.7308 21.3519 32.6156 21.2536 32.5232L21.21 32.4822C17.3422 28.8413 14.0749 29.072 10.3594 30.5383C9.75827 30.7756 9.74667 30.7761 9.14296 30.8019L8.06193 30.8027C7.75397 29.8736 6.87754 29.2012 5.84652 29.2012H2.33133C1.04579 29.2012 0 30.2483 0 31.5351V40.7607C0 42.0462 1.04579 43.092 2.33133 43.092H5.84652C6.87746 43.092 7.75379 42.4205 8.06184 41.4925H10.0393C10.214 41.4925 10.214 41.4925 10.4171 41.5498C10.4909 41.5706 10.5807 41.5959 10.6967 41.6271L19.7927 44.0606C20.1936 44.1688 20.5614 44.2754 20.917 44.3785C22.0824 44.7161 23.062 45 24.0831 45C25.237 45 26.4436 44.6374 28.0307 43.5797C28.0383 43.5746 28.0459 43.5694 28.0535 43.564L29.79 42.3257C30.1852 42.0439 30.2772 41.4951 29.9953 41.0999C29.7135 40.7045 29.1645 40.6127 28.7695 40.8946L27.0445 42.1246C24.7415 43.6564 23.7636 43.3732 21.4062 42.6901C21.0431 42.5849 20.6676 42.4761 20.2492 42.3631L11.1525 39.9295C11.046 39.9009 10.9624 39.8773 10.8939 39.858C10.562 39.7645 10.4379 39.7349 10.0394 39.7349H8.1804V32.5611H9.13022C9.14287 32.5611 9.15535 32.5609 9.16801 32.5603L9.21811 32.5582C9.95487 32.5268 10.161 32.5066 11.0049 32.1735C14.2681 30.8857 16.787 30.7327 20.0063 33.7634L20.0498 33.8042C20.6 34.3213 20.9169 34.5319 21.8508 34.5319H26.6316C27.1926 34.5319 27.6819 34.8433 27.937 35.3022C27.9397 35.3073 27.9429 35.3121 27.9457 35.3172C28.0596 35.5279 28.1244 35.7689 28.1244 36.0248C28.1244 36.8467 27.4548 37.5152 26.6316 37.5152H18.8837C18.3983 37.5152 18.0048 37.9087 18.0048 38.3941C18.0048 38.8795 18.3983 39.273 18.8837 39.273H26.6316C28.424 39.273 29.8822 37.8159 29.8822 36.0248C29.8822 35.7814 29.8544 35.5444 29.8035 35.3162L36.7491 31.7492C37.4065 31.4117 38.3054 31.4479 38.7517 32.1721C39.1465 32.8105 38.9294 33.6589 38.2469 34.1455L35.2001 36.3155C34.8047 36.5971 34.7124 37.1458 34.994 37.5412C35.1654 37.782 35.436 37.9104 35.7106 37.9104C35.887 37.9104 36.0651 37.8574 36.2197 37.7473L39.2669 35.5771C40.714 34.5454 41.1352 32.6841 40.2473 31.2488C39.3743 29.8318 37.5253 29.3746 35.9461 30.1853ZM6.42255 40.7607C6.42255 41.0716 6.15879 41.3343 5.84652 41.3343H2.33133C2.02038 41.3343 1.75777 41.0716 1.75777 40.7607V31.5352C1.75777 31.2176 2.01511 30.9591 2.33133 30.9591H5.84652C6.15879 30.9591 6.42255 31.2229 6.42255 31.5352V40.7607Z" fill="#F84E1D"/>
</svg>
