<svg width="40" height="40" viewBox="0 0 40 40" fill="none" xmlns="http://www.w3.org/2000/svg">
<path d="M28.822 3.14254C25.5198 0.458609 21.2036 -0.574394 16.9793 0.308425C11.7003 1.41167 7.39344 5.73801 6.26219 11.0741C5.30836 15.5735 6.48375 20.0907 9.48703 23.4675C10.9766 25.1424 11.7969 27.2375 11.7969 29.3731V31.7172C11.7969 33.2452 12.7766 34.5481 14.1406 35.0319V36.4837C14.1406 38.4226 15.7177 40 17.6562 40H22.3438C24.2823 40 25.8594 38.4226 25.8594 36.4837V35.0319C27.2234 34.5481 28.2031 33.2452 28.2031 31.7172V29.3731C28.2031 27.2649 29.0478 25.14 30.5814 23.39C32.8262 20.8285 34.0625 17.542 34.0625 14.1359C34.0625 9.85643 32.1524 5.84944 28.822 3.14254ZM23.5156 36.4837C23.5156 37.13 22.9899 37.6558 22.3438 37.6558H17.6562C17.0101 37.6558 16.4844 37.13 16.4844 36.4837V35.2335H23.5156V36.4837ZM25.8594 31.7172C25.8594 32.3635 25.3337 32.8893 24.6875 32.8893H15.3125C14.6663 32.8893 14.1406 32.3635 14.1406 31.7172V30.5451H25.8594V31.7172ZM20 19.893C20.7913 19.893 21.5825 19.7664 22.3438 19.5152V28.201H17.6562V19.5152C18.4175 19.7664 19.2086 19.893 20 19.893ZM18.041 17.1592L20 13.2405L21.959 17.1591C20.7032 17.6759 19.2968 17.6759 18.041 17.1592ZM28.8189 21.8449C27.1895 23.7042 26.185 25.9252 25.9262 28.201H24.6875V17.6604C24.6875 17.6588 24.6875 17.6573 24.6875 17.6557C24.6875 17.4958 24.6529 17.3196 24.5749 17.1541C24.5709 17.1455 24.568 17.1365 24.5637 17.1281L21.0481 10.0955C20.8496 9.69843 20.4438 9.4476 19.9999 9.4476C19.556 9.4476 19.1503 9.69843 18.9517 10.0955L15.4361 17.1281C15.3585 17.2836 15.3124 17.4727 15.3124 17.6549C15.3124 17.657 15.3124 17.659 15.3124 17.6611V28.201H14.0767C13.8255 25.9094 12.8397 23.7103 11.2382 21.9096C8.73531 19.0953 7.75727 15.3232 8.555 11.5603C9.49656 7.11889 13.0747 3.51925 17.4587 2.60306C20.989 1.86527 24.592 2.72504 27.3439 4.96178C30.1242 7.22157 31.7188 10.5654 31.7188 14.1359C31.7188 16.9733 30.6889 19.711 28.8189 21.8449Z" fill="#F84E1D"/>
<path d="M3.51562 14.1359H1.17188C0.524687 14.1359 0 14.6607 0 15.308C0 15.9553 0.524687 16.4801 1.17188 16.4801H3.51562C4.16281 16.4801 4.6875 15.9553 4.6875 15.308C4.6875 14.6607 4.16281 14.1359 3.51562 14.1359Z" fill="#F84E1D"/>
<path d="M4.00102 8.27543L2.34375 6.61786C1.88609 6.16012 1.14414 6.16012 0.686484 6.61786C0.228828 7.0756 0.228828 7.81769 0.686484 8.27543L2.34375 9.933C2.80148 10.3908 3.54344 10.3907 4.00102 9.933C4.45867 9.47526 4.45867 8.73317 4.00102 8.27543Z" fill="#F84E1D"/>
<path d="M4.00102 20.6829C3.54336 20.2252 2.80141 20.2252 2.34375 20.6829L0.686484 22.3405C0.228906 22.7983 0.228906 23.5403 0.686484 23.9981C1.14406 24.4557 1.88602 24.4558 2.34375 23.9981L4.00102 22.3405C4.45859 21.8828 4.45859 21.1407 4.00102 20.6829Z" fill="#F84E1D"/>
<path d="M38.8281 14.1359H36.4844C35.8372 14.1359 35.3125 14.6607 35.3125 15.308C35.3125 15.9553 35.8372 16.4801 36.4844 16.4801H38.8281C39.4753 16.4801 40 15.9553 40 15.308C40 14.6607 39.4753 14.1359 38.8281 14.1359Z" fill="#F84E1D"/>
<path d="M39.3135 6.61786C38.8559 6.16012 38.1139 6.16012 37.6562 6.61786L35.999 8.27543C35.5413 8.73317 35.5413 9.47526 35.999 9.933C36.4566 10.3907 37.1986 10.3907 37.6562 9.933L39.3135 8.27543C39.7712 7.81769 39.7712 7.0756 39.3135 6.61786Z" fill="#F84E1D"/>
<path d="M39.3135 22.3405L37.6562 20.6829C37.1987 20.2252 36.4567 20.2252 35.999 20.6829C35.5412 21.1407 35.5413 21.8828 35.999 22.3405L37.6562 23.9981C38.1138 24.4558 38.8559 24.4558 39.3135 23.9981C39.7712 23.5403 39.7712 22.7983 39.3135 22.3405Z" fill="#F84E1D"/>
</svg>
