<svg width="34" height="40" viewBox="0 0 34 40" fill="none" xmlns="http://www.w3.org/2000/svg">
<path d="M15.0577 19.1311L15.4002 18.7885V21.774C15.4002 22.4199 15.9239 22.9436 16.5698 22.9436C17.2157 22.9436 17.7394 22.4199 17.7394 21.774V18.7885L18.0819 19.1311C18.3104 19.3595 18.6097 19.4737 18.909 19.4737C19.2083 19.4737 19.5077 19.3595 19.736 19.1311C20.1927 18.6744 20.1928 17.9339 19.7361 17.4771L17.3969 15.1378C17.1775 14.9184 16.88 14.7951 16.5698 14.7951C16.2596 14.7951 15.9621 14.9183 15.7428 15.1378L13.4036 17.4771C12.9469 17.9339 12.947 18.6744 13.4036 19.1311C13.8604 19.5879 14.6008 19.5878 15.0577 19.1311Z" fill="#F84E1D"/>
<path d="M31.9671 21.4261L27.678 17.1371L27.6777 6.47776C27.6777 5.83184 27.154 5.30825 26.5081 5.30825H10.8453L10.3637 1.0386C10.297 0.447019 9.79677 0 9.20152 0H1.1696C0.523667 0 0 0.523667 0 1.1696V15.7503C0 16.7088 0.491932 17.8963 1.16967 18.574L5.46185 22.866V31.261C5.46185 33.1958 7.03582 34.7698 8.97064 34.7698H22.3003L22.773 38.9615C22.8397 39.553 23.34 40 23.9352 40H31.9672C32.6132 40 33.1368 39.4763 33.1368 38.8304V24.2497C33.1367 23.2912 32.6448 22.1037 31.9671 21.4261ZM6.18061 9.98585C5.74349 10.1669 5.45858 10.5933 5.45858 11.0664L5.45866 19.5548L2.82364 16.9198C2.58816 16.6844 2.33911 16.0833 2.33911 15.7503V2.33919H8.15637L8.58514 6.141C8.60378 6.30693 8.65789 6.467 8.74358 6.61032C8.75598 6.63106 9.99256 8.69867 10.8535 10.1488C11.0321 10.4496 11.5675 11.4786 10.9579 12.0882C10.737 12.3091 10.4432 12.4308 10.1309 12.4308C9.81852 12.4308 9.5248 12.3091 9.3039 12.0882L7.45516 10.2395C7.12065 9.90491 6.61757 9.80495 6.18061 9.98585ZM10.131 14.7699C11.0682 14.7699 11.9493 14.4049 12.6121 13.7421C13.81 12.5441 13.9069 10.7096 12.865 8.95458C12.6234 8.54771 12.3525 8.09251 12.0871 7.64744H25.3384L25.3388 26.1182C24.6956 25.5441 23.8747 25.2302 23.0056 25.2302C22.0685 25.2302 21.1873 25.5952 20.5244 26.258C20.0968 26.6857 19.8102 27.1949 19.665 27.7523H8.97056C8.5605 27.7523 8.16705 27.8237 7.80097 27.9535L7.79777 13.882C8.44097 14.456 9.26195 14.7699 10.131 14.7699ZM8.97056 32.4306C8.32565 32.4306 7.80097 31.9059 7.80097 31.261C7.80097 30.6161 8.32565 30.0914 8.97056 30.0914H19.819C19.9331 30.4092 20.0836 30.7286 20.2717 31.0455C20.5273 31.4761 20.816 31.961 21.096 32.4306H8.97056ZM30.7976 37.6609H24.9803L24.5515 33.8591C24.5328 33.6932 24.4788 33.5332 24.3931 33.3898C24.3807 33.3691 23.1441 31.3016 22.2831 29.8513C22.1045 29.5505 21.5691 28.5216 22.1787 27.912C22.3996 27.6911 22.6933 27.5694 23.0057 27.5694C23.3181 27.5694 23.6119 27.691 23.8328 27.9119L25.6815 29.7607C26.0162 30.0952 26.5193 30.1951 26.9561 30.0142C27.3932 29.8331 27.6782 29.4067 27.6782 28.9336L27.6781 20.4452L30.3131 23.0802C30.5486 23.3156 30.7976 23.9167 30.7976 24.2497L30.7976 37.6609Z" fill="#F84E1D"/>
</svg>
