<svg width="80" height="80" viewBox="0 0 80 80" fill="none" xmlns="http://www.w3.org/2000/svg">
<path d="M42.4095 39.013L42.3438 22.8002L37.6562 22.8192L37.73 40.987L54.8845 57.8381L58.1694 54.4942L42.4095 39.013Z" fill="white"/>
<path d="M68.2844 11.7156C60.7292 4.16078 50.6844 0 40 0C29.3156 0 19.2708 4.16078 11.7156 11.7158C4.16078 19.2708 0 29.3158 0 40C0 50.6842 4.16078 60.7292 11.7158 68.2842C19.2708 75.8392 29.3156 80 40 80C50.6844 80 60.7292 75.8394 68.2844 68.2844C75.8392 60.7292 80 50.6842 80 40C80 29.3156 75.8392 19.2708 68.2844 11.7156ZM66.5716 63.257L62.1477 58.8331L58.8331 62.1478L63.257 66.5716C57.4027 71.7102 50.1169 74.728 42.3438 75.2341V68.9778H37.6562V75.2341C29.883 74.728 22.5973 71.7102 16.743 66.5714L21.1667 62.1477L17.8522 58.8331L13.4284 63.2569C8.28984 57.4025 5.27203 50.1169 4.76594 42.3438H11.0222V37.6562H4.76594C5.27203 29.8831 8.28984 22.5973 13.4286 16.743L17.8523 21.1667L21.1669 17.8522L16.7431 13.4284C22.5973 8.28984 29.883 5.27203 37.6562 4.76594V10.6553H42.3438V4.76594C50.1169 5.27203 57.4027 8.28984 63.257 13.4284L59.0925 17.593L62.407 20.9075L66.5716 16.743C71.7103 22.5973 74.7281 29.883 75.2341 37.6562H68.978V42.3438H75.2341C74.7281 50.1169 71.7103 57.4027 66.5716 63.257Z" fill="white"/>
</svg>
