<svg width="51" height="50" viewBox="0 0 51 50" fill="none" xmlns="http://www.w3.org/2000/svg">
<path d="M46.3498 48.535L44.8571 44.0569H47.2812L48.7839 32.0407C48.9053 31.0699 48.6415 30.1098 48.0407 29.3374C47.4401 28.565 46.5746 28.0728 45.6037 27.9514C44.7449 27.844 43.9177 28.0453 43.2326 28.4673L42.9025 24.8336C42.791 23.6077 42.22 22.5362 41.3676 21.7793V12.552H43.0933V19.1515H44.5585V12.552H48.3606L46.1235 0.989111H35.1465L32.9095 12.5519H39.9024V20.9018C39.3976 20.7157 38.8518 20.6136 38.2817 20.6136H27.9388C26.9599 20.6136 26.0396 20.9949 25.3476 21.6875C25.2227 21.8126 25.1082 21.9452 25.004 22.0842C24.3353 21.1919 23.2696 20.6136 22.0713 20.6136H11.7211C9.30366 20.6136 7.31703 22.4293 7.09999 24.837L6.77296 28.4654C6.08949 28.0456 5.26516 27.8449 4.40919 27.9511C2.40469 28.1997 0.976217 30.0327 1.22481 32.0371L2.71551 44.0567H5.15517L3.66252 48.5348H0V50H50.0123V48.5348L46.3498 48.535ZM36.3554 2.45431H44.9146L46.5847 11.0868H34.6853L36.3554 2.45431ZM45.4219 29.4054C46.0045 29.4782 46.5238 29.7735 46.8841 30.2369C47.2444 30.7004 47.4029 31.2764 47.33 31.8589L45.9877 42.5917H42.1935V37.5092L42.9684 31.3134C43.1188 30.1109 44.22 29.2547 45.4219 29.4054ZM9.18917 36.7309L9.05701 35.6657C9.01355 35.3137 9.11894 34.9734 9.35386 34.7075C9.58888 34.4415 9.91387 34.295 10.2688 34.295H23.0481C23.7214 34.295 24.2691 34.8427 24.2691 35.516V36.7309H9.18917ZM40.814 36.7309H25.7449V35.516C25.7449 34.8427 26.2926 34.295 26.9659 34.295H38.6291C39.2593 34.295 39.8598 34.5658 40.2768 35.0383C40.6861 35.502 40.8809 36.1171 40.814 36.7309ZM8.55933 24.9685C8.70781 23.3212 10.0671 22.0789 11.7211 22.0789H22.0713C23.2832 22.0789 24.2691 23.0649 24.2691 24.2767V28.4251H25.7343V24.2784H25.741C25.7406 23.6911 25.9689 23.1388 26.3841 22.7233C26.7994 22.3077 27.3515 22.0789 27.9388 22.0789H38.2816C39.9343 22.0789 41.2936 23.3201 41.4432 24.9662L41.8924 29.9092C41.7004 30.2813 41.5694 30.6926 41.5145 31.1317L41.1733 33.8596C40.4933 33.2027 39.5819 32.83 38.629 32.83H26.9658C26.5222 32.83 26.1035 32.9386 25.7343 33.1298V29.8841H24.2691V33.124C23.9025 32.9361 23.4875 32.8298 23.0481 32.8298H10.2688C9.727 32.8298 9.20334 32.9944 8.7627 33.2927L8.49516 31.1356C8.44036 30.6935 8.3082 30.2795 8.1144 29.9052L8.55933 24.9685ZM2.67898 31.857C2.52982 30.6543 3.38697 29.5545 4.58961 29.4054C5.79225 29.2559 6.89213 30.1133 7.04128 31.3159L7.80934 37.5088V42.5917H4.01036L2.67898 31.857ZM16.2271 44.0569V42.5917H9.27445V38.1961H40.7284V42.5917H17.7453V44.0569H43.3126L44.7758 48.4465H42.7061L41.7293 45.5161H8.283L7.30619 48.4465H5.23654L6.6997 44.0569H16.2271ZM9.33911 46.9812H40.6732L41.1911 48.5349H8.82121L9.33911 46.9812Z" fill="white"/>
<path d="M24.9695 0H17.6801V1.4652H23.5043V16.2699H1.52625V1.4652H16.1824V0H0.0610502V17.7351H24.9695V0Z" fill="white"/>
<path d="M3.2845 14.5117H21.7461V3.22345H3.2845V14.5117ZM4.7497 13.0465V9.93457C5.37036 9.33501 7.54561 7.51904 10.563 8.14712C11.7282 8.38966 12.8241 8.84016 13.884 9.27582C15.9691 10.133 18.1139 11.014 20.2809 9.87411V13.0466L4.7497 13.0465ZM4.7497 4.68865H20.2809V8.12426C18.5676 9.51045 16.9936 8.96978 14.441 7.9205C13.3194 7.45955 12.1597 6.98277 10.8615 6.71259C10.314 6.5986 9.7904 6.54858 9.29262 6.54858C7.32192 6.54858 5.75923 7.33354 4.74961 8.0429L4.7497 4.68865Z" fill="white"/>
<path d="M12.9426 26.5202H14.4078V27.9854H12.9426V26.5202Z" fill="white"/>
<path d="M18.1197 26.5202H19.5849V27.9854H18.1197V26.5202Z" fill="white"/>
<path d="M30.5251 26.5202H31.9903V27.9854H30.5251V26.5202Z" fill="white"/>
<path d="M35.7021 26.5202H37.1673V27.9854H35.7021V26.5202Z" fill="white"/>
</svg>
