<svg width="50" height="50" viewBox="0 0 50 50" fill="none" xmlns="http://www.w3.org/2000/svg">
<path d="M28.3197 20.0041L25.7044 18.1857V5.95703C25.7044 4.74551 24.7188 3.75977 23.5071 3.75977C22.2955 3.75977 21.3099 4.74551 21.3099 5.95703C21.3099 7.55312 20.53 9.05352 19.2236 9.97051L9.29004 16.9434H0.732422C0.32793 16.9434 0 17.2712 0 17.6758V32.3242C0 32.7288 0.32793 33.0566 0.732422 33.0566H9.29004L12.9631 35.635C13.0911 35.7248 13.2379 35.768 13.3833 35.768C13.6139 35.768 13.8409 35.6594 13.9834 35.4562C14.2158 35.1252 14.1358 34.6685 13.8047 34.436L10.2539 31.9435V18.0565L20.0652 11.1694C20.535 10.8397 20.952 10.4518 21.3099 10.0193V39.9808C20.952 39.5483 20.535 39.1604 20.0652 38.8307L16.2027 36.1193C15.8717 35.887 15.4148 35.9668 15.1824 36.298C14.95 36.6291 15.03 37.0858 15.3611 37.3183L19.2236 40.0296C20.53 40.9466 21.3099 42.447 21.3099 44.0431C21.3099 45.2546 22.2955 46.2403 23.5071 46.2403C24.7188 46.2403 25.7044 45.2546 25.7044 44.0431V31.8143L28.3197 29.9959C28.5167 29.859 28.6341 29.6344 28.6341 29.3945V20.6055C28.6341 20.3656 28.5167 20.141 28.3197 20.0041ZM8.78906 31.5918H4.39453V18.4082H8.78906V31.5918ZM1.46484 18.4082H2.92969V31.5918H1.46484V18.4082ZM24.2395 44.043C24.2395 44.4469 23.911 44.7754 23.5071 44.7754C23.1032 44.7754 22.7747 44.4469 22.7747 44.043V5.95703C22.7747 5.55312 23.1032 5.22461 23.5071 5.22461C23.911 5.22461 24.2395 5.55312 24.2395 5.95703V44.043ZM27.1692 29.0117L25.7044 30.0301V19.9698L27.1692 20.9882V29.0117Z" fill="white"/>
<path d="M49.2676 0H40.4785C40.074 0 39.7461 0.327832 39.7461 0.732422V6.20117C39.7461 6.60576 40.074 6.93359 40.4785 6.93359C40.883 6.93359 41.2109 6.60576 41.2109 6.20117V1.46484H42.6758V48.5352H41.2109V9.13086C41.2109 8.72627 40.883 8.39844 40.4785 8.39844C40.074 8.39844 39.7461 8.72627 39.7461 9.13086V49.2676C39.7461 49.6722 40.074 50 40.4785 50H49.2676C49.6721 50 50 49.6722 50 49.2676V0.732422C50 0.327832 49.6721 0 49.2676 0ZM48.5352 1.46484V6.93359H44.1406V1.46484H48.5352ZM44.1406 36.1328H48.5352V41.6016H44.1406V36.1328ZM44.1406 34.668V29.1992H48.5352V34.668H44.1406ZM44.1406 27.7344V22.2656H48.5352V27.7344H44.1406ZM44.1406 20.8008V15.332H48.5352V20.8008H44.1406ZM44.1406 13.8672V8.39844H48.5352V13.8672H44.1406ZM44.1406 48.5352V43.0664H48.5352V48.5352H44.1406Z" fill="white"/>
<path d="M31.3492 22.4104C31.0632 22.1245 30.5994 22.1245 30.3135 22.4104C30.0274 22.6966 30.0274 23.1603 30.3135 23.4463C31.1701 24.3029 31.1701 25.6969 30.3135 26.5535C30.0274 26.8396 30.0274 27.3033 30.3135 27.5894C30.4564 27.7323 30.6439 27.8038 30.8313 27.8038C31.0188 27.8038 31.2062 27.7323 31.3492 27.5894C32.7771 26.1617 32.7771 23.8383 31.3492 22.4104Z" fill="white"/>
<path d="M34.4566 18.2673C34.1706 18.5534 34.1706 19.0171 34.4566 19.3031C35.9783 20.8248 36.8164 22.848 36.8164 25C36.8164 27.152 35.9783 29.1752 34.4566 30.6969C34.1706 30.983 34.1706 31.4467 34.4566 31.7327C34.5996 31.8757 34.7871 31.9472 34.9745 31.9472C35.1619 31.9472 35.3494 31.8757 35.4924 31.7327C37.2908 29.9343 38.2812 27.5433 38.2812 25C38.2812 22.4567 37.2908 20.0657 35.4924 18.2673C35.2064 17.9813 34.7427 17.9813 34.4566 18.2673Z" fill="white"/>
<path d="M33.4208 20.339C33.1348 20.053 32.671 20.0529 32.3851 20.3391C32.099 20.6251 32.099 21.0889 32.3851 21.3748C33.3534 22.3431 33.8867 23.6306 33.8867 25C33.8867 26.3694 33.3534 27.6569 32.3851 28.6252C32.099 28.9112 32.099 29.375 32.3851 29.6609C32.528 29.804 32.7155 29.8755 32.9029 29.8755C33.0903 29.8755 33.2778 29.804 33.4208 29.661C34.6659 28.416 35.3516 26.7607 35.3516 25C35.3516 23.2393 34.6659 21.584 33.4208 20.339Z" fill="white"/>
</svg>
