<svg width="51" height="50" viewBox="0 0 51 50" fill="none" xmlns="http://www.w3.org/2000/svg">
<path d="M33.9374 15.1513C33.3973 15.1513 32.9589 15.5877 32.9589 16.1275C32.9589 16.6669 33.3973 17.1041 33.9374 17.1041C34.4786 17.1041 34.9158 16.6669 34.9158 16.1275C34.9158 15.5877 34.4786 15.1513 33.9374 15.1513Z" fill="white"/>
<path d="M16.159 32.8946C15.6177 32.8946 15.1805 33.3322 15.1805 33.8712C15.1805 34.4114 15.6177 34.8478 16.159 34.8478C16.699 34.8478 17.1374 34.4114 17.1374 33.8712C17.1374 33.3322 16.699 32.8946 16.159 32.8946Z" fill="white"/>
<path d="M48.8805 6.00787C48.5503 5.93119 48.2032 6.03075 47.9647 6.27108L43.9083 10.3517H41.9635L39.8228 8.13799V6.16999L43.8211 2.11992C44.0577 1.88036 44.154 1.53589 44.0757 1.20821C43.9977 0.880907 43.7561 0.61693 43.4366 0.509355C42.4321 0.171373 41.381 9.26531e-05 40.312 9.26531e-05C37.1251 9.26531e-05 34.2298 1.48325 32.3684 4.06923C30.6262 6.49004 30.0892 9.45674 30.8586 12.296L23.6512 19.4894L11.6435 7.47767V5.12018C11.6435 4.77724 11.4631 4.4591 11.1684 4.28286L4.24986 0.139329C3.86459 -0.0914602 3.37191 -0.0308064 3.05467 0.286195L0.287427 3.04766C-0.029813 3.36466 -0.0905853 3.85637 0.140273 4.2409L4.29114 11.1459C4.46773 11.44 4.78611 11.6197 5.12973 11.6201L7.49106 11.6208L19.4999 23.6325L12.32 30.7985C9.47515 30.0309 6.50112 30.5677 4.07443 32.3076C1.48491 34.1642 0 37.053 0 40.2337C0 41.3003 0.171615 42.3498 0.510259 43.3519C0.618426 43.6727 0.885595 43.9149 1.21583 43.9912C1.54645 44.0679 1.89312 43.9683 2.132 43.728L6.18808 39.6478H8.1435L10.3714 41.8714V43.823L6.28326 47.8712C6.04246 48.1096 5.9427 48.4556 6.01953 48.7855C6.09597 49.1151 6.33868 49.3818 6.66012 49.4897C7.6642 49.8277 8.71568 49.999 9.78436 49.999C12.9713 49.999 15.8654 48.5166 17.7261 45.9321C19.4693 43.5102 20.0071 40.5424 19.2381 37.7031L25.0046 31.9478L26.3255 33.3799L25.7193 33.9845C25.3371 34.366 25.3371 34.9843 25.7193 35.3658C26.1016 35.7469 26.7207 35.7469 27.1033 35.3658L27.6522 34.818L40.046 48.2542C40.0551 48.2641 40.0647 48.2736 40.0742 48.2831C42.3675 50.572 46.0831 50.5727 48.3775 48.2828C50.6655 45.9981 50.6655 42.2807 48.3775 39.9961C48.3676 39.9862 48.3573 39.9766 48.3469 39.9671L34.8635 27.6212L35.4062 27.0795C35.7885 26.6984 35.7885 26.0801 35.4062 25.6986C35.024 25.3171 34.4048 25.3171 34.0222 25.6986L33.4202 26.2998L31.9827 24.983L37.7771 19.1999C38.6008 19.4196 39.4509 19.531 40.312 19.531C45.7074 19.531 50.0963 15.1502 50.0963 9.76573C50.0963 8.69876 49.9247 7.64971 49.5861 6.64721C49.4779 6.32639 49.2107 6.08416 48.8805 6.00787ZM8.58955 9.95455C8.40609 9.77107 8.15726 9.67761 7.89736 9.67761L5.68432 9.67684L2.2115 3.88994L3.89823 2.20652L9.68651 5.67332V7.88203C9.68651 8.14066 9.78933 8.38862 9.97241 8.57173L22.2675 20.8707L20.8835 22.2516L8.58955 9.95455ZM33.4783 29.0036L47.0077 41.3911C48.5189 42.9155 48.5143 45.3836 46.9935 46.9022C45.4692 48.4235 43.0016 48.4281 41.4712 46.9156L29.037 33.4356L33.4783 29.0036ZM32.0351 27.6819L27.7103 31.9974L26.3894 30.5654L30.5976 26.365L32.0351 27.6819ZM40.312 17.5779C39.4562 17.5779 38.6146 17.4409 37.8111 17.1708C37.4591 17.0529 37.07 17.1437 36.8071 17.4058C31.9017 22.3016 21.3319 32.8504 17.4398 36.7353C17.1768 36.9977 17.0855 37.3861 17.2043 37.7378C18.0177 40.1483 17.6286 42.7194 16.1364 44.7927C14.6484 46.8599 12.333 48.0459 9.78436 48.0459C9.49808 48.0459 9.21333 48.0302 8.93125 48.0001L12.0391 44.9224C12.224 44.7393 12.3284 44.4898 12.3284 44.2293V41.4667C12.3284 41.2076 12.2252 40.9593 12.0417 40.7762L9.24046 37.9804C9.057 37.7973 8.80818 37.6943 8.54865 37.6943H5.78064C5.51959 37.6943 5.26962 37.7984 5.08577 37.9831L2.00243 41.0848C1.97185 40.8033 1.95657 40.5191 1.95657 40.2334C1.95657 37.6893 3.14449 35.3788 5.21611 33.8937C7.29307 32.4045 9.86959 32.0157 12.2852 32.8279C12.6372 32.9465 13.0263 32.8554 13.2893 32.5929C13.3432 32.5395 32.6428 13.2772 32.6566 13.2634C32.9195 13.001 33.0105 12.613 32.892 12.2613C32.0783 9.85079 32.4666 7.28045 33.9576 5.20869C35.4468 3.13959 37.7626 1.95322 40.3116 1.95322C40.6067 1.95322 40.8998 1.96962 41.1903 2.00167L38.1471 5.08433C37.9667 5.26705 37.8658 5.5131 37.8658 5.76945V8.53205C37.8658 8.78535 37.964 9.02835 38.1402 9.21031L40.8436 12.0061C41.0279 12.1968 41.2821 12.3044 41.5477 12.3044H44.3157C44.5764 12.3044 44.8263 12.2007 45.0102 12.0156L48.0935 8.91429C48.1241 9.19581 48.1394 9.48001 48.1394 9.76573C48.1394 14.0733 44.628 17.5779 40.312 17.5779Z" fill="white"/>
<path d="M30.4783 18.1989L18.234 30.4193C17.8522 30.8004 17.8522 31.4187 18.234 31.8002C18.6162 32.1817 19.2358 32.1817 19.618 31.8002L31.8623 19.5798C32.2445 19.1987 32.2445 18.5804 31.8623 18.1989C31.4801 17.8174 30.8605 17.8174 30.4783 18.1989Z" fill="white"/>
<path d="M42.843 44.1408C43.2252 44.5211 43.8448 44.5211 44.227 44.1385C44.6085 43.7566 44.6073 43.1383 44.2247 42.7576L35.4051 33.9834C35.0225 33.6027 34.4025 33.6038 34.0215 33.9856C33.6396 34.3679 33.6408 34.9859 34.0234 35.3666L42.843 44.1408Z" fill="white"/>
</svg>
