<svg width="51" height="50" viewBox="0 0 51 50" fill="none" xmlns="http://www.w3.org/2000/svg">
<path d="M49.1285 9.09259H45.5494V5.52353C45.5494 4.98312 45.1111 4.54488 44.5707 4.54488H40.9943V0.978656C40.9943 0.446267 40.548 0 40.0157 0H0.978656C0.438242 0 0 0.438242 0 0.978656V39.9277C0 40.4599 0.445386 40.9074 0.978656 40.9074H4.55505V44.4736C4.55505 45.014 4.9933 45.4523 5.53371 45.4523H9.11285V49.0213C9.11285 49.5618 9.55109 50 10.0915 50H49.1285C49.6689 50 50.1072 49.5618 50.1072 49.0213V10.0712C50.1072 9.53083 49.6689 9.09259 49.1285 9.09259ZM16.3557 38.9502L23.2465 32.0751C24.4986 30.826 25.7505 29.5764 27.0026 28.3273L32.1234 33.4367L26.5976 38.9502H16.3557ZM3.34514 38.9502L13.9908 28.3283L19.1117 33.4357L13.5844 38.9502H3.34514ZM39.037 26.5385L33.5078 32.053L28.3882 26.9447C31.9378 23.4032 35.4876 19.8615 39.037 16.3193V26.5385ZM20.4972 32.0532L15.3761 26.9458L27.0037 15.3441L32.1223 20.4536C30.1863 22.3854 28.2505 24.3172 26.3144 26.2489C26.3128 26.2505 26.3112 26.2517 26.3096 26.2532C26.3082 26.2546 26.307 26.2562 26.3057 26.2576C24.8251 27.7348 23.3447 29.2124 21.864 30.6895L20.4972 32.0532ZM1.95731 16.3199L6.0979 20.453L1.95731 24.5853V16.3199ZM13.9892 15.3428L19.1115 20.4537L13.3255 26.2268C13.3163 26.2352 13.3067 26.2429 13.2978 26.2518L7.48446 32.0533L2.36414 26.9444L8.175 21.1464C8.1795 21.1419 8.18332 21.137 8.18773 21.1324L13.9892 15.3428ZM21.1884 8.16218L27.0024 2.3612L32.1234 7.47086L26.3391 13.2423C26.3295 13.2513 26.3193 13.2594 26.3098 13.2688C26.3011 13.2775 26.2935 13.287 26.2853 13.296L20.4972 19.0713L15.3748 13.9603L21.1739 8.1753C21.1786 8.1707 21.1837 8.16688 21.1884 8.16218ZM6.09839 33.4355L1.95731 37.5692V29.3036L6.09839 33.4355ZM39.037 13.5542C37.1942 15.3935 35.3509 17.2322 33.5078 19.0713L28.3892 13.9618L39.037 3.3377V13.5542ZM33.509 6.08831L29.3689 1.95731H37.6492L33.509 6.08831ZM7.48329 19.0704L2.36414 13.9603L13.9893 2.36101L19.1106 7.46881L7.48329 19.0704ZM39.037 29.3036V38.9502H29.3689L39.037 29.3036ZM24.6356 1.95731L20.4964 6.08645L16.3563 1.95731H24.6356ZM11.6227 1.95731L1.95731 11.6012V1.95731H11.6227ZM48.1499 48.0428H11.0702V45.4524H22.9355C23.4759 45.4524 23.9141 45.0141 23.9141 44.4737C23.9141 43.9333 23.4759 43.4951 22.9355 43.4951H6.51237V40.9075H40.0157C40.5561 40.9075 40.9943 40.4693 40.9943 39.9289V13.9616C40.9943 13.9613 40.9943 13.9609 40.9943 13.9609V6.50219H43.5921V43.4951H31.7267C31.1863 43.4951 30.7481 43.9333 30.7481 44.4737C30.7481 45.0141 31.1863 45.4524 31.7267 45.4524H44.5707C45.1111 45.4524 45.5494 45.0141 45.5494 44.4737V11.0499H48.1499V48.0428Z" fill="white"/>
<path d="M27.3325 43.4952C26.7921 43.4952 26.3538 43.9334 26.3538 44.4738C26.3538 45.0142 26.7921 45.4525 27.3325 45.4525H27.3352C27.8756 45.4525 28.3124 45.0142 28.3124 44.4738C28.3124 43.9334 27.873 43.4952 27.3325 43.4952Z" fill="white"/>
</svg>
