<svg width="70" height="60" viewBox="0 0 70 60" fill="none" xmlns="http://www.w3.org/2000/svg">
<path d="M34.9999 23.4081C41.5586 23.4081 46.8944 18.1577 46.8944 11.704C46.8944 5.2504 41.5586 0 34.9999 0C28.4413 0 23.1054 5.2504 23.1054 11.704C23.1054 18.1577 28.4413 23.4081 34.9999 23.4081ZM34.9999 4.03587C39.297 4.03587 42.7929 7.47578 42.7929 11.704C42.7929 15.9323 39.297 19.3722 34.9999 19.3722C30.7029 19.3722 27.207 15.9323 27.207 11.704C27.207 7.47578 30.7029 4.03587 34.9999 4.03587Z" fill="white" fill-opacity="0.3"/>
<path d="M59.0624 23.4081C63.2087 23.4081 66.5819 20.0888 66.5819 16.009C66.5819 11.9291 63.2087 8.60987 59.0624 8.60987C54.9161 8.60987 51.5429 11.9291 51.5429 16.009C51.5429 20.0888 54.9161 23.4081 59.0624 23.4081ZM59.0624 12.6457C60.9471 12.6457 62.4804 14.1545 62.4804 16.009C62.4804 17.8635 60.9471 19.3722 59.0624 19.3722C57.1777 19.3722 55.6444 17.8635 55.6444 16.009C55.6444 14.1545 57.1777 12.6457 59.0624 12.6457Z" fill="white" fill-opacity="0.3"/>
<path d="M60.7167 27.9821H57.5448C53.8071 27.9821 50.5805 30.155 49.1102 33.2761C46.0832 30.0245 41.7351 27.9821 36.9111 27.9821H33.0889C28.2649 27.9821 23.9169 30.0245 20.8898 33.2761C19.4194 30.155 16.1928 27.9821 12.4551 27.9821H9.28319C4.16445 27.9821 0 32.0551 0 37.0614V51.7534C0 53.9268 1.80386 55.6951 4.02116 55.6951H16.5619C16.7722 58.1031 18.8301 60 21.3311 60H48.6689C51.1698 60 53.2277 58.1031 53.4381 55.6951H65.8356C68.1319 55.6951 70 53.8641 70 51.6135V37.0614C69.9999 32.0551 65.8354 27.9821 60.7167 27.9821ZM4.10155 37.0614C4.10155 34.2804 6.42604 32.0179 9.28319 32.0179H12.4551C15.3122 32.0179 17.6367 34.2804 17.6367 37.0614V38.4432C16.2576 41.9765 16.5429 44.0939 16.5429 51.6592H4.10155V37.0614ZM49.3554 55.2887C49.3554 55.6612 49.0475 55.9641 48.6689 55.9641H21.331C20.9524 55.9641 20.6445 55.661 20.6445 55.2887V44.2631C20.6445 37.511 26.227 32.0179 33.0887 32.0179H36.911C43.7729 32.0179 49.3554 37.511 49.3554 44.2629V55.2887ZM65.8983 51.6135C65.8983 51.683 66.6628 51.6592 53.4569 51.6592C53.4569 44.038 53.7401 41.9707 52.3632 38.4432V37.0614C52.3632 34.2804 54.6877 32.0179 57.5448 32.0179H60.7167C63.5738 32.0179 65.8983 34.2804 65.8983 37.0614V51.6135Z" fill="white" fill-opacity="0.3"/>
<path d="M10.9375 23.4081C15.0837 23.4081 18.457 20.0888 18.457 16.009C18.457 11.9291 15.0837 8.60987 10.9375 8.60987C6.79122 8.60987 3.41796 11.9291 3.41796 16.009C3.41796 20.0888 6.79122 23.4081 10.9375 23.4081ZM10.9375 12.6457C12.8221 12.6457 14.3554 14.1545 14.3554 16.009C14.3554 17.8635 12.8221 19.3722 10.9375 19.3722C9.05282 19.3722 7.51952 17.8635 7.51952 16.009C7.51952 14.1545 9.05282 12.6457 10.9375 12.6457Z" fill="white" fill-opacity="0.3"/>
</svg>
