<svg width="49" height="60" viewBox="0 0 49 60" fill="none" xmlns="http://www.w3.org/2000/svg">
<path d="M48.6322 24.316C48.6322 22.7913 48.0656 21.3327 47.0367 20.2087C46.1277 19.2159 45.7588 17.8286 46.0496 16.4978C46.3738 15.0148 46.134 13.4737 45.3744 12.158C44.6138 10.8405 43.3969 9.86164 41.9479 9.40157C40.6564 8.99154 39.6406 7.97577 39.2306 6.68427C38.7704 5.23527 37.7916 4.0183 36.4742 3.25776C35.1588 2.49828 33.6179 2.25852 32.1344 2.58254C30.8037 2.87339 29.4163 2.50449 28.4235 1.5956C27.2996 0.566593 25.8408 0 24.3161 0C22.7914 0 21.3328 0.566593 20.2088 1.5956C19.216 2.50449 17.8287 2.87363 16.4979 2.58254C15.015 2.25875 13.4738 2.49816 12.1581 3.25776C10.8407 4.0183 9.86176 5.23527 9.40169 6.68439C8.99166 7.97589 7.97589 8.99154 6.68439 9.40169C5.23527 9.86176 4.01841 10.8407 3.25776 12.1581C2.49828 13.4737 2.25852 15.0148 2.58254 16.4979C2.87339 17.8286 2.50449 19.216 1.5956 20.2088C0.566593 21.3327 0 22.7914 0 24.3161C0 25.8408 0.566593 27.2995 1.5956 28.4235C2.50449 29.4163 2.87339 30.8037 2.58254 32.1344C2.2584 33.6174 2.49816 35.1586 3.25776 36.4742C4.0183 37.7916 5.23527 38.7705 6.68439 39.2306C7.1038 39.3637 7.49344 39.5618 7.84335 39.8114L3.85588 49.4381C3.23561 50.9356 3.46776 52.5871 4.47684 53.8555C5.48593 55.1239 7.04262 55.7215 8.64162 55.4538C11.1359 55.0364 13.6963 56.0968 15.1646 58.1557C16.0043 59.3331 17.3072 60 18.7221 60C18.8931 60 19.0661 59.9903 19.2397 59.9705C20.8503 59.7871 22.1821 58.7835 22.8025 57.2859L24.3163 53.6313L25.8301 57.2859C26.4503 58.7835 27.7823 59.7871 29.3927 59.9705C29.5664 59.9903 29.7393 60 29.9104 60C31.3251 60 32.6281 59.3331 33.4678 58.1557C34.9361 56.0967 37.497 55.0363 39.9908 55.4538C41.589 55.7213 43.1462 55.124 44.1554 53.8555C45.1645 52.587 45.3968 50.9356 44.7764 49.4381C44.5907 48.9896 44.0766 48.7767 43.6281 48.9624C43.1796 49.1481 42.9666 49.6622 43.1525 50.1107C43.5246 51.0092 43.3852 52.0001 42.7798 52.7612C42.1744 53.5223 41.2408 53.881 40.2809 53.7203C37.1292 53.1923 33.8923 54.5327 32.0365 57.1352C31.4717 57.9271 30.5578 58.3343 29.5915 58.2241C28.6252 58.114 27.8261 57.5119 27.4538 56.6133L25.2675 51.3348L26.5653 48.2016C27.2437 47.9318 27.8738 47.54 28.4235 47.0367C29.4163 46.1278 30.8039 45.7591 32.1344 46.0497C33.618 46.374 35.1589 46.134 36.4742 45.3745C37.7916 44.614 38.7705 43.397 39.2306 41.9479C39.3024 41.7215 39.394 41.5041 39.5013 41.2963L41.807 46.8628C41.9472 47.2012 42.2744 47.4056 42.6194 47.4056C42.7314 47.4056 42.8454 47.384 42.9553 47.3384C43.4038 47.1527 43.6169 46.6385 43.431 46.1901L40.7888 39.8114C41.1387 39.5618 41.5285 39.3637 41.9479 39.2306C43.3969 38.7705 44.6138 37.7917 45.3744 36.4742C46.1339 35.1585 46.3737 33.6174 46.0496 32.1344C45.7588 30.8035 46.1277 29.4162 47.0367 28.4234C48.0656 27.2993 48.6322 25.8407 48.6322 24.316ZM21.1784 56.6131C20.8062 57.5117 20.0071 58.1138 19.0407 58.2238C18.0748 58.3341 17.1604 57.9269 16.5957 57.135C14.7398 54.5327 11.5042 53.1922 8.35124 53.72C7.39266 53.8806 6.45799 53.5222 5.85249 52.761C5.24699 51.9999 5.10777 51.009 5.47995 50.1105L9.13099 41.2961C9.23833 41.5038 9.32985 41.7211 9.40181 41.9475C9.86188 43.3967 10.8408 44.6135 12.1582 45.3742C13.4738 46.1337 15.015 46.3735 16.498 46.0494C17.8286 45.7583 19.2161 46.1274 20.2089 47.0363C21.3328 48.0653 22.7916 48.6319 24.3163 48.6319C24.373 48.6319 24.4295 48.6296 24.4861 48.628L21.1784 56.6131ZM45.74 27.2364C44.4459 28.65 43.9197 30.6213 44.3323 32.5096C44.5627 33.564 44.3922 34.6598 43.8521 35.5953C43.3111 36.5322 42.4459 37.2281 41.4159 37.5552C39.5809 38.1378 38.1375 39.5811 37.5552 41.4159C37.2281 42.4462 36.532 43.3114 35.5951 43.8522C34.6598 44.3923 33.5639 44.5628 32.5097 44.3324C30.6216 43.9198 28.65 44.4459 27.2364 45.7401C26.4374 46.4716 25.4002 46.8745 24.316 46.8745C23.2318 46.8745 22.1946 46.4716 21.3956 45.7401C20.299 44.7363 18.8672 44.1946 17.3987 44.1946C16.974 44.1946 16.546 44.2399 16.1224 44.3325C15.0679 44.563 13.9722 44.3924 13.0368 43.8523C12.0999 43.3114 11.4039 42.4462 11.0769 41.416C10.4943 39.5811 9.05107 38.1378 7.21618 37.5553C6.186 37.2282 5.32082 36.5323 4.77989 35.5954C4.23978 34.66 4.06927 33.5642 4.29966 32.5099C4.71239 30.6217 4.18611 28.6503 2.89203 27.2366C2.16044 26.4377 1.75767 25.4005 1.75767 24.3163C1.75767 23.2321 2.16044 22.1948 2.89203 21.3959C4.18611 19.9823 4.71239 18.0109 4.29966 16.1226C4.06927 15.0683 4.23978 13.9725 4.77989 13.037C5.32082 12.1001 6.186 11.4042 7.21618 11.0771C9.05107 10.4946 10.4943 9.0513 11.0769 7.21641C11.4039 6.18623 12.0999 5.32105 13.0368 4.78012C13.9723 4.24001 15.0681 4.06962 16.1223 4.29989C18.0103 4.71239 19.9819 4.18634 21.3955 2.89226C22.1945 2.16067 23.2317 1.7579 24.3159 1.7579C25.4001 1.7579 26.4373 2.16079 27.2363 2.89226C28.6499 4.18646 30.6214 4.71274 32.5095 4.30001C33.5634 4.06951 34.6597 4.24013 35.595 4.78024C36.5318 5.32105 37.228 6.18635 37.5551 7.21641C38.1375 9.0513 39.5808 10.4946 41.4158 11.0772C42.4458 11.4043 43.311 12.1002 43.8519 13.0371C44.3919 13.9726 44.5624 15.0684 44.3322 16.1228C43.9196 18.0111 44.4458 19.9824 45.7399 21.3959C46.4714 22.195 46.8743 23.2321 46.8743 24.3163C46.8743 25.4005 46.4715 26.4374 45.74 27.2364Z" fill="white" fill-opacity="0.3"/>
<path d="M24.3161 7.81242C20.5963 7.81242 16.9459 9.09091 14.0372 11.4125C13.6579 11.7153 13.5958 12.2683 13.8986 12.6477C14.2014 13.0271 14.7543 13.0892 15.1338 12.7864C17.7699 10.6823 20.9452 9.5702 24.3163 9.5702C32.4472 9.5702 39.0621 16.1852 39.0621 24.316C39.0621 32.4468 32.4472 39.0619 24.3163 39.0619C16.1853 39.0619 9.5702 32.447 9.5702 24.316C9.5702 20.9449 10.6823 17.7697 12.7864 15.1336C13.0892 14.7543 13.0271 14.2011 12.6477 13.8983C12.2684 13.5954 11.7153 13.6576 11.4125 14.037C9.09091 16.9456 7.81242 20.5962 7.81242 24.3159C7.81242 33.4161 15.216 40.8195 24.316 40.8195C33.4161 40.8195 40.8196 33.416 40.8196 24.3159C40.8196 15.2159 33.4162 7.81242 24.3161 7.81242Z" fill="white" fill-opacity="0.3"/>
<path d="M29.6875 14.5792C28.8008 13.6002 27.2826 13.5224 26.3031 14.4061L21.3767 18.8517C20.8755 18.334 20.174 18.0113 19.3982 18.0113H16.8178C15.2984 18.0113 14.0622 19.2475 14.0622 20.7669V29.681C14.0622 31.2005 15.2984 32.4366 16.8178 32.4366H19.3982C20.0765 32.4366 20.6979 32.1898 21.1785 31.7819C21.8295 32.2077 22.59 32.4366 23.386 32.4366H30.5239C32.7548 32.4366 34.5697 30.6218 34.5697 28.3909V22.75C34.5697 20.5191 32.7548 18.7042 30.5239 18.7042H29.0785L29.8539 17.5852C30.496 16.6589 30.426 15.3948 29.6875 14.5792ZM19.3983 30.6789H16.8179C16.2677 30.6789 15.8201 30.2312 15.8201 29.681V20.7669C15.8201 20.2168 16.2677 19.7691 16.8179 19.7691H19.3983C19.9485 19.7691 20.3962 20.2168 20.3962 20.7669V29.681C20.396 30.2312 19.9485 30.6789 19.3983 30.6789ZM30.5241 20.4619C31.7857 20.4619 32.812 21.4883 32.812 22.7498V28.3908C32.812 29.6524 31.7856 30.6787 30.5241 30.6787H23.3862C22.9157 30.6787 22.4675 30.5365 22.0888 30.2743C22.131 30.0831 22.1538 29.8847 22.1538 29.681V20.7669C22.1538 20.6864 22.1496 20.6069 22.1428 20.528L27.4806 15.7112C27.7417 15.4758 28.1472 15.4972 28.3845 15.7592C28.5803 15.9755 28.5907 16.3222 28.4093 16.584L26.6779 19.0825C26.4916 19.3512 26.47 19.7011 26.6217 19.9908C26.7734 20.2805 27.0733 20.462 27.4004 20.462L30.5241 20.4619Z" fill="white" fill-opacity="0.3"/>
</svg>
