<svg width="84" height="60" viewBox="0 0 84 60" fill="none" xmlns="http://www.w3.org/2000/svg">
<path d="M36.1704 54.8216C32.7974 53.8435 29.5446 52.2324 26.7489 50.1732C24.861 48.782 23.1291 47.1652 21.5903 45.3438C20.1365 43.6222 18.8113 41.6326 17.7858 39.6201C17.2296 38.5288 16.7412 37.4023 16.3243 36.2503C15.4689 33.8893 14.9159 31.4216 14.6724 28.9225C14.1935 24.0146 14.937 19.042 16.8166 14.5202C17.0142 14.4825 17.0794 14.4697 17.1574 14.4467C18.0665 14.1756 18.9334 13.721 19.6641 13.1335C21.5884 11.5851 22.6605 9.36159 22.6823 6.87212C22.7021 4.64796 21.8608 2.31065 20.3744 0.459846C20.0477 0.0532458 19.4998 -0.102746 19.0082 0.0705072C16.7687 0.858775 14.8213 2.40015 13.6648 4.30082C12.3708 6.42716 12.1087 8.88211 12.927 11.2124C13.2378 12.0972 13.7345 12.9404 14.3642 13.6507C14.3955 13.6859 14.425 13.7159 14.4723 13.76C14.0791 14.7228 13.7339 15.7029 13.4366 16.6983C12.5396 15.3231 11.2393 14.2606 9.63716 13.6219C7.57091 12.7992 5.08784 12.7378 2.82468 13.4538C2.3273 13.6111 1.98335 14.0656 1.96673 14.5867C1.89129 16.9591 2.62458 19.3329 3.97736 21.098C5.49124 23.0741 7.68535 24.207 10.1537 24.2875C10.2298 24.2895 10.3059 24.2907 10.382 24.2907C10.9656 24.2907 11.5564 24.2172 12.1305 24.0772C12.0499 25.4242 12.0538 26.7777 12.142 28.1292C10.5827 26.9049 8.6603 26.3129 6.61003 26.449C4.39035 26.5967 2.12336 27.612 0.389553 29.2332C0.00852419 29.59 -0.105912 30.1481 0.103781 30.625C1.05891 32.7987 2.74285 34.6245 4.72471 35.6346C5.90999 36.2388 7.16687 36.5418 8.42503 36.5418C9.52145 36.5418 10.6191 36.3117 11.6721 35.8501C12.2487 35.5976 12.7985 35.2613 13.2985 34.863C13.7422 36.437 14.3035 37.97 14.978 39.4526C13.5286 39.0997 12.0013 39.163 10.5092 39.6585C8.39754 40.3585 6.45788 41.9095 5.18693 43.9143C4.90755 44.3548 4.93696 44.9238 5.25917 45.333C6.72894 47.1972 8.81757 48.5423 10.9893 49.0224C11.5998 49.1573 12.2091 49.2244 12.8101 49.2244C14.6001 49.2244 16.3154 48.6312 17.7685 47.4874C18.2551 47.1051 18.6962 46.6506 19.0759 46.15C19.2843 46.4128 19.496 46.673 19.7127 46.93C20.5144 47.8787 21.364 48.7757 22.2571 49.6189C20.9242 49.842 19.6564 50.4059 18.5389 51.2964C16.7987 52.6818 15.5137 54.8075 15.0125 57.1276C14.9025 57.6378 15.1263 58.1613 15.5706 58.4343C17.2283 59.4528 19.1552 60 21.0098 60C21.4184 60 21.8237 59.9731 22.222 59.9194C24.6884 59.5851 26.7604 58.2425 28.0544 56.1392C28.3817 55.6079 28.6406 55.0236 28.8241 54.4176C30.9217 55.5773 33.1529 56.5062 35.4857 57.1832C35.6002 57.2158 35.7152 57.2318 35.829 57.2318C36.3616 57.2318 36.8526 56.8827 37.0086 56.3451C37.1978 55.693 36.8225 55.0108 36.1704 54.8216ZM14.9543 8.15202C15.0061 7.44238 15.1889 6.74362 15.4856 6.09728C16.1837 4.57572 17.4853 3.42624 18.989 2.72812C21.1652 6.04805 20.2465 9.50991 18.1234 11.2181C17.5991 11.6401 16.7386 12.305 16.0852 11.8894C15.0016 11.2002 14.8725 9.28487 14.9543 8.15202ZM12.016 31.9682C12.0058 32.0948 11.9815 32.2156 11.9444 32.3307C11.7552 32.9189 11.2406 33.3555 10.685 33.5991C8.18849 34.6923 4.69466 33.9079 2.75564 30.4441C2.64759 30.2504 4.84554 29.3304 5.06802 29.2614C5.96944 28.9801 6.92905 28.8548 7.87139 28.9398C8.79327 29.0229 9.69981 29.3112 10.4612 29.8463C11.1165 30.3066 12.0851 31.0949 12.016 31.9682ZM11.3217 21.7412C10.9759 21.8307 10.5885 21.8422 10.233 21.83C7.50954 21.7418 4.69402 19.5279 4.43702 15.5661C8.32082 14.7375 11.215 16.8479 12.039 19.4448C12.3606 20.4568 12.5268 21.4292 11.3217 21.7412ZM17.3811 44.1509C17.2929 44.7116 16.6644 45.2288 16.2489 45.5555C14.1072 47.2407 10.5277 47.3589 7.78061 44.4923C8.81501 43.1638 10.2547 42.1441 11.9246 41.8206C13.3631 41.5425 16.9483 42.0162 17.3709 43.8427C17.3952 43.9463 17.3971 44.0492 17.3811 44.1509ZM25.9613 54.8504C24.5331 57.1711 21.2144 58.5174 17.6471 56.7747C18.2199 54.9814 19.4352 53.4292 21.1614 52.6288C22.3351 52.0847 24.9806 51.4524 26.1166 52.3839C26.3915 52.6096 26.522 52.8653 26.5578 53.1345C26.6326 53.7047 26.2797 54.3338 25.9613 54.8504Z" fill="white" fill-opacity="0.3"/>
<path d="M54.073 46.3987C54.6624 45.971 54.952 45.2588 54.8293 44.5402L52.8858 33.211L61.1175 25.1871C61.6392 24.6788 61.8233 23.9327 61.5983 23.2397C61.3733 22.5467 60.7857 22.0506 60.0646 21.9464L48.6887 20.2931L43.6017 9.98555C43.2789 9.33218 42.6262 8.92622 41.8974 8.92622C41.1692 8.92622 40.5158 9.33218 40.1936 9.98555L38.1024 14.2223C37.8019 14.8309 38.0519 15.568 38.6605 15.8685C39.2698 16.169 40.0063 15.919 40.3067 15.3104L41.8974 12.0863L46.6142 21.644C46.891 22.2047 47.4261 22.5934 48.0449 22.6835L58.5923 24.2159L50.9596 31.6556C50.512 32.0922 50.3081 32.7207 50.4136 33.337L52.2152 43.8421L42.7815 38.8823C42.2279 38.5908 41.5668 38.5908 41.0132 38.8823L31.5795 43.8421L33.3811 33.3376C33.4872 32.7213 33.2827 32.0922 32.8345 31.6556L25.2024 24.2159L35.7498 22.6835C36.3686 22.5934 36.9037 22.2047 37.1805 21.644L37.7764 20.437C38.0768 19.8277 37.8269 19.0912 37.2182 18.7908C36.6096 18.4903 35.8725 18.7403 35.572 19.3489L35.106 20.2931L23.7307 21.9458C23.0096 22.0506 22.4221 22.5461 22.197 23.2391C21.9714 23.9321 22.1561 24.6782 22.6772 25.1871L30.9089 33.2104L28.966 44.5402C28.8427 45.2582 29.1323 45.9704 29.7217 46.3987C30.0548 46.6404 30.4441 46.7637 30.8367 46.7637C31.1391 46.7637 31.4421 46.6909 31.7227 46.5432L41.8974 41.1941L52.072 46.5432C52.717 46.8827 53.4836 46.827 54.073 46.3987Z" fill="white" fill-opacity="0.3"/>
<path d="M37.3269 4.82889C37.4164 5.44007 37.9419 5.87927 38.541 5.87927C38.6004 5.87927 38.6612 5.8748 38.7213 5.86585C39.3932 5.76739 39.8573 5.14279 39.7589 4.47151L39.2755 1.18994C39.1771 0.518023 38.5518 0.0538843 37.8806 0.152977C37.2093 0.251431 36.7452 0.876036 36.8436 1.54731L37.3269 4.82889Z" fill="white" fill-opacity="0.3"/>
<path d="M31.6959 8.43715C31.9286 8.81306 32.3307 9.01956 32.7424 9.01956C32.963 9.01956 33.1868 8.9601 33.3881 8.83544C33.9648 8.47806 34.1432 7.72048 33.7864 7.14319L32.1261 4.46128C31.7688 3.88399 31.0112 3.70562 30.4339 4.06299C29.8566 4.42037 29.6789 5.17731 30.0362 5.75461L31.6959 8.43715Z" fill="white" fill-opacity="0.3"/>
<path d="M45.2646 5.86585C45.3253 5.8748 45.3854 5.87927 45.4455 5.87927C46.0445 5.87927 46.5694 5.44007 46.6596 4.82889L47.1422 1.54731C47.2413 0.876036 46.7772 0.251431 46.1053 0.152977C45.4353 0.0538843 44.8094 0.518023 44.7103 1.18994L44.2276 4.47151C44.1285 5.14279 44.5927 5.76739 45.2646 5.86585Z" fill="white" fill-opacity="0.3"/>
<path d="M50.5984 8.83544C50.7997 8.9601 51.0229 9.01956 51.2441 9.01956C51.6551 9.01956 52.0573 8.81306 52.29 8.43715L53.9503 5.75461C54.3076 5.17731 54.1293 4.42037 53.5526 4.06299C52.9759 3.70562 52.2177 3.88399 51.8604 4.46064L50.2001 7.14319C49.8427 7.72048 50.0211 8.47806 50.5984 8.83544Z" fill="white" fill-opacity="0.3"/>
<path d="M83.4064 29.2332C81.6726 27.6113 79.4056 26.5967 77.186 26.449C75.1338 26.3122 73.212 26.9049 71.6534 28.1285C71.7422 26.777 71.7454 25.4236 71.6655 24.0772C72.239 24.2172 72.8297 24.2907 73.4134 24.2907C73.4901 24.2907 73.5662 24.2895 73.6423 24.2869C76.1106 24.2064 78.3041 23.0741 79.8186 21.098C81.1714 19.3323 81.9047 16.9591 81.8293 14.586C81.8126 14.065 81.4687 13.6111 80.9713 13.4538C78.7081 12.7371 76.2251 12.7985 74.1588 13.6219C72.5567 14.26 71.2564 15.3225 70.3594 16.6977C70.0621 15.7029 69.7163 14.7222 69.3237 13.76C69.371 13.7153 69.4011 13.6852 69.4318 13.6501C70.0615 12.9398 70.5582 12.0966 70.8689 11.2118C71.6872 8.88147 71.4251 6.42716 70.1312 4.30018C68.9747 2.40015 67.0267 0.858136 64.7878 0.0698674C64.2962 -0.103385 63.7483 0.052606 63.4216 0.459846C61.9346 2.31001 61.0939 4.64732 61.1137 6.87148C61.1354 9.36095 62.2076 11.5851 64.1319 13.1329C64.8626 13.721 65.7295 14.1756 66.638 14.4467C66.7166 14.4697 66.7818 14.4825 66.9794 14.5195C68.8589 19.042 69.6025 24.0146 69.1236 28.9219C68.6614 33.6573 67.1117 38.1439 64.596 42.0942C63.889 43.2041 63.0719 44.3177 62.2057 45.3432C61.131 46.6154 59.9521 47.7994 58.6831 48.8773C57.6819 49.7282 56.6833 50.5421 55.5568 51.2133C54.4444 51.8757 53.3084 52.5533 52.1391 53.1083C50.684 53.7993 49.1727 54.3728 47.6256 54.8216C46.9735 55.0108 46.5982 55.6923 46.7874 56.3444C46.9434 56.8821 47.4344 57.2312 47.967 57.2312C48.0807 57.2312 48.1958 57.2152 48.3103 57.1826C50.6431 56.5055 52.8743 55.5766 54.9719 54.4169C55.1553 55.0236 55.4143 55.6073 55.7416 56.1386C56.4915 57.3577 57.4844 58.3135 58.692 58.9784C59.2866 59.3057 60.0339 59.0896 60.3619 58.4951C60.6892 57.9005 60.4725 57.1532 59.8779 56.8258C59.0475 56.3681 58.3596 55.7032 57.8347 54.8504C57.2382 53.8812 57.0451 52.8039 58.2688 52.3238C61.6948 50.9813 65.1145 53.5404 66.147 56.7689C65.6049 57.0266 65.0391 57.2222 64.456 57.3545C63.7943 57.5041 63.3794 58.1626 63.529 58.8243C63.6588 59.3952 64.1651 59.782 64.7264 59.782C64.8166 59.782 64.908 59.7724 64.9994 59.7513C66.1355 59.4943 67.221 59.0506 68.2254 58.4337C68.6697 58.1607 68.8935 57.6371 68.7835 57.1276C68.2829 54.8069 66.9973 52.6812 65.2571 51.2958C64.1396 50.4059 62.8725 49.8414 61.5389 49.6183C62.432 48.775 63.2822 47.8781 64.0833 46.93C64.3007 46.673 64.5123 46.4121 64.7207 46.1494C65.0998 46.6506 65.5416 47.1045 66.0274 47.4874C67.4806 48.6312 69.1959 49.2238 70.9866 49.2238C71.5869 49.2238 72.1961 49.1573 72.8067 49.0218C74.9784 48.5417 77.067 47.1966 78.5368 45.333C78.8597 44.9232 78.8884 44.3542 78.6097 43.9137C77.3381 41.9088 75.3984 40.3579 73.2868 39.6578C71.7947 39.1624 70.2673 39.0997 68.818 39.452C69.4925 37.9694 70.0538 36.4363 70.4975 34.8624C70.9974 35.2613 71.5479 35.5976 72.1239 35.8501C73.1775 36.3117 74.2745 36.5412 75.3709 36.5412C76.6291 36.5412 77.886 36.2382 79.0713 35.634C81.0531 34.6239 82.7377 32.798 83.6922 30.6244C83.9013 30.1475 83.7868 29.5893 83.4064 29.2332ZM68.7483 9.67229C68.5917 10.4523 68.4127 11.7654 67.4218 11.9137C66.732 12.0173 66.1847 11.6305 65.672 11.2181C63.5495 9.50927 62.6302 6.04805 64.807 2.72812C64.9886 2.45066 67.1993 4.42996 67.3917 4.65755C67.9933 5.37038 68.4396 6.21235 68.6716 7.11697C68.8852 7.94936 68.9171 8.82905 68.7483 9.67229ZM76.0147 44.4923C73.2683 47.3589 69.6888 47.2407 67.5471 45.5555C67.0695 45.1795 66.654 44.6994 66.3426 44.1618C66.3266 44.1266 66.3036 44.0742 66.2781 44.0154C66.3829 43.8581 66.4865 43.6995 66.5888 43.541C66.9103 43.1612 67.2882 42.8288 67.7005 42.568C70.0033 41.111 73.5764 41.3597 76.0147 44.4923ZM71.7563 19.4448C72.581 16.8473 75.4745 14.7382 79.3583 15.5661C79.102 19.5279 76.2858 21.7418 73.5623 21.83C72.9051 21.8524 71.8477 21.8594 71.5626 21.1332C71.3593 20.6154 71.5984 19.9441 71.7563 19.4448ZM73.1104 33.5991C72.5644 33.3593 71.9033 33.071 71.6406 32.4963C71.0678 31.2451 72.9787 30.1225 73.7944 29.6571C74.4593 29.2774 75.1996 29.0344 75.9578 28.9366C77.7856 28.7007 79.5974 29.3349 81.0403 30.4441C79.1007 33.9085 75.6062 34.6923 73.1104 33.5991Z" fill="white" fill-opacity="0.3"/>
</svg>
