<svg width="66" height="60" viewBox="0 0 66 60" fill="none" xmlns="http://www.w3.org/2000/svg">
<path d="M64.7933 37.9219C63.5476 36.0912 61.039 35.6067 59.2027 36.8408L50.8451 42.4341L50.8208 25.0242L53.7243 27.7442C54.3418 28.3225 55.1468 28.6407 55.9921 28.6407C55.9936 28.6407 55.9954 28.6407 55.997 28.6407C56.9096 28.6394 57.7906 28.257 58.4143 27.5912C59.0202 26.9443 59.3381 26.1004 59.3092 25.2145C59.2802 24.3286 58.908 23.507 58.2612 22.9011L52.7566 17.7445C52.3797 17.3915 51.7881 17.4108 51.4352 17.7876C51.0823 18.1644 51.1017 18.7559 51.4783 19.1089L56.983 24.2655C57.2654 24.53 57.4278 24.8887 57.4405 25.2754C57.453 25.662 57.3144 26.0306 57.0497 26.3129C56.7735 26.6078 56.3987 26.7705 55.9942 26.771C55.9935 26.771 55.9928 26.771 55.9921 26.771C55.6233 26.771 55.2719 26.6321 55.0024 26.3796L33.1447 5.90371C32.7845 5.56641 32.224 5.56692 31.8647 5.9055L10.0639 26.4426C9.78234 26.7078 9.41421 26.8468 9.02741 26.836C8.64061 26.8245 8.28156 26.6629 8.01628 26.3812C7.75099 26.0996 7.61119 25.7315 7.62283 25.3448C7.63434 24.958 7.79589 24.599 8.07742 24.3337L31.5077 2.26172C32.0631 1.73843 32.9344 1.73716 33.4912 2.25903L47.199 15.1002C47.5757 15.4531 48.1673 15.4339 48.5203 15.0571C48.8732 14.6803 48.8539 14.0888 48.4772 13.7358L34.7695 0.894609C33.4939 -0.300587 31.4981 -0.2979 30.2258 0.900877L22.7252 7.96665L22.7232 6.70635C22.7227 6.30906 22.5674 5.93582 22.2861 5.65544C22.0053 5.37544 21.6326 5.22131 21.2361 5.22131C21.2353 5.22131 21.2347 5.22131 21.2339 5.22131L15.8684 5.22886C15.4712 5.22937 15.098 5.38465 14.8175 5.66593C14.5372 5.9472 14.3829 6.32083 14.3835 6.71825L14.3984 15.811L6.7955 22.9731C6.15032 23.5808 5.78053 24.4034 5.75405 25.2893C5.72758 26.1752 6.04774 27.0184 6.65544 27.6633C7.26301 28.3085 8.08561 28.6784 8.97164 28.7049C9.00554 28.7059 9.03943 28.7064 9.07333 28.7064C9.92202 28.7064 10.7257 28.3879 11.3459 27.8034L14.243 25.0743L14.2545 33.2978C13.3171 33.1613 12.3688 33.0897 11.4161 33.0897H9.81662V32.5292C9.81662 30.6475 8.28566 29.1165 6.40397 29.1165H3.41265C1.53096 29.1164 0 30.6472 0 32.529V47.1771C0 47.6934 0.418523 48.1119 0.93477 48.1119C1.45102 48.1119 1.86954 47.6934 1.86954 47.1771V32.529C1.86954 31.6782 2.56179 30.9859 3.41265 30.9859H6.40384C7.2547 30.9859 7.94695 31.6782 7.94695 32.529V54.6654C7.94695 55.5162 7.2547 56.2085 6.40384 56.2085H3.41265C2.56179 56.2085 1.86954 55.5162 1.86954 54.6654V53.0297C1.86954 52.5134 1.45102 52.0949 0.93477 52.0949C0.418523 52.0949 0 52.5134 0 53.0297V54.6654C0 56.5471 1.53096 58.078 3.41265 58.078H6.40384C8.28553 58.078 9.81649 56.5472 9.81649 54.6654V54.5384L23.506 59.7223C23.5313 59.7319 23.557 59.7403 23.5831 59.7476C24.1783 59.9157 24.7732 60 25.3606 60C25.6783 60 25.9938 59.9753 26.3062 59.9259L46.4241 57.026C46.4288 57.0253 46.4334 57.0245 46.4382 57.0238C48.1486 56.7507 49.7622 56.0276 51.1043 54.933C51.116 54.9235 51.1275 54.9136 51.1386 54.9035L64.1357 43.2141C65.6493 41.8704 65.9318 39.5952 64.7933 37.9219ZM20.8541 7.09149L20.8585 9.72517L16.265 14.0524L16.2536 7.09776L20.8541 7.09149ZM32.5073 7.86842L48.9487 23.2704L48.9772 43.684L46.3306 45.4553L43.5279 45.2981L43.4539 44.5537C43.1931 41.9318 41.2575 39.8226 38.6982 39.3193L38.6813 27.1748C38.68 26.2429 37.9212 25.4855 36.9894 25.4855C36.9886 25.4855 36.988 25.4855 36.9871 25.4855L28.0776 25.4981C27.6257 25.4987 27.2011 25.6752 26.8821 25.9953C26.5629 26.3152 26.3876 26.7403 26.3882 27.1921L26.403 37.7807C24.6382 37.3772 22.9532 36.711 21.3777 35.7894C21.1811 35.6744 20.9826 35.5633 20.7824 35.4554C20.7044 35.4133 20.6251 35.3738 20.5464 35.3327C20.4246 35.2691 20.3031 35.2052 20.1801 35.1442C20.0821 35.0956 19.9829 35.0495 19.8842 35.0026C19.7794 34.9528 19.6748 34.9026 19.5693 34.8546C19.4618 34.8059 19.3535 34.7594 19.2453 34.7126C19.1464 34.6699 19.0475 34.6269 18.948 34.5858C18.8367 34.5399 18.7248 34.4958 18.6128 34.4519C18.5134 34.413 18.4139 34.3744 18.314 34.3371C18.2031 34.2956 18.0917 34.2556 17.98 34.2163C17.8752 34.1794 17.7703 34.1433 17.665 34.1081C17.558 34.0724 17.4508 34.0375 17.3431 34.0036C17.2284 33.9674 17.1131 33.9329 16.9978 33.8987C16.8986 33.8696 16.7996 33.8404 16.7 33.8128C16.5699 33.7766 16.4392 33.7427 16.3083 33.7092C16.2471 33.6934 16.1862 33.6756 16.1245 33.6604L16.1101 23.3153L32.5073 7.86842ZM36.8284 39.0854L28.2732 38.1004L28.2581 27.3673L36.812 27.3553L36.8284 39.0854ZM62.8901 41.8202L49.9058 53.4982C48.8238 54.3755 47.5259 54.9559 46.1502 55.1766L26.041 58.0753C26.0368 58.076 26.0327 58.0766 26.0285 58.0773L26.0146 58.0794C25.4053 58.1759 24.7709 58.1352 24.1287 57.9589L9.81662 52.5391V34.9591H11.4161C12.7777 34.9591 14.1301 35.1163 15.4471 35.4216C15.4961 35.433 15.545 35.4446 15.5938 35.4564C15.7556 35.4954 15.9171 35.5356 16.0777 35.5791C16.0918 35.5829 16.1057 35.587 16.1198 35.5908C16.2808 35.6348 16.4412 35.6813 16.6011 35.7298C16.6298 35.7385 16.6586 35.747 16.6871 35.7558C16.8572 35.8084 17.0265 35.8633 17.195 35.9209C17.2124 35.9269 17.2297 35.933 17.2471 35.939C17.5979 36.0601 17.9453 36.1923 18.2884 36.3353C18.3071 36.3431 18.3257 36.3509 18.3444 36.3588C18.5154 36.4307 18.6854 36.505 18.8543 36.5823C18.8587 36.5843 18.8633 36.5865 18.8678 36.5887C19.031 36.6636 19.1931 36.7414 19.3541 36.8213C19.3731 36.8307 19.3921 36.8399 19.4111 36.8494C19.5684 36.928 19.7244 37.0095 19.8796 37.0929C19.9089 37.1086 19.938 37.1247 19.9673 37.1406C20.1239 37.2259 20.2796 37.3129 20.4337 37.4031C22.6582 38.7043 25.0798 39.5471 27.6314 39.9082C27.6394 39.9094 27.6473 39.9104 27.6554 39.9113L38.1288 41.1171C38.1868 41.1254 38.2443 41.135 38.3015 41.1457C39.8434 41.4353 41.0603 42.5746 41.4674 44.0583C41.5278 44.278 41.5703 44.5054 41.5936 44.7386L41.6351 45.1569L22.006 43.4371C21.492 43.3922 21.0382 43.7725 20.9932 44.2867C20.948 44.801 21.3286 45.2545 21.8428 45.2995L42.5952 47.1178C42.6002 47.1181 42.6051 47.118 42.6099 47.1184C42.6148 47.1188 42.6195 47.1195 42.6245 47.1199L46.5382 47.3396C46.5557 47.3406 46.5731 47.341 46.5905 47.341C46.6091 47.341 46.6273 47.338 46.6458 47.3369C46.6666 47.3356 46.6875 47.3348 46.7082 47.3323C46.7361 47.3287 46.7633 47.3227 46.7907 47.3167C46.8103 47.3123 46.83 47.3091 46.8491 47.3035C46.8791 47.2949 46.9078 47.2833 46.9369 47.2716C46.9525 47.2654 46.9686 47.2606 46.984 47.2535C47.0276 47.2333 47.07 47.21 47.1105 47.1829L50.4325 44.9596L50.4329 44.9593L60.2439 38.3934C61.231 37.7299 62.5784 37.9902 63.2475 38.9736C63.8592 39.8723 63.7074 41.0944 62.8901 41.8202Z" fill="white" fill-opacity="0.3"/>
</svg>
