<svg width="44" height="38" viewBox="0 0 44 38" fill="none" xmlns="http://www.w3.org/2000/svg">
<path d="M37.6908 38H6.30868C5.6797 37.9993 5.07668 37.7522 4.63192 37.3128C4.18717 36.8734 3.93701 36.2776 3.93635 35.6561V31.5497C3.93635 31.385 4.00257 31.227 4.12046 31.1105C4.23834 30.9941 4.39823 30.9286 4.56495 30.9286H39.4345C39.6012 30.9286 39.7611 30.9941 39.879 31.1105C39.9969 31.227 40.0631 31.385 40.0631 31.5497V35.6555C40.0626 36.277 39.8126 36.873 39.3678 37.3125C38.923 37.7521 38.3199 37.9993 37.6908 38ZM5.19354 32.1708V35.6555C5.19388 35.9476 5.31147 36.2277 5.52053 36.4342C5.72958 36.6408 6.01303 36.7569 6.30868 36.7573H37.6908C37.9865 36.7569 38.2699 36.6408 38.479 36.4342C38.688 36.2277 38.8056 35.9476 38.8059 35.6555V32.1708H5.19354Z" fill="#FF6600"/>
<path d="M18.2546 12.487H15.2373C15.0706 12.487 14.9107 12.4215 14.7928 12.3051C14.6749 12.1886 14.6087 12.0306 14.6087 11.8659V10.1003C14.6089 9.68516 14.7758 9.28712 15.0728 8.99355C15.3698 8.69998 15.7726 8.5349 16.1928 8.53457H17.301C17.7212 8.5349 18.124 8.69996 18.4212 8.99351C18.7183 9.28706 18.8853 9.68511 18.8857 10.1003V11.8659C18.8857 11.9477 18.8693 12.0286 18.8376 12.1042C18.8058 12.1797 18.7593 12.2482 18.7007 12.306C18.642 12.3637 18.5724 12.4093 18.4959 12.4404C18.4193 12.4715 18.3373 12.4873 18.2546 12.487ZM15.8659 11.2449H17.626V10.1003C17.626 10.0144 17.5914 9.93213 17.53 9.87145C17.4686 9.81077 17.3853 9.77668 17.2985 9.77668H16.1959C16.1529 9.77668 16.1104 9.78506 16.0707 9.80132C16.031 9.81759 15.9949 9.84144 15.9645 9.87149C15.9342 9.90155 15.9101 9.93722 15.8937 9.97647C15.8773 10.0157 15.8689 10.0578 15.869 10.1003L15.8659 11.2449Z" fill="#FF6600"/>
<path d="M28.7591 12.487H25.7418C25.5751 12.487 25.4152 12.4215 25.2973 12.3051C25.1794 12.1886 25.1132 12.0306 25.1132 11.8659V10.1003C25.1135 9.68511 25.2806 9.28706 25.5777 8.99351C25.8748 8.69996 26.2777 8.5349 26.6979 8.53457H27.8004C28.2206 8.5349 28.6234 8.69998 28.9204 8.99355C29.2174 9.28712 29.3843 9.68516 29.3845 10.1003V11.8659C29.3845 12.0301 29.3187 12.1876 29.2015 12.304C29.0843 12.4204 28.9252 12.4862 28.7591 12.487ZM26.3704 11.2449H28.1305V10.1003C28.1305 10.0578 28.1221 10.0157 28.1058 9.97647C28.0894 9.93722 28.0653 9.90154 28.0349 9.87149C28.0046 9.84144 27.9685 9.81759 27.9288 9.80132C27.8891 9.78506 27.8466 9.77668 27.8036 9.77668H26.701C26.6142 9.77668 26.5309 9.81077 26.4694 9.87145C26.408 9.93213 26.3735 10.0144 26.3735 10.1003L26.3704 11.2449Z" fill="#FF6600"/>
<path d="M42.8642 13.7285C42.8148 13.7287 42.7657 13.7231 42.7177 13.7117L33.2372 11.4759C33.1559 11.4579 33.0791 11.4241 33.0112 11.3764C32.9433 11.3288 32.8856 11.2684 32.8416 11.1986C32.7975 11.1287 32.7679 11.051 32.7545 10.9698C32.7412 10.8886 32.7442 10.8055 32.7636 10.7255C32.783 10.6455 32.8182 10.5701 32.8673 10.5036C32.9164 10.4372 32.9784 10.3811 33.0497 10.3385C33.1209 10.2959 33.2001 10.2678 33.2824 10.2556C33.3648 10.2435 33.4488 10.2477 33.5295 10.2679L43.01 12.5037C43.1594 12.5394 43.2903 12.6279 43.3782 12.7525C43.466 12.8771 43.5046 13.0292 43.4866 13.18C43.4686 13.3308 43.3954 13.4698 43.2807 13.5709C43.166 13.672 43.0178 13.728 42.8642 13.7285Z" fill="#FF6600"/>
<path d="M2.80801 16.6263C2.29798 16.627 1.80501 16.4448 1.42063 16.1136C1.03625 15.7824 0.786569 15.3246 0.717925 14.8253L0.0509826 9.95244C-0.110139 8.75251 0.112837 7.53284 0.68865 6.46441C1.26446 5.39599 2.16425 4.53237 3.26186 3.99464C9.9602 0.691858 17.1482 0 21.9997 0C26.8651 0 34.0688 0.692479 40.7433 3.99278C41.8394 4.53127 42.7377 5.39484 43.3125 6.46266C43.8873 7.53047 44.1099 8.74912 43.9491 9.94809L43.2816 14.8234C43.2422 15.1117 43.142 15.3887 42.9877 15.6364C42.8333 15.8841 42.628 16.0971 42.3852 16.2617C42.1424 16.4262 41.8673 16.5387 41.5778 16.5917C41.2883 16.6448 40.9907 16.6373 40.7043 16.5698L34.0764 15.0054C33.5792 14.8865 33.1424 14.5935 32.8471 14.1808C32.5518 13.7681 32.4179 13.2636 32.4703 12.7609L32.8475 9.22083C32.8802 8.89806 32.7914 8.57469 32.5981 8.31246C32.4048 8.05024 32.1206 7.86754 31.7996 7.79924C25.3555 6.3683 18.6704 6.3683 12.2263 7.79924C11.9055 7.86779 11.6215 8.05059 11.4283 8.31276C11.2352 8.57494 11.1465 8.89817 11.1791 9.22083L11.5562 12.7646C11.6086 13.2676 11.4746 13.7724 11.1788 14.1852C10.8831 14.5979 10.4459 14.8907 9.94826 15.0091L3.29518 16.5704C3.13556 16.6078 2.97205 16.6266 2.80801 16.6263ZM21.9997 1.24211C17.2853 1.24211 10.3022 1.91286 3.8232 5.10695C2.96039 5.52896 2.25291 6.20719 1.79996 7.04654C1.34701 7.88589 1.17131 8.84425 1.29749 9.78724L1.96318 14.6569C1.97899 14.7734 2.01934 14.8852 2.08164 14.9853C2.14394 15.0853 2.22678 15.1713 2.32483 15.2378C2.42288 15.3042 2.53394 15.3496 2.65085 15.3709C2.76775 15.3923 2.88789 15.3892 3.00351 15.3618L9.6591 13.7962C9.85985 13.7484 10.0362 13.6303 10.1555 13.4637C10.2748 13.2972 10.3289 13.0936 10.3078 12.8907L9.93066 9.34691C9.86594 8.72129 10.0363 8.09399 10.4093 7.58439C10.7823 7.07479 11.3319 6.71846 11.9535 6.58321C18.5776 5.11262 25.4495 5.11262 32.0737 6.58321C32.696 6.71783 33.2465 7.0741 33.62 7.58405C33.9936 8.094 34.1641 8.72196 34.099 9.34815L33.7218 12.8882C33.7006 13.0911 33.7545 13.2947 33.8737 13.4612C33.9929 13.6277 34.1692 13.7459 34.3699 13.7937L40.996 15.3575C41.1112 15.3846 41.2308 15.3876 41.3473 15.3663C41.4637 15.3451 41.5744 15.3001 41.6722 15.2341C41.77 15.1682 41.8528 15.0828 41.9153 14.9834C41.9778 14.884 42.0186 14.7728 42.035 14.6569L42.702 9.78165C42.8286 8.83946 42.6537 7.88174 42.2018 7.04268C41.7498 6.20362 41.0436 5.52525 40.1819 5.1026C33.7237 1.91099 26.7299 1.24211 21.9997 1.24211Z" fill="#FF6600"/>
<path d="M1.13406 13.7285C0.980436 13.7279 0.832354 13.6717 0.717783 13.5706C0.603212 13.4695 0.530083 13.3304 0.51221 13.1797C0.494337 13.0289 0.532956 12.8769 0.620774 12.7524C0.708592 12.6279 0.839528 12.5394 0.988851 12.5037L10.575 10.2412C10.6557 10.221 10.7397 10.2168 10.822 10.2289C10.9044 10.2411 10.9835 10.2692 11.0548 10.3118C11.126 10.3544 11.188 10.4105 11.2371 10.4769C11.2862 10.5434 11.3215 10.6188 11.3409 10.6988C11.3602 10.7788 11.3633 10.8619 11.3499 10.9431C11.3365 11.0243 11.3069 11.102 11.2629 11.1719C11.2188 11.2417 11.1612 11.3021 11.0932 11.3497C11.0253 11.3974 10.9485 11.4312 10.8673 11.4492L1.28115 13.7117C1.23296 13.723 1.18359 13.7286 1.13406 13.7285Z" fill="#FF6600"/>
<path d="M39.4345 32.1708H4.56495C4.39823 32.1708 4.23835 32.1053 4.12046 31.9889C4.00257 31.8724 3.93635 31.7144 3.93635 31.5497V25.6198C3.93407 24.859 4.14521 24.1123 4.54633 23.4628C4.94744 22.8132 5.52286 22.2862 6.20873 21.9401C7.86142 21.1304 9.29007 19.9359 10.3716 18.4593C11.453 16.9828 12.1549 15.2687 12.4168 13.4645C12.5002 12.8481 12.8076 12.2826 13.2818 11.8735C13.756 11.4645 14.3645 11.2397 14.994 11.2411H29.0042C29.6337 11.2397 30.2422 11.4645 30.7164 11.8735C31.1906 12.2826 31.498 12.8481 31.5815 13.4645C31.8437 15.269 32.5461 16.9834 33.6283 18.46C34.7105 19.9365 36.1399 21.1309 37.7933 21.9401C38.4791 22.2862 39.0546 22.8132 39.4557 23.4628C39.8568 24.1123 40.0679 24.859 40.0657 25.6198V31.5497C40.0657 31.6315 40.0493 31.7124 40.0176 31.7879C39.9858 31.8635 39.9393 31.932 39.8806 31.9897C39.822 32.0474 39.7524 32.0931 39.6759 32.1242C39.5993 32.1553 39.5173 32.1711 39.4345 32.1708ZM5.19354 30.9286H38.8059V25.6198C38.8095 25.0903 38.6645 24.5702 38.3871 24.1171C38.1097 23.6641 37.7108 23.2957 37.2344 23.053C35.3987 22.1542 33.8117 20.8277 32.6103 19.1881C31.4089 17.5484 30.6291 15.6446 30.3381 13.6409C30.296 13.3208 30.1374 13.0268 29.8919 12.8138C29.6464 12.6008 29.3309 12.4833 29.0042 12.4832H14.9953C14.6686 12.4833 14.353 12.6008 14.1076 12.8138C13.8621 13.0268 13.7035 13.3208 13.6614 13.6409C13.3707 15.6444 12.5912 17.548 11.3903 19.1876C10.1893 20.8273 8.60284 22.1539 6.76755 23.053C6.29123 23.2957 5.89225 23.6641 5.61486 24.1171C5.33748 24.5702 5.19252 25.0903 5.19606 25.6198L5.19354 30.9286Z" fill="#FF6600"/>
<path d="M21.9997 29.0617C20.6141 29.0617 19.2597 28.6558 18.1076 27.8952C16.9555 27.1347 16.0575 26.0536 15.5273 24.7889C14.997 23.5241 14.8583 22.1324 15.1286 20.7897C15.3989 19.447 16.0662 18.2137 17.0459 17.2457C18.0257 16.2777 19.274 15.6185 20.633 15.3514C21.992 15.0843 23.4006 15.2214 24.6807 15.7453C25.9608 16.2692 27.055 17.1563 27.8248 18.2946C28.5946 19.4328 29.0055 20.7711 29.0055 22.1401C29.0035 23.9752 28.2647 25.7346 26.9513 27.0323C25.6379 28.3299 23.8572 29.0598 21.9997 29.0617ZM21.9997 16.4605C20.8628 16.4605 19.7514 16.7936 18.806 17.4177C17.8607 18.0418 17.1239 18.9288 16.6888 19.9666C16.2537 21.0044 16.1399 22.1464 16.3617 23.2481C16.5835 24.3498 17.131 25.3618 17.9349 26.1561C18.7389 26.9504 19.7632 27.4914 20.8783 27.7105C21.9934 27.9296 23.1492 27.8172 24.1996 27.3873C25.25 26.9574 26.1478 26.2295 26.7795 25.2955C27.4111 24.3615 27.7483 23.2634 27.7483 22.1401C27.7471 20.6339 27.1412 19.1897 26.0634 18.1244C24.9857 17.0591 23.5242 16.4598 21.9997 16.458V16.4605Z" fill="#FF6600"/>
<path d="M21.9997 18.9745C21.833 18.9745 21.6731 18.9091 21.5553 18.7926C21.4374 18.6762 21.3711 18.5182 21.3711 18.3535V17.9684C21.3711 17.8037 21.4374 17.6457 21.5553 17.5293C21.6731 17.4128 21.833 17.3474 21.9997 17.3474C22.1665 17.3474 22.3263 17.4128 22.4442 17.5293C22.5621 17.6457 22.6283 17.8037 22.6283 17.9684V18.3535C22.6283 18.5182 22.5621 18.6762 22.4442 18.7926C22.3263 18.9091 22.1665 18.9745 21.9997 18.9745Z" fill="#FF6600"/>
<path d="M19.2892 20.0831C19.1228 20.0831 18.9632 20.0179 18.8454 19.9018L18.5695 19.6298C18.5111 19.5721 18.4647 19.5036 18.4331 19.4283C18.4015 19.3529 18.3852 19.2722 18.3852 19.1906C18.3851 19.109 18.4014 19.0282 18.4329 18.9528C18.4645 18.8775 18.5108 18.809 18.5692 18.7513C18.6275 18.6936 18.6968 18.6478 18.7731 18.6165C18.8494 18.5853 18.9311 18.5692 19.0137 18.5692C19.0962 18.5691 19.178 18.5852 19.2543 18.6164C19.3306 18.6476 19.3999 18.6933 19.4583 18.751L19.7336 19.023C19.8215 19.1098 19.8814 19.2205 19.9056 19.3409C19.9299 19.4614 19.9174 19.5863 19.8698 19.6997C19.8223 19.8132 19.7417 19.9102 19.6384 19.9784C19.535 20.0467 19.4135 20.0831 19.2892 20.0831Z" fill="#FF6600"/>
<path d="M18.1665 22.7611H17.7774C17.6107 22.7611 17.4508 22.6957 17.333 22.5792C17.2151 22.4627 17.1488 22.3048 17.1488 22.1401C17.1488 21.9753 17.2151 21.8174 17.333 21.7009C17.4508 21.5844 17.6107 21.519 17.7774 21.519H18.1665C18.3333 21.519 18.4932 21.5844 18.611 21.7009C18.7289 21.8174 18.7951 21.9753 18.7951 22.1401C18.7951 22.3048 18.7289 22.4627 18.611 22.5792C18.4932 22.6957 18.3333 22.7611 18.1665 22.7611Z" fill="#FF6600"/>
<path d="M19.0139 25.7118C18.8895 25.7119 18.7678 25.6755 18.6643 25.6072C18.5608 25.5389 18.4802 25.4418 18.4326 25.3282C18.385 25.2146 18.3726 25.0896 18.397 24.9691C18.4213 24.8485 18.4814 24.7378 18.5695 24.651L18.8454 24.379C18.9641 24.2659 19.1229 24.2034 19.2877 24.205C19.4525 24.2065 19.6102 24.2719 19.7266 24.3871C19.8431 24.5024 19.9091 24.6582 19.9104 24.821C19.9117 24.9839 19.8482 25.1407 19.7336 25.2578L19.4583 25.5298C19.3405 25.6463 19.1806 25.7117 19.0139 25.7118Z" fill="#FF6600"/>
<path d="M21.9997 26.9334C21.833 26.9334 21.6731 26.868 21.5553 26.7515C21.4374 26.635 21.3711 26.477 21.3711 26.3123V25.9273C21.3711 25.7626 21.4374 25.6046 21.5553 25.4881C21.6731 25.3716 21.833 25.3062 21.9997 25.3062C22.1665 25.3062 22.3263 25.3716 22.4442 25.4881C22.5621 25.6046 22.6283 25.7626 22.6283 25.9273V26.3123C22.6283 26.477 22.5621 26.635 22.4442 26.7515C22.3263 26.868 22.1665 26.9334 21.9997 26.9334Z" fill="#FF6600"/>
<path d="M24.9856 25.7118C24.8189 25.7117 24.659 25.6463 24.5412 25.5298L24.2658 25.2578C24.2058 25.2005 24.1578 25.132 24.1248 25.0563C24.0918 24.9805 24.0744 24.899 24.0737 24.8166C24.0729 24.7341 24.0887 24.6523 24.1203 24.576C24.1518 24.4996 24.1984 24.4303 24.2574 24.3719C24.3164 24.3136 24.3865 24.2674 24.4638 24.2361C24.541 24.2048 24.6238 24.1891 24.7072 24.1897C24.7907 24.1904 24.8732 24.2074 24.9499 24.2399C25.0266 24.2724 25.096 24.3197 25.154 24.379L25.43 24.651C25.5181 24.7378 25.5781 24.8485 25.6025 24.9691C25.6269 25.0896 25.6145 25.2146 25.5669 25.3282C25.5193 25.4418 25.4386 25.5389 25.3352 25.6072C25.2317 25.6755 25.11 25.7119 24.9856 25.7118Z" fill="#FF6600"/>
<path d="M26.222 22.7611H25.8329C25.6662 22.7611 25.5063 22.6957 25.3884 22.5792C25.2706 22.4627 25.2043 22.3048 25.2043 22.1401C25.2043 21.9753 25.2706 21.8174 25.3884 21.7009C25.5063 21.5844 25.6662 21.519 25.8329 21.519H26.222C26.3887 21.519 26.5486 21.5844 26.6665 21.7009C26.7844 21.8174 26.8506 21.9753 26.8506 22.1401C26.8506 22.3048 26.7844 22.4627 26.6665 22.5792C26.5486 22.6957 26.3887 22.7611 26.222 22.7611Z" fill="#FF6600"/>
<path d="M24.7103 20.0831C24.586 20.0831 24.4644 20.0467 24.3611 19.9784C24.2577 19.9102 24.1772 19.8132 24.1296 19.6997C24.0821 19.5863 24.0696 19.4614 24.0939 19.3409C24.1181 19.2205 24.178 19.1098 24.2658 19.023L24.5412 18.751C24.5996 18.6933 24.6689 18.6476 24.7452 18.6164C24.8215 18.5852 24.9032 18.5691 24.9858 18.5692C25.0684 18.5692 25.1501 18.5853 25.2264 18.6165C25.3027 18.6478 25.372 18.6936 25.4303 18.7513C25.4887 18.809 25.535 18.8775 25.5665 18.9528C25.5981 19.0282 25.6143 19.109 25.6143 19.1906C25.6143 19.2722 25.598 19.3529 25.5664 19.4283C25.5347 19.5036 25.4884 19.5721 25.43 19.6298L25.154 19.9018C25.0362 20.0179 24.8766 20.0831 24.7103 20.0831Z" fill="#FF6600"/>
</svg>
