<svg width="43" height="40" viewBox="0 0 43 40" fill="none" xmlns="http://www.w3.org/2000/svg">
<path d="M37.9975 35.501V35.3477C37.9975 35.481 37.9909 35.6143 37.9775 35.7476C37.9842 35.6676 37.9975 35.5876 37.9975 35.501Z" fill="white"/>
<path d="M35.3315 25.3339H31.745L31.205 24.2607C30.1646 22.1794 28.5651 20.4291 26.5858 19.2057C24.6066 17.9824 22.3257 17.3344 19.9989 17.3344C17.6721 17.3344 15.3913 17.9824 13.412 19.2057C11.4328 20.4291 9.8333 22.1794 8.79287 24.2607L8.24623 25.3473C6.73222 25.4563 5.31551 26.1341 4.28054 27.2445C3.24558 28.3549 2.66898 29.8157 2.66653 31.3336V32.0002H1.33326V12.6679C1.33443 11.6075 1.75621 10.5908 2.50606 9.84095C3.25591 9.09109 4.2726 8.66932 5.33305 8.66815H8.03337C8.19851 10.6673 9.10931 12.5312 10.585 13.89C12.0606 15.2488 13.9932 16.003 15.9992 16.003C18.0051 16.003 19.9377 15.2488 21.4134 13.89C22.889 12.5312 23.7998 10.6673 23.9649 8.66815H27.3319C27.3323 9.02163 27.4729 9.36051 27.7228 9.61046C27.9728 9.86041 28.3117 10.001 28.6651 10.0014H30.0931C30.24 10.5724 30.5722 11.0785 31.0376 11.4404C31.503 11.8023 32.0754 11.9996 32.6649 12.0013H36.6647V12.6679C36.6647 12.8447 36.735 13.0143 36.86 13.1393C36.985 13.2643 37.1546 13.3346 37.3314 13.3346C37.5082 13.3346 37.6777 13.2643 37.8027 13.1393C37.9278 13.0143 37.998 12.8447 37.998 12.6679V10.668H40.6645C40.8413 10.668 41.0109 10.5978 41.1359 10.4728C41.2609 10.3478 41.3311 10.1782 41.3311 10.0014C41.3311 9.82461 41.2609 9.65505 41.1359 9.53003C41.0109 9.40502 40.8413 9.33478 40.6645 9.33478H37.998V6.66826H40.6645C40.8413 6.66826 41.0109 6.59802 41.1359 6.47301C41.2609 6.34799 41.3311 6.17843 41.3311 6.00163C41.3311 5.82482 41.2609 5.65527 41.1359 5.53025C41.0109 5.40523 40.8413 5.335 40.6645 5.335H37.998V3.3351C37.998 3.1583 37.9278 2.98874 37.8027 2.86372C37.6777 2.7387 37.5082 2.66847 37.3314 2.66847C37.1546 2.66847 36.985 2.7387 36.86 2.86372C36.735 2.98874 36.6647 3.1583 36.6647 3.3351V4.00173H32.6649C32.0754 4.00346 31.503 4.20074 31.0376 4.56265C30.5722 4.92456 30.24 5.43066 30.0931 6.00163H28.6651C28.3117 6.00203 27.9728 6.14263 27.7228 6.39258C27.4729 6.64253 27.3323 6.98141 27.3319 7.33489H23.9649C23.7998 5.33576 22.889 3.4718 21.4134 2.11302C19.9377 0.754249 18.0051 0 15.9992 0C13.9932 0 12.0606 0.754249 10.585 2.11302C9.10931 3.4718 8.19851 5.33576 8.03337 7.33489H5.33305C3.91914 7.33651 2.5636 7.89891 1.56381 8.8987C0.564018 9.89848 0.0016232 11.254 0 12.6679L0 32.6669C0 32.8437 0.0702342 33.0132 0.195252 33.1383C0.320269 33.2633 0.48983 33.3335 0.666631 33.3335H2.66653V36.6667C2.66704 36.8433 2.73743 37.0126 2.86234 37.1375C2.98725 37.2624 3.15651 37.3328 3.33316 37.3333H7.78965C8.16663 38.131 8.76246 38.8051 9.50777 39.2772C10.2531 39.7493 11.1172 40 11.9994 40C12.8817 40 13.7458 39.7493 14.4911 39.2772C15.2364 38.8051 15.8322 38.131 16.2092 37.3333H29.1219C29.4988 38.131 30.0947 38.8051 30.84 39.2772C31.5853 39.7493 32.4494 40 33.3316 40C34.2139 40 35.078 39.7493 35.8233 39.2772C36.5686 38.8051 37.1644 38.131 37.5414 37.3333H41.9978C42.1744 37.3328 42.3437 37.2624 42.4686 37.1375C42.5935 37.0126 42.6639 36.8433 42.6644 36.6667V32.6669C42.6632 30.7224 41.8903 28.8579 40.5154 27.483C39.1404 26.108 37.2759 25.3351 35.3315 25.3339ZM32.6649 5.335H36.6647V10.668H32.6649C32.3115 10.6676 31.9726 10.527 31.7226 10.2771C31.4727 10.0271 31.3321 9.68826 31.3317 9.33478V6.66826C31.3321 6.31478 31.4727 5.97589 31.7226 5.72595C31.9726 5.476 32.3115 5.3354 32.6649 5.335ZM28.6651 7.33489H29.9984V8.66815H28.6651V7.33489ZM15.9992 1.33521C17.3176 1.33521 18.6065 1.72618 19.7028 2.45868C20.799 3.19119 21.6535 4.23232 22.158 5.45043C22.6626 6.66854 22.7946 8.00891 22.5374 9.30205C22.2802 10.5952 21.6452 11.783 20.7129 12.7153C19.7806 13.6476 18.5928 14.2825 17.2997 14.5397C16.0065 14.797 14.6662 14.6649 13.4481 14.1604C12.23 13.6558 11.1888 12.8014 10.4563 11.7051C9.72381 10.6089 9.33284 9.31999 9.33284 8.00152C9.33485 6.23412 10.0378 4.53969 11.2876 3.28995C12.5373 2.04021 14.2318 1.33722 15.9992 1.33521ZM11.9994 38.6666C11.3401 38.6666 10.6957 38.4711 10.1476 38.1048C9.59943 37.7386 9.17221 37.218 8.91993 36.6089C8.66765 35.9999 8.60164 35.3297 8.73025 34.6831C8.85886 34.0366 9.17632 33.4427 9.64247 32.9765C10.1086 32.5104 10.7025 32.1929 11.3491 32.0643C11.9957 31.9357 12.6659 32.0017 13.2749 32.254C13.884 32.5062 14.4045 32.9335 14.7708 33.4816C15.137 34.0297 15.3325 34.6742 15.3325 35.3334C15.3315 36.2171 14.98 37.0643 14.3551 37.6891C13.7302 38.314 12.8831 38.6655 11.9994 38.6666ZM33.3316 38.6666C32.6723 38.6666 32.0279 38.4711 31.4798 38.1048C30.9316 37.7386 30.5044 37.218 30.2521 36.6089C29.9999 35.9999 29.9338 35.3297 30.0625 34.6831C30.1911 34.0366 30.5085 33.4427 30.9747 32.9765C31.4408 32.5104 32.0347 32.1929 32.6813 32.0643C33.3279 31.9357 33.9981 32.0017 34.6071 32.254C35.2162 32.5062 35.7367 32.9335 36.103 33.4816C36.4692 34.0297 36.6647 34.6742 36.6647 35.3334C36.6637 36.2171 36.3122 37.0643 35.6873 37.6891C35.0625 38.314 34.2153 38.6655 33.3316 38.6666ZM41.3311 36H37.9447C38.046 35.3354 38.0026 34.6568 37.8173 34.0105C37.632 33.3643 37.3093 32.7657 36.8712 32.2558C36.4331 31.7458 35.89 31.3366 35.2791 31.056C34.6682 30.7754 34.0038 30.6301 33.3316 30.6301C32.6593 30.6301 31.9949 30.7754 31.384 31.056C30.7731 31.3366 30.23 31.7458 29.7919 32.2558C29.3538 32.7657 29.0311 33.3643 28.8458 34.0105C28.6606 34.6568 28.6171 35.3354 28.7185 36H16.6125C16.7138 35.3354 16.6704 34.6568 16.4851 34.0105C16.2998 33.3643 15.9771 32.7657 15.539 32.2558C15.1009 31.7458 14.5578 31.3366 13.9469 31.056C13.336 30.7754 12.6716 30.6301 11.9994 30.6301C11.3271 30.6301 10.6627 30.7754 10.0518 31.056C9.44089 31.3366 8.8978 31.7458 8.45972 32.2558C8.02164 32.7657 7.69892 33.3643 7.51365 34.0105C7.32838 34.6568 7.28493 35.3354 7.38628 36H3.99979V31.3336C4.00115 30.0964 4.49322 28.9103 5.36805 28.0355C6.24288 27.1606 7.42901 26.6686 8.66621 26.6672C8.78951 26.6677 8.91048 26.6337 9.01537 26.5688C9.12026 26.504 9.20485 26.4111 9.25951 26.3005L9.98614 24.8606C10.9149 23 12.3437 21.4349 14.1123 20.341C15.8809 19.2471 17.9194 18.6676 19.9989 18.6676C22.0785 18.6676 24.117 19.2471 25.8856 20.341C27.6542 21.4349 29.083 23 30.0117 24.8606L30.7384 26.3005C30.793 26.4111 30.8776 26.504 30.9825 26.5688C31.0874 26.6337 31.2084 26.6677 31.3317 26.6672H35.3315C36.9219 26.6696 38.4466 27.3025 39.5712 28.4271C40.6959 29.5517 41.3287 31.0764 41.3311 32.6669V36Z" fill="white"/>
<path d="M25.537 20.9078C24.2464 20.1101 22.7988 19.6005 21.2932 19.4139C19.7875 19.2274 18.2593 19.3682 16.8131 19.8268C15.3668 20.2854 14.0367 21.0509 12.9137 22.071C11.7906 23.0911 10.9011 24.3417 10.306 25.7373C10.2625 25.8387 10.2448 25.9494 10.2546 26.0593C10.2643 26.1692 10.3012 26.275 10.362 26.3672C10.4227 26.4593 10.5054 26.5349 10.6025 26.5873C10.6997 26.6396 10.8084 26.667 10.9187 26.6669H29.0778C29.188 26.667 29.2966 26.6397 29.3938 26.5874C29.4909 26.5352 29.5736 26.4597 29.6344 26.3677C29.6951 26.2756 29.7321 26.1699 29.742 26.0601C29.7519 25.9503 29.7344 25.8397 29.6911 25.7382C28.84 23.7368 27.3885 22.0489 25.537 20.9078ZM19.3316 20.6926V25.3337H11.9928C12.7401 24.0162 13.8008 22.9035 15.0809 22.0939C16.361 21.2844 17.821 20.8031 19.3316 20.6926ZM20.6649 25.3337V20.6919C22.176 20.8016 23.6366 21.2827 24.9172 22.0925C26.1977 22.9022 27.2586 24.0155 28.0056 25.3337H20.6649Z" fill="white"/>
<path d="M11.9995 32.668C11.4721 32.668 10.9566 32.8244 10.5181 33.1174C10.0796 33.4104 9.73781 33.8268 9.53599 34.3141C9.33416 34.8013 9.28136 35.3375 9.38425 35.8547C9.48713 36.372 9.7411 36.8471 10.114 37.22C10.4869 37.5929 10.9621 37.8469 11.4793 37.9498C11.9966 38.0527 12.5327 37.9999 13.02 37.7981C13.5072 37.5962 13.9237 37.2545 14.2167 36.816C14.5097 36.3774 14.6661 35.8619 14.6661 35.3345C14.6653 34.6275 14.3841 33.9497 13.8842 33.4498C13.3843 32.9499 12.7065 32.6687 11.9995 32.668ZM11.9995 36.6678C11.7358 36.6678 11.4781 36.5896 11.2588 36.4431C11.0396 36.2966 10.8687 36.0883 10.7678 35.8447C10.6668 35.6011 10.6404 35.333 10.6919 35.0744C10.7433 34.8158 10.8703 34.5782 11.0568 34.3917C11.2432 34.2053 11.4808 34.0783 11.7394 34.0269C11.9981 33.9754 12.2661 34.0018 12.5098 34.1027C12.7534 34.2036 12.9616 34.3745 13.1081 34.5938C13.2546 34.813 13.3328 35.0708 13.3328 35.3345C13.3324 35.688 13.1918 36.0269 12.9418 36.2768C12.6919 36.5268 12.353 36.6674 11.9995 36.6678Z" fill="white"/>
<path d="M33.3316 32.666C32.8042 32.666 32.2886 32.8224 31.8501 33.1154C31.4116 33.4084 31.0698 33.8249 30.868 34.3121C30.6662 34.7994 30.6134 35.3355 30.7163 35.8528C30.8192 36.37 31.0731 36.8452 31.446 37.2181C31.819 37.591 32.2941 37.845 32.8113 37.9478C33.3286 38.0507 33.8647 37.9979 34.352 37.7961C34.8392 37.5943 35.2557 37.2525 35.5487 36.814C35.8417 36.3755 35.9981 35.8599 35.9981 35.3325C35.9973 34.6256 35.7162 33.9478 35.2162 33.4478C34.7163 32.9479 34.0385 32.6668 33.3316 32.666ZM33.3316 36.6658C33.0679 36.6658 32.8101 36.5876 32.5908 36.4411C32.3716 36.2946 32.2007 36.0864 32.0998 35.8428C31.9989 35.5991 31.9725 35.3311 32.0239 35.0724C32.0754 34.8138 32.2023 34.5762 32.3888 34.3898C32.5753 34.2033 32.8128 34.0763 33.0714 34.0249C33.3301 33.9735 33.5982 33.9999 33.8418 34.1008C34.0854 34.2017 34.2936 34.3726 34.4401 34.5918C34.5866 34.8111 34.6648 35.0689 34.6648 35.3325C34.6644 35.686 34.5238 36.0249 34.2739 36.2749C34.0239 36.5248 33.685 36.6654 33.3316 36.6658Z" fill="white"/>
<path d="M23.9986 28H21.9987C21.8219 28 21.6523 28.0702 21.5273 28.1953C21.4023 28.3203 21.332 28.4898 21.332 28.6666C21.332 28.8434 21.4023 29.013 21.5273 29.138C21.6523 29.263 21.8219 29.3333 21.9987 29.3333H23.9986C24.1754 29.3333 24.3449 29.263 24.4699 29.138C24.595 29.013 24.6652 28.8434 24.6652 28.6666C24.6652 28.4898 24.595 28.3203 24.4699 28.1953C24.3449 28.0702 24.1754 28 23.9986 28Z" fill="white"/>
<path d="M13.9991 9.33426V12.6674C13.9991 12.7959 14.0363 12.9217 14.1061 13.0295C14.1759 13.1374 14.2754 13.2228 14.3926 13.2755C14.5098 13.3281 14.6397 13.3458 14.7667 13.3263C14.8937 13.3069 15.0124 13.2511 15.1085 13.1658L21.1082 7.83274C21.2092 7.74294 21.2806 7.62454 21.3128 7.49324C21.3451 7.36194 21.3366 7.22394 21.2886 7.09756C21.2406 6.97118 21.1552 6.86239 21.0439 6.78562C20.9327 6.70885 20.8007 6.66774 20.6655 6.66773H17.9989V3.33457C17.9989 3.20608 17.9618 3.08033 17.892 2.97245C17.8222 2.86458 17.7227 2.77917 17.6055 2.72651C17.4883 2.67386 17.3583 2.6562 17.2313 2.67566C17.1043 2.69512 16.9857 2.75087 16.8896 2.8362L10.8899 8.16925C10.7888 8.25904 10.7174 8.37745 10.6852 8.50875C10.653 8.64005 10.6615 8.77805 10.7095 8.90443C10.7575 9.03081 10.8428 9.1396 10.9541 9.21637C11.0654 9.29314 11.1974 9.33425 11.3326 9.33426H13.9991ZM16.6657 4.81923V7.33436C16.6657 7.51116 16.7359 7.68072 16.8609 7.80574C16.9859 7.93076 17.1555 8.00099 17.3323 8.00099H18.9122L15.3324 11.1828V8.66762C15.3324 8.49082 15.2622 8.32126 15.1372 8.19625C15.0121 8.07123 14.8426 8.00099 14.6658 8.00099H13.0859L16.6657 4.81923Z" fill="white"/>
</svg>
