<svg width="144" height="144" viewBox="0 0 144 144" fill="none" xmlns="http://www.w3.org/2000/svg">
<rect x="0.5" y="0.5" width="143" height="143" rx="4.5" fill="white" stroke="#EDE6E2"/>
<rect x="10" y="10" width="124" height="124" rx="5" fill="#F84E1D"/>
<path d="M47.3594 77C48.1787 77 48.8438 76.3279 48.8438 75.5C48.8438 74.6721 48.1787 74 47.3594 74C46.5401 74 45.875 74.6721 45.875 75.5C45.875 76.3279 46.5401 77 47.3594 77Z" fill="white"/>
<path d="M101.094 53C106.005 53 110 48.9629 110 44C110 39.0371 106.005 35 101.094 35C96.1826 35 92.1875 39.0371 92.1875 44C92.1875 48.9629 96.1826 53 101.094 53ZM101.094 38C104.367 38 107.031 40.6918 107.031 44C107.031 47.3082 104.367 50 101.094 50C97.82 50 95.1562 47.3082 95.1562 44C95.1562 40.6918 97.82 38 101.094 38Z" fill="white"/>
<path d="M101.094 81.5C106.005 81.5 110 77.4629 110 72.5C110 67.5371 106.005 63.5 101.094 63.5C96.1826 63.5 92.1875 67.5371 92.1875 72.5C92.1875 77.4629 96.1826 81.5 101.094 81.5ZM101.094 66.5C104.367 66.5 107.031 69.1918 107.031 72.5C107.031 75.8082 104.367 78.5 101.094 78.5C97.82 78.5 95.1562 75.8082 95.1562 72.5C95.1562 69.1918 97.82 66.5 101.094 66.5Z" fill="white"/>
<path d="M101.094 110C106.005 110 110 105.963 110 101C110 96.0371 106.005 92 101.094 92C96.1826 92 92.1875 96.0371 92.1875 101C92.1875 105.963 96.1826 110 101.094 110ZM101.094 95C104.367 95 107.031 97.6918 107.031 101C107.031 104.308 104.367 107 101.094 107C97.82 107 95.1562 104.308 95.1562 101C95.1562 97.6918 97.82 95 101.094 95Z" fill="white"/>
<path d="M39.9375 83V102.5C39.9375 104.981 41.935 107 44.3906 107H50.3281C52.7837 107 54.7812 104.981 54.7812 102.5V83C58.055 83 60.7188 80.3082 60.7188 77V72.5H70.5156V98C70.5156 100.481 72.5132 102.5 74.9688 102.5H84.1504L83.7161 102.939C83.1363 103.525 83.1363 104.475 83.7161 105.061C84.296 105.646 85.2353 105.646 85.8151 105.061L88.7839 102.061C89.3637 101.475 89.3637 100.525 88.7839 99.9395L85.8151 96.9395C85.2353 96.3535 84.296 96.3535 83.7161 96.9395C83.1363 97.5254 83.1363 98.4746 83.7161 99.0605L84.1504 99.5H74.9688C74.15 99.5 73.4844 98.8273 73.4844 98V72.5H84.1504L83.7161 72.9395C83.1363 73.5254 83.1363 74.4746 83.7161 75.0605C84.296 75.6465 85.2353 75.6465 85.8151 75.0605L88.7839 72.0605C89.3637 71.4752 89.3637 70.5254 88.7839 69.9395L85.8151 66.9395C85.2353 66.3535 84.296 66.3535 83.7161 66.9395C83.1363 67.5254 83.1363 68.4746 83.7161 69.0605L84.1504 69.5H73.4844V47C73.4844 46.1727 74.15 45.5 74.9688 45.5H84.1504L83.7161 45.9395C83.1363 46.5254 83.1363 47.4746 83.7161 48.0605C84.296 48.6465 85.2353 48.6465 85.8151 48.0605L88.7839 45.0605C89.3637 44.4752 89.3637 43.5254 88.7839 42.9395L85.8151 39.9395C85.2353 39.3535 84.296 39.3535 83.7161 39.9395C83.1363 40.5254 83.1363 41.4746 83.7161 42.0605L84.1504 42.5H74.9688C72.5132 42.5 70.5156 44.5186 70.5156 47V69.5H60.7188V63.5C60.7188 57.7104 56.0575 53 50.3281 53H44.3906C38.6613 53 34 57.7104 34 63.5V77C34 80.3082 36.6638 83 39.9375 83ZM36.9688 63.5C36.9688 59.3645 40.2982 56 44.3906 56H50.3281C54.4206 56 57.75 59.3645 57.75 63.5V77C57.75 78.6541 56.4181 80 54.7812 80V63.5C54.7812 62.6715 54.1168 62 53.2969 62C52.477 62 51.8125 62.6715 51.8125 63.5V102.5C51.8125 103.327 51.1469 104 50.3281 104H48.8438V81.5C48.8438 80.6715 48.1793 80 47.3594 80C46.5395 80 45.875 80.6715 45.875 81.5V104H44.3906C43.5719 104 42.9062 103.327 42.9062 102.5V63.5C42.9062 62.6715 42.2418 62 41.4219 62C40.602 62 39.9375 62.6715 39.9375 63.5V80C38.3006 80 36.9688 78.6541 36.9688 77V63.5Z" fill="white"/>
<path d="M54.7813 45.5C54.7813 41.3645 51.4518 38 47.3594 38C43.2669 38 39.9375 41.3645 39.9375 45.5C39.9375 49.6355 43.2669 53 47.3594 53C51.4518 53 54.7813 49.6355 54.7813 45.5ZM47.3594 50C44.9038 50 42.9063 47.9814 42.9063 45.5C42.9063 43.0186 44.9038 41 47.3594 41C49.815 41 51.8125 43.0186 51.8125 45.5C51.8125 47.9814 49.815 50 47.3594 50Z" fill="white"/>
</svg>
