<svg width="45" height="45" viewBox="0 0 45 45" fill="none" xmlns="http://www.w3.org/2000/svg">
<path d="M44.9471 3.35933C44.8496 1.57182 43.428 0.150369 41.6405 0.0528113C38.0337 -0.144239 30.9757 0.0474501 24.2268 3.53819C20.7863 5.31779 17.1477 8.33498 14.2439 11.8161C14.2081 11.859 14.1733 11.9022 14.1378 11.9452L7.54778 12.4542C6.46304 12.5381 5.49686 13.1066 4.89692 14.014L0.400977 20.8143C-0.0540306 21.5024 -0.126364 22.3637 0.207355 23.118C0.541162 23.8725 1.22706 24.3982 2.04224 24.5245L7.59436 25.3845C7.57476 25.4924 7.55507 25.6002 7.53705 25.7082C7.35222 26.8138 7.71855 27.9506 8.51712 28.7491L16.2508 36.4828C16.9128 37.1449 17.8075 37.5099 18.7242 37.5099C18.913 37.5099 19.1028 37.4943 19.2918 37.4628C19.3997 37.4448 19.5075 37.4251 19.6155 37.4055L20.4754 42.9577C20.6017 43.7729 21.1274 44.4589 21.8817 44.7926C22.1956 44.9314 22.5277 45 22.8584 45C23.3227 44.9999 23.7838 44.8647 24.1856 44.599L30.9858 40.103C31.8933 39.503 32.4618 38.5368 32.5454 37.4522L33.0545 30.8622C33.0975 30.8267 33.1407 30.7919 33.1836 30.7561C36.6649 27.8523 39.6821 24.2137 41.4617 20.7731C44.9526 14.0239 45.1439 6.96591 44.9471 3.35933ZM29.5317 37.9035L23.0268 42.2042L22.1887 36.7932C24.9379 35.9849 27.6575 34.6903 30.2484 32.956L29.9168 37.249C29.8962 37.5168 29.7557 37.7554 29.5317 37.9035ZM18.1152 34.6184L10.3814 26.8847C10.1841 26.6873 10.0929 26.41 10.1376 26.1429C10.3676 24.768 10.7248 23.4592 11.1671 22.2263L22.7711 33.8303C21.2903 34.3607 19.964 34.6771 18.857 34.8622C18.5894 34.9067 18.3125 34.8157 18.1152 34.6184ZM7.75089 15.0831L12.0438 14.7515C10.3094 17.3424 9.01475 20.062 8.20643 22.8112L2.79555 21.9732L7.09637 15.4682C7.24456 15.2441 7.48318 15.1038 7.75089 15.0831ZM31.4949 28.7312C29.365 30.5078 27.2976 31.7927 25.392 32.7225L12.2769 19.6074C13.4949 17.1198 14.9814 15.0483 16.2686 13.5051C18.9558 10.2835 22.2981 7.50433 25.4383 5.88011C31.6323 2.67625 38.1582 2.50372 41.497 2.68548C41.9389 2.70956 42.2904 3.06103 42.3145 3.50303C42.4965 6.84181 42.3236 13.3677 39.1197 19.5617C37.4956 22.7019 34.7164 26.044 31.4949 28.7312Z" fill="#F84E1D"/>
<path d="M30.8251 20.7634C32.5127 20.7632 34.2011 20.1208 35.486 18.8359C36.731 17.5909 37.4166 15.9356 37.4166 14.175C37.4166 12.4144 36.7309 10.759 35.486 9.51408C32.9159 6.94391 28.7341 6.94408 26.1642 9.51408C24.9191 10.759 24.2335 12.4144 24.2335 14.175C24.2335 15.9356 24.9192 17.5909 26.1642 18.8359C27.4493 20.121 29.1368 20.7636 30.8251 20.7634ZM28.0284 11.3784C28.7994 10.6073 29.8121 10.2219 30.8249 10.2219C31.8377 10.2219 32.8505 10.6073 33.6215 11.3784C34.3684 12.1254 34.7798 13.1186 34.7798 14.1749C34.7798 15.2313 34.3684 16.2245 33.6215 16.9715C32.0795 18.5135 29.5703 18.5134 28.0283 16.9715C27.2813 16.2245 26.8699 15.2313 26.8699 14.175C26.8699 13.1186 27.2814 12.1254 28.0284 11.3784Z" fill="#F84E1D"/>
<path d="M1.3449 37.0842C1.68231 37.0842 2.01972 36.9555 2.27706 36.698L6.58131 32.3938C7.09617 31.8789 7.09617 31.0442 6.58131 30.5294C6.06654 30.0145 5.23176 30.0145 4.7169 30.5294L0.412733 34.8336C-0.102129 35.3485 -0.102129 36.1832 0.412733 36.698C0.670076 36.9555 1.00749 37.0842 1.3449 37.0842Z" fill="#F84E1D"/>
<path d="M10.5259 34.474C10.0111 33.9591 9.17636 33.9591 8.6615 34.474L0.386278 42.7493C-0.128584 43.2641 -0.128584 44.0988 0.386278 44.6137C0.643708 44.8711 0.981031 44.9998 1.31844 44.9998C1.65585 44.9998 1.99326 44.8711 2.25061 44.6136L10.5258 36.3384C11.0408 35.8235 11.0408 34.9888 10.5259 34.474Z" fill="#F84E1D"/>
<path d="M12.6061 38.4186L8.30185 42.7228C7.78699 43.2377 7.78699 44.0724 8.30185 44.5872C8.55928 44.8447 8.8967 44.9734 9.23402 44.9734C9.57134 44.9734 9.90884 44.8447 10.1662 44.5872L14.4704 40.283C14.9853 39.7681 14.9853 38.9334 14.4704 38.4186C13.9557 37.9037 13.1209 37.9037 12.6061 38.4186Z" fill="#F84E1D"/>
</svg>
