<svg width="48" height="45" viewBox="0 0 48 45" fill="none" xmlns="http://www.w3.org/2000/svg">
<path d="M47.3034 43.5936H46.1764L35.6607 27.8201C35.2417 27.1916 34.5454 26.8239 33.7847 26.8378C33.3045 26.8466 32.8526 27.0089 32.4845 27.2909L26.0551 13.2634C25.7855 12.6752 25.2955 12.2544 24.7065 12.0742V6.66779H30.7678C31.0271 6.66779 31.2656 6.52495 31.3879 6.2964C31.5102 6.06786 31.497 5.79023 31.3531 5.5745L30.1096 3.7095L31.3531 1.84486C31.497 1.62913 31.5102 1.35151 31.3879 1.12296C31.2656 0.894411 31.0271 0.751569 30.7678 0.751569H24.7065V0.703222C24.7065 0.314985 24.3916 0 24.0033 0C23.6151 0 23.3001 0.314985 23.3001 0.703222V12.1053C22.7335 12.306 22.2705 12.7324 22.0215 13.3136L19.6027 18.957L18.4002 18.0098C18.0545 17.7377 17.6102 17.637 17.181 17.7337C16.7517 17.83 16.3935 18.1113 16.1976 18.505L7.95923 35.0673L6.67145 35.8698C5.89132 36.3559 5.25146 37.0426 4.8211 37.855L1.78296 43.5936H0.703222C0.314985 43.5936 0 43.9085 0 44.2968C0 44.6854 0.314985 45 0.703222 45H47.3034C47.6917 45 48.0066 44.6854 48.0066 44.2968C48.0066 43.9085 47.6917 43.5936 47.3034 43.5936ZM29.454 2.15801L28.6794 3.31943C28.5219 3.55567 28.5219 3.86333 28.6794 4.09957L29.454 5.26135H24.7065V2.15801H29.454ZM17.4568 19.1313C17.4601 19.1251 17.467 19.1104 17.4894 19.1057C17.5121 19.1005 17.5249 19.1104 17.53 19.1148L19.0291 20.2953L18.813 20.7996C18.6599 21.1567 18.8255 21.5699 19.1826 21.723C19.5397 21.8761 19.9528 21.7105 20.1059 21.3538L23.314 13.8674C23.5045 13.4239 23.9176 13.3843 24.0396 13.3828C24.1604 13.381 24.5754 13.4103 24.7765 13.8494L29.4939 24.1418L28.7325 24.9036C28.5809 25.0549 28.3809 25.1318 28.1662 25.1204C27.9524 25.1087 27.7608 25.0109 27.6267 24.8443C27.1462 24.248 26.4067 23.9568 25.6493 24.0645C24.8911 24.1725 24.2626 24.6586 23.9674 25.3647L22.7994 28.1608C22.6478 28.5241 22.3288 28.5984 22.1984 28.6135C22.068 28.6285 21.7402 28.6292 21.5098 28.3102L18.7563 24.5022L18.9643 24.0176C19.1174 23.6605 18.9518 23.2474 18.5947 23.0943C18.238 22.9412 17.8245 23.1067 17.6714 23.4634L14.9885 29.7236C14.6197 30.5843 14.0044 31.3014 13.2096 31.7966L10.2377 33.6481L17.4568 19.1313ZM6.06419 38.5131C6.37845 37.9198 6.84543 37.4184 7.41533 37.0635L13.9531 32.9903C14.9933 32.342 15.7983 31.404 16.2814 30.2774L18.1105 26.0093L20.37 29.1343C20.7817 29.7031 21.416 30.0254 22.1032 30.0254C22.1881 30.0254 22.2738 30.0203 22.3599 30.0104C23.1437 29.9199 23.7935 29.431 24.0974 28.7028L25.2655 25.9068C25.4127 25.5548 25.7215 25.475 25.8471 25.457C25.9731 25.4391 26.2921 25.4295 26.5316 25.7266C26.914 26.2013 27.4824 26.4921 28.0912 26.5247C28.7003 26.5573 29.2958 26.3287 29.7269 25.8976L30.1192 25.5054L31.5245 28.5721L31.1348 29.2053C30.9315 29.5361 31.0344 29.9694 31.3652 30.1726C31.6963 30.3763 32.1292 30.273 32.3328 29.9423L33.1434 28.6244C33.2892 28.3878 33.5323 28.249 33.8103 28.2439C34.0858 28.2391 34.3363 28.3688 34.4905 28.6003L44.4861 43.5936H13.8784L16.325 41.4963C17.1696 40.7726 18.1288 40.2159 19.1764 39.8419L26.2562 37.3133C27.5293 36.8584 28.6211 35.9738 29.3299 34.8223L30.7458 32.5211C30.9495 32.1904 30.8462 31.7574 30.5154 31.5538C30.1847 31.3502 29.7518 31.4534 29.5482 31.7842L28.1318 34.0854C27.5905 34.9652 26.7561 35.6413 25.783 35.9889L18.7031 38.5175C17.4934 38.9494 16.3851 39.5925 15.4097 40.4287L11.7174 43.5936H3.37437L6.06419 38.5131Z" fill="#F84E1D"/>
</svg>
