<svg width="47" height="45" viewBox="0 0 47 45" fill="none" xmlns="http://www.w3.org/2000/svg">
<path d="M29.4618 11.4108C30.7052 11.4108 31.7168 10.3992 31.7168 9.15578C31.7168 7.91235 30.7052 6.90066 29.4618 6.90066C28.2183 6.90066 27.2067 7.91235 27.2067 9.15578C27.2067 9.66361 27.3756 10.1327 27.66 10.5101L23.9549 15.6877C23.7338 15.6151 23.4979 15.5752 23.2528 15.5752C22.6602 15.5752 22.1207 15.8053 21.7178 16.1804L19.2482 14.779C19.2811 14.626 19.2988 14.4675 19.2988 14.3048C19.2988 13.0614 18.2872 12.0498 17.0438 12.0498C15.8004 12.0498 14.7888 13.0614 14.7888 14.3048C14.7888 14.4675 14.8064 14.626 14.8394 14.779L12.3697 16.1804C11.9669 15.8053 11.4273 15.5753 10.8348 15.5753C9.59136 15.5753 8.57975 16.587 8.57975 17.8304C8.57975 19.0738 9.59136 20.0855 10.8348 20.0855C12.0782 20.0855 13.0898 19.0738 13.0898 17.8304C13.0898 17.6678 13.0721 17.5092 13.0392 17.3562L15.5088 15.9549C15.9117 16.3299 16.4512 16.56 17.0438 16.56C17.6363 16.56 18.1758 16.3299 18.5787 15.955L21.0484 17.3563C21.0154 17.5093 20.9977 17.6679 20.9977 17.8305C20.9977 19.0739 22.0094 20.0856 23.2528 20.0856C24.4963 20.0856 25.5079 19.0739 25.5079 17.8305C25.5079 17.3226 25.3389 16.8535 25.0545 16.4761L28.7596 11.2984C28.9806 11.3709 29.2166 11.4108 29.4618 11.4108ZM29.4618 8.25368C29.9591 8.25368 30.3638 8.65832 30.3638 9.15578C30.3638 9.65315 29.9591 10.0578 29.4618 10.0578C28.9644 10.0578 28.5598 9.65315 28.5598 9.15578C28.5597 8.65832 28.9643 8.25368 29.4618 8.25368ZM10.8345 18.7323C10.3371 18.7323 9.9325 18.3277 9.9325 17.8302C9.9325 17.3328 10.3371 16.9281 10.8345 16.9281C11.3319 16.9281 11.7365 17.3328 11.7365 17.8302C11.7365 18.3277 11.3319 18.7323 10.8345 18.7323ZM17.0436 15.2068C16.5462 15.2068 16.1416 14.8022 16.1416 14.3047C16.1416 13.8074 16.5462 13.4027 17.0436 13.4027C17.541 13.4027 17.9456 13.8074 17.9456 14.3047C17.9457 14.8022 17.541 15.2068 17.0436 15.2068ZM23.2527 18.7323C22.7553 18.7323 22.3507 18.3277 22.3507 17.8302C22.3507 17.3328 22.7553 16.9281 23.2527 16.9281C23.7501 16.9281 24.1548 17.3328 24.1548 17.8302C24.1548 18.3277 23.7501 18.7323 23.2527 18.7323Z" fill="#F84E1D"/>
<path d="M37.7759 33.4111H1.91362C1.6045 33.4111 1.35302 33.1597 1.35302 32.8505V4.94059C1.35302 4.63147 1.6045 4.37999 1.91362 4.37999H5.10277C5.47638 4.37999 5.77928 4.07718 5.77928 3.70348C5.77928 3.32978 5.47638 3.02697 5.10277 3.02697H1.91362C0.858444 3.02697 0 3.88541 0 4.94059V32.8505C0 33.9057 0.858444 34.7642 1.91362 34.7642H6.57819V36.253C6.57819 37.1012 7.26823 37.7912 8.11639 37.7912H14.8882L11.7004 44.0149C11.5301 44.3475 11.6616 44.7551 11.9941 44.9255C12.0928 44.9761 12.1982 45 12.302 45C12.5478 45 12.7849 44.8656 12.9046 44.6317L16.4083 37.7912H23.888L27.3917 44.6317C27.5114 44.8656 27.7485 45 27.9943 45C28.0981 45 28.2035 44.9759 28.3021 44.9255C28.6347 44.7551 28.7662 44.3475 28.5958 44.0149L25.4081 37.7912H32.1799C33.0281 37.7912 33.7181 37.1013 33.7181 36.253V34.7642H37.7759C38.1495 34.7642 38.4524 34.4613 38.4524 34.0876C38.4524 33.7139 38.1495 33.4111 37.7759 33.4111ZM32.3651 36.253C32.3651 36.3551 32.282 36.4382 32.1799 36.4382H8.11639C8.01428 36.4382 7.93121 36.3551 7.93121 36.253V34.7642H32.3651V36.253Z" fill="#F84E1D"/>
<path d="M7.8088 4.37999H38.3826C38.6917 4.37999 38.9432 4.63147 38.9432 4.94059V11.3729C38.9432 11.7466 39.2461 12.0494 39.6197 12.0494C39.9933 12.0494 40.2962 11.7466 40.2962 11.3729V4.94059C40.2962 3.88541 39.4377 3.02697 38.3826 3.02697H23.9029V1.69722C23.9029 0.761388 23.1415 0 22.2055 0H18.0907C17.1549 0 16.3934 0.761388 16.3934 1.69722V3.02697H7.8088C7.43519 3.02697 7.1323 3.32978 7.1323 3.70348C7.1323 4.07718 7.43519 4.37999 7.8088 4.37999ZM17.7464 1.69722C17.7464 1.50744 17.9009 1.35302 18.0907 1.35302H22.2055C22.3953 1.35302 22.5498 1.50744 22.5498 1.69722V3.02697H17.7465L17.7464 1.69722Z" fill="#F84E1D"/>
<path d="M9.46228 23.5441C9.08867 23.5441 8.78577 23.8469 8.78577 24.2206V30.1984C8.78577 30.5721 9.08867 30.8749 9.46228 30.8749H12.2068C12.5804 30.8749 12.8833 30.5721 12.8833 30.1984V24.2206C12.8833 23.8469 12.5804 23.5441 12.2068 23.5441H9.46228ZM11.5303 29.522H10.1388V24.8972H11.5303V29.522Z" fill="#F84E1D"/>
<path d="M15.6713 20.0869C15.2977 20.0869 14.9948 20.3897 14.9948 20.7634V30.1985C14.9948 30.5722 15.2977 30.875 15.6713 30.875H18.4158C18.7894 30.875 19.0923 30.5722 19.0923 30.1985V20.7634C19.0923 20.3897 18.7894 20.0869 18.4158 20.0869H15.6713ZM17.7394 29.522H16.3479V21.4399H17.7394V29.522Z" fill="#F84E1D"/>
<path d="M21.8804 23.5441C21.5068 23.5441 21.2039 23.8469 21.2039 24.2206V30.1984C21.2039 30.5721 21.5068 30.8749 21.8804 30.8749H24.6249C24.9985 30.8749 25.3014 30.5721 25.3014 30.1984V24.2206C25.3014 23.8469 24.9985 23.5441 24.6249 23.5441H21.8804ZM23.9484 29.522H22.5569V24.8972H23.9484V29.522Z" fill="#F84E1D"/>
<path d="M28.0895 27.5361C27.7158 27.5361 27.4129 27.8389 27.4129 28.2126V30.1985C27.4129 30.5722 27.7158 30.875 28.0895 30.875H30.834C31.2076 30.875 31.5105 30.5722 31.5105 30.1985C31.5105 29.8248 31.2076 29.522 30.834 29.522H28.766V28.2126C28.766 27.8389 28.4631 27.5361 28.0895 27.5361Z" fill="#F84E1D"/>
<path d="M45.838 34.0474L41.9569 27.3251C42.9402 26.277 43.6562 24.9965 44.0386 23.5691C44.6499 21.2878 44.3362 18.905 43.1553 16.8596C40.7175 12.637 35.2991 11.1854 31.0767 13.6231C26.8543 16.0608 25.4025 21.4792 27.8403 25.7016C29.0212 27.747 30.928 29.2101 33.2093 29.8215C33.9711 30.0256 34.744 30.1266 35.5121 30.1266C36.1834 30.1266 36.8508 30.0493 37.5035 29.8965L41.3838 36.619C41.8594 37.4432 42.7255 37.9044 43.6151 37.9043C44.051 37.9043 44.4926 37.7935 44.8966 37.5604C45.69 37.1024 46.183 36.2485 46.183 35.3319C46.183 34.8828 46.0637 34.4387 45.838 34.0474ZM33.5594 28.5146C31.6272 27.9968 30.0122 26.7575 29.0119 25.0251C26.9472 21.4488 28.1769 16.8596 31.7532 14.7948C32.9296 14.1156 34.2153 13.793 35.4851 13.793C38.0753 13.793 40.598 15.1364 41.9835 17.5361C42.9837 19.2685 43.2494 21.2867 42.7316 23.2189C42.2139 25.1512 40.9746 26.7661 39.2422 27.7664C37.5099 28.7666 35.4917 29.0321 33.5594 28.5146ZM44.2204 36.3885C43.6383 36.7246 42.8915 36.5245 42.5556 35.9427L38.8224 29.4749C39.1966 29.3222 39.563 29.1436 39.9189 28.9382C40.2751 28.7325 40.6124 28.5036 40.9318 28.2557L44.6662 34.7237C44.7733 34.9096 44.83 35.12 44.83 35.332C44.83 35.7666 44.5964 36.1715 44.2204 36.3885Z" fill="#F84E1D"/>
<path d="M41.6316 23.1865C42.1092 21.648 41.9955 20.0009 41.3113 18.5487C41.152 18.2106 40.749 18.0658 40.411 18.225C40.0729 18.3843 39.9281 18.7873 40.0874 19.1253C40.6271 20.2708 40.7166 21.5705 40.3395 22.7852C39.9603 24.0065 39.1411 25.0315 38.0328 25.6713C36.86 26.3486 35.4935 26.5282 34.1855 26.1778C32.8774 25.8273 31.784 24.9883 31.107 23.8155C29.7091 21.3944 30.5417 18.2876 32.9628 16.8897C34.7329 15.8678 36.9298 16.0044 38.5598 17.2376C38.8578 17.4631 39.2821 17.4044 39.5075 17.1064C39.7329 16.8084 39.6742 16.3841 39.3761 16.1587C37.3113 14.5964 34.5283 14.4234 32.2862 15.7179C30.8004 16.5757 29.7375 17.9609 29.2935 19.618C28.8494 21.2752 29.0773 23.0062 29.9352 24.492C30.793 25.9778 32.1781 27.0406 33.8353 27.4847C34.3887 27.633 34.9502 27.7064 35.5081 27.7064C36.621 27.7064 37.7196 27.4145 38.7092 26.8431C40.1134 26.0325 41.1512 24.734 41.6316 23.1865Z" fill="#F84E1D"/>
</svg>
