<svg width="53" height="49" viewBox="0 0 53 49" fill="none" xmlns="http://www.w3.org/2000/svg">
<path d="M50.6709 0H13.8711C13.4423 0 13.0947 0.357033 13.0947 0.797661C13.0947 1.23829 13.4423 1.59532 13.8711 1.59532H50.6709C51.099 1.59532 51.4473 1.9531 51.4473 2.39298V6.15465H7.54298V1.59532H10.248C10.6768 1.59532 11.0244 1.23829 11.0244 0.797661C11.0244 0.357033 10.6768 0 10.248 0H2.3291C1.04478 0 0 1.07355 0 2.39298V37.4573C0 38.7767 1.04478 39.8503 2.3291 39.8503H12.2662C12.1746 40.4747 12.36 41.1342 12.8268 41.6141L15.6523 44.517C16.4331 45.3192 17.7034 45.3191 18.4841 44.517L20.2553 42.6972C20.3907 42.558 20.5999 42.5241 20.7758 42.6125C21.2615 42.8566 21.7659 43.0718 22.2751 43.2521C22.4592 43.3171 22.5829 43.4928 22.5829 43.6892V46.2615C22.5829 47.3959 23.4812 48.3188 24.5853 48.3188H28.5811C29.6121 48.3188 30.4631 47.5139 30.5713 46.4836C32.112 48.0386 34.2219 49 36.547 49C41.2526 49 45.0808 45.0668 45.0808 40.2322C45.0808 40.1042 45.0767 39.9772 45.0714 39.8504H50.6709C51.9551 39.8504 53 38.7769 53 37.4574V2.39298C53 1.07355 51.9551 0 50.6709 0ZM1.55273 2.39309C1.55273 1.95321 1.90096 1.59543 2.3291 1.59543H5.99024V6.15465H1.55273V2.39309ZM28.5812 46.7235H24.5854C24.3375 46.7235 24.1357 46.5163 24.1357 46.2615V43.6892C24.1357 42.8121 23.5911 42.0301 22.7808 41.7436C22.3318 41.5847 21.8868 41.3949 21.4583 41.1795C21.1758 41.0374 20.8727 40.9684 20.5724 40.9684C20.0524 40.9684 19.5405 41.1755 19.1574 41.5691L17.3862 43.3888C17.2109 43.5688 16.9255 43.5689 16.7503 43.3888L13.9248 40.486C13.7496 40.3058 13.7496 40.0127 13.9248 39.8325L15.6962 38.0127C16.3006 37.3916 16.4531 36.4416 16.0754 35.6486C15.8658 35.2088 15.6811 34.7515 15.5264 34.29C15.2472 33.4573 14.4862 32.8979 13.6327 32.8979H11.1292C10.8813 32.8979 10.6795 32.6907 10.6795 32.4359V28.3304C10.6795 28.0755 10.8813 27.8684 11.1292 27.8684H13.6327C14.4864 27.8684 15.2473 27.3089 15.5264 26.4763C15.6812 26.0147 15.8658 25.5575 16.0755 25.1174C16.4531 24.3245 16.3006 23.3744 15.6962 22.7534L13.9249 20.9336C13.84 20.8464 13.7933 20.7304 13.7933 20.6071C13.7933 20.4837 13.84 20.3677 13.9249 20.2805L16.7504 17.3775C16.9255 17.1975 17.2109 17.1974 17.3863 17.3775L19.1574 19.1972C19.7619 19.8184 20.6866 19.9749 21.4585 19.5868C21.8862 19.3718 22.3312 19.1819 22.7807 19.0228C23.5912 18.7362 24.1357 17.9542 24.1357 17.0772V14.5049C24.1357 14.2501 24.3375 14.0429 24.5854 14.0429H28.5812C28.8292 14.0429 29.0309 14.2501 29.0309 14.5049V17.0772C29.0309 17.9542 29.5754 18.7361 30.3859 19.0227C30.8354 19.1818 31.2803 19.3716 31.7082 19.5868C32.4802 19.9748 33.4048 19.8183 34.0091 19.1973L35.7805 17.3775C35.8654 17.2902 35.9783 17.2422 36.0984 17.2422C36.2185 17.2422 36.3313 17.2902 36.4163 17.3775L39.2417 20.2805C39.4171 20.4605 39.4171 20.7535 39.2417 20.9337L37.4705 22.7535C36.8661 23.3747 36.7136 24.3246 37.0913 25.1177C37.3009 25.5579 37.4857 26.015 37.6404 26.4764C37.9194 27.309 38.6805 27.8685 39.5341 27.8685H42.0377C42.2856 27.8685 42.4873 28.0756 42.4873 28.3305V32.436C42.4873 32.6908 42.2856 32.898 42.0377 32.898H41.2157C39.8732 31.9928 38.2695 31.4642 36.5472 31.4642C36.0165 31.4642 35.4977 31.5168 34.9935 31.6125C35.0494 31.2108 35.0795 30.8007 35.0795 30.3833C35.0795 25.57 31.2681 21.6542 26.5833 21.6542C22.6316 21.6542 19.2336 24.4104 18.3198 28.357C18.2206 28.7855 18.4783 29.2156 18.8954 29.3174C19.3125 29.4198 19.7311 29.1547 19.8304 28.726C20.577 25.5015 23.354 23.2494 26.5833 23.2494C30.412 23.2494 33.5267 26.4496 33.5267 30.3832C33.5267 30.9815 33.4538 31.5623 33.3182 32.1179C31.1045 33.0512 29.3535 34.9126 28.529 37.2297C27.9113 37.4157 27.2589 37.5171 26.5833 37.5171C23.3704 37.5171 20.5967 35.2794 19.8381 32.0753C19.7368 31.6474 19.3174 31.3842 18.9002 31.4888C18.4836 31.5929 18.228 32.0243 18.3293 32.4524C19.2577 36.3737 22.6519 39.1124 26.5832 39.1124C27.1021 39.1124 27.6098 39.0628 28.1029 38.9701C28.0449 39.3824 28.0133 39.8034 28.0133 40.232C28.0133 41.7316 28.3822 43.144 29.0308 44.3797V46.2614C29.0309 46.5162 28.8292 46.7235 28.5812 46.7235ZM36.5472 47.4047C32.6978 47.4047 29.5662 44.1871 29.5662 40.2322C29.5662 36.2773 32.6979 33.0596 36.5472 33.0596C40.3966 33.0596 43.5283 36.2773 43.5283 40.2322C43.5283 44.1871 40.3966 47.4047 36.5472 47.4047ZM51.4473 37.4574C51.4473 37.8973 51.099 38.2551 50.6709 38.2551H44.8595C44.5231 36.762 43.8165 35.4131 42.8418 34.3188C43.5463 33.9998 44.0399 33.2765 44.0399 32.4361V28.3306C44.0399 27.1962 43.1417 26.2733 42.0376 26.2733H39.534C39.3428 26.2733 39.1718 26.1462 39.1084 25.9571C38.9331 25.4337 38.7235 24.9154 38.4859 24.4166C38.3998 24.2358 38.433 24.0209 38.5685 23.8819L40.3397 22.062C41.1204 21.2599 41.1204 19.9547 40.3396 19.1526L37.5142 16.2497C37.136 15.8611 36.6331 15.647 36.0982 15.6471C35.5634 15.6471 35.0606 15.8611 34.6824 16.2496L32.911 18.0695C32.7756 18.2085 32.5665 18.2428 32.3907 18.1542C31.9056 17.9103 31.4012 17.6952 30.8913 17.5146C30.7073 17.4495 30.5835 17.2738 30.5835 17.0775V14.5052C30.5835 13.3708 29.6852 12.4479 28.5811 12.4479H24.5853C23.4812 12.4479 22.5829 13.3708 22.5829 14.5052V17.0775C22.5829 17.2739 22.4592 17.4495 22.2749 17.5147C21.7651 17.6951 21.2607 17.9104 20.7757 18.1542C20.5998 18.2424 20.3906 18.2086 20.2552 18.0694L18.484 16.2496C17.7032 15.4476 16.4329 15.4477 15.6522 16.2496L12.8267 19.1526C12.4485 19.5411 12.2402 20.0579 12.2402 20.6074C12.2402 21.1569 12.4485 21.6735 12.8267 22.062L14.598 23.882C14.7334 24.0211 14.7665 24.2359 14.6804 24.4165C14.4428 24.9154 14.2334 25.4337 14.0579 25.9571C13.9946 26.1462 13.8235 26.2734 13.6323 26.2734H11.1288C10.0247 26.2734 9.12635 27.1963 9.12635 28.3307V32.4362C9.12635 33.5706 10.0247 34.4935 11.1288 34.4935H13.6323C13.8235 34.4935 13.9946 34.6206 14.0579 34.8098C14.2334 35.3333 14.4428 35.8516 14.6804 36.3503C14.7664 36.531 14.7333 36.7459 14.5979 36.8849L13.2642 38.2552H2.3291C1.90096 38.2552 1.55273 37.8974 1.55273 37.4575V7.74997H51.4473V37.4574Z" fill="#F84E1D"/>
<path d="M4.41815 11.7324H11.9354C12.3641 11.7324 12.7117 11.3754 12.7117 10.9348C12.7117 10.4941 12.3641 10.1371 11.9354 10.1371H4.41815C3.98939 10.1371 3.64178 10.4941 3.64178 10.9348C3.64178 11.3754 3.98939 11.7324 4.41815 11.7324Z" fill="#F84E1D"/>
<path d="M4.41815 14.9838H11.9354C12.3641 14.9838 12.7117 14.6268 12.7117 14.1861C12.7117 13.7455 12.3641 13.3885 11.9354 13.3885H4.41815C3.98939 13.3885 3.64178 13.7455 3.64178 14.1861C3.64178 14.6268 3.98939 14.9838 4.41815 14.9838Z" fill="#F84E1D"/>
<path d="M4.41815 18.2352H11.9354C12.3641 18.2352 12.7117 17.8781 12.7117 17.4375C12.7117 16.9969 12.3641 16.6398 11.9354 16.6398H4.41815C3.98939 16.6398 3.64178 16.9969 3.64178 17.4375C3.64178 17.8781 3.98939 18.2352 4.41815 18.2352Z" fill="#F84E1D"/>
<path d="M4.41815 21.4867H8.5918C9.02056 21.4867 9.36816 21.1296 9.36816 20.689C9.36816 20.2484 9.02056 19.8913 8.5918 19.8913H4.41815C3.98939 19.8913 3.64178 20.2484 3.64178 20.689C3.64178 21.1296 3.98939 21.4867 4.41815 21.4867Z" fill="#F84E1D"/>
<path d="M42.8037 18.3796H48.2383C48.9518 18.3796 49.5322 17.7833 49.5322 17.0502V11.4665C49.5322 10.7334 48.9518 10.1371 48.2383 10.1371H42.8037C42.0902 10.1371 41.5098 10.7334 41.5098 11.4665V12.5883C41.5098 13.0289 41.8573 13.3859 42.2861 13.3859C42.715 13.3859 43.0625 13.0289 43.0625 12.5883V11.7323H47.9795V16.7842H43.0625V16.3107C43.0625 15.8701 42.715 15.513 42.2861 15.513C41.8573 15.513 41.5098 15.8701 41.5098 16.3107V17.0501C41.5098 17.7832 42.0902 18.3796 42.8037 18.3796Z" fill="#F84E1D"/>
<path d="M26.5833 34.9034C29.0091 34.9034 30.9827 32.8758 30.9827 30.3833C30.9827 27.8909 29.0092 25.8633 26.5833 25.8633C24.1574 25.8633 22.1839 27.8909 22.1839 30.3833C22.1839 32.8758 24.1575 34.9034 26.5833 34.9034ZM26.5833 27.4586C28.153 27.4586 29.43 28.7707 29.43 30.3833C29.43 31.996 28.153 33.3081 26.5833 33.3081C25.0136 33.3081 23.7367 31.996 23.7367 30.3833C23.7367 28.7707 25.0137 27.4586 26.5833 27.4586Z" fill="#F84E1D"/>
<path d="M40.4957 36.6476C40.1446 36.3951 39.6604 36.4829 39.4145 36.8438L35.7413 42.2353L33.1425 39.5653C32.8392 39.2539 32.3477 39.2539 32.0445 39.5653C31.7413 39.8769 31.7413 40.3819 32.0446 40.6934L35.2977 44.0357C35.444 44.1858 35.6417 44.2692 35.8466 44.2692C35.8692 44.2692 35.8919 44.2682 35.9144 44.2663C36.1431 44.2457 36.3512 44.1222 36.4827 43.929L40.6867 37.7585C40.9325 37.3976 40.8471 36.9003 40.4957 36.6476Z" fill="#F84E1D"/>
</svg>
