<svg width="53" height="49" viewBox="0 0 53 49" fill="none" xmlns="http://www.w3.org/2000/svg">
<path d="M27.5352 39.8125C27.5352 40.3764 27.0718 40.8333 26.5 40.8333C25.9282 40.8333 25.4648 40.3764 25.4648 39.8125C25.4648 39.2487 25.9282 38.7917 26.5 38.7917C27.0718 38.7917 27.5352 39.2487 27.5352 39.8125Z" fill="#F84E1D"/>
<path d="M49.584 30.625C49.584 27.2475 46.798 24.5 43.373 24.5C39.9481 24.5 37.1621 27.2475 37.1621 30.625C37.1621 34.0025 39.9481 36.75 43.373 36.75C46.798 36.75 49.584 34.0025 49.584 30.625ZM43.373 34.7083C41.09 34.7083 39.2324 32.8764 39.2324 30.625C39.2324 28.3736 41.09 26.5417 43.373 26.5417C45.656 26.5417 47.5137 28.3736 47.5137 30.625C47.5137 32.8764 45.656 34.7083 43.373 34.7083Z" fill="#F84E1D"/>
<path d="M43.373 36.75C40.7645 36.75 38.1633 37.8179 36.3914 39.5493C34.0591 36.5267 30.4627 34.7083 26.5 34.7083C22.7051 34.7083 19.0279 36.4158 16.609 39.5493C14.8367 37.8183 12.2359 36.75 9.62695 36.75C4.40871 36.75 0 40.9573 0 45.9375V47.9792C0 48.543 0.463394 49 1.03516 49H51.9648C52.5366 49 53 48.543 53 47.9792V45.9375C53 40.9573 48.5913 36.75 43.373 36.75ZM2.07031 45.9375C2.07031 42.0639 5.53081 38.7917 9.62695 38.7917C11.8683 38.7917 14.0911 39.771 15.4671 41.3278C14.5573 43.0608 14.0781 44.9924 14.0781 46.9583H2.07031V45.9375ZM26.5 36.75C32.2601 36.75 36.8516 41.3589 36.8516 46.9583H16.1484C16.1484 41.2843 20.8337 36.75 26.5 36.75ZM50.9297 46.9583H38.9219C38.9219 44.9924 38.4427 43.0608 37.5329 41.3278C38.9089 39.771 41.1317 38.7917 43.373 38.7917C47.4692 38.7917 50.9297 42.0639 50.9297 45.9375V46.9583Z" fill="#F84E1D"/>
<path d="M15.8379 30.625C15.8379 27.2475 13.0519 24.5 9.62695 24.5C6.20204 24.5 3.41602 27.2475 3.41602 30.625C3.41602 34.0025 6.20204 36.75 9.62695 36.75C13.0519 36.75 15.8379 34.0025 15.8379 30.625ZM9.62695 34.7083C7.34395 34.7083 5.48633 32.8764 5.48633 30.625C5.48633 28.3736 7.34395 26.5417 9.62695 26.5417C11.91 26.5417 13.7676 28.3736 13.7676 30.625C13.7676 32.8764 11.91 34.7083 9.62695 34.7083Z" fill="#F84E1D"/>
<path d="M34.7812 26.5417C34.7812 22.0384 31.0664 18.375 26.5 18.375C21.9336 18.375 18.2188 22.0384 18.2188 26.5417C18.2188 31.0449 21.9336 34.7083 26.5 34.7083C31.0664 34.7083 34.7812 31.0449 34.7812 26.5417ZM26.5 32.6667C23.0751 32.6667 20.2891 29.9192 20.2891 26.5417C20.2891 23.1641 23.0751 20.4167 26.5 20.4167C29.9249 20.4167 32.7109 23.1641 32.7109 26.5417C32.7109 29.9192 29.9249 32.6667 26.5 32.6667Z" fill="#F84E1D"/>
<path d="M34.6923 5.93718C34.5706 5.56753 34.2467 5.29836 33.8565 5.24254L29.3916 4.60332L27.3924 0.572624C27.2189 0.222111 26.8583 0 26.4628 0C26.0673 0 25.7066 0.222111 25.5328 0.572225L23.534 4.60332L19.0691 5.24214C18.6789 5.29797 18.355 5.56753 18.2333 5.93718C18.1116 6.30684 18.2131 6.71238 18.4953 6.98354L21.7286 10.0911L20.9656 14.4795C20.8988 14.8623 21.0586 15.2495 21.3776 15.4776C21.6946 15.7049 22.1168 15.7372 22.4677 15.5553L26.4628 13.4838L30.4595 15.5553C30.808 15.7364 31.2306 15.7061 31.5496 15.4776C31.8683 15.2491 32.028 14.8623 31.9613 14.4791L31.1974 10.0911L34.4303 6.98354C34.7125 6.71238 34.814 6.30684 34.6923 5.93718ZM29.362 9.00367C29.1182 9.23814 29.0066 9.57629 29.0644 9.90727L29.5654 12.7859L26.9444 11.427C26.6427 11.2706 26.2825 11.2706 25.9808 11.427L23.3606 12.7859L23.8612 9.90727C23.9186 9.5759 23.807 9.23814 23.5631 9.00367L21.4427 6.96559L24.3723 6.54609C24.7111 6.49784 25.0035 6.2873 25.1535 5.98424L26.4628 3.34443L27.7717 5.98424C27.9221 6.2877 28.2145 6.49784 28.5529 6.54609L31.4829 6.96559L29.362 9.00367Z" fill="#F84E1D"/>
<path d="M50.1646 13.5882C50.0429 13.2186 49.719 12.9494 49.3288 12.8936L46.3038 12.4601L44.9513 9.75654C44.777 9.40802 44.4175 9.1875 44.0233 9.1875C43.6294 9.1875 43.2691 9.40802 43.0948 9.75654L41.7415 12.4601L38.7161 12.8936C38.3263 12.9494 38.0024 13.2186 37.8806 13.5882C37.7585 13.9579 37.86 14.3634 38.1423 14.6346L40.3311 16.7397L39.8143 19.7105C39.748 20.0933 39.9073 20.4801 40.2263 20.7086C40.545 20.9371 40.9675 20.9674 41.3161 20.7867L44.0228 19.3843L46.7288 20.7867C47.0774 20.9674 47.5003 20.9371 47.819 20.7086C48.1376 20.4805 48.2969 20.0933 48.2306 19.7105L47.7138 16.7397L49.903 14.6346C50.1853 14.3634 50.2864 13.9579 50.1646 13.5882ZM45.8793 15.6526C45.635 15.8871 45.5238 16.2249 45.5816 16.5558L45.8356 18.0169L44.5048 17.3275C44.2032 17.1711 43.8429 17.1711 43.5417 17.3275L42.2097 18.0173L42.464 16.5558C42.5215 16.2249 42.4103 15.8871 42.1664 15.6526L41.0892 14.6167L42.5777 14.4037C42.9149 14.3555 43.2064 14.1465 43.3573 13.8455L44.0228 12.5156L44.688 13.8451C44.8388 14.1465 45.1304 14.3555 45.4676 14.4037L46.9561 14.6167L45.8793 15.6526Z" fill="#F84E1D"/>
<path d="M14.9693 13.5882C14.8476 13.2186 14.5237 12.9494 14.1335 12.8936L11.1085 12.4601L9.75594 9.75654C9.58167 9.40802 9.22219 9.1875 8.82794 9.1875C8.43369 9.1875 8.07381 9.40802 7.89954 9.75654L6.54615 12.4601L3.52074 12.8936C3.13094 12.9494 2.80705 13.2186 2.68534 13.5882C2.56323 13.9579 2.66472 14.3634 2.94696 14.6346L5.13575 16.7397L4.61938 19.7105C4.55267 20.0933 4.71239 20.4801 5.03102 20.7086C5.34966 20.9371 5.77221 20.9674 6.12117 20.7867L8.82754 19.3843L11.5335 20.7867C11.8845 20.9686 12.3066 20.9359 12.6236 20.7086C12.9423 20.4805 13.102 20.0933 13.0353 19.7105L12.5185 16.7397L14.7077 14.6346C14.99 14.3634 15.091 13.9579 14.9693 13.5882ZM10.6835 15.6526C10.4397 15.8871 10.3285 16.2249 10.3859 16.5558L10.6403 18.0169L9.30913 17.3274C9.00788 17.1711 8.6476 17.1711 8.34635 17.3274L7.01399 18.0173L7.26833 16.5558C7.32616 16.2249 7.21455 15.8871 6.97073 15.6526L5.89352 14.6167L7.38236 14.4037C7.71919 14.3555 8.01073 14.1465 8.16156 13.8455L8.82713 12.5156L9.4923 13.8451C9.64313 14.1465 9.93467 14.3555 10.2719 14.4037L11.7603 14.6167L10.6835 15.6526Z" fill="#F84E1D"/>
<path d="M31.0361 40.1283C30.5581 39.8185 29.9164 39.9497 29.6026 40.421C29.2885 40.892 29.4215 41.5248 29.8994 41.8346C30.8566 42.4547 31.6216 43.3192 32.1117 44.3345C32.3567 44.8429 32.9738 45.0602 33.4909 44.8174C34.0073 44.5753 34.2265 43.966 33.981 43.4572C33.3284 42.1046 32.3098 40.9534 31.0361 40.1283Z" fill="#F84E1D"/>
</svg>
