<svg width="55" height="55" viewBox="0 0 55 55" fill="none" xmlns="http://www.w3.org/2000/svg">
<path d="M50.9099 31.866L54.5695 27.3061C55.0419 26.7175 55.1326 25.9292 54.8063 25.2488C54.4798 24.5684 53.8083 24.1457 53.0537 24.1457H48.2579C48.165 23.5506 48.132 22.9091 48.0978 22.2397C48.0164 20.6467 47.9323 18.9995 46.9896 17.7043C46.2384 16.6719 45.1162 16.0882 43.9409 15.608L45.1346 14.7639C46.6335 14.0191 48.1712 12.9513 49.5854 11.6727C51.5654 9.88278 53.1262 7.84875 53.9805 5.94545C54.9291 3.83214 54.9109 2.07042 53.9293 0.984707C52.9477 -0.101005 51.1967 -0.296191 48.9987 0.435352C47.0193 1.09406 44.8387 2.44264 42.8588 4.23282C41.4452 5.51103 40.2285 6.93319 39.3369 8.34933L37.3638 10.6065C36.6922 9.89492 35.9207 9.26585 34.9455 8.94917C33.4503 8.46363 31.8727 8.8888 30.347 9.30001C29.3403 9.57125 28.3894 9.82756 27.5 9.82756C26.6105 9.82756 25.6596 9.57125 24.6529 9.29991C23.1273 8.8887 21.5498 8.46341 20.0543 8.94907C18.4923 9.45621 17.4505 10.7576 16.4427 12.0161C15.813 12.8025 15.2183 13.5453 14.5458 14.0348C13.86 14.5339 12.9605 14.8759 12.0083 15.2379C10.511 15.807 8.96263 16.3955 8.01023 17.7043C7.0676 18.9996 6.98349 20.6468 6.90207 22.2398C6.86791 22.9091 6.83471 23.5506 6.74201 24.1457H1.94627C1.19163 24.1457 0.520136 24.5684 0.193681 25.2488C-0.132667 25.9292 -0.0418954 26.7175 0.430438 27.3061L4.09008 31.866L0.430438 36.426C-0.0418954 37.0145 -0.132667 37.8028 0.193681 38.4832C0.520136 39.1636 1.19163 39.5863 1.94627 39.5863H6.74211C6.83493 40.1814 6.86801 40.8229 6.90217 41.4923C6.9836 43.0854 7.06771 44.7326 8.01034 46.0277C8.96274 47.3365 10.511 47.925 12.0084 48.4943C12.9607 48.8563 13.8601 49.1982 14.5459 49.6973C15.2184 50.1868 15.8132 50.9296 16.4428 51.716C17.4505 52.9746 18.4924 54.276 20.0544 54.7831C21.5497 55.2687 23.1274 54.8434 24.653 54.4322C25.6597 54.1609 26.6106 53.9046 27.5001 53.9046C28.3895 53.9046 29.3404 54.1609 30.3472 54.4322C31.8653 54.8374 33.4203 55.272 34.9458 54.7831C36.5077 54.2759 37.5496 52.9745 38.5573 51.716C39.187 50.9296 39.7817 50.1868 40.4543 49.6973C41.1401 49.1982 42.0396 48.8563 42.9918 48.4943C44.4891 47.925 46.0374 47.3365 46.9898 46.0277C47.9325 44.7326 48.0166 43.0852 48.098 41.4922C48.1323 40.8229 48.1654 40.1814 48.2581 39.5863H53.0539C53.8086 39.5863 54.48 39.1636 54.8065 38.4832C55.1328 37.8028 55.0421 37.0145 54.5697 36.426L50.9099 31.866ZM42.3648 16.7226C43.7006 17.2305 45.0165 17.7314 45.6868 18.6525C46.3475 19.5603 46.416 20.9017 46.4885 22.322C46.5193 22.9252 46.5515 23.5414 46.6308 24.1458H42.7986C41.9655 22.4964 40.8794 21.0049 39.5616 19.6997C39.7269 19.3091 39.8401 18.8955 39.8962 18.4686L42.3648 16.7226ZM31.2603 17.3022C32.2188 16.2102 33.4821 14.8723 35.1274 14.8001L38.2937 18.3024C38.1791 19.0868 37.7728 19.8012 37.1496 20.2967C34.3085 22.555 30.5808 21.1029 28.8413 19.3505C28.8231 19.3445 28.8245 19.2829 28.8506 19.2818C29.8304 18.9062 30.525 18.1271 31.2603 17.3022ZM40.0213 10.0147L43.5464 13.9138L39.2471 16.9541L36.5566 13.9781L40.0213 10.0147ZM43.9395 5.428C45.7576 3.78412 47.735 2.55403 49.5076 1.96418C51.0166 1.46198 52.2228 1.49979 52.7341 2.06526C53.8117 3.25711 52.2319 7.10786 48.5049 10.4776C47.3631 11.5099 46.1407 12.3898 44.937 13.0492L41.0226 8.71951C41.7995 7.58814 42.7978 6.46032 43.9395 5.428ZM8.51135 22.3221C8.58386 20.9019 8.6524 19.5604 9.31315 18.6525C9.98346 17.7313 11.2451 17.2517 12.5809 16.744C13.5903 16.3603 14.6341 15.9636 15.494 15.3377C16.3412 14.7211 17.0324 13.8579 17.7006 13.0231C18.5997 11.9004 19.4487 10.8398 20.5519 10.4815C21.5921 10.1437 22.8753 10.4895 24.2336 10.8556C25.2973 11.1422 26.3972 11.4387 27.5 11.4387C28.6028 11.4387 29.7027 11.1422 30.7665 10.8556C32.1248 10.4895 33.4078 10.1437 34.448 10.4814C35.15 10.7094 35.7523 11.2311 36.2975 11.8261L35.1059 13.1892C33.5994 13.2004 32.0684 14.1517 31.1056 15.1146C29.9206 14.8604 28.7101 14.7309 27.5 14.7309C24.2838 14.7309 21.1467 15.6298 18.4281 17.3305C18.0508 17.5666 17.9363 18.0636 18.1723 18.4409C18.4098 18.8213 18.9111 18.9306 19.2826 18.6966C21.7449 17.1564 24.5863 16.3424 27.5 16.3424C28.2701 16.3424 29.0405 16.4 29.803 16.514C29.2795 17.0938 28.8035 17.5741 28.2739 17.7772C27.7526 17.977 27.3713 18.4229 27.2539 18.97C27.1358 19.5201 27.3017 20.0867 27.6979 20.4857C28.9549 21.752 30.6935 22.6529 32.468 22.9571C34.6991 23.3595 37.0657 22.7271 38.6643 21.0834C39.5603 22.0096 40.3313 23.0343 40.9688 24.1458H14.0308C14.7029 22.9752 15.5256 21.8967 16.487 20.9285C16.8006 20.6128 16.7987 20.1027 16.483 19.7892C16.1673 19.4757 15.6572 19.4774 15.3437 19.7932C14.0671 21.0789 13.0122 22.5415 12.2015 24.1458H8.36912C8.4484 23.5414 8.48052 22.9253 8.51135 22.3221ZM46.4886 41.4099C46.4161 42.8302 46.3476 44.1717 45.6869 45.0795C45.0166 46.0006 43.7549 46.4802 42.4193 46.988C41.4098 47.3717 40.3661 47.7684 39.5061 48.3944C38.6589 49.011 37.9677 49.8741 37.2994 50.7089C36.4004 51.8316 35.5514 52.8922 34.4481 53.2505C33.4079 53.5882 32.1248 53.2424 30.7665 52.8764C29.7028 52.5898 28.6028 52.2933 27.5001 52.2933C26.3974 52.2933 25.2974 52.5898 24.2337 52.8764C22.8754 53.2425 21.5924 53.5883 20.5519 53.2505C19.4488 52.8923 18.5997 51.8317 17.7006 50.7089C17.0323 49.8741 16.3412 49.011 15.494 48.3944C14.634 47.7684 13.5903 47.3717 12.5808 46.988C11.2451 46.4802 9.98346 46.0006 9.31315 45.0795C8.6525 44.1717 8.58397 42.8303 8.51146 41.41C8.48063 40.8068 8.44851 40.1907 8.36912 39.5862H12.2018C13.57 42.2938 15.6292 44.5904 18.1849 46.2492C20.9583 48.0493 24.1795 49.0009 27.5 49.0009C30.8205 49.0009 34.0418 48.0494 36.8151 46.2492C39.3707 44.5904 41.4299 42.2938 42.7981 39.5862H46.6308C46.5516 40.1907 46.5194 40.8068 46.4886 41.4099ZM53.3534 37.7863C53.3197 37.8568 53.2358 37.975 53.0537 37.975H35.4578C35.0128 37.975 34.6521 38.3357 34.6521 38.7806C34.6521 39.2256 35.0128 39.5863 35.4578 39.5863H40.9666C38.2181 44.3646 33.0657 47.3896 27.5 47.3896C21.9342 47.3896 16.7819 44.3646 14.0334 39.5863H31.698C32.143 39.5863 32.5037 39.2256 32.5037 38.7806C32.5037 38.3357 32.143 37.975 31.698 37.975H1.94627C1.76419 37.975 1.68029 37.8568 1.64656 37.7863C1.61283 37.7159 1.57308 37.5765 1.68706 37.4345L5.75147 32.3703C5.98791 32.0757 5.98791 31.6564 5.75147 31.3618L1.68706 26.2976C1.57308 26.1556 1.61283 26.0162 1.64656 25.9458C1.68029 25.8753 1.76419 25.7571 1.94627 25.7571H53.0537C53.2358 25.7571 53.3197 25.8753 53.3534 25.9458C53.3871 26.0162 53.4269 26.1556 53.3129 26.2976L49.2485 31.3618C49.0121 31.6564 49.0121 32.0757 49.2485 32.3703L53.3129 37.4345C53.4269 37.5764 53.3872 37.7159 53.3534 37.7863Z" fill="#F84E1D"/>
<path d="M27.5552 28.1667C27.4124 27.7925 27.0546 27.5464 26.6541 27.5468C26.2536 27.5468 25.8971 27.7917 25.7538 28.1647L23.1152 35.0927C22.9569 35.5085 23.1655 35.9739 23.5813 36.1323C23.9973 36.2907 24.4625 36.0819 24.621 35.6662L25.0805 34.4597H28.2078L28.6622 35.6639C28.8189 36.0844 29.2949 36.2894 29.7004 36.1333C30.1167 35.9761 30.3268 35.5113 30.1697 35.095L27.5552 28.1667ZM25.6942 32.8483L26.6513 30.3352L27.5998 32.8483H25.6942Z" fill="#F84E1D"/>
<path d="M37.6579 27.5468C37.6553 27.5468 37.6526 27.5468 37.6499 27.5468C37.205 27.5511 36.8478 27.9153 36.8521 28.3602L36.8958 32.8798L33.4623 27.9077C33.262 27.6176 32.8962 27.4916 32.5597 27.5964C32.223 27.7014 31.9938 28.013 31.9938 28.3656V35.3794C31.9938 35.8243 32.3545 36.185 32.7994 36.185C33.2444 36.185 33.6051 35.8243 33.6051 35.3794V30.95L36.879 35.6909C37.1186 36.0371 37.5171 36.185 37.8943 36.0669C38.2799 35.9464 38.5291 35.5837 38.529 35.1349L38.4633 28.3447C38.459 27.9024 38.0992 27.5468 37.6579 27.5468Z" fill="#F84E1D"/>
<path d="M43.3361 27.7547H41.4049C41.1909 27.7547 40.9857 27.8398 40.8346 27.9912C40.6834 28.1427 40.5988 28.348 40.5992 28.5619L40.613 35.381C40.6134 35.5955 40.6993 35.8009 40.8517 35.9517C41.0026 36.1012 41.2064 36.1849 41.4186 36.1849H41.4247L43.4066 36.1698C45.4281 36.1344 46.8954 34.3681 46.8954 31.9697C46.8954 29.4486 45.4651 27.7547 43.3361 27.7547ZM43.3865 34.5588L42.2227 34.5677L42.2121 29.3661H43.3361C44.7723 29.3661 45.2841 30.7111 45.2841 31.97C45.2842 33.242 44.6949 34.5359 43.3865 34.5588Z" fill="#F84E1D"/>
<path d="M12.9467 31.3398C13.2155 30.9496 13.3738 30.4779 13.3738 29.9694C13.3738 28.6335 12.287 27.5468 10.9512 27.5468H8.9101C8.46516 27.5468 8.10443 27.9075 8.10443 28.3525V35.3794C8.10443 35.5937 8.18984 35.7992 8.34162 35.9503C8.49266 36.1007 8.69708 36.185 8.90999 36.185C8.91354 36.185 10.7903 36.1767 11.3075 36.1767C12.7948 36.1767 14.0047 34.9668 14.0047 33.4796C14.0048 32.6086 13.5894 31.8332 12.9467 31.3398ZM10.9512 29.1581C11.3985 29.1581 11.7625 29.5221 11.7625 29.9694C11.7625 30.4167 11.3985 30.7806 10.9512 30.7806L9.71576 30.7826V29.1581H10.9512ZM11.3076 34.5654C11.0159 34.5654 10.2926 34.568 9.71565 34.5704V32.3939H11.3076C11.9064 32.3939 12.3935 32.8809 12.3935 33.4796C12.3935 34.0783 11.9064 34.5654 11.3076 34.5654Z" fill="#F84E1D"/>
<path d="M21.2783 30.1786C21.2783 28.7274 20.0513 27.5468 18.5431 27.5468H16.6758C16.2286 27.5468 15.8679 27.9075 15.8679 28.3525V35.3794C15.8679 35.8243 16.2286 36.185 16.6736 36.185C17.1185 36.185 17.4792 35.8243 17.4792 35.3794V33.1976L19.8679 35.9116C20.1627 36.2466 20.6722 36.2773 21.0049 35.9841C21.3389 35.6901 21.3715 35.1811 21.0774 34.8471L19.2143 32.7301C20.3991 32.4415 21.2783 31.4071 21.2783 30.1786ZM18.5431 31.1993L17.4899 31.2029L17.484 29.158H18.5431C19.1523 29.158 19.667 29.6254 19.667 30.1785C19.667 30.7317 19.1524 31.1993 18.5431 31.1993Z" fill="#F84E1D"/>
</svg>
