<svg width="56" height="56" viewBox="0 0 56 56" fill="none" xmlns="http://www.w3.org/2000/svg">
<path d="M28 0C12.5608 0 0 12.5608 0 28C0 43.4392 12.5608 56 28 56C43.4392 56 56 43.4392 56 28C56 12.5608 43.4394 0 28 0ZM28 52.9729C21.1407 52.9729 14.9187 50.1926 10.401 45.7004C8.59687 43.9065 7.06537 41.839 5.87289 39.5668C4.05665 36.1067 3.02707 32.1715 3.02707 28C3.02707 14.2299 14.2299 3.02707 28 3.02707C34.5315 3.02707 40.4842 5.54862 44.9389 9.66808C47.2486 11.8037 49.1558 14.3684 50.531 17.235C52.0956 20.4965 52.9729 24.1477 52.9729 28C52.9729 41.7701 41.7701 52.9729 28 52.9729Z" fill="#F84E1D"/>
<path d="M18.856 24.7837C20.5278 24.7837 21.8831 23.4285 21.8831 21.7567C21.8831 20.0849 20.5278 18.7296 18.856 18.7296C17.1842 18.7296 15.8289 20.0849 15.8289 21.7567C15.8289 23.4285 17.1842 24.7837 18.856 24.7837Z" fill="#F84E1D"/>
<path d="M37.586 24.7837C39.2578 24.7837 40.613 23.4285 40.613 21.7567C40.613 20.0849 39.2578 18.7296 37.586 18.7296C35.9142 18.7296 34.5589 20.0849 34.5589 21.7567C34.5589 23.4285 35.9142 24.7837 37.586 24.7837Z" fill="#F84E1D"/>
<path d="M27.9465 43.5132C33.8027 43.5132 39.4151 40.5182 42.6285 35.5457L40.0859 33.9028C37.1351 38.4689 31.7377 41.0171 26.333 40.3936C22.1212 39.9079 18.2264 37.4813 15.9139 33.9028L13.3715 35.5457C16.1697 39.8761 20.8854 42.8124 25.9861 43.4008C26.6408 43.4763 27.2947 43.5132 27.9465 43.5132Z" fill="#F84E1D"/>
</svg>
