<svg width="46" height="45" viewBox="0 0 46 45" fill="none" xmlns="http://www.w3.org/2000/svg">
<path d="M44.6122 21.0225C43.9283 20.3915 42.9978 20.0017 42.0594 19.9529C40.9937 19.8979 39.9953 20.2778 39.2518 21.0218L34.1712 26.0489C34.0708 25.875 33.9562 25.7108 33.8275 25.5585C33.2025 24.8163 32.2884 24.4077 31.2541 24.4077H24.142C22.8009 24.4077 21.4926 24.2338 20.2536 23.8911C17.0235 22.9976 13.9377 23.6502 11.3291 25.7795C10.2683 26.6454 9.49439 27.5873 9.00496 28.2741L7.72977 27.0365C7.56209 26.8737 7.3348 26.7814 7.10089 26.7814C7.0988 26.7814 7.09706 26.7814 7.09497 26.7814C6.85269 26.7831 6.61843 26.8838 6.4504 27.0581L0.251209 33.4937C0.085274 33.6659 -0.00501393 33.8974 0.000215105 34.1365C0.00544414 34.376 0.105493 34.6033 0.278748 34.7682L10.7637 44.7518C10.9376 44.9174 11.1607 45 11.3835 45C11.6174 45 11.8513 44.909 12.0273 44.7284L18.1687 38.4278C18.3363 38.2556 18.4294 38.0203 18.4249 37.7798C18.4204 37.5427 18.321 37.314 18.1509 37.1488L17.6161 36.6301L18.8401 36.4924C19.5805 36.4063 20.3335 36.3627 21.0788 36.3627H31.8997C33.6581 36.3627 35.1515 35.9782 36.3388 35.2196C36.3486 35.2133 36.3584 35.2067 36.3681 35.2001C36.7934 34.9045 37.1793 34.5541 37.5147 34.1592L44.8067 25.5804C46.0547 24.1125 45.9767 22.2806 44.6122 21.0225ZM11.3601 42.8376L2.17305 34.0898L7.12216 28.9518L16.2555 37.815L11.3601 42.8376ZM43.4371 24.4161L36.145 32.9952C35.9136 33.2674 35.6483 33.5094 35.3558 33.7144C34.4644 34.2787 33.3018 34.5653 31.8997 34.5653H21.0784C20.2645 34.5653 19.4414 34.6131 18.6358 34.7068L15.9453 35.0087L10.3119 29.5419C10.7033 28.9615 11.4232 28.0234 12.4659 27.1721C14.6335 25.4026 17.0925 24.8815 19.7743 25.6236C21.1694 26.0096 22.6388 26.2055 24.142 26.2055H31.2541C32.5314 26.2055 32.8723 27.3119 32.8723 27.9656C32.8723 28.4431 32.719 28.8977 32.4516 29.2129C32.1615 29.5541 31.7492 29.727 31.2259 29.727H25.0347C24.5383 29.727 24.136 30.1297 24.136 30.6261C24.136 31.1225 24.5383 31.5248 25.0347 31.5248H31.2259C32.271 31.5248 33.1927 31.1169 33.8216 30.3765C34.3448 29.7609 34.6432 28.9514 34.6683 28.0862L40.5196 22.2962C41.3559 21.4599 42.6625 21.6698 43.3935 22.344C43.7714 22.6926 44.2797 23.425 43.4371 24.4161Z" fill="#F84E1D"/>
<path d="M22.2316 30.3866C22.1183 29.9031 21.6348 29.6036 21.1513 29.7166C20.6681 29.8299 20.368 30.3134 20.4816 30.7969L20.49 30.8335C20.5873 31.2476 20.9564 31.5272 21.3643 31.5272C21.4323 31.5272 21.5013 31.5196 21.5703 31.5035C22.0538 31.3902 22.3536 30.9064 22.2403 30.4232L22.2316 30.3866Z" fill="#F84E1D"/>
<path d="M6.0753 18.964H14.8336C15.3105 18.964 15.7518 18.8092 16.1109 18.5477C16.4699 18.8092 16.9113 18.964 17.3881 18.964H26.1468C26.6237 18.964 27.065 18.8092 27.424 18.5477C27.7831 18.8092 28.2244 18.964 28.7013 18.964H37.4596C38.6595 18.964 39.6356 17.9875 39.6356 16.7876V12.7034C39.6356 10.8691 38.6089 9.2756 37.0723 8.48951C37.8169 7.59151 38.2652 6.43973 38.2652 5.18476C38.2652 2.32587 35.9394 0 33.0805 0C30.2216 0 27.8957 2.32587 27.8957 5.18476C27.8957 6.43973 28.344 7.59186 29.0886 8.48951C28.4245 8.82974 27.856 9.32092 27.424 9.91668C26.9921 9.32057 26.4236 8.82939 25.7591 8.48951C26.5037 7.59186 26.952 6.43973 26.952 5.18476C26.952 2.32587 24.6262 0 21.7673 0C18.9084 0 16.5825 2.32587 16.5825 5.18476C16.5825 6.43973 17.0312 7.59186 17.7758 8.48985C17.1114 8.82974 16.5428 9.32092 16.1109 9.91703C15.6789 9.32092 15.1104 8.82974 14.4459 8.48951C15.1906 7.59186 15.6389 6.43973 15.6389 5.18511C15.6389 2.32587 13.313 0 10.4541 0C7.59556 0 5.26968 2.32587 5.26968 5.18511C5.26968 6.43973 5.71799 7.59186 6.4626 8.48985C4.92596 9.27595 3.89898 10.8698 3.89898 12.7038V16.7876C3.89898 17.9875 4.87542 18.964 6.0753 18.964ZM33.0808 1.79774C34.9483 1.79774 36.4678 3.31695 36.4678 5.18476C36.4678 7.05222 34.9483 8.57178 33.0808 8.57178C31.213 8.57178 29.6938 7.05257 29.6938 5.18476C29.6934 3.31695 31.213 1.79774 33.0808 1.79774ZM30.7455 9.81175C31.448 10.1677 32.241 10.3695 33.0805 10.3695C33.9202 10.3695 34.7133 10.1677 35.4154 9.81175C36.8123 10.0551 37.8382 11.2588 37.8382 12.7034V16.7876C37.8382 16.9964 37.6684 17.1662 37.4596 17.1662H28.7013C28.4929 17.1662 28.3231 16.9964 28.3231 16.7876V12.7034C28.3227 11.2591 29.349 10.0551 30.7455 9.81175ZM21.7676 1.79774C23.6351 1.79774 25.1546 3.31695 25.1546 5.18476C25.1546 7.05222 23.6351 8.57178 21.7676 8.57178C19.8998 8.57178 18.3806 7.05257 18.3806 5.18476C18.3806 3.31695 19.8998 1.79774 21.7676 1.79774ZM19.4327 9.81175C20.1348 10.1677 20.9278 10.3695 21.7676 10.3695C22.6074 10.3695 23.4001 10.1677 24.1026 9.81175C25.4991 10.0551 26.5253 11.2588 26.5253 12.7034V16.7876C26.5253 16.9964 26.3556 17.1662 26.1468 17.1662H17.3885C17.1797 17.1662 17.0099 16.9964 17.0099 16.7876V12.7034C17.0099 11.2591 18.0362 10.0551 19.4327 9.81175ZM10.4544 1.79774C12.3219 1.79774 13.8415 3.31695 13.8415 5.18476C13.8415 7.05222 12.3219 8.57178 10.4544 8.57178C8.58698 8.57178 7.06743 7.05222 7.06743 5.18476C7.06743 3.31695 8.58698 1.79774 10.4544 1.79774ZM5.69672 12.7034C5.69672 11.2591 6.72301 10.0551 8.11951 9.81175C8.82194 10.1677 9.61466 10.3695 10.4544 10.3695C11.2942 10.3695 12.0869 10.1677 12.7894 9.81175C14.1862 10.0551 15.2122 11.2588 15.2122 12.7034V16.7876C15.2122 16.9964 15.0424 17.1662 14.8336 17.1662H6.0753C5.86649 17.1662 5.69672 16.9964 5.69672 16.7876V12.7034Z" fill="#F84E1D"/>
</svg>
