<svg width="45" height="45" viewBox="0 0 45 45" fill="none" xmlns="http://www.w3.org/2000/svg">
<path d="M32.965 12.4743C32.8016 12.3108 32.5748 12.2168 32.3437 12.2168C32.1125 12.2168 31.8857 12.3108 31.7223 12.4743C31.5588 12.6378 31.4648 12.8637 31.4648 13.0957C31.4648 13.3268 31.5587 13.5536 31.7223 13.7171C31.8858 13.8805 32.1125 13.9746 32.3437 13.9746C32.5748 13.9746 32.8016 13.8805 32.965 13.7171C33.1284 13.5536 33.2226 13.3268 33.2226 13.0957C33.2226 12.8645 33.1285 12.6378 32.965 12.4743Z" fill="#F84E1D"/>
<path d="M13.1835 24.7851H6.15228C5.66695 24.7851 5.27338 25.1786 5.27338 25.664V32.6953C5.27338 33.1807 5.66695 33.5742 6.15228 33.5742H13.1835C13.6689 33.5742 14.0624 33.1807 14.0624 32.6953V25.664C14.0624 25.1786 13.6689 24.7851 13.1835 24.7851ZM12.3046 31.8164H7.03119V26.5429H12.3046V31.8164Z" fill="#F84E1D"/>
<path d="M44.4573 18.436C44.1289 18.2999 43.7508 18.3753 43.4995 18.6265L34.5432 27.5828L34.5429 27.5832L18.6265 43.4996C18.3752 43.7509 18.3 44.129 18.4359 44.4574C18.572 44.7858 18.8925 44.9999 19.248 44.9999H44.121C44.6063 44.9999 44.9999 44.6065 44.9999 44.121V19.248C44.9999 18.8926 44.7858 18.5721 44.4573 18.436ZM43.2421 43.2421H21.3699L24.7239 39.8881L25.5629 40.7271C25.7346 40.8988 25.9595 40.9846 26.1844 40.9846C26.4093 40.9846 26.6342 40.8988 26.8058 40.7271C27.1491 40.3839 27.1491 39.8274 26.8058 39.4841L25.9668 38.6451L28.2042 36.4078L29.0431 37.2467C29.2148 37.4183 29.4397 37.5041 29.6646 37.5041C29.8895 37.5041 30.1144 37.4182 30.286 37.2467C30.6293 36.9035 30.6293 36.3469 30.286 36.0037L29.447 35.1647L31.6844 32.9274L32.5234 33.7664C32.695 33.938 32.9199 34.0238 33.1449 34.0238C33.3698 34.0238 33.5947 33.938 33.7663 33.7664C34.1096 33.4232 34.1096 32.8667 33.7663 32.5234L32.9273 31.6844L35.1646 29.4471L36.0036 30.2861C36.1752 30.4578 36.4002 30.5435 36.6251 30.5435C36.85 30.5435 37.0749 30.4578 37.2465 30.2861C37.5897 29.9429 37.5897 29.3864 37.2465 29.0431L36.4075 28.2041L38.6449 25.9667L39.4838 26.8056C39.6554 26.9773 39.8804 27.0631 40.1053 27.0631C40.3302 27.0631 40.5551 26.9772 40.7267 26.8056C41.07 26.4624 41.07 25.9059 40.7267 25.5627L39.8877 24.7237L43.2421 21.3699V43.2421Z" fill="#F84E1D"/>
<path d="M40.0628 29.0453C39.7344 28.9092 39.3563 28.9845 39.105 29.2358L29.2358 39.105C28.9846 39.3564 28.9092 39.7344 29.0453 40.0629C29.1813 40.3913 29.5018 40.6054 29.8573 40.6054H39.7265C40.2118 40.6054 40.6054 40.2119 40.6054 39.7265V29.8574C40.6054 29.5019 40.3913 29.1814 40.0628 29.0453ZM38.8475 38.8476H31.9793L38.8475 31.9792V38.8476Z" fill="#F84E1D"/>
<path d="M40.6986 13.1186C40.4566 12.8767 40.0964 12.7971 39.7748 12.9148L33.7736 15.1125C33.6536 15.1564 33.5447 15.226 33.4543 15.3163L31.7669 17.0037L20.7484 5.98515C20.5835 5.82035 20.36 5.72771 20.1269 5.72771C19.8938 5.72771 19.6702 5.82035 19.5054 5.98515L6.2425 19.2481H3.00083L20.1269 2.12192L29.525 11.52C29.8683 11.8632 30.4246 11.8632 30.768 11.52C31.1112 11.1768 31.1112 10.6202 30.768 10.2769L20.7485 0.257409C20.4052 -0.0858031 19.8488 -0.0858031 19.5054 0.257409L0.257418 19.5054C0.00613929 19.7568 -0.069095 20.1348 0.0668716 20.4633C0.202926 20.7918 0.523375 21.0059 0.878892 21.0059H1.7578V44.1211C1.7578 44.6065 2.15137 45 2.6367 45H16.6101C17.0954 45 17.489 44.6065 17.489 44.1211C17.489 43.6357 17.0954 43.2422 16.6101 43.2422H3.51561V21.0059H6.60654C6.83963 21.0059 7.06313 20.9133 7.22801 20.7485L20.1269 7.84957L30.5238 18.2466L17.4902 31.2803V23.3789H23.6425C24.1279 23.3789 24.5214 22.9855 24.5214 22.5C24.5214 22.0146 24.1279 21.6211 23.6425 21.6211H16.6113C16.126 21.6211 15.7324 22.0146 15.7324 22.5V32.6953C15.7324 32.7979 15.7508 32.8958 15.7831 32.9873L14.9957 33.7747C13.6044 35.166 13.6044 37.4299 14.9957 38.8212C15.6914 39.517 16.6051 39.8648 17.5189 39.8647C18.4326 39.8647 19.3466 39.5169 20.0422 38.8213L27.4542 31.4093C27.7974 31.0661 27.7974 30.5096 27.4542 30.1664C27.111 29.8232 26.5546 29.8232 26.2111 30.1664L20.5956 35.7819L18.0351 33.2214L34.0933 17.1631L36.6538 19.7237L30.5178 25.8598C30.1746 26.203 30.1746 26.7596 30.5178 27.1028C30.8611 27.446 31.4174 27.446 31.7608 27.1028L38.5008 20.3628C38.591 20.2725 38.6606 20.1635 38.7045 20.0436L40.9023 14.0423C41.02 13.721 40.9405 13.3606 40.6986 13.1186ZM19.3528 37.0247L18.7992 37.5783C18.4573 37.9202 18.0027 38.1086 17.519 38.1086C17.0354 38.1086 16.5807 37.9202 16.2388 37.5783C15.8967 37.2363 15.7085 36.7816 15.7085 36.2981C15.7085 35.8145 15.8967 35.3597 16.2387 35.0177L16.7923 34.4642L19.3528 37.0247ZM37.5368 18.1205L35.6965 16.2802L38.6003 15.2168L37.5368 18.1205Z" fill="#F84E1D"/>
<path d="M29.5917 28.0283C29.4283 27.8648 29.2016 27.7708 28.9704 27.7708C28.7393 27.7708 28.5125 27.8648 28.349 28.0283C28.1856 28.1926 28.0915 28.4185 28.0915 28.6497C28.0915 28.8817 28.1855 29.1076 28.349 29.2719C28.5125 29.4354 28.7384 29.5286 28.9704 29.5286C29.2016 29.5286 29.4283 29.4354 29.5917 29.2719C29.7552 29.1076 29.8493 28.8808 29.8493 28.6497C29.8493 28.4185 29.7553 28.1926 29.5917 28.0283Z" fill="#F84E1D"/>
<path d="M20.1269 13.2715C18.2853 13.2715 16.787 14.7697 16.787 16.6113C16.787 18.4529 18.2853 19.9511 20.1269 19.9511C21.9684 19.9511 23.4667 18.4529 23.4667 16.6113C23.4667 14.7697 21.9684 13.2715 20.1269 13.2715ZM20.1269 18.1933C19.2546 18.1933 18.5448 17.4837 18.5448 16.6113C18.5448 15.739 19.2546 15.0293 20.1269 15.0293C20.9992 15.0293 21.7089 15.739 21.7089 16.6113C21.7089 17.4836 20.9992 18.1933 20.1269 18.1933Z" fill="#F84E1D"/>
</svg>
