<svg width="45" height="45" viewBox="0 0 45 45" fill="none" xmlns="http://www.w3.org/2000/svg">
<path d="M38.2303 24.6689C38.2266 23.1637 37.8719 21.6844 37.1956 20.3416L38.7489 18.7882C39.9134 17.6237 39.9134 15.7287 38.7489 14.5641C38.1681 13.9833 37.4055 13.6923 36.6425 13.6909C36.6414 12.8946 36.3309 12.1462 35.7678 11.583C35.1866 11.0019 34.4235 10.7108 33.66 10.7098C33.6589 9.94628 33.3678 9.18314 32.7866 8.60194C32.2238 8.03918 31.4759 7.72867 30.6802 7.72727C30.6787 6.93161 30.3683 6.18368 29.8055 5.62084C29.2414 5.05668 28.4912 4.74599 27.6935 4.74599C26.8957 4.74599 26.1456 5.05668 25.5815 5.62084L22.5005 8.70187L20.7861 6.98742C20.222 6.42326 19.4719 6.11257 18.6741 6.11257C17.8762 6.11257 17.1262 6.42326 16.5621 6.98742C15.9989 7.55061 15.6885 8.29898 15.6873 9.09525C14.9244 9.09666 14.1618 9.38766 13.5809 9.96852C13.0181 10.5314 12.7077 11.2792 12.7062 12.0749C11.9105 12.0764 11.1626 12.3869 10.5997 12.9497C9.63805 13.9114 9.47142 15.3708 10.098 16.506C9.66644 16.6471 9.26066 16.888 8.91825 17.2304C7.75372 18.395 7.75372 20.2899 8.91825 21.4545L10.1623 22.6986L0.278519 32.5824C-0.0646861 32.9256 -0.0646861 33.4821 0.278519 33.8254C0.450166 33.9969 0.675073 34.0828 0.899981 34.0828C1.12489 34.0828 1.34988 33.9969 1.52144 33.8254L8.22155 27.1253L14.4979 33.4017L4.44488 43.4547C4.10168 43.7979 4.10168 44.3545 4.44488 44.6978C4.61653 44.8693 4.84144 44.9552 5.06635 44.9552C5.29125 44.9552 5.51625 44.8693 5.68781 44.6978L19.2758 31.1098C19.5261 30.8595 19.811 30.6566 20.1193 30.5041L22.2459 31.9048C23.6524 32.8311 25.3672 33.193 27.0204 32.9253L38.8377 44.7426C39.0093 44.9141 39.2342 45 39.4591 45C39.684 45 39.909 44.9141 40.0806 44.7426C40.4238 44.3994 40.4238 43.8429 40.0806 43.4996L33.2241 36.643L34.0529 35.8141C34.3961 35.4709 34.3961 34.9144 34.0529 34.5711C33.7097 34.228 33.1532 34.228 32.8099 34.5711L31.981 35.4L30.0404 33.4593L37.2875 26.2121L39.2283 28.1529L38.4012 28.9799C38.058 29.3232 38.058 29.8796 38.4012 30.2229C38.5729 30.3945 38.7978 30.4803 39.0227 30.4803C39.2476 30.4803 39.4726 30.3945 39.6441 30.2229L40.4712 29.3959L43.4985 32.4232C43.6702 32.5948 43.8951 32.6806 44.12 32.6806C44.3449 32.6806 44.5699 32.5948 44.7414 32.4232C45.0846 32.08 45.0846 31.5235 44.7414 31.1802L38.2303 24.6689ZM26.8244 6.86376C27.0565 6.63165 27.3652 6.50377 27.6935 6.50377C28.0217 6.50377 28.3304 6.63165 28.5625 6.86376C28.7947 7.09587 28.9225 7.40454 28.9225 7.7328C28.9225 8.06116 28.7946 8.36982 28.5625 8.60194L26.6312 10.5333C26.288 10.8765 26.288 11.433 26.6312 11.7763C26.9744 12.1196 27.5309 12.1195 27.8742 11.7763L29.8055 9.84494C30.0376 9.61274 30.3463 9.48495 30.6747 9.48495C31.0029 9.48495 31.3116 9.61283 31.5437 9.84494C32.023 10.3242 32.023 11.1039 31.5437 11.5831L28.5945 14.5323C28.2513 14.8755 28.2513 15.432 28.5945 15.7753C28.7662 15.947 28.9911 16.0328 29.216 16.0328C29.4409 16.0328 29.6659 15.947 29.8374 15.7753L32.7866 12.8261C33.0187 12.5939 33.3274 12.4661 33.6557 12.4661C33.984 12.4661 34.2927 12.594 34.5248 12.8261C34.7569 13.0582 34.8848 13.3669 34.8848 13.6952C34.8848 14.0234 34.7569 14.3321 34.5248 14.5642L31.5756 17.5134C31.2324 17.8566 31.2324 18.4131 31.5756 18.7564C31.7473 18.9281 31.9722 19.0139 32.1971 19.0139C32.422 19.0139 32.647 18.9281 32.8185 18.7564L35.7676 15.8072C36.2468 15.328 37.0266 15.3281 37.5058 15.8072C37.9851 16.2865 37.9851 17.0662 37.5058 17.5454L30.2413 24.8099C27.9154 27.1359 24.8229 28.4169 21.5334 28.4169C20.6427 28.4169 19.7882 28.6515 19.0392 29.0898L13.9522 24.0027C14.3436 23.8549 14.7029 23.6248 15.0077 23.32C15.5709 22.7569 15.8813 22.0085 15.8825 21.2122C16.6454 21.2108 17.408 20.9197 17.9889 20.3389C18.5697 19.758 18.8607 18.9955 18.8622 18.2324C19.6584 18.2314 20.4069 17.9209 20.97 17.3577C21.5508 16.7768 21.8418 16.0143 21.8433 15.2512C22.6395 15.2502 23.3879 14.9397 23.951 14.3766C24.5152 13.8124 24.8258 13.0624 24.8258 12.2645C24.8258 11.4667 24.5152 10.7166 23.951 10.1525L23.7431 9.94461L26.8244 6.86376ZM17.805 8.23034C18.0371 7.99823 18.3458 7.87035 18.6741 7.87035C19.0023 7.87035 19.311 7.99823 19.5431 8.23034L22.7083 11.3955C22.9405 11.6276 23.0683 11.9363 23.0683 12.2645C23.0683 12.5928 22.9405 12.9015 22.7083 13.1337C22.4762 13.3658 22.1676 13.4936 21.8393 13.4936C21.5111 13.4936 21.2026 13.3659 20.9705 13.1339L20.9703 13.1336L17.805 9.96843C17.5729 9.73631 17.445 9.42765 17.445 9.09939C17.445 8.77112 17.5728 8.46254 17.805 8.23034ZM14.8238 11.2114C15.0635 10.9718 15.3782 10.8521 15.693 10.8521C16.0077 10.8521 16.3225 10.9719 16.562 11.2114L19.7272 14.3766C20.2064 14.8558 20.2063 15.6356 19.7272 16.1148C19.495 16.347 19.1864 16.4748 18.8581 16.4748C18.5299 16.4748 18.2214 16.347 17.9893 16.1151L17.9891 16.1148L14.8239 12.9496C14.5917 12.7175 14.4639 12.4088 14.4639 12.0805C14.4638 11.7522 14.5917 11.4436 14.8238 11.2114ZM11.8427 14.1926C12.0749 13.9604 12.3835 13.8326 12.7118 13.8326C13.0401 13.8326 13.3488 13.9605 13.5809 14.1926L16.7461 17.3578C17.2253 17.837 17.2253 18.6168 16.7461 19.0959C16.2668 19.5751 15.4871 19.5752 15.0078 19.0959L11.8427 15.9308C11.3635 15.4516 11.3635 14.6718 11.8427 14.1926ZM10.1612 18.4733C10.4008 18.2337 10.7156 18.114 11.0303 18.114C11.3446 18.114 11.6591 18.2336 11.8985 18.4725L13.7649 20.339C13.997 20.5711 14.1249 20.8797 14.1249 21.208C14.1249 21.5363 13.997 21.8449 13.7649 22.0771C13.5328 22.3093 13.2241 22.4371 12.8957 22.4371C12.5677 22.4371 12.2592 22.3094 12.0271 22.0776L10.1612 20.2116C9.682 19.7323 9.682 18.9525 10.1612 18.4733ZM9.46456 25.8823L11.4053 23.9415L17.6818 30.2179L15.741 32.1587L9.46456 25.8823ZM27.931 31.3499C27.7146 31.1335 27.4012 31.0449 27.1037 31.117C25.7735 31.4372 24.3554 31.1893 23.2128 30.4368L22.7368 30.1232C26.0419 29.8451 29.1122 28.4252 31.4844 26.0529L35.8706 21.6668C36.2479 22.5786 36.4514 23.5532 36.4701 24.5439L28.7976 32.2165L27.931 31.3499Z" fill="#F84E1D"/>
<path d="M35.6046 31.7766C35.4411 31.9401 35.3471 32.166 35.3471 32.398C35.3471 32.6292 35.4411 32.8559 35.6046 33.0193C35.7681 33.1828 35.9948 33.2769 36.226 33.2769C36.458 33.2769 36.6839 33.1829 36.8474 33.0193C37.0109 32.8559 37.1049 32.6292 37.1049 32.398C37.1049 32.1659 37.0109 31.9401 36.8474 31.7766C36.6839 31.6131 36.4571 31.5191 36.226 31.5191C35.9948 31.5191 35.7681 31.6131 35.6046 31.7766Z" fill="#F84E1D"/>
<path d="M5.93759 7.18051C6.10923 7.35216 6.33414 7.43794 6.55905 7.43794C6.78396 7.43794 7.00895 7.35216 7.18051 7.18051C7.52372 6.8373 7.52372 6.28079 7.18051 5.9375L3.0435 1.80049C2.70029 1.45728 2.14378 1.45728 1.80049 1.80049C1.4572 2.14369 1.45728 2.70021 1.80049 3.0435L5.93759 7.18051Z" fill="#F84E1D"/>
<path d="M10.7224 4.79134C11.2078 4.79134 11.6013 4.39786 11.6013 3.91246V0.878887C11.6013 0.393478 11.2078 0 10.7224 0C10.237 0 9.84354 0.393478 9.84354 0.878887V3.91246C9.84354 4.39786 10.237 4.79134 10.7224 4.79134Z" fill="#F84E1D"/>
<path d="M0.878887 11.6013H3.91245C4.39786 11.6013 4.79134 11.2078 4.79134 10.7224C4.79134 10.237 4.39786 9.84354 3.91245 9.84354H0.878887C0.393478 9.84354 0 10.237 0 10.7224C0 11.2078 0.393478 11.6013 0.878887 11.6013Z" fill="#F84E1D"/>
<path d="M38.44 7.43794C38.6649 7.43794 38.8899 7.35216 39.0614 7.18051L43.1985 3.0435C43.5417 2.70029 43.5417 2.14378 43.1985 1.80049C42.8553 1.4572 42.2987 1.45728 41.9554 1.80049L37.8184 5.9375C37.4752 6.28071 37.4752 6.83722 37.8184 7.18051C37.9902 7.35216 38.2151 7.43794 38.44 7.43794Z" fill="#F84E1D"/>
<path d="M34.2766 4.79134C34.762 4.79134 35.1555 4.39786 35.1555 3.91246V0.878887C35.1555 0.393478 34.762 0 34.2766 0C33.7912 0 33.3977 0.393478 33.3977 0.878887V3.91246C33.3977 4.39786 33.7912 4.79134 34.2766 4.79134Z" fill="#F84E1D"/>
<path d="M40.2078 10.7224C40.2078 11.2078 40.6013 11.6013 41.0867 11.6013H44.1202C44.6056 11.6013 44.9991 11.2078 44.9991 10.7224C44.9991 10.237 44.6056 9.84354 44.1202 9.84354H41.0867C40.6013 9.84354 40.2078 10.237 40.2078 10.7224Z" fill="#F84E1D"/>
</svg>
