<svg width="53" height="45" viewBox="0 0 53 45" fill="none" xmlns="http://www.w3.org/2000/svg">
<path d="M10.0422 28.6043C10.0422 32.1658 11.1648 35.5532 13.2884 38.4003C15.3409 41.1517 18.2661 43.2303 21.5253 44.2534C22.0693 44.4243 22.6489 44.1215 22.8197 43.5775C22.9905 43.0334 22.6878 42.4538 22.1438 42.2831C19.2957 41.3891 16.7387 39.5717 14.9438 37.1656C13.0881 34.6779 12.1073 31.7176 12.1073 28.6044C12.1073 22.3135 16.181 16.9563 21.8288 15.0316C24.8034 14.0211 28.0816 14.0211 31.0559 15.0321C36.703 16.9572 40.7759 22.3141 40.7759 28.6044C40.7759 31.7612 39.7699 34.7549 37.8666 37.2618C36.024 39.689 33.4087 41.4975 30.5026 42.3544C29.9556 42.5157 29.6429 43.0899 29.8042 43.6369C29.9633 44.1764 30.5467 44.4945 31.0866 44.3353C34.4123 43.3547 37.4043 41.2861 39.5115 38.5106C41.6898 35.6414 42.8411 32.2159 42.8411 28.6044C42.8411 23.9666 40.9054 19.7728 37.8002 16.787L41.2299 5.65606C41.3502 5.26534 41.2288 4.84054 40.9202 4.57249C40.6117 4.30444 40.174 4.24362 39.804 4.4175L35.5206 6.43007C33.2965 7.47502 30.6366 6.60158 29.4651 4.44146L27.3492 0.540236C27.1686 0.207338 26.8203 0 26.4415 0C26.0628 0 25.7144 0.207338 25.5338 0.540236L23.418 4.44146C22.2464 6.60158 19.5865 7.47502 17.3624 6.43007L13.079 4.4175C12.7091 4.24362 12.2714 4.30444 11.9627 4.57249C11.6542 4.84054 11.5328 5.26534 11.6531 5.65606L15.0827 16.787C11.9778 19.7726 10.0422 23.9665 10.0422 28.6043ZM16.7977 15.3385L14.3146 7.27945L16.4845 8.299C19.6978 9.80861 23.5408 8.54682 25.2336 5.4258L26.4417 3.19815L27.6498 5.4258C29.3425 8.54671 33.1855 9.80881 36.3988 8.299L38.5687 7.27945L36.0856 15.3385C34.7445 14.3628 33.2693 13.6018 31.7124 13.0738C28.3203 11.9205 24.5636 11.9198 21.1715 13.0736C19.6142 13.6016 18.1389 14.3627 16.7977 15.3385Z" fill="#F84E1D"/>
<path d="M4.08078 17.7685C3.58092 17.494 2.95323 17.6766 2.67867 18.1765C0.969988 21.2876 0.044297 24.879 0.00154894 28.5624C-0.0410958 32.2391 0.79755 35.8513 2.42662 39.0085C2.68445 39.5082 3.31628 39.7113 3.81769 39.4526C4.32447 39.1911 4.52324 38.5683 4.26179 38.0615C2.78688 35.2033 2.02774 31.9269 2.06646 28.5865C2.10519 25.2413 2.9428 21.9854 4.48875 19.1707C4.76331 18.6708 4.58065 18.043 4.08078 17.7685Z" fill="#F84E1D"/>
<path d="M7.50104 21.3124C6.98218 21.0754 6.36966 21.3037 6.13279 21.8224C4.2302 25.9858 4.13706 31.0102 5.88364 35.2626C6.09738 35.7832 6.71072 36.0392 7.23102 35.8254C7.75856 35.6088 8.0105 35.0056 7.79387 34.478C6.26031 30.7444 6.34158 26.3341 8.01112 22.6807C8.2481 22.162 8.0198 21.5493 7.50104 21.3124Z" fill="#F84E1D"/>
<path d="M48.7862 39.44C49.2812 39.7119 49.9178 39.5247 50.1884 39.032C51.897 35.9209 52.8228 32.3295 52.8655 28.6461C52.9081 24.9694 52.0695 21.3572 50.4404 18.2C50.179 17.6932 49.5561 17.4945 49.0493 17.7559C48.5425 18.0174 48.3438 18.6402 48.6052 19.147C50.0801 22.0052 50.8393 25.2816 50.8006 28.6221C50.7618 31.9673 49.9242 35.2231 48.3783 38.0378C48.1037 38.5378 48.2865 39.1655 48.7862 39.44Z" fill="#F84E1D"/>
<path d="M45.366 35.8962C45.8783 36.1302 46.5005 35.8979 46.7342 35.3862C48.6368 31.2227 48.73 26.1983 46.9834 21.9459C46.7668 21.4184 46.1634 21.1664 45.636 21.3831C45.1085 21.5997 44.8565 22.203 45.0731 22.7305C46.6067 26.4641 46.5254 30.8744 44.8559 34.5278C44.619 35.0465 44.8473 35.6591 45.366 35.8962Z" fill="#F84E1D"/>
<path d="M32.1111 36.9266C32.3893 36.7258 32.5497 36.3999 32.539 36.057L32.3821 31.0132L35.4508 27.0906C35.6613 26.8216 35.7251 26.466 35.6213 26.1405C35.5175 25.8152 35.2596 25.5622 34.9323 25.4647L30.1132 24.0297L27.2935 19.9158C27.1009 19.635 26.7823 19.4671 26.4417 19.4671C26.1012 19.4671 25.7825 19.635 25.59 19.9158L22.7702 24.0297L17.9511 25.4647C17.6238 25.5622 17.3658 25.8152 17.262 26.1405C17.1583 26.4659 17.2221 26.8215 17.4325 27.0905L20.5012 31.0131L20.3442 36.0569C20.3335 36.3998 20.494 36.7257 20.7721 36.9264C21.0448 37.1231 21.4167 37.1743 21.7322 37.0583L26.4416 35.3291L31.151 37.0583C31.4731 37.1767 31.8328 37.1273 32.1111 36.9266ZM30.4273 34.5928L26.7975 33.2599C26.5691 33.1761 26.3141 33.1761 26.0857 33.2599L22.4558 34.5928L22.5768 30.7036C22.5844 30.4621 22.5069 30.2256 22.358 30.0352L19.9925 27.0115L23.7099 25.9046C23.9365 25.8372 24.1332 25.6938 24.2669 25.4988L26.4416 22.326L28.6163 25.4988C28.75 25.6938 28.9466 25.8372 29.1734 25.9046L32.8906 27.0115L30.5251 30.0352C30.3763 30.2255 30.2989 30.4621 30.3063 30.7036L30.4273 34.5928Z" fill="#F84E1D"/>
<path d="M27.2998 43.3976C26.9875 42.929 26.3366 42.8021 25.8686 43.1126C25.4006 43.4232 25.2706 44.077 25.5826 44.5438C25.8957 45.012 26.546 45.142 27.0148 44.8298C27.486 44.516 27.6075 43.8674 27.2998 43.3976Z" fill="#F84E1D"/>
</svg>
