<svg width="156" height="50" viewBox="0 0 156 50" fill="none" xmlns="http://www.w3.org/2000/svg">
<path d="M62.278 37V14.288H78.802V18.47H67.242V23.332H77.782V27.276H67.242V32.818H78.802V37H62.278ZM82.4267 37V14.288H87.1187V37H82.4267ZM99.4203 37.34C97.7657 37.34 96.2583 37.034 94.8983 36.422C93.5383 35.7873 92.4503 34.858 91.6343 33.634C90.8183 32.3873 90.4103 30.846 90.4103 29.01C90.4103 27.31 90.7843 25.8367 91.5323 24.59C92.2803 23.3433 93.289 22.38 94.5583 21.7C95.8277 21.02 97.2557 20.68 98.8423 20.68C100.452 20.68 101.857 20.9747 103.058 21.564C104.282 22.1533 105.234 22.9807 105.914 24.046C106.594 25.0887 106.934 26.29 106.934 27.65C106.934 28.058 106.878 28.5113 106.764 29.01C106.651 29.486 106.504 29.894 106.322 30.234H95.2043C95.3177 30.9593 95.567 31.5713 95.9523 32.07C96.3377 32.546 96.8703 32.9087 97.5503 33.158C98.2303 33.4073 99.0123 33.532 99.8963 33.532C100.826 33.532 101.698 33.396 102.514 33.124C103.33 32.8293 104.101 32.444 104.826 31.968L106.254 35.266C105.28 35.946 104.214 36.4673 103.058 36.83C101.925 37.17 100.712 37.34 99.4203 37.34ZM95.2043 27.174H102.106C102.129 27.1287 102.14 27.0833 102.14 27.038C102.14 26.9927 102.14 26.9247 102.14 26.834C102.14 26.3127 102.027 25.8707 101.8 25.508C101.574 25.1227 101.222 24.828 100.746 24.624C100.293 24.3973 99.7037 24.284 98.9783 24.284C98.321 24.284 97.7203 24.4087 97.1763 24.658C96.655 24.8847 96.2243 25.2133 95.8843 25.644C95.5443 26.0747 95.3177 26.5847 95.2043 27.174ZM113.078 37L107.026 21.02H112.058L115.73 32.274L119.368 21.02H124.366L118.28 37H113.078ZM133.487 37.34C131.832 37.34 130.325 37.034 128.965 36.422C127.605 35.7873 126.517 34.858 125.701 33.634C124.885 32.3873 124.477 30.846 124.477 29.01C124.477 27.31 124.851 25.8367 125.599 24.59C126.347 23.3433 127.355 22.38 128.625 21.7C129.894 21.02 131.322 20.68 132.909 20.68C134.518 20.68 135.923 20.9747 137.125 21.564C138.349 22.1533 139.301 22.9807 139.981 24.046C140.661 25.0887 141.001 26.29 141.001 27.65C141.001 28.058 140.944 28.5113 140.831 29.01C140.717 29.486 140.57 29.894 140.389 30.234H129.271C129.384 30.9593 129.633 31.5713 130.019 32.07C130.404 32.546 130.937 32.9087 131.617 33.158C132.297 33.4073 133.079 33.532 133.963 33.532C134.892 33.532 135.765 33.396 136.581 33.124C137.397 32.8293 138.167 32.444 138.893 31.968L140.321 35.266C139.346 35.946 138.281 36.4673 137.125 36.83C135.991 37.17 134.779 37.34 133.487 37.34ZM129.271 27.174H136.173C136.195 27.1287 136.207 27.0833 136.207 27.038C136.207 26.9927 136.207 26.9247 136.207 26.834C136.207 26.3127 136.093 25.8707 135.867 25.508C135.64 25.1227 135.289 24.828 134.813 24.624C134.359 24.3973 133.77 24.284 133.045 24.284C132.387 24.284 131.787 24.4087 131.243 24.658C130.721 24.8847 130.291 25.2133 129.951 25.644C129.611 26.0747 129.384 26.5847 129.271 27.174ZM144.284 37V21.02H148.738V23.434C149.191 22.482 149.781 21.8133 150.506 21.428C151.231 21.02 152.036 20.816 152.92 20.816C153.215 20.816 153.475 20.8387 153.702 20.884C153.951 20.9067 154.144 20.952 154.28 21.02V25.508C153.963 25.44 153.634 25.3833 153.294 25.338C152.977 25.2927 152.648 25.27 152.308 25.27C151.379 25.27 150.585 25.61 149.928 26.29C149.293 26.97 148.976 27.9673 148.976 29.282V37H144.284Z" fill="white"/>
<path d="M22 0V50H4C1.79086 50 0 48.2091 0 46V16.8011C0 15.4634 0.668709 14.2142 1.78192 13.4724L22 0Z" fill="#F84E1D"/>
<path d="M22 0V50H40C42.2091 50 44 48.2091 44 46V16.8011C44 15.4634 43.3313 14.2142 42.2181 13.4724L22 0Z" fill="white"/>
</svg>
