<svg width="156" height="47" viewBox="0 0 156 47" fill="none" xmlns="http://www.w3.org/2000/svg">
<path d="M62.278 34V11.288H78.802V15.47H67.242V20.332H77.782V24.276H67.242V29.818H78.802V34H62.278ZM82.4267 34V11.288H87.1187V34H82.4267ZM99.4203 34.34C97.7657 34.34 96.2583 34.034 94.8983 33.422C93.5383 32.7873 92.4503 31.858 91.6343 30.634C90.8183 29.3873 90.4103 27.846 90.4103 26.01C90.4103 24.31 90.7843 22.8367 91.5323 21.59C92.2803 20.3433 93.289 19.38 94.5583 18.7C95.8277 18.02 97.2557 17.68 98.8423 17.68C100.452 17.68 101.857 17.9747 103.058 18.564C104.282 19.1533 105.234 19.9807 105.914 21.046C106.594 22.0887 106.934 23.29 106.934 24.65C106.934 25.058 106.878 25.5113 106.764 26.01C106.651 26.486 106.504 26.894 106.322 27.234H95.2043C95.3177 27.9593 95.567 28.5713 95.9523 29.07C96.3377 29.546 96.8703 29.9087 97.5503 30.158C98.2303 30.4073 99.0123 30.532 99.8963 30.532C100.826 30.532 101.698 30.396 102.514 30.124C103.33 29.8293 104.101 29.444 104.826 28.968L106.254 32.266C105.28 32.946 104.214 33.4673 103.058 33.83C101.925 34.17 100.712 34.34 99.4203 34.34ZM95.2043 24.174H102.106C102.129 24.1287 102.14 24.0833 102.14 24.038C102.14 23.9927 102.14 23.9247 102.14 23.834C102.14 23.3127 102.027 22.8707 101.8 22.508C101.574 22.1227 101.222 21.828 100.746 21.624C100.293 21.3973 99.7037 21.284 98.9783 21.284C98.321 21.284 97.7203 21.4087 97.1763 21.658C96.655 21.8847 96.2243 22.2133 95.8843 22.644C95.5443 23.0747 95.3177 23.5847 95.2043 24.174ZM113.078 34L107.026 18.02H112.058L115.73 29.274L119.368 18.02H124.366L118.28 34H113.078ZM133.487 34.34C131.832 34.34 130.325 34.034 128.965 33.422C127.605 32.7873 126.517 31.858 125.701 30.634C124.885 29.3873 124.477 27.846 124.477 26.01C124.477 24.31 124.851 22.8367 125.599 21.59C126.347 20.3433 127.355 19.38 128.625 18.7C129.894 18.02 131.322 17.68 132.909 17.68C134.518 17.68 135.923 17.9747 137.125 18.564C138.349 19.1533 139.301 19.9807 139.981 21.046C140.661 22.0887 141.001 23.29 141.001 24.65C141.001 25.058 140.944 25.5113 140.831 26.01C140.717 26.486 140.57 26.894 140.389 27.234H129.271C129.384 27.9593 129.633 28.5713 130.019 29.07C130.404 29.546 130.937 29.9087 131.617 30.158C132.297 30.4073 133.079 30.532 133.963 30.532C134.892 30.532 135.765 30.396 136.581 30.124C137.397 29.8293 138.167 29.444 138.893 28.968L140.321 32.266C139.346 32.946 138.281 33.4673 137.125 33.83C135.991 34.17 134.779 34.34 133.487 34.34ZM129.271 24.174H136.173C136.195 24.1287 136.207 24.0833 136.207 24.038C136.207 23.9927 136.207 23.9247 136.207 23.834C136.207 23.3127 136.093 22.8707 135.867 22.508C135.64 22.1227 135.289 21.828 134.813 21.624C134.359 21.3973 133.77 21.284 133.045 21.284C132.387 21.284 131.787 21.4087 131.243 21.658C130.721 21.8847 130.291 22.2133 129.951 22.644C129.611 23.0747 129.384 23.5847 129.271 24.174ZM144.284 34V18.02H148.738V20.434C149.191 19.482 149.781 18.8133 150.506 18.428C151.231 18.02 152.036 17.816 152.92 17.816C153.215 17.816 153.475 17.8387 153.702 17.884C153.951 17.9067 154.144 17.952 154.28 18.02V22.508C153.963 22.44 153.634 22.3833 153.294 22.338C152.977 22.2927 152.648 22.27 152.308 22.27C151.379 22.27 150.585 22.61 149.928 23.29C149.293 23.97 148.976 24.9673 148.976 26.282V34H144.284Z" fill="#141416"/>
<path d="M22 0V46.0189H0V13.4925L22 0Z" fill="#F84E1D"/>
<path d="M22 0V46.0189H44V13.4925L22 0Z" fill="#141416"/>
</svg>
