<svg width="59" height="41" viewBox="0 0 59 41" fill="none" xmlns="http://www.w3.org/2000/svg">
<path d="M14.1068 13.5174L14.0011 13.5148C12.7283 13.4867 11.6713 14.4826 11.6394 15.7472C11.6076 17.0118 12.6132 18.0627 13.8856 18.0944L14.011 18.0974C18.9934 18.1933 23.0469 22.3023 23.0469 27.257C23.0469 32.3089 18.9113 36.419 13.8281 36.419C8.74491 36.419 4.60938 32.3089 4.60938 27.257C4.60938 20.9469 6.11941 15.1242 9.09787 9.95054C11.3239 6.0836 13.5875 4.04105 13.6298 4.00325C14.5791 3.16573 14.6683 1.7218 13.8278 0.77502C12.9855 -0.173362 11.5293 -0.263952 10.5748 0.572883C10.4634 0.670687 7.81543 3.01788 5.20882 7.48275C2.83246 11.5531 0 18.2877 0 27.257C0 34.8349 6.2033 41 13.8281 41C21.453 41 27.6562 34.8349 27.6562 27.257C27.6562 23.6333 26.2495 20.214 23.6952 17.629C21.146 15.0492 17.7408 13.5891 14.1068 13.5174Z" fill="#7C7C84"/>
<path d="M55.0389 17.629C52.4896 15.0491 49.0847 13.589 45.4504 13.5174L45.3448 13.5148C44.0762 13.4867 43.015 14.4826 42.9831 15.7472C42.9512 17.0118 43.957 18.0627 45.2294 18.0944L45.3548 18.0974C50.3371 18.1934 54.3906 22.3024 54.3906 27.257C54.3906 32.3089 50.2551 36.419 45.1719 36.419C40.0887 36.419 35.9531 32.3089 35.9531 27.257C35.9531 20.9469 37.4632 15.1241 40.4415 9.95065C42.6675 6.08371 44.9312 4.04116 44.9734 4.00337C45.9229 3.16573 46.0119 1.72191 45.1714 0.775134C44.3293 -0.173363 42.8729 -0.263952 41.9185 0.572997C41.8071 0.670802 39.1591 3.01799 36.5525 7.48287C34.1762 11.5531 31.3438 18.2877 31.3438 27.257C31.3438 34.8349 37.547 41 45.1719 41C52.7967 41 59 34.8349 59 27.257C59 23.6333 57.5932 20.214 55.0389 17.629Z" fill="#7C7C84"/>
</svg>
