<svg width="50" height="50" viewBox="0 0 50 50" fill="none" xmlns="http://www.w3.org/2000/svg">
<path d="M24.9981 8.89035C16.1152 8.89035 8.88843 16.1171 8.88843 25C8.88843 33.8829 16.1152 41.1097 24.9981 41.1097C33.881 41.1097 41.1078 33.8829 41.1078 25C41.1078 16.1171 33.8811 8.89035 24.9981 8.89035ZM24.9981 38.1807C17.7303 38.1807 11.8175 32.2678 11.8175 25C11.8175 17.7322 17.7303 11.8194 24.9981 11.8194C32.2659 11.8194 38.1787 17.7322 38.1787 25C38.1787 32.2678 32.266 38.1807 24.9981 38.1807Z" fill="#F84E1D"/>
<path d="M31.2852 19.5709L23.5336 27.3224L18.711 22.4999C18.1392 21.928 17.2119 21.928 16.6399 22.4999C16.068 23.0718 16.068 23.9991 16.6399 24.571L22.498 30.4291C22.784 30.7151 23.1588 30.8581 23.5335 30.8581C23.9082 30.8581 24.2831 30.7152 24.569 30.4291L33.3561 21.642C33.928 21.07 33.928 20.1428 33.3561 19.5709C32.7844 18.9989 31.857 18.9989 31.2852 19.5709Z" fill="#F84E1D"/>
<path d="M47.9034 14.7318C47.8985 14.7288 42.7884 11.6699 42.7884 11.6699L41.6413 6.91921C41.1323 4.81118 39.194 3.40222 37.0314 3.56995L31.2081 4.02063C31.2081 4.02063 27.8537 1.06016 27.8471 1.0546C26.1963 -0.351533 23.7998 -0.351533 22.149 1.0546C22.1425 1.06016 18.788 4.02063 18.788 4.02063L12.9647 3.56995C10.8195 3.40339 8.89604 4.78775 8.36784 6.86668L6.77093 11.955C6.77093 11.955 2.10332 14.728 2.09717 14.7318C0.249636 15.8673 -0.490921 18.1464 0.336433 20.151L2.32896 24.9795L0.336433 29.8079C-0.490921 31.8126 0.249636 34.0916 2.09727 35.2271C2.10293 35.2306 7.20316 38.2696 7.20316 38.2696L8.35505 43.0397C8.83658 45.0343 10.5977 46.4027 12.6174 46.4025C12.9263 46.4025 12.5793 46.4142 18.7275 45.943C18.7275 45.943 22.1437 48.9408 22.1491 48.9454C22.9745 49.6484 23.9863 50 24.9982 50C26.01 50 27.0219 49.6484 27.8473 48.9454C27.8527 48.9407 31.2689 45.943 31.2689 45.943L37.0315 46.389C39.1934 46.556 41.1325 45.1478 41.6414 43.0397L42.7885 38.2889C49.0417 34.5458 47.7158 35.3429 47.9035 35.227C49.751 34.0915 50.4915 31.8125 49.6642 29.8078L47.6716 24.9793L49.6642 20.1508C50.4914 18.1464 49.751 15.8674 47.9034 14.7318ZM44.7334 25.5382L46.9566 30.9254C47.2315 31.5914 46.9871 32.3485 46.3756 32.7282L40.7569 36.0916C40.4197 36.2934 40.1777 36.6223 40.0855 37.0044L38.794 42.3525C38.6245 43.0551 37.9793 43.5244 37.2575 43.4688L30.8796 42.9752C30.4868 42.9448 30.0972 43.0743 29.8006 43.3346L25.941 46.7216C25.3931 47.1827 24.6031 47.1827 24.0552 46.7214L20.1958 43.3346C19.8991 43.0743 19.5094 42.9445 19.1168 42.9752L12.7389 43.4688C12.0177 43.5245 11.372 43.0551 11.2024 42.3524L9.90588 36.9832C9.81341 36.6002 9.5704 36.2706 9.2319 36.0688L3.62388 32.7273C3.01328 32.3473 2.76939 31.5909 3.04413 30.9253L5.26726 25.5381C5.41498 25.1803 5.41498 24.7786 5.26726 24.4208L3.04384 19.0336C2.76929 18.3683 3.01289 17.6123 3.62281 17.2321L8.74861 14.187C9.0587 14.0028 9.2899 13.7107 9.39788 13.3665C11.2869 7.34372 11.1803 7.69725 11.2022 7.60655C11.3718 6.90397 12.0158 6.43396 12.7387 6.4902L19.1797 6.98872C19.5749 7.01918 19.9649 6.88855 20.2618 6.62659L24.0566 3.27734C24.6037 2.81788 25.3922 2.81788 25.9393 3.27715L29.7344 6.62659C30.0313 6.88874 30.4222 7.01918 30.8164 6.98872L37.2574 6.4902C37.9778 6.43455 38.6244 6.90388 38.7939 7.60665L40.0854 12.9547C40.1776 13.3367 40.4196 13.6656 40.7568 13.8676L46.3755 17.2309C46.987 17.6106 47.2315 18.3675 46.9565 19.0336L44.7333 24.4208C44.5857 24.7787 44.5857 25.1804 44.7334 25.5382Z" fill="#F84E1D"/>
</svg>
