<svg width="47" height="50" viewBox="0 0 47 50" fill="none" xmlns="http://www.w3.org/2000/svg">
<path d="M23.4375 41.6016C23.9765 41.6016 24.4141 41.164 24.4141 40.625C24.4141 40.086 23.9765 39.6484 23.4375 39.6484C22.8985 39.6484 22.4609 40.086 22.4609 40.625C22.4609 41.164 22.8985 41.6016 23.4375 41.6016Z" fill="#F84E1D"/>
<path d="M38.0859 35.7422H32.2266C31.6872 35.7422 31.25 36.1794 31.25 36.7188V42.5781C31.25 43.1175 31.6872 43.5547 32.2266 43.5547H38.0859C38.6253 43.5547 39.0625 43.1175 39.0625 42.5781V36.7188C39.0625 36.1794 38.6253 35.7422 38.0859 35.7422ZM37.1094 41.6016H33.2031V37.6953H37.1094V41.6016Z" fill="#F84E1D"/>
<path d="M14.6484 12.3047H8.78906C8.24966 12.3047 7.8125 12.7419 7.8125 13.2812V19.1406C7.8125 19.68 8.24966 20.1172 8.78906 20.1172H14.6484C15.1878 20.1172 15.625 19.68 15.625 19.1406V13.2812C15.625 12.7419 15.1878 12.3047 14.6484 12.3047ZM13.6719 18.1641H9.76562V14.2578H13.6719V18.1641Z" fill="#F84E1D"/>
<path d="M26.3672 12.3047H20.5078C19.9684 12.3047 19.5312 12.7419 19.5312 13.2812V19.1406C19.5312 19.68 19.9684 20.1172 20.5078 20.1172H26.3672C26.9066 20.1172 27.3438 19.68 27.3438 19.1406V13.2812C27.3438 12.7419 26.9066 12.3047 26.3672 12.3047ZM25.3906 18.1641H21.4844V14.2578H25.3906V18.1641Z" fill="#F84E1D"/>
<path d="M31.25 13.2812V19.1406C31.25 19.68 31.6872 20.1172 32.2266 20.1172H38.0859C38.6253 20.1172 39.0625 19.68 39.0625 19.1406V13.2812C39.0625 12.7419 38.6253 12.3047 38.0859 12.3047H32.2266C31.6872 12.3047 31.25 12.7419 31.25 13.2812ZM33.2031 14.2578H37.1094V18.1641H33.2031V14.2578Z" fill="#F84E1D"/>
<path d="M14.6484 24.0234H8.78906C8.24966 24.0234 7.8125 24.4606 7.8125 25V30.8594C7.8125 31.3988 8.24966 31.8359 8.78906 31.8359H14.6484C15.1878 31.8359 15.625 31.3988 15.625 30.8594V25C15.625 24.4606 15.1878 24.0234 14.6484 24.0234ZM13.6719 29.8828H9.76562V25.9766H13.6719V29.8828Z" fill="#F84E1D"/>
<path d="M26.3672 24.0234H20.5078C19.9684 24.0234 19.5312 24.4606 19.5312 25V30.8594C19.5312 31.3988 19.9684 31.8359 20.5078 31.8359H26.3672C26.9066 31.8359 27.3438 31.3988 27.3438 30.8594V25C27.3438 24.4606 26.9066 24.0234 26.3672 24.0234ZM25.3906 29.8828H21.4844V25.9766H25.3906V29.8828Z" fill="#F84E1D"/>
<path d="M38.0859 24.0234H32.2266C31.6872 24.0234 31.25 24.4606 31.25 25V30.8594C31.25 31.3988 31.6872 31.8359 32.2266 31.8359H38.0859C38.6253 31.8359 39.0625 31.3988 39.0625 30.8594V25C39.0625 24.4606 38.6253 24.0234 38.0859 24.0234ZM37.1094 29.8828H33.2031V25.9766H37.1094V29.8828Z" fill="#F84E1D"/>
<path d="M14.6484 35.7422H8.78906C8.24966 35.7422 7.8125 36.1794 7.8125 36.7188V42.5781C7.8125 43.1175 8.24966 43.5547 8.78906 43.5547H14.6484C15.1878 43.5547 15.625 43.1175 15.625 42.5781V36.7188C15.625 36.1794 15.1878 35.7422 14.6484 35.7422ZM13.6719 41.6016H9.76562V37.6953H13.6719V41.6016Z" fill="#F84E1D"/>
<path d="M36.1328 0H10.7422C10.2028 0 9.76562 0.437164 9.76562 0.976562V6.44531H4.88281C4.34341 6.44531 3.90625 6.88248 3.90625 7.42188V48.0469H0.976562C0.437164 48.0469 0 48.484 0 49.0234C0 49.5628 0.437164 50 0.976562 50H45.8984C46.4378 50 46.875 49.5628 46.875 49.0234C46.875 48.484 46.4378 48.0469 45.8984 48.0469H42.9688V7.42188C42.9688 6.88248 42.5316 6.44531 41.9922 6.44531H37.1094V0.976562C37.1094 0.437164 36.6722 0 36.1328 0ZM11.7188 1.95312H35.1562V6.44531H11.7188V1.95312ZM27.3438 48.0469H24.4141V44.5312C24.4141 43.9919 23.9769 43.5547 23.4375 43.5547C22.8981 43.5547 22.4609 43.9919 22.4609 44.5312V48.0469H19.5312V37.6953H27.3438V48.0469ZM41.0156 48.0469H29.2969V36.7188C29.2969 36.1794 28.8597 35.7422 28.3203 35.7422H18.5547C18.0153 35.7422 17.5781 36.1794 17.5781 36.7188V48.0469H5.85938V8.39844H41.0156V48.0469Z" fill="#F84E1D"/>
</svg>
