<svg width="52" height="50" viewBox="0 0 52 50" fill="none" xmlns="http://www.w3.org/2000/svg">
<path d="M48.695 16.7149C47.7907 16.5291 45.8573 16.7648 44.9058 18.9795C44.8994 18.9946 44.8933 19.0098 44.8874 19.0251L41.9478 26.9086C41.445 26.6132 40.8709 26.4557 40.2728 26.4557C39.6367 26.4557 39.0177 26.6378 38.4838 26.9815L30.9446 31.8207C28.0841 33.5628 26.5601 35.8503 25.7485 37.7839C24.9369 35.8503 23.413 33.5628 20.5525 31.8207L13.0145 26.9823C12.4795 26.6378 11.8603 26.4558 11.2242 26.4558C10.6263 26.4558 10.0522 26.6133 9.54929 26.9087C9.54929 26.9087 6.59766 18.9947 6.59123 18.9796C5.63974 16.765 3.70669 16.5294 2.80207 16.715C0.965476 17.0575 -0.200248 18.6396 0.0285719 20.4819C0.0336009 20.522 3.23577 33.4045 3.23577 33.4045C4.08105 36.7842 6.3779 40.1934 9.37991 42.5243C9.39037 42.5324 9.40083 42.5402 9.41149 42.5478L14.4935 46.1839V47.9884C14.4935 49.0976 15.3959 50 16.5051 50H34.9919C36.1011 50 37.0035 49.0976 37.0035 47.9884V46.1839L42.0856 42.5478C42.0962 42.5402 42.1068 42.5323 42.1171 42.5243C45.1192 40.1934 47.4159 36.7842 48.2616 33.4033C48.2616 33.4033 51.4635 20.522 51.4685 20.4819C51.6972 18.6394 50.5316 17.0574 48.695 16.7149ZM24.7315 43.0676C24.7287 43.0977 24.7273 47.9883 24.7273 47.9883H16.5051V45.6667C16.5051 45.3421 16.3485 45.0376 16.0845 44.8487L10.5981 40.9234C7.98688 38.8902 5.91432 35.8237 5.18743 32.9175L2.01895 20.1803C1.94734 19.4155 2.39713 18.8339 3.17743 18.6912C3.19725 18.6876 3.1879 18.6902 3.19926 18.6873C3.39207 18.6575 4.2294 18.6019 4.73401 19.7525L8.07599 28.7149C7.69419 29.8414 7.94081 31.1265 8.82209 32.0529C8.85498 32.0876 14.0119 36.1591 14.0119 36.1591C14.4478 36.5031 15.0805 36.4282 15.4245 35.9921C15.7685 35.556 15.6938 34.9235 15.2576 34.5796L10.2382 30.6209C9.79853 30.112 9.82216 29.3301 10.3016 28.85C10.5486 28.6032 10.8762 28.4672 11.2243 28.4672C11.4735 28.4672 11.716 28.5385 11.9268 28.6743C11.9268 28.6743 19.49 33.5288 19.4971 33.5331C21.8719 34.9765 23.4735 37.0067 24.2576 39.5669C24.8533 41.5118 24.7324 43.0555 24.7315 43.0676ZM49.4781 20.1803L46.3098 32.9163C45.5827 35.8238 43.5101 38.8902 40.8988 40.9234L35.4125 44.8487C35.1484 45.0375 34.9918 45.3421 34.9918 45.6667V47.9883H26.7696C26.7696 47.9883 26.7682 43.0977 26.7655 43.0676C26.7601 43.0074 26.2867 37.0056 31.9999 33.5331C32.0069 33.5289 39.5714 28.6736 39.5714 28.6736C39.7811 28.5386 40.0236 28.4672 40.2727 28.4672C40.6208 28.4672 40.9485 28.6032 41.1949 28.8495C41.6748 29.3301 41.6985 30.112 41.2589 30.6209L36.2394 34.5796C35.8032 34.9235 35.7286 35.556 36.0726 35.9921C36.4165 36.4283 37.049 36.503 37.4851 36.1591C37.4851 36.1591 42.6421 32.0876 42.675 32.0529C43.5561 31.1266 43.8028 29.8417 43.421 28.715L46.763 19.7524C47.2679 18.6018 48.1056 18.6573 48.2978 18.6872C48.3091 18.69 48.2998 18.6874 48.3196 18.6911C49.0999 18.8339 49.5497 19.4156 49.4781 20.1803Z" fill="#F84E1D"/>
<path d="M12.0364 21.6886H17.8894V26.0332C17.8894 27.1424 18.7918 28.0448 19.901 28.0448H21.1742C21.7296 28.0448 22.18 27.5945 22.18 27.039C22.18 26.4835 21.7296 26.0332 21.1742 26.0332H19.901C19.901 26.0332 19.9049 20.6222 19.9022 20.5923C19.9282 18.9903 21.2385 17.695 22.8465 17.695H28.6505C30.2584 17.695 31.5688 18.9903 31.5948 20.5923C31.5921 20.6222 31.596 26.0332 31.596 26.0332H30.3391C29.7837 26.0332 29.3333 26.4835 29.3333 27.039C29.3333 27.5945 29.7837 28.0448 30.3391 28.0448H31.596C32.7052 28.0448 33.6076 27.1424 33.6076 26.0332V21.6886H39.4605C40.6062 21.6886 41.5382 20.7565 41.5382 19.6109V14.2847C41.5382 11.9933 39.975 10.0607 37.8592 9.49557C38.7837 8.48635 39.349 7.1428 39.349 5.6695C39.349 2.54327 36.8056 0 33.6795 0C30.5532 0 28.0099 2.54337 28.0099 5.6695C28.0099 6.08792 28.0567 6.49537 28.1432 6.88823C27.4152 6.54747 26.604 6.35596 25.7484 6.35596C24.8929 6.35596 24.0817 6.54757 23.3536 6.88823C23.44 6.49537 23.487 6.08792 23.487 5.6695C23.487 2.54327 20.9436 0 17.8174 0C14.6912 0 12.1479 2.54337 12.1479 5.6695C12.1479 7.1428 12.7131 8.48635 13.6377 9.49557C11.5219 10.0607 9.95865 11.9933 9.95865 14.2847V19.6109C9.95875 20.7566 10.8908 21.6886 12.0364 21.6886ZM39.5267 14.2847V19.6109C39.5267 19.6473 39.497 19.677 39.4606 19.677H33.5129C33.1458 17.8213 31.74 16.3351 29.9285 15.8512C30.853 14.8421 31.4181 13.4987 31.4181 12.0254C31.4181 11.7929 31.4024 11.5643 31.3751 11.3391H36.5811C38.2053 11.3392 39.5267 12.6605 39.5267 14.2847ZM33.6796 2.0115C35.6966 2.0115 37.3375 3.65247 37.3375 5.6695C37.3375 7.68654 35.6966 9.3275 33.6796 9.3275C31.6625 9.3275 30.0216 7.68654 30.0216 5.6695C30.0216 3.65247 31.6626 2.0115 33.6796 2.0115ZM29.4065 12.0255C29.4065 14.0425 27.7656 15.6835 25.7485 15.6835C23.7315 15.6835 22.0905 14.0425 22.0905 12.0255C22.0905 10.0084 23.7315 8.36746 25.7485 8.36746C27.7656 8.36746 29.4065 10.0084 29.4065 12.0255ZM17.8175 2.0115C19.8345 2.0115 21.4755 3.65247 21.4755 5.6695C21.4755 7.68654 19.8345 9.3275 17.8175 9.3275C15.8004 9.3275 14.1596 7.68654 14.1596 5.6695C14.1596 3.65247 15.8004 2.0115 17.8175 2.0115ZM11.9704 14.2847C11.9704 12.6605 13.2918 11.3392 14.9158 11.3392H20.1219C20.0946 11.5644 20.0788 11.793 20.0788 12.0255C20.0788 13.4987 20.644 14.8421 21.5684 15.8513C19.757 16.3352 18.3512 17.8213 17.984 19.6771H12.0364C12 19.6771 11.9704 19.6474 11.9704 19.611V14.2847Z" fill="#F84E1D"/>
<path d="M25.7485 28.0445C26.304 28.0445 26.7543 27.5942 26.7543 27.0387C26.7543 26.4832 26.304 26.0329 25.7485 26.0329C25.193 26.0329 24.7427 26.4832 24.7427 27.0387C24.7427 27.5942 25.193 28.0445 25.7485 28.0445Z" fill="#F84E1D"/>
</svg>
