<svg width="45" height="45" viewBox="0 0 45 45" fill="none" xmlns="http://www.w3.org/2000/svg">
<path d="M12.6167 6.22723L12.4225 8.33572C12.3862 8.72789 12.5549 9.10028 12.8735 9.33187C13.1921 9.56338 13.5985 9.60873 13.9605 9.45316L15.9057 8.6168L17.851 9.45325C17.9932 9.51434 18.1422 9.54439 18.29 9.54439C18.5186 9.54439 18.7444 9.4725 18.938 9.33187C19.2566 9.10028 19.4252 8.72789 19.389 8.33572L19.1948 6.22723L20.5914 4.63562C20.8512 4.33951 20.9335 3.93899 20.8118 3.5644C20.6901 3.18973 20.388 2.91437 20.0038 2.82753L17.9385 2.36065L16.8564 0.540703C16.655 0.202148 16.2997 0 15.9057 0C15.5118 0 15.1565 0.202148 14.9551 0.540703L13.873 2.36074L11.8077 2.82753C11.4234 2.91428 11.1214 3.18981 10.9997 3.5644C10.878 3.93899 10.9603 4.33942 11.2202 4.63562L12.6167 6.22723ZM14.2528 3.62654C14.5476 3.55992 14.8052 3.37271 14.9596 3.113L15.9058 1.52165L16.8521 3.11309C17.0065 3.3728 17.2641 3.55992 17.5589 3.62654L19.3648 4.0348L18.1436 5.42637C17.9442 5.65365 17.8458 5.95652 17.8736 6.25729L18.0435 8.10097L16.3425 7.36963C16.2037 7.30995 16.0548 7.28016 15.9058 7.28016C15.7569 7.28016 15.6078 7.30995 15.4689 7.36972L13.768 8.10097L13.9379 6.25729C13.9656 5.95635 13.8672 5.65348 13.6679 5.42646L12.4467 4.03462L14.2528 3.62654Z" fill="#F84E1D"/>
<path d="M2.63672 9.45984L4.1828 8.79522L5.72889 9.45984C5.86072 9.51662 5.99871 9.54448 6.13582 9.54448C6.34764 9.54448 6.55699 9.47777 6.73638 9.34743C7.03178 9.13289 7.18813 8.78766 7.15456 8.42405L7.00005 6.74824L8.11011 5.48323C8.35084 5.20875 8.42722 4.83759 8.31445 4.49033C8.2016 4.14316 7.92167 3.88784 7.56554 3.80733L5.924 3.43635L5.06391 1.98984C4.87731 1.67607 4.5479 1.48869 4.1828 1.48869C3.8177 1.48869 3.48838 1.67607 3.3017 1.98984L2.44169 3.43644L0.800067 3.80742C0.443935 3.88793 0.164003 4.14325 0.0511513 4.49042C-0.0617003 4.83768 0.0146767 5.20884 0.255585 5.48341L1.36556 6.74824L1.21113 8.42405C1.17765 8.78766 1.334 9.1328 1.6294 9.34743C1.92472 9.56206 2.30141 9.60398 2.63672 9.45984ZM1.57183 4.98454L2.8553 4.6945C3.12838 4.63271 3.36709 4.45931 3.51035 4.21857L4.18271 3.0876L4.85534 4.21875C4.99851 4.45939 5.23723 4.6328 5.51039 4.6945L6.79377 4.98454L5.92585 5.97357C5.74119 6.18407 5.65005 6.46471 5.67562 6.74376L5.79639 8.05386L4.58754 7.53416C4.33028 7.42359 4.03515 7.42351 3.77789 7.53425L2.56913 8.05395L2.68989 6.74385C2.71556 6.46506 2.6245 6.18442 2.43967 5.97349L1.57183 4.98454Z" fill="#F84E1D"/>
<path d="M24.2347 6.74824L24.0803 8.42405C24.0468 8.78766 24.2031 9.1328 24.4985 9.34743C24.7939 9.56206 25.1706 9.60398 25.5059 9.45976L27.052 8.79513L28.5981 9.45984C28.7299 9.51653 28.8679 9.5444 29.005 9.5444C29.2169 9.5444 29.4262 9.47769 29.6056 9.34734C29.901 9.1328 30.0574 8.78757 30.0238 8.42397L29.8694 6.74824L30.9794 5.48323C31.2202 5.20875 31.2965 4.83759 31.1838 4.49033C31.0709 4.14316 30.791 3.88784 30.4349 3.80733L28.7932 3.43635L27.933 1.98984C27.7465 1.67607 27.417 1.48869 27.0519 1.48869C26.6868 1.48869 26.3575 1.67607 26.1709 1.98984L25.3109 3.43644L23.6693 3.80742C23.3132 3.88793 23.0332 4.14325 22.9204 4.49042C22.8075 4.83768 22.8839 5.20884 23.1248 5.48332L24.2347 6.74824ZM25.7245 4.6945C25.9976 4.63271 26.2363 4.45931 26.3796 4.21857L27.0519 3.0876L27.7245 4.21875C27.8677 4.45939 28.1065 4.6328 28.3795 4.6945L29.6629 4.98454L28.795 5.97357C28.6103 6.18407 28.5192 6.46471 28.5448 6.74376L28.6655 8.05395L27.4567 7.53416C27.1994 7.42359 26.9043 7.42351 26.647 7.53425L25.4383 8.05395L25.559 6.74385C25.5848 6.46497 25.4936 6.18425 25.3087 5.97357L24.4409 4.98454L25.7245 4.6945Z" fill="#F84E1D"/>
<path d="M44.5387 35.2305C44.5387 34.511 44.231 33.8621 43.7401 33.4085C44.231 32.9549 44.5387 32.3059 44.5387 31.5864C44.5387 30.2183 43.4256 29.1052 42.0585 29.1052L35.4361 29.095C34.9331 29.0943 34.5239 28.6843 34.5239 28.1813V23.4759C34.5239 22.2718 33.9157 21.1696 32.8969 20.5276C32.4085 20.2196 31.8184 20.1604 31.2778 20.365C30.7366 20.5697 30.333 21.0056 30.1704 21.5606L27.5387 30.5468C27.2015 31.6982 26.1282 32.5022 24.9285 32.5022H23.7877V32.126C23.7877 31.3638 23.1676 30.7437 22.4054 30.7437H18.0457C17.2835 30.7437 16.6634 31.3638 16.6634 32.126V36.3589H5.40264C4.82177 36.3589 4.27957 36.0995 3.91517 35.647C3.55078 35.1947 3.41279 34.6097 3.53654 34.0421C4.0739 31.5781 5.4515 29.3498 7.41551 27.768C9.3796 26.186 11.8501 25.3149 14.372 25.3149H15.6271C19.2793 25.3149 22.753 26.8937 25.1575 29.6464C25.3971 29.9207 25.8134 29.9486 26.0877 29.7092C26.3619 29.4697 26.39 29.0533 26.1504 28.7792C24.263 26.6184 21.7786 25.1135 19.051 24.4236C21.2077 23.2183 22.6701 20.9132 22.6701 18.2719C22.6701 14.3884 19.5107 11.229 15.6272 11.229C14.0142 11.229 12.4378 11.7882 11.1882 12.8037C10.9056 13.0333 10.8628 13.4485 11.0924 13.7311C11.3221 14.0135 11.7373 14.0564 12.0197 13.8269C13.0349 13.0017 14.3161 12.5474 15.6272 12.5474C18.7837 12.5474 21.3517 15.1154 21.3517 18.2719C21.3517 21.4284 18.7837 23.9965 15.6272 23.9965C12.4706 23.9965 9.90264 21.4284 9.90264 18.2719C9.90264 17.4046 10.0914 16.5719 10.4637 15.7968C10.6214 15.4687 10.4832 15.0748 10.155 14.9171C9.82679 14.7596 9.43304 14.8978 9.27536 15.226C8.81675 16.1806 8.58419 17.2054 8.58419 18.2719C8.58419 20.7894 9.91266 23.0012 11.9045 24.2467C9.96978 24.641 8.13823 25.4931 6.58854 26.7412C4.39101 28.5112 2.84959 31.0042 2.24842 33.7611C2.03924 34.7204 2.27241 35.7092 2.88835 36.4738C3.5042 37.2386 4.42063 37.6771 5.40255 37.6771H16.6634V43.2413C16.6634 44.0035 17.2834 44.6236 18.0456 44.6236H22.4053C23.1675 44.6236 23.7876 44.0035 23.7876 43.2413V43.2205H25.9124C27.3466 43.2205 28.7007 43.4931 29.937 44.0307C31.373 44.655 32.8949 44.9715 34.458 44.9715L42.0574 45C43.4256 45 44.5387 43.8869 44.5387 42.5188C44.5387 41.7993 44.2309 41.1504 43.74 40.6968C44.2309 40.2432 44.5387 39.5942 44.5387 38.8747C44.5387 38.1553 44.2309 37.5063 43.74 37.0527C44.2309 36.5989 44.5387 35.9499 44.5387 35.2305ZM22.4692 43.2414C22.4692 43.2766 22.4406 43.3053 22.4053 43.3053H18.0456C18.0104 43.3053 17.9817 43.2766 17.9817 43.2414V32.1259C17.9817 32.0907 18.0104 32.062 18.0456 32.062H22.4053C22.4406 32.062 22.4692 32.0906 22.4692 32.1259V43.2414ZM39.8936 34.0675H42.0575C42.6988 34.0675 43.2204 34.5893 43.2204 35.2304C43.2204 35.8716 42.6987 36.3932 42.0575 36.3932H39.8936C39.5295 36.3932 39.2344 36.6883 39.2344 37.0524C39.2344 37.4165 39.5295 37.7116 39.8936 37.7116H42.0575C42.6988 37.7116 43.2204 38.2333 43.2204 38.8745C43.2204 39.5156 42.6987 40.0373 42.0575 40.0373H39.8936C39.5295 40.0373 39.2344 40.3324 39.2344 40.6965C39.2344 41.0607 39.5295 41.3557 39.8936 41.3557H42.0575C42.6988 41.3557 43.2204 41.8774 43.2204 42.5185C43.2204 43.1597 42.6987 43.6814 42.0599 43.6814L34.4603 43.653C33.0768 43.653 31.7318 43.3731 30.4626 42.8215C29.0595 42.2113 27.5286 41.9019 25.9124 41.9019H23.7876V33.8203H24.9284C26.7096 33.8203 28.3032 32.6265 28.8038 30.9172L31.4355 21.9309C31.4808 21.7762 31.5933 21.6548 31.7443 21.5976C31.8946 21.5408 32.0585 21.5571 32.194 21.6425C32.8274 22.0417 33.2055 22.727 33.2055 23.4756V28.181C33.2055 29.4098 34.2053 30.411 35.4341 30.4131L42.0574 30.4232C42.6987 30.4232 43.2203 30.9449 43.2203 31.586C43.2203 32.2272 42.6986 32.7489 42.0574 32.7489H39.8935C39.5294 32.7489 39.2343 33.044 39.2343 33.4081C39.2343 33.7722 39.5294 34.0675 39.8936 34.0675Z" fill="#F84E1D"/>
</svg>
