<svg width="45" height="45" viewBox="0 0 45 45" fill="none" xmlns="http://www.w3.org/2000/svg">
<path d="M27.1143 17.7979C27.1143 15.2535 25.0443 13.1836 22.5 13.1836C19.9557 13.1836 17.8857 15.2535 17.8857 17.7979C17.8857 20.3422 19.9557 22.4121 22.5 22.4121C25.0443 22.4121 27.1143 20.3422 27.1143 17.7979ZM19.2041 17.7979C19.2041 15.9805 20.6826 14.502 22.5 14.502C24.3174 14.502 25.7959 15.9805 25.7959 17.7979C25.7959 19.6153 24.3174 21.0938 22.5 21.0938C20.6826 21.0938 19.2041 19.6153 19.2041 17.7979Z" fill="#F84E1D"/>
<path d="M14.5896 27.0264V27.2299C14.5896 27.3581 14.6269 27.4833 14.697 27.5906C16.4264 30.2367 19.3434 31.8164 22.5 31.8164C25.6566 31.8164 28.5736 30.2367 30.3031 27.5906C30.3732 27.4834 30.4105 27.3581 30.4105 27.2299V27.0264C30.4105 25.209 28.932 23.7305 27.1146 23.7305H17.8855C16.0681 23.7305 14.5896 25.2091 14.5896 27.0264ZM29.0922 27.0264C27.5956 29.2051 25.1456 30.4981 22.5 30.4981C19.8544 30.4981 17.4045 29.2051 15.9079 27.0295C15.9079 25.9359 16.795 25.0488 17.8854 25.0488H27.1146C28.2051 25.0488 29.0922 25.936 29.0922 27.0264Z" fill="#F84E1D"/>
<path d="M44.4209 21.1017L41.6177 18.2986C41.2442 17.925 40.7476 17.7194 40.2194 17.7194C39.6911 17.7194 39.1946 17.9251 38.821 18.2986C38.2207 18.8989 38.0878 19.7924 38.4224 20.5225H36.9561C36.6184 18.0279 35.6469 15.6827 34.1202 13.6765L35.157 12.6396C35.4368 13.3924 36.1625 13.9302 37.0116 13.9302C38.102 13.9302 38.9892 13.0431 38.9892 11.9527V7.98847C38.9892 6.89801 38.102 6.01093 37.0116 6.01093H33.0474C31.957 6.01093 31.0699 6.89801 31.0699 7.98847C31.0699 8.83749 31.6077 9.5632 32.3605 9.84296L31.3237 10.8798C29.3175 9.35306 26.9721 8.3816 24.4776 8.04401V6.57888C24.7332 6.69639 25.0135 6.75835 25.3033 6.75835C25.8315 6.75835 26.3281 6.5526 26.7016 6.17915C27.4725 5.40809 27.4725 4.15353 26.7016 3.38256L23.8984 0.579199C23.5249 0.205752 23.0282 0 22.5 0C21.9718 0 21.4752 0.205752 21.1017 0.579199L18.2985 3.38238C17.5276 4.15336 17.5276 5.40791 18.2985 6.17897C18.672 6.55251 19.1686 6.75817 19.6968 6.75817C19.9866 6.75817 20.2668 6.69621 20.5225 6.5787V8.04393C18.028 8.38151 15.6827 9.35297 13.6764 10.8797L12.6395 9.84287C13.3922 9.56312 13.9301 8.8374 13.9301 7.98838C13.9301 6.89792 13.0431 6.01084 11.9527 6.01084H7.98847C6.8981 6.01084 6.01093 6.89792 6.01093 7.98838V11.9526C6.01093 13.0431 6.8981 13.9301 7.98847 13.9301C8.83749 13.9301 9.56329 13.3923 9.84305 12.6395L10.8799 13.6764C9.35314 15.6826 8.38169 18.0279 8.04401 20.5224H6.57773C6.91225 19.7923 6.77936 18.8988 6.17906 18.2985C5.80553 17.9249 5.30895 17.7193 4.78072 17.7193C4.2525 17.7193 3.75592 17.925 3.38238 18.2985L0.579287 21.1017C0.205752 21.4752 0 21.9718 0 22.5C0 23.0282 0.205752 23.5249 0.579199 23.8983L3.38238 26.7015C3.75592 27.0751 4.2525 27.2807 4.78072 27.2807C5.30895 27.2807 5.80553 27.075 6.17906 26.7015C6.77936 26.1011 6.91225 25.2077 6.57773 24.4776H8.04401C8.38169 26.9721 9.35314 29.3174 10.8799 31.3236L9.84305 32.3604C9.56329 31.6077 8.83758 31.0699 7.98847 31.0699C6.8981 31.0699 6.01093 31.9569 6.01093 33.0474V37.0116C6.01093 38.1021 6.8981 38.9892 7.98847 38.9892H11.9527C13.0431 38.9892 13.9301 38.1021 13.9301 37.0116C13.9301 36.1626 13.3924 35.4369 12.6395 35.1571L13.6764 34.1203C15.6826 35.647 18.028 36.6185 20.5225 36.9561V38.4213C20.2669 38.3038 19.9866 38.2418 19.6968 38.2418C19.1686 38.2418 18.672 38.4476 18.2985 38.821C17.5276 39.5921 17.5276 40.8466 18.2985 41.6176L21.1017 44.4208C21.4752 44.7943 21.9718 45 22.5 45C23.0282 45 23.5248 44.7942 23.8983 44.4208L26.7015 41.6176C27.4724 40.8466 27.4724 39.5921 26.7015 38.821C26.328 38.4475 25.8314 38.2418 25.3032 38.2418C25.0134 38.2418 24.7332 38.3038 24.4775 38.4213V36.9561C26.972 36.6185 29.3173 35.647 31.3236 34.1203L32.3604 35.1571C31.6077 35.4369 31.0699 36.1626 31.0699 37.0116C31.0699 38.1021 31.9569 38.9892 33.0473 38.9892H37.0115C38.1019 38.9892 38.9891 38.1021 38.9891 37.0116V33.0474C38.9891 31.9569 38.1019 31.0699 37.0115 31.0699C36.1625 31.0699 35.4367 31.6077 35.157 32.3604L34.1201 31.3236C35.6469 29.3174 36.6183 26.9721 36.956 24.4776H38.4223C38.0878 25.2077 38.2206 26.1012 38.8209 26.7015C39.1945 27.0751 39.6911 27.2807 40.2193 27.2807C40.7475 27.2807 41.2441 27.075 41.6176 26.7015L44.4207 23.8984C44.7942 23.5249 45 23.0283 45 22.5001C45 21.9719 44.7943 21.4752 44.4209 21.1017ZM43.4885 22.9662L40.6854 25.7694C40.5609 25.8939 40.3953 25.9625 40.2193 25.9625C40.0432 25.9625 39.8776 25.8939 39.7532 25.7694C39.4962 25.5124 39.4962 25.0942 39.7532 24.8372L40.3058 24.2846C40.4943 24.0961 40.5506 23.8126 40.4486 23.5663C40.3466 23.3199 40.1062 23.1594 39.8396 23.1594H36.3683C36.0281 23.1594 35.7438 23.4182 35.712 23.7569C35.4629 26.4091 34.432 28.8978 32.7308 30.9542C32.514 31.2162 32.5321 31.6 32.7726 31.8405L35.2272 34.2951C35.4158 34.4836 35.6992 34.54 35.9456 34.438C36.192 34.336 36.3525 34.0956 36.3525 33.829V33.0475C36.3525 32.6841 36.6482 32.3883 37.0117 32.3883C37.3752 32.3883 37.6709 32.684 37.6709 33.0475V37.0117C37.6709 37.3752 37.3752 37.6709 37.0117 37.6709H33.0475C32.6841 37.6709 32.3884 37.3752 32.3884 37.0117C32.3884 36.6482 32.6841 36.3525 33.0475 36.3525H33.829C34.0956 36.3525 34.3361 36.192 34.438 35.9456C34.5401 35.6992 34.4837 35.4158 34.2952 35.2273L31.8406 32.7727C31.6 32.5323 31.2162 32.5141 30.9543 32.7308C28.8979 34.432 26.409 35.4629 23.7569 35.7119C23.4182 35.7437 23.1594 36.028 23.1594 36.3682V39.8398C23.1594 40.1064 23.3199 40.3467 23.5663 40.4488C23.8126 40.5508 24.0961 40.4944 24.2847 40.3058L24.8373 39.7533C24.9617 39.6287 25.1273 39.5602 25.3034 39.5602C25.4794 39.5602 25.645 39.6287 25.7694 39.7533C26.0264 40.0103 26.0264 40.4285 25.7694 40.6854L22.9663 43.4886C22.8418 43.6132 22.6762 43.6817 22.5002 43.6817C22.3241 43.6817 22.1585 43.6132 22.0341 43.4886L19.2309 40.6854C18.9739 40.4285 18.9739 40.0103 19.2309 39.7533C19.3554 39.6287 19.5209 39.5602 19.697 39.5602C19.873 39.5602 20.0386 39.6287 20.1631 39.7533L20.7156 40.3058C20.9043 40.4943 21.1876 40.5507 21.4341 40.4488C21.6804 40.3467 21.841 40.1063 21.841 39.8398V36.3682C21.841 36.0279 21.5822 35.7437 21.2434 35.7119C18.5913 35.4629 16.1025 34.432 14.0461 32.7308C13.7842 32.514 13.4003 32.5322 13.1598 32.7727L10.7051 35.2272C10.5166 35.4157 10.4602 35.6992 10.5623 35.9455C10.6642 36.1919 10.9047 36.3524 11.1712 36.3524H11.9528C12.3162 36.3524 12.6119 36.6481 12.6119 37.0116C12.6119 37.3751 12.3162 37.6708 11.9528 37.6708H7.98847C7.62495 37.6708 7.32929 37.3751 7.32929 37.0116V33.0474C7.32929 32.6839 7.62495 32.3882 7.98847 32.3882C8.35198 32.3882 8.64765 32.6839 8.64765 33.0474V33.8289C8.64765 34.0956 8.80822 34.3359 9.05458 34.4379C9.30085 34.54 9.5843 34.4835 9.773 34.295L12.2276 31.8404C12.468 31.5999 12.4861 31.2161 12.2694 30.9541C10.5682 28.8978 9.53728 26.409 9.28819 23.7568C9.25646 23.4181 8.97205 23.1593 8.63191 23.1593H5.16032C4.89375 23.1593 4.65328 23.3198 4.55133 23.5662C4.44929 23.8126 4.50562 24.096 4.69415 24.2845L5.24672 24.8371C5.50371 25.0941 5.50371 25.5123 5.24672 25.7693C5.12227 25.8938 4.95668 25.9624 4.78063 25.9624C4.60459 25.9624 4.439 25.8938 4.31455 25.7693L1.51128 22.9661C1.387 22.8416 1.31836 22.676 1.31836 22.5C1.31836 22.324 1.38691 22.1585 1.51146 22.0339L4.31464 19.2307C4.43909 19.1062 4.60468 19.0376 4.78072 19.0376C4.95677 19.0376 5.12235 19.1062 5.24681 19.2307C5.5038 19.4877 5.5038 19.9059 5.24681 20.1629L4.69424 20.7155C4.50571 20.904 4.44937 21.1875 4.55142 21.4338C4.65337 21.6802 4.89384 21.8407 5.16041 21.8407H8.63191C8.97205 21.8407 9.25638 21.5819 9.28819 21.2432C9.53728 18.591 10.5681 16.1023 12.2694 14.0459C12.4862 13.7839 12.4681 13.4001 12.2276 13.1596L9.773 10.705C9.58438 10.5164 9.30085 10.46 9.05458 10.5621C8.80822 10.6641 8.64765 10.9045 8.64765 11.1711V11.9526C8.64765 12.316 8.35198 12.6118 7.98847 12.6118C7.62495 12.6118 7.32929 12.3161 7.32929 11.9526V7.98847C7.32929 7.62495 7.62495 7.32929 7.98847 7.32929H11.9527C12.3161 7.32929 12.6118 7.62495 12.6118 7.98847C12.6118 8.35189 12.3161 8.64765 11.9527 8.64765H11.1712C10.9046 8.64765 10.6641 8.80822 10.5622 9.05458C10.4601 9.30094 10.5165 9.58438 10.705 9.77291L13.1596 12.2275C13.4002 12.468 13.784 12.4861 14.0459 12.2694C16.1023 10.5681 18.5912 9.53728 21.2433 9.28828C21.582 9.25646 21.8408 8.97214 21.8408 8.632V5.16032C21.8408 4.89366 21.6802 4.65337 21.4339 4.55133C21.1875 4.4492 20.9041 4.50562 20.7155 4.69424L20.1629 5.24681C20.0384 5.37135 19.8729 5.4399 19.6968 5.4399C19.5208 5.4399 19.3552 5.37135 19.2307 5.24681C18.9737 4.98981 18.9737 4.57163 19.2307 4.31464L22.0339 1.51146C22.1585 1.38691 22.324 1.31836 22.5 1.31836C22.676 1.31836 22.8416 1.38691 22.9661 1.51146L25.7693 4.31464C26.0263 4.57163 26.0263 4.98981 25.7693 5.24681C25.6448 5.37135 25.4792 5.4399 25.3032 5.4399C25.1271 5.4399 24.9616 5.37135 24.8371 5.24681L24.2845 4.69424C24.0959 4.50562 23.8124 4.4492 23.5661 4.55133C23.3198 4.65337 23.1592 4.89375 23.1592 5.16032V8.63191C23.1592 8.97214 23.418 9.25638 23.7568 9.28819C26.4088 9.53719 28.8976 10.5681 30.9541 12.2693C31.216 12.4861 31.5998 12.468 31.8404 12.2274L34.295 9.77282C34.4835 9.5843 34.5399 9.30076 34.4378 9.05449C34.3359 8.80813 34.0954 8.64756 33.8288 8.64756H33.0473C32.6839 8.64756 32.3882 8.35181 32.3882 7.98838C32.3882 7.62486 32.6839 7.3292 33.0473 7.3292H37.0115C37.375 7.3292 37.6707 7.62486 37.6707 7.98838V11.9526C37.6707 12.3161 37.375 12.6118 37.0115 12.6118C36.648 12.6118 36.3524 12.3161 36.3524 11.9526V11.1711C36.3524 10.9044 36.1918 10.6641 35.9454 10.5621C35.6992 10.46 35.4156 10.5166 35.227 10.705L32.7724 13.1596C32.532 13.4001 32.5139 13.7839 32.7306 14.0459C34.4318 16.1022 35.4627 18.591 35.7118 21.2432C35.7435 21.5819 36.0279 21.8407 36.3681 21.8407H39.8396C40.1062 21.8407 40.3466 21.6802 40.4486 21.4338C40.5506 21.1874 40.4943 20.904 40.3058 20.7155L39.7532 20.1629C39.4962 19.9059 39.4962 19.4877 39.7532 19.2307C39.8776 19.1062 40.0432 19.0376 40.2193 19.0376C40.3953 19.0376 40.5609 19.1062 40.6854 19.2307L43.4885 22.0339C43.6131 22.1585 43.6816 22.324 43.6816 22.5C43.6816 22.676 43.6131 22.8416 43.4885 22.9662Z" fill="#F84E1D"/>
<path d="M22.5 10.5469C18.1783 10.5469 14.1799 12.892 12.0654 16.667C11.8875 16.9846 12.0007 17.3863 12.3183 17.5642C12.6356 17.742 13.0376 17.6288 13.2155 17.3112C15.0973 13.952 18.6548 11.8653 22.5 11.8653C28.3641 11.8653 33.1348 16.636 33.1348 22.5C33.1348 28.3641 28.3641 33.1348 22.5 33.1348C16.636 33.1348 11.8653 28.3641 11.8653 22.5C11.8653 21.5162 11.9996 20.5417 12.2645 19.6037C12.3634 19.2534 12.1596 18.8891 11.8092 18.7902C11.4588 18.6913 11.0947 18.8951 10.9957 19.2454C10.6979 20.3 10.5469 21.3951 10.5469 22.5C10.5469 29.0911 15.9091 34.4532 22.5 34.4532C29.091 34.4532 34.4532 29.0911 34.4532 22.5C34.4532 15.909 29.0911 10.5469 22.5 10.5469Z" fill="#F84E1D"/>
</svg>
