<svg width="36" height="45" viewBox="0 0 36 45" fill="none" xmlns="http://www.w3.org/2000/svg">
<path d="M26.6733 15.8918H24.6769C24.555 15.5049 24.4 15.1303 24.2129 14.771L25.6244 13.3593C25.8008 13.183 25.8979 12.9484 25.8979 12.6989C25.8979 12.4492 25.8008 12.2147 25.6244 12.0383L23.9632 10.377C23.5989 10.013 23.0064 10.0128 22.6421 10.3771L21.2305 11.7887C20.8711 11.6015 20.4964 11.4464 20.1096 11.3246V9.32817C20.1095 8.81313 19.6905 8.39398 19.1753 8.39398H16.8259C16.3109 8.39398 15.8918 8.81304 15.8918 9.32817V11.3246C15.5049 11.4465 15.1303 11.6015 14.7709 11.7887L13.3592 10.377C12.995 10.0129 12.4024 10.013 12.0382 10.3771L10.3771 12.0382C10.2006 12.2146 10.1034 12.4492 10.1034 12.6988C10.1034 12.9483 10.2006 13.1829 10.377 13.3593L11.7886 14.7709C11.6015 15.1303 11.4463 15.5049 11.3245 15.8917H9.32808C8.81304 15.8917 8.39398 16.3108 8.39398 16.8259V19.1753C8.39398 19.6904 8.81304 20.1094 9.32808 20.1094H11.3245C11.4464 20.4962 11.6015 20.871 11.7886 21.2303L10.377 22.6419C10.0127 23.0061 10.0127 23.5988 10.377 23.963L12.0382 25.6242C12.4024 25.9885 12.9951 25.9884 13.3593 25.6242L14.7709 24.2126C15.1303 24.3997 15.505 24.5548 15.8918 24.6767V26.6731C15.8918 27.1881 16.3109 27.6072 16.8259 27.6072H19.1753C19.6904 27.6072 20.1095 27.1881 20.1095 26.6731V24.6767C20.4962 24.5548 20.871 24.3997 21.2304 24.2126L22.642 25.6242C23.0063 25.9885 23.5989 25.9884 23.9632 25.6242L25.6243 23.963C25.8007 23.7866 25.8978 23.552 25.8978 23.3025C25.8978 23.053 25.8007 22.8184 25.6243 22.6419L24.2127 21.2303C24.3998 20.8709 24.5549 20.4962 24.6767 20.1094H26.6732C27.1882 20.1094 27.6074 19.6904 27.6074 19.1753V16.8259C27.6075 16.3109 27.1883 15.8918 26.6733 15.8918ZM26.2892 18.7911H24.1746C23.8684 18.7911 23.6025 19.0019 23.5328 19.3001C23.3922 19.9009 23.1563 20.4707 22.8316 20.9935C22.6699 21.2537 22.7089 21.5908 22.9254 21.8075L24.4205 23.3026L23.3027 24.4204L21.8076 22.9253C21.591 22.7087 21.2538 22.6697 20.9935 22.8314C20.4706 23.1561 19.9008 23.392 19.3002 23.5327C19.002 23.6024 18.7912 23.8682 18.7912 24.1745V26.2892H17.2104V24.1745C17.2104 23.8683 16.9996 23.6025 16.7014 23.5327C16.1008 23.3922 15.531 23.1563 15.008 22.8314C14.7479 22.67 14.4107 22.7087 14.194 22.9253L12.6989 24.4204L11.5812 23.3026L13.0763 21.8075C13.2928 21.5909 13.3317 21.2538 13.1701 20.9935C12.8454 20.4706 12.6095 19.9008 12.4689 19.3001C12.3992 19.0019 12.1333 18.7911 11.8271 18.7911H9.71251V17.2104H11.8271C12.1333 17.2104 12.3991 16.9995 12.4689 16.7013C12.6095 16.1007 12.8454 15.5309 13.1701 15.0079C13.3317 14.7478 13.2928 14.4106 13.0763 14.194L11.5812 12.6989L12.6989 11.5811L14.194 13.0762C14.4104 13.2927 14.7478 13.3317 15.008 13.17C15.5309 12.8453 16.1007 12.6094 16.7014 12.4688C16.9996 12.3991 17.2104 12.1333 17.2104 11.827V9.71233H18.7912V11.827C18.7912 12.1332 19.002 12.3991 19.3002 12.4688C19.9009 12.6094 20.4706 12.8453 20.9936 13.17C21.2536 13.3315 21.5909 13.2926 21.8076 13.0762L23.3027 11.5811L24.4205 12.6989L22.9254 14.194C22.7088 14.4105 22.6699 14.7477 22.8316 15.0079C23.1562 15.5307 23.3921 16.1005 23.5328 16.7013C23.6025 16.9995 23.8683 17.2104 24.1746 17.2104H26.2892V18.7911Z" fill="#F84E1D"/>
<path d="M18.0007 14.4692C16.0534 14.4692 14.4692 16.0535 14.4692 18.0007C14.4692 19.9479 16.0535 21.5321 18.0007 21.5321C19.9479 21.5321 21.5321 19.9479 21.5321 18.0007C21.5321 16.0535 19.948 14.4692 18.0007 14.4692ZM18.0007 20.2138C16.7804 20.2138 15.7876 19.2209 15.7876 18.0007C15.7876 16.7804 16.7804 15.7876 18.0007 15.7876C19.2209 15.7876 20.2138 16.7804 20.2138 18.0007C20.2138 19.2209 19.2209 20.2138 18.0007 20.2138Z" fill="#F84E1D"/>
<path d="M2.84607 17.3415H0.659178C0.295136 17.3415 0 17.6366 0 18.0007C0 18.3647 0.295136 18.6598 0.659178 18.6598H2.84607C3.21011 18.6598 3.50525 18.3647 3.50525 18.0007C3.50525 17.6366 3.21011 17.3415 2.84607 17.3415Z" fill="#F84E1D"/>
<path d="M35.3423 17.3415H33.1554C32.7912 17.3415 32.4962 17.6366 32.4962 18.0007C32.4962 18.3647 32.7912 18.6598 33.1554 18.6598H35.3423C35.7064 18.6598 36.0014 18.3647 36.0014 18.0007C36.0014 17.6366 35.7063 17.3415 35.3423 17.3415Z" fill="#F84E1D"/>
<path d="M7.7508 28.2505C7.49345 27.9931 7.07606 27.9931 6.81854 28.2505L5.2722 29.7969C5.01477 30.0543 5.01477 30.4717 5.2722 30.7291C5.52963 30.9866 5.94702 30.9866 6.20445 30.7291L7.7508 29.1828C8.00823 28.9254 8.00823 28.508 7.7508 28.2505Z" fill="#F84E1D"/>
<path d="M30.7291 5.27237C30.4716 5.01494 30.0543 5.01494 29.7968 5.27237L28.2505 6.81872C27.993 7.07615 27.993 7.49354 28.2505 7.75097C28.508 8.0084 28.9253 8.00832 29.1828 7.75097L30.7291 6.20463C30.9866 5.94711 30.9866 5.52972 30.7291 5.27237Z" fill="#F84E1D"/>
<path d="M18.0008 0C17.6366 0 17.3416 0.295136 17.3416 0.659178V2.84607C17.3416 3.21011 17.6366 3.50525 18.0008 3.50525C18.3649 3.50525 18.6599 3.21011 18.6599 2.84607V0.659178C18.6599 0.295136 18.3649 0 18.0008 0Z" fill="#F84E1D"/>
<path d="M30.7291 29.7969L29.1828 28.2505C28.9253 27.9931 28.508 27.9931 28.2505 28.2505C27.993 28.508 27.993 28.9255 28.2505 29.1828L29.7968 30.7291C30.0543 30.9866 30.4716 30.9866 30.7291 30.7291C30.9866 30.4717 30.9866 30.0543 30.7291 29.7969Z" fill="#F84E1D"/>
<path d="M7.7508 6.81872L6.20445 5.27237C5.94702 5.01494 5.52963 5.01494 5.2722 5.27237C5.01477 5.5298 5.01477 5.9472 5.2722 6.20463L6.81854 7.75097C7.07597 8.0084 7.49337 8.0084 7.7508 7.75097C8.00823 7.49345 8.00823 7.07606 7.7508 6.81872Z" fill="#F84E1D"/>
<path d="M31.1516 16.3859C30.4423 10.3324 25.6437 5.53341 19.6186 4.799C19.2579 4.75461 18.9285 5.01222 18.8844 5.37353C18.8404 5.73494 19.0976 6.06365 19.459 6.10777C24.9308 6.77468 29.2006 11.0644 29.8421 16.5393C29.8814 16.8748 30.1662 17.1218 30.4959 17.1218C30.5215 17.1218 30.5474 17.1203 30.5735 17.1173C30.9352 17.075 31.194 16.7475 31.1516 16.3859Z" fill="#F84E1D"/>
<path d="M30.5658 18.8848C30.204 18.8388 29.8747 19.0948 29.829 19.456C29.3796 23.0058 27.376 26.1379 24.332 28.0491C23.0197 28.8731 22.2364 30.2832 22.2364 31.8211V34.534H13.7652V31.7611C13.7652 30.2718 12.987 28.8649 11.7343 28.0894C8.19174 25.8966 6.07675 22.1035 6.07666 17.9428C6.07666 11.9353 10.5765 6.84772 16.5436 6.10856C16.9049 6.06383 17.1615 5.73459 17.1168 5.37327C17.072 5.01204 16.743 4.75479 16.3815 4.80014C9.78836 5.6169 4.75795 11.2867 4.75804 17.9428C4.75804 20.2397 5.35543 22.5027 6.48579 24.4872C7.58152 26.4112 9.15643 28.0444 11.0401 29.2104C11.9077 29.7474 12.4465 30.7247 12.4465 31.761V34.63C11.7763 34.8629 11.293 35.4994 11.293 36.248V37.1877C11.293 37.5856 11.4304 37.9513 11.6587 38.2425C11.4303 38.5336 11.293 38.8993 11.293 39.2972V40.2369C11.293 41.182 12.0619 41.9508 13.0069 41.9508H15.0794V43.441C15.0794 44.3007 15.7787 45 16.6383 45H19.3626C20.2223 45 20.9215 44.3007 20.9215 43.441V41.9508H22.994C23.9391 41.9508 24.7079 41.1819 24.7079 40.2369V39.2972C24.7079 38.8994 24.5705 38.5336 24.3421 38.2425C24.5705 37.9513 24.7079 37.5857 24.7079 37.1877V36.248C24.7079 35.4993 24.2247 34.8629 23.5544 34.63V31.821C23.5544 30.7395 24.1069 29.7469 25.0327 29.1657C28.4124 27.0436 30.6373 23.5649 31.1364 19.6216C31.1826 19.2604 30.9269 18.9305 30.5658 18.8848ZM19.6034 43.4409C19.6034 43.5713 19.4932 43.6815 19.3629 43.6815H16.6385C16.5082 43.6815 16.3981 43.5713 16.3981 43.4409V41.9507H19.6034V43.4409ZM23.3898 40.2368C23.3898 40.4511 23.2087 40.6323 22.9943 40.6323C21.8307 40.6323 14.1053 40.6323 13.0072 40.6323C12.7928 40.6323 12.6117 40.4511 12.6117 40.2368V39.2971C12.6117 39.0828 12.7928 38.9016 13.0072 38.9016H22.9943C23.2087 38.9016 23.3898 39.0828 23.3898 39.2971V40.2368ZM23.3898 37.1876C23.3898 37.402 23.2087 37.5831 22.9943 37.5831H13.0072C12.7928 37.5831 12.6117 37.402 12.6117 37.1876V36.2479C12.6117 36.0335 12.7928 35.8524 13.0072 35.8524H22.9943C23.2087 35.8524 23.3898 36.0335 23.3898 36.2479V37.1876Z" fill="#F84E1D"/>
</svg>
