<svg width="60" height="60" viewBox="0 0 60 60" fill="none" xmlns="http://www.w3.org/2000/svg">
<path d="M16.7223 8.30297L16.4649 11.1143C16.4169 11.6372 16.6404 12.1337 17.0627 12.4425C17.485 12.7512 18.0237 12.8116 18.5035 12.6042L21.0817 11.4891L23.66 12.6043C23.8485 12.6858 24.0459 12.7259 24.2419 12.7259C24.5449 12.7259 24.8441 12.63 25.1006 12.4425C25.5229 12.1337 25.7465 11.6372 25.6985 11.1143L25.441 8.30297L27.2921 6.18082C27.6364 5.78602 27.7456 5.25199 27.5842 4.75254C27.4229 4.25297 27.0225 3.88582 26.5133 3.77004L23.7759 3.14754L22.3417 0.720937C22.0748 0.269531 21.6038 0 21.0817 0C20.5596 0 20.0886 0.269531 19.8217 0.720937L18.3875 3.14766L15.65 3.77004C15.1407 3.8857 14.7405 4.25309 14.5791 4.75254C14.4178 5.25199 14.5269 5.7859 14.8714 6.18082L16.7223 8.30297ZM18.8908 4.83539C19.2815 4.74656 19.623 4.49695 19.8277 4.15066L21.0818 2.02887L22.3359 4.15078C22.5406 4.49707 22.8821 4.74656 23.2728 4.83539L25.6663 5.37973L24.0478 7.23516C23.7835 7.5382 23.6531 7.94203 23.6899 8.34305L23.9151 10.8013L21.6605 9.82617C21.4766 9.7466 21.2792 9.70687 21.0818 9.70687C20.8843 9.70687 20.6868 9.7466 20.5027 9.82629L18.2483 10.8013L18.4734 8.34305C18.5101 7.9418 18.3798 7.53797 18.1156 7.23527L16.497 5.37949L18.8908 4.83539Z" fill="white"/>
<path d="M3.49474 12.6131L5.54394 11.727L7.59314 12.6131C7.76788 12.6888 7.95077 12.726 8.1325 12.726C8.41324 12.726 8.69072 12.637 8.92848 12.4632C9.32001 12.1772 9.52725 11.7169 9.48275 11.2321L9.27796 8.99766L10.7492 7.31098C11.0683 6.945 11.1695 6.45012 11.0201 5.98711C10.8705 5.52422 10.4995 5.18379 10.0275 5.07645L7.85175 4.5818L6.71177 2.65312C6.46446 2.23477 6.02785 1.98492 5.54394 1.98492C5.06004 1.98492 4.62354 2.23477 4.37611 2.65312L3.23625 4.58191L1.06042 5.07656C0.588397 5.18391 0.217372 5.52434 0.0677966 5.98723C-0.0817784 6.45023 0.0194527 6.94512 0.338756 7.31121L1.80993 8.99766L1.60525 11.2321C1.56087 11.7169 1.76811 12.1771 2.15963 12.4632C2.55104 12.7494 3.05033 12.8053 3.49474 12.6131ZM2.08333 6.64605L3.78446 6.25934C4.14639 6.17695 4.46278 5.94574 4.65267 5.62477L5.54382 4.1168L6.43533 5.625C6.6251 5.94586 6.94149 6.17707 7.30354 6.25934L9.00455 6.64605L7.8542 7.96477C7.60945 8.24543 7.48865 8.61961 7.52255 8.99168L7.68261 10.7385L6.08038 10.0455C5.73941 9.89812 5.34824 9.89801 5.00727 10.0457L3.40516 10.7386L3.56522 8.9918C3.59923 8.62008 3.47855 8.2459 3.23357 7.96465L2.08333 6.64605Z" fill="white"/>
<path d="M32.121 8.99766L31.9163 11.2321C31.8719 11.7169 32.0792 12.1771 32.4707 12.4632C32.8622 12.7494 33.3614 12.8053 33.8059 12.613L35.8551 11.7268L37.9043 12.6131C38.0789 12.6887 38.2619 12.7259 38.4437 12.7259C38.7244 12.7259 39.0019 12.6369 39.2397 12.4631C39.6312 12.1771 39.8384 11.7168 39.7939 11.232L39.5893 8.99766L41.0605 7.31098C41.3796 6.945 41.4808 6.45012 41.3314 5.98711C41.1818 5.52422 40.8108 5.18379 40.3388 5.07645L38.1629 4.5818L37.0228 2.65312C36.7755 2.23477 36.3389 1.98492 35.855 1.98492C35.3711 1.98492 34.9346 2.23477 34.6873 2.65312L33.5474 4.58191L31.3716 5.07656C30.8996 5.18391 30.5286 5.52434 30.379 5.98723C30.2294 6.45023 30.3306 6.94512 30.6499 7.31109L32.121 8.99766ZM34.0956 6.25934C34.4576 6.17695 34.774 5.94574 34.9638 5.62477L35.855 4.1168L36.7464 5.625C36.9362 5.94586 37.2527 6.17707 37.6146 6.25934L39.3156 6.64605L38.1653 7.96477C37.9205 8.24543 37.7997 8.61961 37.8336 8.99168L37.9937 10.7386L36.3914 10.0455C36.0505 9.89812 35.6593 9.89801 35.3183 10.0457L33.7162 10.7386L33.8763 8.9918C33.9104 8.61996 33.7895 8.24566 33.5445 7.96477L32.3943 6.64605L34.0956 6.25934Z" fill="white"/>
<path d="M59.0323 46.974C59.0323 46.0146 58.6243 45.1494 57.9737 44.5446C58.6243 43.9398 59.0323 43.0745 59.0323 42.1152C59.0323 40.2911 57.5569 38.8069 55.7449 38.8069L46.9675 38.7934C46.3008 38.7923 45.7584 38.2458 45.7584 37.5751V31.3013C45.7584 29.6958 44.9523 28.2261 43.602 27.3701C42.9547 26.9595 42.1726 26.8805 41.456 27.1533C40.7387 27.4263 40.2037 28.0075 39.9882 28.7475L36.5001 40.7291C36.0533 42.2643 34.6307 43.3363 33.0406 43.3363H31.5285V42.8346C31.5285 41.8184 30.7067 40.9916 29.6965 40.9916H23.918C22.9078 40.9916 22.086 41.8184 22.086 42.8346V48.4786H7.16073C6.39083 48.4786 5.6722 48.1327 5.18922 47.5294C4.70625 46.9262 4.52336 46.1462 4.68738 45.3894C5.39961 42.1042 7.2255 39.1331 9.82861 37.024C12.4318 34.9147 15.7063 33.7532 19.0489 33.7532H20.7124C25.5531 33.7532 30.1572 35.8582 33.3442 39.5285C33.6616 39.8943 34.2134 39.9315 34.577 39.6123C34.9404 39.293 34.9776 38.7377 34.6602 38.3722C32.1585 35.4912 28.8656 33.4847 25.2504 32.5648C28.109 30.9578 30.0472 27.8843 30.0472 24.3626C30.0472 19.1845 25.8597 14.972 20.7125 14.972C18.5746 14.972 16.4852 15.7177 14.829 17.0716C14.4545 17.3777 14.3976 17.9313 14.702 18.3081C15.0064 18.6846 15.5567 18.7419 15.931 18.4358C17.2766 17.3357 18.9747 16.7298 20.7125 16.7298C24.8962 16.7298 28.2998 20.1539 28.2998 24.3626C28.2998 28.5712 24.8962 31.9954 20.7125 31.9954C16.5287 31.9954 13.1251 28.5712 13.1251 24.3626C13.1251 23.2062 13.3753 22.0958 13.8688 21.0623C14.0778 20.6249 13.8945 20.0998 13.4595 19.8895C13.0246 19.6794 12.5027 19.8638 12.2937 20.3013C11.6858 21.5741 11.3776 22.9405 11.3776 24.3626C11.3776 27.7192 13.1384 30.6683 15.7784 32.329C13.2141 32.8547 10.7865 33.9908 8.73254 35.6549C5.81991 38.0149 3.77688 41.3389 2.98008 45.0148C2.70283 46.2939 3.01188 47.6122 3.82826 48.6318C4.64451 49.6514 5.85917 50.2362 7.16061 50.2362H22.0858V57.6551C22.0858 58.6713 22.9077 59.4981 23.9179 59.4981H29.6963C30.7066 59.4981 31.5284 58.6713 31.5284 57.6551V57.6273H34.3447C36.2456 57.6273 38.0403 57.9908 39.679 58.7075C41.5822 59.54 43.5994 59.962 45.671 59.962L55.7435 60C57.5569 60 59.0321 58.5158 59.0321 56.6917C59.0321 55.7324 58.6242 54.8672 57.9736 54.2624C58.6242 53.6576 59.0321 52.7923 59.0321 51.833C59.0321 50.8737 58.6242 50.0084 57.9736 49.4035C58.6242 48.7985 59.0323 47.9332 59.0323 46.974ZM29.781 57.6552C29.781 57.7021 29.7431 57.7404 29.6963 57.7404H23.9179C23.8712 57.7404 23.8332 57.7022 23.8332 57.6552V42.8345C23.8332 42.7876 23.8712 42.7493 23.9179 42.7493H29.6963C29.7431 42.7493 29.781 42.7875 29.781 42.8345V57.6552ZM52.8755 45.4234H55.7436C56.5935 45.4234 57.2849 46.119 57.2849 46.9739C57.2849 47.8288 56.5934 48.5243 55.7436 48.5243H52.8755C52.3929 48.5243 52.0018 48.9177 52.0018 49.4032C52.0018 49.8887 52.3929 50.2821 52.8755 50.2821H55.7436C56.5935 50.2821 57.2849 50.9777 57.2849 51.8326C57.2849 52.6875 56.5934 53.3831 55.7436 53.3831H52.8755C52.3929 53.3831 52.0018 53.7765 52.0018 54.262C52.0018 54.7475 52.3929 55.1409 52.8755 55.1409H55.7436C56.5935 55.1409 57.2849 55.8366 57.2849 56.6913C57.2849 57.5463 56.5934 58.2418 55.7467 58.2418L45.6742 58.204C43.8404 58.204 42.0577 57.8309 40.3756 57.0953C38.5158 56.2818 36.4867 55.8693 34.3447 55.8693H31.5284V45.0938H33.0405C35.4013 45.0938 37.5134 43.502 38.1769 41.2229L41.665 29.2412C41.725 29.035 41.8742 28.873 42.0744 28.7968C42.2736 28.7211 42.4907 28.7428 42.6703 28.8567C43.5099 29.389 44.011 30.3027 44.011 31.3008V37.5746C44.011 39.213 45.3361 40.548 46.9648 40.5507L55.7435 40.5642C56.5934 40.5642 57.2848 41.2598 57.2848 42.1147C57.2848 42.9696 56.5933 43.6652 55.7435 43.6652H52.8753C52.3928 43.6652 52.0016 44.0586 52.0016 44.5441C52.0016 45.0296 52.3928 45.4234 52.8755 45.4234Z" fill="white"/>
</svg>
