<svg width="60" height="60" viewBox="0 0 60 60" fill="none" xmlns="http://www.w3.org/2000/svg">
<path d="M58.7935 18.6544L52.7095 14.5974V5.39458H53.6503C54.1358 5.39458 54.5292 5.00118 54.5292 4.51568V0.884502C54.5292 0.399112 54.1357 0.0055957 53.6503 0.0055957H42.7347C42.2492 0.0055957 41.8558 0.398994 41.8558 0.884502V4.51568C41.8558 5.00107 42.2493 5.39458 42.7347 5.39458H43.6752V8.57306L31.5047 0.457588C30.5906 -0.152373 29.4093 -0.152607 28.4956 0.457354L16.3686 8.54412C15.9648 8.81353 15.8557 9.35915 16.125 9.76298C16.3944 10.1668 16.9401 10.2759 17.3438 10.0066L29.4712 1.91962C29.7924 1.70505 30.2076 1.70528 30.5291 1.91985L57.8184 20.117C58.256 20.4085 58.3746 21.0024 58.0828 21.4407C58.0301 21.5198 57.5461 22.1971 56.7505 21.6991L30.4877 4.18673C30.1923 3.98986 29.8077 3.98986 29.5123 4.18673L3.2396 21.7057C2.72585 21.9827 2.28511 21.8944 1.91737 21.4408C1.62546 21.0024 1.74394 20.4085 2.18187 20.1167L14.1579 12.1308C14.5617 11.8613 14.6708 11.3157 14.4015 10.9119C14.1322 10.5082 13.5867 10.3991 13.1826 10.6683L1.20675 18.6542C-0.0373142 19.4832 -0.374931 21.1704 0.454756 22.416C1.50054 23.7054 2.75409 23.956 4.21531 23.168L7.29054 21.1174V54.5938H4.53007C4.04468 54.5938 3.65116 54.9872 3.65116 55.4727V59.1211C3.65116 59.6065 4.04468 60 4.53007 60H29.9052C31.0588 59.964 31.0774 58.2853 29.9052 58.2422H5.4091V56.3515H54.5912V58.2422H33.7331C33.2476 58.2422 32.8542 58.6356 32.8542 59.1211C32.8542 59.6066 33.2477 60 33.7331 60H55.47C55.9555 60 56.3489 59.6066 56.3489 59.1211V55.4726C56.3489 54.9872 55.9554 54.5937 55.47 54.5937H52.7095V41.0016C52.7095 40.5162 52.316 40.1227 51.8306 40.1227C51.3451 40.1227 50.9517 40.516 50.9517 41.0016V54.5913H34.924C35.2434 54.055 35.4272 53.4288 35.4272 52.7605V40.9007C35.4272 40.4153 35.0336 40.0218 34.5482 40.0218H32.6982V36.741C32.6982 35.5884 31.9619 34.5805 30.865 34.2298L16.9543 29.5487C16.9491 29.5469 16.9439 29.5453 16.9386 29.5437C16.5716 29.4278 16.325 29.0911 16.325 28.7059V24.4611C16.325 23.9765 16.7189 23.5824 17.2031 23.5824H18.2053V24.5855C18.2053 26.0392 19.3878 27.2218 20.8412 27.2218H29.1211V28.1742C29.2581 31.7511 34.3825 31.7469 34.5174 28.1742C34.5174 27.6554 34.9393 27.2333 35.4577 27.2333C35.9762 27.2333 36.3981 27.6553 36.3981 28.1742V31.8136C36.3981 33.3016 37.6085 34.5122 39.0963 34.5122C40.5841 34.5122 41.7944 33.3016 41.7944 31.8136V27.2218H42.7971C44.2506 27.2218 45.433 26.0392 45.433 24.5855V20.822C45.433 19.3683 44.2506 18.1856 42.7971 18.1856H20.8412C19.3877 18.1856 18.2053 19.3683 18.2053 20.822V21.8245H17.2031C15.7496 21.8245 14.5671 23.0073 14.5671 24.461V28.7058C14.5671 29.8584 15.3035 30.8665 16.4006 31.2169L30.311 35.8979C30.3163 35.8997 30.3214 35.9013 30.3266 35.903C30.6937 36.019 30.9403 36.3557 30.9403 36.7408V40.0216H29.0904C28.605 40.0216 28.2114 40.415 28.2114 40.9005V52.7604C28.2114 53.4287 28.3952 54.0548 28.7147 54.5912H23.602V37.2726C23.602 36.7873 23.2085 36.3937 22.7231 36.3937H11.8075C11.3221 36.3937 10.9286 36.7871 10.9286 37.2726V54.5913H9.04847V19.9452L30.0001 5.97443L50.9517 19.9452V37.1714C50.9517 37.6568 51.3452 38.0503 51.8306 38.0503C52.3161 38.0503 52.7095 37.6569 52.7095 37.1714V21.1173L55.7847 23.1678C57.0345 24.0095 58.7236 23.6488 59.5458 22.4151C60.3749 21.1704 60.0374 19.4832 58.7935 18.6544ZM43.6138 1.76341H52.7714V3.63677H43.6138V1.76341ZM45.433 5.39857H50.9516V13.4252L45.433 9.74529V5.39857ZM40.0366 31.8135C39.9923 33.0589 38.1998 33.0581 38.156 31.8135V28.1741C38.156 26.686 36.9457 25.4754 35.4579 25.4754C33.97 25.4754 32.7597 26.686 32.7597 28.1741C32.7163 29.4185 30.9231 29.4194 30.8791 28.1741V24.5232C30.8791 23.0352 29.6687 21.8245 28.1809 21.8245C27.6624 21.8245 27.2406 21.4025 27.2406 20.8837V19.9437L40.0366 19.9536V31.8135ZM43.6752 20.822V24.5855C43.6752 25.0699 43.2813 25.464 42.7972 25.464H41.7945V19.9435H42.7972C43.2813 19.9434 43.6752 20.3375 43.6752 20.822ZM20.8412 19.9434H25.4826V20.8837C25.4826 22.3718 26.6929 23.5823 28.1807 23.5823C28.6992 23.5823 29.1211 24.0043 29.1211 24.5232V25.4639H20.8412C20.3571 25.4639 19.9631 25.0698 19.9631 24.5853V20.8219C19.9631 20.3375 20.3571 19.9434 20.8412 19.9434ZM29.9694 41.7796H33.6692V52.7605C33.6692 53.8597 32.754 54.5909 31.7997 54.5909C30.7904 54.5909 29.9693 53.7697 29.9693 52.7605L29.9694 41.7796ZM12.6866 38.1516H21.8442V54.5909H12.6866V38.1516Z" fill="white"/>
<path d="M39.0907 36.3937C37.606 36.3937 36.3982 37.6017 36.3982 39.0866C36.5335 42.6543 41.6483 42.6533 41.7832 39.0866C41.7831 37.6017 40.5752 36.3937 39.0907 36.3937ZM39.0907 40.0218C38.5753 40.0218 38.156 39.6022 38.156 39.0866C38.1999 37.8491 39.9815 37.8492 40.0252 39.0866C40.0251 39.6022 39.6059 40.0218 39.0907 40.0218Z" fill="white"/>
</svg>
