<svg width="63" height="60" viewBox="0 0 63 60" fill="none" xmlns="http://www.w3.org/2000/svg">
<path d="M8.33143 41.5258C8.31556 41.4476 8.29236 41.3707 8.26183 41.2974C8.23131 41.2242 8.19345 41.1534 8.14949 41.0874C8.10553 41.0203 8.05425 40.958 7.99808 40.9018C7.94191 40.8444 7.87963 40.7944 7.81247 40.7492C7.74654 40.7052 7.67571 40.6674 7.60123 40.6368C7.52796 40.6063 7.45104 40.5831 7.37289 40.5672C7.21537 40.5355 7.05296 40.5355 6.89544 40.5672C6.81852 40.5831 6.74159 40.6063 6.6671 40.6368C6.59384 40.6674 6.52301 40.7052 6.45708 40.7492C6.38992 40.7944 6.32764 40.8444 6.27147 40.9018C6.2153 40.958 6.16402 41.0203 6.11884 41.0874C6.07488 41.1534 6.03824 41.2242 6.00772 41.2974C5.97719 41.3707 5.95277 41.4476 5.93812 41.5258C5.92224 41.6052 5.91369 41.6845 5.91369 41.7651C5.91369 41.8445 5.92224 41.9251 5.93812 42.0032C5.95277 42.0814 5.97719 42.1583 6.00772 42.2316C6.03824 42.3048 6.07488 42.3757 6.11884 42.4428C6.16402 42.5088 6.2153 42.5723 6.27147 42.6284C6.32764 42.6846 6.38992 42.7359 6.45708 42.7798C6.52301 42.8238 6.59384 42.8616 6.6671 42.8922C6.74159 42.9227 6.81852 42.9459 6.89544 42.9618C6.97481 42.9776 7.0554 42.9862 7.13478 42.9862C7.21415 42.9862 7.29474 42.9776 7.37289 42.9618C7.45104 42.9459 7.52796 42.9227 7.60123 42.8922C7.67571 42.8616 7.74654 42.8238 7.81247 42.7798C7.87963 42.7359 7.94191 42.6846 7.99808 42.6284C8.05425 42.5723 8.10553 42.5088 8.14949 42.4428C8.19345 42.3757 8.23131 42.3048 8.26183 42.2316C8.29236 42.1583 8.31556 42.0814 8.33143 42.0032C8.34731 41.9251 8.35586 41.8445 8.35586 41.7651C8.35586 41.6845 8.34731 41.6052 8.33143 41.5258Z" fill="white"/>
<path d="M61.7656 16.1666C61.3092 15.9776 60.7841 16.0821 60.4348 16.4314L57.9542 18.912H27.1191V3.76874C27.1191 1.69059 25.4284 0 23.3504 0H19.3391C17.261 0 15.5704 1.69071 15.5704 3.76874V18.912H13.3754C12.1567 16.7193 9.81602 15.2323 7.13453 15.2323C3.20058 15.2323 0 18.4328 0 22.3668V52.7773C0 56.7599 3.24063 60 7.22391 60H61.2983C61.9725 60 62.5193 59.4533 62.5193 58.7789V17.2948C62.5193 16.8009 62.2219 16.3556 61.7656 16.1666ZM56.9722 24.1794L56.5566 23.7637L59.3232 20.997C59.3243 20.996 59.3252 20.9949 59.3262 20.9938L60.0769 20.2431V51.9096H28.4103L31.9308 48.3891L32.3466 48.8049C32.585 49.0434 32.8975 49.1625 33.21 49.1625C33.5224 49.1625 33.835 49.0432 34.0734 48.8049C34.5502 48.3281 34.5502 47.5549 34.0734 47.078L33.6576 46.6624L36.5104 43.8096L36.9262 44.2253C37.1647 44.4638 37.4772 44.583 37.7896 44.583C38.1022 44.583 38.4146 44.4638 38.6531 44.2253C39.1299 43.7485 39.1299 42.9753 38.6531 42.4984L38.2373 42.0827L41.0903 39.2298L41.5061 39.6456C41.7445 39.884 42.057 40.0032 42.3694 40.0032C42.682 40.0032 42.9945 39.8839 43.2329 39.6456C43.7097 39.1687 43.7097 38.3955 43.2327 37.9187L42.8171 37.5031L45.67 34.6501L46.0858 35.0658C46.3243 35.3043 46.6367 35.4234 46.9492 35.4234C47.2618 35.4234 47.5743 35.3041 47.8126 35.0658C48.2895 34.5889 48.2895 33.8158 47.8126 33.3389L47.397 32.9233L50.2498 30.0705L50.6655 30.4861C50.9039 30.7246 51.2164 30.8438 51.5289 30.8438C51.8414 30.8438 52.1538 30.7246 52.3923 30.4861C52.8691 30.0093 52.8691 29.2361 52.3923 28.7591L51.9767 28.3435L54.8296 25.4906L55.2454 25.9063C55.4838 26.1448 55.7963 26.264 56.1088 26.264C56.4214 26.264 56.7337 26.1448 56.9722 25.9063C57.449 25.4295 57.449 24.6563 56.9722 24.1794ZM18.0124 3.76874C18.0125 3.03719 18.6077 2.44216 19.3391 2.44216H23.3504C24.0819 2.44216 24.6769 3.03732 24.6769 3.76874V9.62297H18.0124V3.76874ZM18.0124 12.0651H24.6769V45.4083H22.5658V19.1286C22.5658 18.4542 22.0191 17.9075 21.3447 17.9075C20.6703 17.9075 20.1237 18.4542 20.1237 19.1286V45.4083H18.0124V12.0651ZM23.0619 47.8505L21.3389 50.1931L19.5951 47.8505H23.0619ZM2.44167 22.3668C2.44216 20.2017 3.91625 18.3743 5.91345 17.8356V37.0632C5.91345 37.7376 6.46013 38.2843 7.13453 38.2843C7.80893 38.2843 8.35561 37.7376 8.35561 37.0632V17.8356C9.74777 18.2111 10.8857 19.2127 11.4474 20.5186C11.4563 20.5452 11.4661 20.5716 11.4768 20.5978C11.68 21.0915 11.7955 21.6085 11.8213 22.138C11.8214 22.1404 11.8215 22.143 11.8216 22.1454C11.8224 22.1614 11.8231 22.1773 11.8237 22.1933C11.824 22.2001 11.8242 22.2071 11.8243 22.2139C11.8247 22.2261 11.8252 22.2383 11.8254 22.2505C11.8257 22.2618 11.8259 22.2731 11.826 22.2845C11.8262 22.2923 11.8264 22.3002 11.8264 22.308C11.8267 22.3277 11.8268 22.3474 11.8268 22.367V47.3875C10.5716 46.2893 8.92928 45.623 7.13441 45.623C7.10828 45.623 7.08227 45.6231 7.05626 45.6235C7.05345 45.6235 7.05052 45.6236 7.04771 45.6236C7.02268 45.624 6.99777 45.6243 6.97286 45.625C6.96932 45.6251 6.96566 45.6251 6.96211 45.6252C6.93769 45.6258 6.91327 45.6264 6.88897 45.6273C6.88494 45.6274 6.88103 45.6275 6.87701 45.6278C6.85246 45.6286 6.82792 45.6296 6.8035 45.6307C6.8002 45.6308 6.79702 45.6311 6.79373 45.6312C6.76857 45.6324 6.74354 45.6336 6.71851 45.6351C6.71643 45.6352 6.71448 45.6353 6.7124 45.6354C6.66002 45.6385 6.60788 45.6422 6.55586 45.6463C6.55354 45.6464 6.55122 45.6467 6.54878 45.6469C6.52375 45.649 6.49871 45.6512 6.47368 45.6535C6.47087 45.6538 6.46806 45.654 6.46526 45.6543C6.44059 45.6566 6.4158 45.659 6.39114 45.6616C6.38808 45.6619 6.38491 45.6622 6.38186 45.6626C6.35719 45.6651 6.33253 45.6678 6.30786 45.6707C6.30529 45.6711 6.30285 45.6714 6.30029 45.6716C6.24754 45.6777 6.19503 45.6844 6.14265 45.6917C6.14252 45.6917 6.14277 45.6917 6.14265 45.6917C6.11676 45.6954 6.09063 45.6992 6.06486 45.703C6.06303 45.7032 6.06132 45.7035 6.05949 45.7038C6.03434 45.7076 6.00918 45.7116 5.98403 45.7157C5.98195 45.716 5.98 45.7163 5.97792 45.7167C5.95277 45.7208 5.92774 45.725 5.9027 45.7294C5.90087 45.7297 5.89916 45.73 5.89733 45.7303C5.87181 45.7348 5.84641 45.7394 5.82101 45.7441C5.8204 45.7443 5.81979 45.7444 5.81918 45.7445C5.74042 45.7593 5.66215 45.7753 5.58425 45.7926C5.58303 45.7929 5.5818 45.7931 5.58058 45.7935C5.55543 45.7991 5.53027 45.8048 5.50512 45.8107C5.5039 45.8109 5.50268 45.8113 5.50146 45.8115C5.37105 45.8422 5.2421 45.8764 5.1145 45.9141C5.0891 45.9217 5.06382 45.9292 5.03855 45.9371C5.03806 45.9372 5.03757 45.9373 5.03708 45.9375C4.45084 46.1181 3.89647 46.3725 3.38496 46.6896C3.14062 46.8411 2.90605 47.007 2.68235 47.1861C2.68174 47.1866 2.68113 47.1871 2.68052 47.1876C2.66061 47.2036 2.64083 47.2196 2.62105 47.2357C2.62068 47.2359 2.62044 47.2363 2.62007 47.2365C2.55975 47.2859 2.50029 47.3363 2.44167 47.3876V22.3668ZM60.0772 57.558H7.22391C4.58723 57.558 2.44216 55.4134 2.44216 52.7774V52.7573C2.44216 50.1699 4.54718 48.0649 7.13453 48.0649C9.72188 48.0649 11.8269 50.1699 11.8269 52.7573C11.8269 53.4317 12.3736 53.9784 13.048 53.9784C13.7224 53.9784 14.2691 53.4317 14.2691 52.7573V22.3668C14.2691 22.3477 14.2689 22.3287 14.2688 22.3096C14.2688 22.3046 14.2687 22.2995 14.2687 22.2944C14.2686 22.2779 14.2683 22.2614 14.2681 22.2449C14.2681 22.2421 14.268 22.2394 14.268 22.2366C14.2676 22.2162 14.2671 22.1958 14.2666 22.1754V22.1747C14.2661 22.1544 14.2654 22.1342 14.2647 22.1139C14.2647 22.1126 14.2645 22.1112 14.2645 22.1097C14.2555 21.8542 14.2329 21.602 14.1975 21.3539H15.5705V46.6292C15.5705 46.6392 15.5706 46.6491 15.5709 46.6591C15.571 46.6619 15.5711 46.6647 15.5711 46.6675C15.5713 46.6745 15.5716 46.6814 15.5718 46.6884C15.572 46.6921 15.5722 46.6956 15.5724 46.6993C15.5728 46.7055 15.5732 46.7117 15.5737 46.7179C15.5739 46.7217 15.5743 46.7254 15.5745 46.7292C15.575 46.7352 15.5755 46.7413 15.5761 46.7472C15.5765 46.7509 15.5768 46.7547 15.5772 46.7584C15.5778 46.7645 15.5785 46.7706 15.5793 46.7767C15.5798 46.7803 15.5801 46.784 15.5806 46.7877C15.5816 46.795 15.5826 46.8023 15.5837 46.8096C15.5839 46.8117 15.5843 46.8138 15.5845 46.8159C15.586 46.8254 15.5876 46.835 15.5893 46.8444C15.5897 46.8466 15.5901 46.8487 15.5905 46.8509C15.5919 46.8582 15.5932 46.8654 15.5947 46.8727C15.5953 46.8759 15.596 46.8792 15.5967 46.8825C15.598 46.8885 15.5993 46.8944 15.6007 46.9004C15.6015 46.9042 15.6024 46.9079 15.6033 46.9117C15.6047 46.9173 15.606 46.9228 15.6074 46.9283C15.6083 46.9321 15.6092 46.9358 15.6102 46.9394C15.6116 46.9451 15.6131 46.9507 15.6147 46.9562C15.6157 46.9597 15.6166 46.9633 15.6176 46.9668C15.6195 46.973 15.6213 46.9793 15.6232 46.9856C15.6241 46.9883 15.6248 46.9911 15.6257 46.9938C15.6313 47.0119 15.6374 47.0297 15.6439 47.0474C15.6449 47.05 15.6458 47.0525 15.6467 47.0551C15.649 47.0613 15.6513 47.0675 15.6538 47.0736C15.655 47.0768 15.6563 47.08 15.6576 47.0833C15.6598 47.0888 15.6619 47.0944 15.6643 47.0999C15.6656 47.1032 15.6671 47.1065 15.6684 47.1098C15.6707 47.1152 15.6731 47.1205 15.6755 47.1259C15.677 47.1292 15.6784 47.1324 15.6799 47.1357C15.6823 47.1412 15.6849 47.1465 15.6875 47.152C15.6889 47.155 15.6903 47.158 15.6917 47.1611C15.6948 47.1675 15.6981 47.1739 15.7013 47.1802C15.7022 47.1822 15.7032 47.184 15.7042 47.186C15.7083 47.1942 15.7126 47.2023 15.717 47.2104C15.7182 47.2127 15.7196 47.2149 15.7208 47.2172C15.7241 47.2232 15.7274 47.2291 15.7308 47.2351C15.7323 47.2378 15.7339 47.2404 15.7355 47.2431C15.7385 47.2484 15.7416 47.2536 15.7447 47.2589C15.7467 47.2621 15.7486 47.2652 15.7506 47.2684C15.7535 47.2732 15.7565 47.2778 15.7594 47.2826C15.7613 47.2856 15.7634 47.2888 15.7654 47.2918C15.7685 47.2967 15.7718 47.3017 15.775 47.3066C15.7769 47.3094 15.7787 47.3122 15.7806 47.3149C15.7842 47.3202 15.7878 47.3254 15.7915 47.3306C15.7932 47.333 15.7948 47.3353 15.7965 47.3378C15.8073 47.3528 15.8182 47.3676 15.8296 47.382C15.8313 47.3842 15.833 47.3864 15.8349 47.3884C15.8389 47.3936 15.8429 47.3986 15.8471 47.4036C15.8491 47.4061 15.8513 47.4087 15.8534 47.4113C15.8571 47.4157 15.8609 47.4202 15.8646 47.4245C15.8671 47.4273 15.8695 47.4301 15.872 47.4329C15.8758 47.4372 15.8794 47.4414 15.8832 47.4456C15.8855 47.4481 15.8878 47.4507 15.8902 47.4533C15.8944 47.4579 15.8987 47.4626 15.9031 47.4672C15.9051 47.4693 15.907 47.4713 15.9091 47.4735C15.9143 47.479 15.9197 47.4845 15.9252 47.49C15.9263 47.4911 15.9273 47.4922 15.9284 47.4932C15.935 47.4998 15.9417 47.5064 15.9485 47.5129C15.9496 47.5138 15.9507 47.5148 15.9517 47.5159C15.9572 47.5212 15.9627 47.5263 15.9683 47.5314C15.9708 47.5336 15.9733 47.5359 15.9758 47.5381C15.9802 47.542 15.9846 47.546 15.989 47.5499C15.9916 47.5522 15.9943 47.5545 15.997 47.5568C16.0014 47.5606 16.0059 47.5644 16.0104 47.5682C16.013 47.5704 16.0156 47.5725 16.0183 47.5746C16.0229 47.5784 16.0275 47.5822 16.0323 47.5859C16.0349 47.588 16.0374 47.59 16.0401 47.5921C16.0452 47.5961 16.0505 47.6002 16.0557 47.6041C16.0578 47.6057 16.0599 47.6073 16.0621 47.6088C16.077 47.62 16.0921 47.6307 16.1075 47.6411C16.1095 47.6424 16.1116 47.6438 16.1136 47.6451C16.1192 47.6489 16.1249 47.6526 16.1305 47.6562C16.1333 47.6581 16.1362 47.6599 16.139 47.6616C16.144 47.6648 16.1489 47.6678 16.154 47.671C16.157 47.6728 16.16 47.6747 16.163 47.6764C16.1682 47.6795 16.1735 47.6826 16.1787 47.6856C16.1815 47.6872 16.1842 47.6888 16.187 47.6904C16.1924 47.6935 16.1978 47.6964 16.2031 47.6994C16.2059 47.701 16.2089 47.7026 16.2118 47.7042C16.2186 47.7079 16.2255 47.7115 16.2323 47.7151C16.2335 47.7157 16.2348 47.7164 16.236 47.717C16.2444 47.7213 16.253 47.7256 16.2615 47.7297C16.263 47.7305 16.2644 47.7311 16.2658 47.7318C16.2727 47.7351 16.2797 47.7384 16.2867 47.7416C16.2895 47.7428 16.2923 47.7441 16.2951 47.7454C16.3008 47.7479 16.3066 47.7505 16.3123 47.7529C16.3155 47.7543 16.3185 47.7556 16.3217 47.7568C16.3273 47.7592 16.3329 47.7615 16.3387 47.7638C16.3417 47.765 16.3449 47.7662 16.348 47.7675C16.3539 47.7698 16.36 47.7721 16.3661 47.7743C16.3688 47.7753 16.3715 47.7764 16.3742 47.7774C16.3809 47.7798 16.3875 47.7821 16.3942 47.7844C16.3965 47.7852 16.3987 47.786 16.4011 47.7868C16.419 47.7929 16.4372 47.7985 16.4557 47.8037C16.458 47.8043 16.4603 47.8049 16.4625 47.8057C16.4694 47.8076 16.4764 47.8095 16.4834 47.8113C16.4861 47.812 16.4889 47.8128 16.4917 47.8134C16.4981 47.815 16.5046 47.8165 16.5112 47.8181C16.5143 47.8189 16.5173 47.8196 16.5204 47.8202C16.5233 47.8209 16.5264 47.8216 16.5293 47.8223L20.1235 52.6506V53.1306C20.1235 53.805 20.6702 54.3517 21.3446 54.3517C22.019 54.3517 22.5657 53.805 22.5657 53.1306V52.6467L26.1062 47.8327C26.1074 47.8324 26.1087 47.8322 26.11 47.8319C26.1143 47.8312 26.1186 47.8303 26.1228 47.8296C26.1281 47.8286 26.1334 47.8277 26.1387 47.8266C26.143 47.8257 26.1471 47.8248 26.1513 47.824C26.1564 47.8229 26.1615 47.8218 26.1667 47.8207C26.1712 47.8197 26.1756 47.8186 26.1801 47.8176C26.185 47.8165 26.1897 47.8153 26.1946 47.8141C26.1991 47.813 26.2037 47.8119 26.2081 47.8107C26.2128 47.8095 26.2177 47.8081 26.2225 47.8068C26.2269 47.8056 26.2313 47.8043 26.2358 47.8031C26.2408 47.8017 26.2457 47.8002 26.2507 47.7987C26.2548 47.7975 26.259 47.7963 26.2631 47.7949C26.2687 47.7932 26.2744 47.7913 26.28 47.7894C26.2861 47.7875 26.2922 47.7854 26.2982 47.7832C26.3042 47.7811 26.3101 47.7791 26.3161 47.7769C26.3199 47.7755 26.3236 47.7741 26.3274 47.7727C26.3325 47.7708 26.3375 47.7689 26.3425 47.767C26.3466 47.7654 26.3507 47.7637 26.3548 47.7621C26.3595 47.7601 26.3642 47.7583 26.3689 47.7563C26.3729 47.7546 26.3769 47.7529 26.3811 47.7511C26.3857 47.7491 26.3904 47.7471 26.3949 47.745C26.3989 47.7433 26.4028 47.7415 26.4067 47.7396C26.4114 47.7375 26.416 47.7353 26.4206 47.7331C26.4246 47.7313 26.4285 47.7295 26.4324 47.7275C26.437 47.7253 26.4417 47.723 26.4462 47.7207C26.45 47.7187 26.4539 47.7169 26.4576 47.7148C26.462 47.7125 26.4664 47.7102 26.4708 47.7079C26.4747 47.7058 26.4788 47.7037 26.4827 47.7015C26.4874 47.6988 26.4922 47.6961 26.497 47.6936C26.5003 47.6918 26.5036 47.6899 26.5069 47.688C26.5147 47.6834 26.5225 47.6788 26.5303 47.6742C26.5336 47.6722 26.5368 47.6701 26.5401 47.6682C26.5447 47.6653 26.5494 47.6624 26.5539 47.6595C26.5575 47.6572 26.5611 47.6549 26.5646 47.6524C26.5689 47.6496 26.5732 47.6468 26.5774 47.644C26.5811 47.6416 26.5846 47.6391 26.5883 47.6366C26.5922 47.6339 26.5962 47.6312 26.6001 47.6284C26.6039 47.6257 26.6077 47.623 26.6115 47.6203C26.6154 47.6175 26.6192 47.6147 26.6231 47.6119C26.6266 47.6093 26.6302 47.6066 26.6337 47.604C26.6378 47.6009 26.6417 47.5979 26.6457 47.5948C26.6491 47.5921 26.6525 47.5895 26.656 47.5869C26.66 47.5837 26.664 47.5804 26.668 47.5771C26.6712 47.5745 26.6743 47.5721 26.6773 47.5695C26.6815 47.5661 26.6855 47.5627 26.6895 47.5591C26.6927 47.5565 26.6958 47.5538 26.6989 47.5511C26.7031 47.5474 26.7072 47.5438 26.7114 47.5401C26.7159 47.5361 26.7204 47.5319 26.7249 47.5279C26.7298 47.5234 26.7347 47.5188 26.7396 47.5142C26.7423 47.5116 26.7448 47.5092 26.7474 47.5066C26.7514 47.5028 26.7553 47.4989 26.7593 47.495C26.7623 47.492 26.7654 47.4889 26.7683 47.4859C26.7718 47.4823 26.7754 47.4787 26.7789 47.475C26.7818 47.472 26.7847 47.4689 26.7876 47.4659C26.791 47.4622 26.7945 47.4585 26.798 47.4547C26.801 47.4514 26.8039 47.4481 26.8069 47.4449C26.81 47.4413 26.8132 47.4378 26.8163 47.4342C26.8192 47.4308 26.8223 47.4274 26.8252 47.424C26.8285 47.4202 26.8317 47.4163 26.835 47.4125C26.8376 47.4093 26.8403 47.406 26.843 47.4028C26.8464 47.3987 26.8497 47.3945 26.853 47.3904C26.8555 47.3873 26.858 47.3843 26.8605 47.3811C26.8643 47.3762 26.8679 47.3713 26.8717 47.3665C26.8737 47.3639 26.8755 47.3615 26.8775 47.359C26.8828 47.3517 26.8882 47.3444 26.8934 47.337C26.8954 47.3342 26.8974 47.3314 26.8993 47.3286C26.9027 47.3237 26.9061 47.3188 26.9094 47.3139C26.9115 47.3108 26.9137 47.3076 26.9158 47.3044C26.9188 47.2999 26.9219 47.2953 26.9248 47.2906C26.927 47.2872 26.9292 47.2837 26.9314 47.2801C26.9342 47.2757 26.937 47.2713 26.9397 47.2669C26.9419 47.2633 26.9441 47.2596 26.9463 47.2559C26.949 47.2515 26.9516 47.247 26.9543 47.2426C26.9563 47.2391 26.9584 47.2356 26.9604 47.232C26.9629 47.2275 26.9655 47.2229 26.9681 47.2182C26.9701 47.2146 26.9722 47.2108 26.9742 47.207C26.9767 47.2023 26.9792 47.1977 26.9816 47.1929C26.9834 47.1894 26.9854 47.1859 26.9872 47.1822C26.9899 47.1769 26.9925 47.1717 26.995 47.1666C26.9966 47.1634 26.9982 47.1602 26.9997 47.157C27.0035 47.1492 27.0071 47.1414 27.0107 47.1336C27.0113 47.1324 27.0118 47.1312 27.0124 47.1299C27.0159 47.122 27.0195 47.1141 27.0228 47.1061C27.0242 47.1028 27.0256 47.0994 27.0269 47.096C27.0291 47.0906 27.0313 47.0852 27.0335 47.0797C27.035 47.0761 27.0364 47.0723 27.0378 47.0686C27.0397 47.0635 27.0418 47.0583 27.0436 47.0531C27.045 47.0495 27.0463 47.0457 27.0477 47.042C27.0495 47.0368 27.0515 47.0315 27.0533 47.0263C27.0546 47.0224 27.056 47.0184 27.0573 47.0145C27.059 47.0094 27.0607 47.0043 27.0623 46.9992C27.0635 46.9952 27.0649 46.9912 27.0661 46.9873C27.0677 46.9822 27.0692 46.9769 27.0708 46.9718C27.0718 46.9678 27.0731 46.9637 27.0742 46.9597C27.0758 46.9541 27.0772 46.9484 27.0788 46.9427C27.0798 46.9393 27.0806 46.9358 27.0816 46.9324C27.0833 46.9255 27.085 46.9187 27.0866 46.9117C27.0872 46.9092 27.0878 46.9067 27.0885 46.9043C27.0907 46.895 27.0926 46.8856 27.0946 46.8762C27.0951 46.8737 27.0955 46.8713 27.096 46.8689C27.0975 46.8619 27.0988 46.8548 27.1001 46.8479C27.1008 46.8442 27.1013 46.8405 27.1019 46.8369C27.1029 46.831 27.1038 46.825 27.1048 46.8192C27.1054 46.8153 27.106 46.8112 27.1065 46.8073C27.1074 46.8016 27.1081 46.796 27.109 46.7902C27.1095 46.7861 27.1101 46.7819 27.1106 46.7778C27.1113 46.7722 27.1119 46.7664 27.1125 46.7607C27.1129 46.7566 27.1134 46.7526 27.1137 46.7486C27.1143 46.7426 27.1148 46.7367 27.1153 46.7308C27.1157 46.7269 27.1159 46.7229 27.1163 46.7189C27.1168 46.7129 27.1172 46.707 27.1174 46.701C27.1176 46.6969 27.1179 46.693 27.118 46.689C27.1184 46.6823 27.1186 46.6756 27.1187 46.6689C27.1189 46.6657 27.119 46.6626 27.1191 46.6595C27.1194 46.6494 27.1195 46.6394 27.1195 46.6294V21.3541H55.5123L40.228 36.638C40.2277 36.6384 40.2272 36.6388 40.2268 36.6391C40.2264 36.6395 40.2261 36.64 40.2257 36.6404L35.6486 41.2175C35.6481 41.2179 35.6476 41.2184 35.6471 41.2189C35.6466 41.2194 35.6462 41.2199 35.6457 41.2205L24.599 52.2671C24.5663 52.2999 24.5357 52.3342 24.5073 52.3698C24.4979 52.3817 24.4887 52.3938 24.4796 52.4059C24.4706 52.4181 24.4619 52.4304 24.4534 52.4427C24.3133 52.6481 24.2404 52.89 24.2413 53.1351C24.2419 53.291 24.2723 53.4482 24.3343 53.5979C24.5233 54.0542 24.9685 54.3517 25.4625 54.3517H60.0772V57.558Z" fill="white"/>
<path d="M57.3969 31.6597C56.9406 31.4705 56.4153 31.5752 56.0662 31.9243L40.092 47.8985C40.0593 47.9312 40.0286 47.9655 40.0003 48.0012C39.7258 48.3456 39.6559 48.8158 39.8273 49.2292C40.0163 49.6855 40.4615 49.983 40.9554 49.983H56.9296C57.6039 49.983 58.1507 49.4363 58.1507 48.7619V32.7877C58.1507 32.2939 57.8531 31.8487 57.3969 31.6597ZM55.7085 47.5408H43.9034L55.7085 35.7357V47.5408Z" fill="white"/>
<path d="M22.5424 14.1467C22.5265 14.0686 22.5033 13.9916 22.4728 13.9184C22.4422 13.8439 22.4044 13.7731 22.3604 13.7071C22.3153 13.64 22.264 13.5777 22.2078 13.5215C22.1516 13.4653 22.0894 13.4141 22.0222 13.3701C21.9563 13.3261 21.8854 13.2882 21.8122 13.2576C21.7377 13.2271 21.6608 13.2039 21.5838 13.188C21.4263 13.1563 21.2639 13.1563 21.1064 13.188C21.0282 13.2039 20.9513 13.2271 20.878 13.2576C20.8036 13.2882 20.7327 13.326 20.6668 13.3701C20.5996 13.4141 20.5374 13.4653 20.4812 13.5215C20.425 13.5777 20.3737 13.64 20.3298 13.7071C20.2858 13.7731 20.248 13.8439 20.2174 13.9184C20.1869 13.9916 20.1637 14.0686 20.1478 14.1467C20.132 14.2249 20.1234 14.3054 20.1234 14.3848C20.1234 14.4642 20.132 14.5448 20.1478 14.6229C20.1637 14.7011 20.1869 14.778 20.2174 14.8525C20.248 14.9258 20.2858 14.9966 20.3298 15.0625C20.3737 15.1297 20.425 15.192 20.4812 15.2481C20.5374 15.3043 20.5996 15.3556 20.6668 15.4008C20.7327 15.4447 20.8036 15.4814 20.878 15.5119C20.9513 15.5424 21.0282 15.5668 21.1064 15.5827C21.1845 15.5986 21.2651 15.6059 21.3445 15.6059C21.4239 15.6059 21.5045 15.5987 21.5838 15.5827C21.6608 15.5668 21.7377 15.5424 21.8122 15.5119C21.8854 15.4814 21.9563 15.4447 22.0222 15.4008C22.0894 15.3556 22.1516 15.3043 22.2078 15.2481C22.264 15.192 22.3153 15.1297 22.3604 15.0625C22.4044 14.9966 22.4422 14.9258 22.4728 14.8525C22.5033 14.778 22.5265 14.7011 22.5424 14.6229C22.5582 14.5448 22.5656 14.4642 22.5656 14.3848C22.5656 14.3054 22.5582 14.225 22.5424 14.1467Z" fill="white"/>
</svg>
