<svg width="51" height="52" viewBox="0 0 51 52" fill="none" xmlns="http://www.w3.org/2000/svg">
<path d="M17.9314 23.3395C16.8745 24.4171 16.8745 26.1706 17.9314 27.2482L22.4673 31.873C23.5268 32.9531 25.2413 32.9532 26.3009 31.873L33.012 25.0302C34.0689 23.9526 34.0689 22.1992 33.012 21.1215C31.9528 20.0414 30.2378 20.0412 29.1785 21.1215L24.3841 26.0099L21.765 23.3395C20.7057 22.2594 18.9909 22.2592 17.9314 23.3395ZM24.9124 27.6258L30.2351 22.1988C30.7105 21.714 31.4801 21.7139 31.9555 22.1988C32.4299 22.6824 32.4299 23.4694 31.9555 23.9531L25.2443 30.7958C24.77 31.2795 23.9982 31.2795 23.5239 30.7958L18.988 26.171C18.5136 25.6873 18.5136 24.9004 18.9879 24.4168C19.4635 23.932 20.233 23.9318 20.7085 24.4168L23.8558 27.6258C24.1476 27.9232 24.6205 27.9232 24.9124 27.6258Z" fill="#F84E1D"/>
<path d="M48.8212 21.2047H45.5482C45.2415 21.2047 44.9702 20.9883 44.8886 20.6783C44.4382 18.969 43.7687 17.3227 42.8984 15.785C42.7414 15.5076 42.7842 15.1585 43.0026 14.9358L45.3162 12.5768C45.7278 12.1572 45.9544 11.5993 45.9544 11.0059C45.9544 10.4126 45.7278 9.85469 45.3163 9.43514L41.7463 5.79525C40.8969 4.92922 39.5146 4.92922 38.665 5.79525L36.3514 8.15434C36.1329 8.37716 35.7904 8.42073 35.5185 8.26067C34.0107 7.37332 32.3961 6.69062 30.7192 6.23136C30.4152 6.14807 30.203 5.87162 30.203 5.55881V2.22147C30.2031 0.996529 29.2256 0 28.0243 0H22.9757C21.7743 0 20.7969 0.996529 20.7969 2.22147V5.55871C20.7969 5.87142 20.5847 6.14797 20.2806 6.23125C18.6036 6.69052 16.989 7.37332 15.4815 8.26057C15.2092 8.42084 14.8668 8.37696 14.6486 8.15434L12.3348 5.79535C11.9233 5.37579 11.3762 5.14474 10.7942 5.14474C10.2123 5.14474 9.6651 5.37579 9.25351 5.79535L5.68381 9.43514C4.83444 10.3013 4.83454 11.7105 5.68381 12.5767L7.99754 14.9358C8.21588 15.1584 8.25881 15.5076 8.10183 15.785C7.23154 17.3226 6.56187 18.9689 6.11153 20.6784C6.02995 20.9884 5.75872 21.2048 5.45202 21.2048H2.17876C0.977367 21.2047 0 22.2012 0 23.4262V28.5737C0 29.7987 0.977367 30.7952 2.17876 30.7952H5.45182C5.75852 30.7952 6.02975 31.0116 6.11133 31.3216C6.56167 33.0309 7.23124 34.6773 8.10163 36.2149C8.25861 36.4923 8.21578 36.8415 7.99734 37.0641L5.68361 39.4232C4.83424 40.2893 4.83424 41.6985 5.68361 42.5649L9.25361 46.2048C9.6651 46.6243 10.2123 46.8554 10.7942 46.8554C11.3762 46.8554 11.9233 46.6243 12.3348 46.2048L14.6486 43.8458C14.8669 43.6232 15.2094 43.5795 15.4814 43.7394C16.989 44.6267 18.6036 45.3095 20.2807 45.7687C20.5847 45.852 20.7969 46.1285 20.7969 46.4413V49.7785C20.7969 51.0035 21.7743 52 22.9757 52H28.0243C29.2257 52 30.2031 51.0035 30.2031 49.7785V46.4413C30.2031 46.1286 30.4153 45.852 30.7194 45.7687C32.3962 45.3095 34.0108 44.6267 35.5186 43.7394C35.7905 43.5794 36.1332 43.6231 36.3514 43.8457L38.6652 46.2048C39.5146 47.071 40.8969 47.0708 41.7465 46.2048L45.3163 42.565C45.7278 42.1454 45.9544 41.5875 45.9544 40.9941C45.9544 40.4007 45.7278 39.8429 45.3163 39.4233L43.0026 37.0644C42.7842 36.8416 42.7414 36.4925 42.8984 36.215C43.7687 34.6772 44.4383 33.0309 44.8886 31.3218C44.9702 31.0118 45.2415 30.7953 45.5482 30.7953H48.8212C50.0226 30.7953 51 29.7988 51 28.5738V27.7773C51 27.3566 50.6656 27.0156 50.2529 27.0156C49.8402 27.0156 49.5059 27.3566 49.5059 27.7773V28.5737C49.5059 28.9587 49.1988 29.2718 48.8212 29.2718H45.5482C44.5669 29.2718 43.7023 29.9521 43.4456 30.9264C43.0291 32.5076 42.4096 34.0306 41.6042 35.4535C41.1099 36.3268 41.2504 37.4321 41.946 38.1414L44.2598 40.5005C44.3891 40.6323 44.4603 40.8075 44.4603 40.994C44.4603 41.1805 44.3891 41.3558 44.2597 41.4876L40.69 45.1274C40.423 45.3996 39.9888 45.3997 39.7217 45.1274L37.408 42.7683C36.7124 42.0591 35.6282 41.9158 34.7717 42.4198C33.3766 43.2408 31.8829 43.8725 30.3319 44.2973C29.3763 44.559 28.709 45.4405 28.709 46.4411V49.7783C28.709 50.1632 28.4019 50.4764 28.0244 50.4764H22.9758C22.5983 50.4764 22.2912 50.1632 22.2912 49.7783V46.4411C22.2912 45.4405 21.6239 44.559 20.6684 44.2973C19.1172 43.8724 17.6234 43.2408 16.2284 42.4197C15.3719 41.9157 14.2878 42.0592 13.5921 42.7683L11.2784 45.1273C11.1491 45.2591 10.9773 45.3317 10.7944 45.3317C10.6115 45.3317 10.4396 45.2591 10.3104 45.1273L6.74047 41.4875C6.47351 41.2153 6.47351 40.7724 6.74047 40.5003L9.05419 38.1412C9.74967 37.432 9.89032 36.3267 9.39605 35.4533C8.59071 34.0306 7.97104 32.5075 7.55457 30.9263C7.29798 29.9521 6.43337 29.2717 5.45212 29.2717H2.17876C1.80124 29.2717 1.49414 28.9586 1.49414 28.5736V23.4261C1.49414 23.0411 1.80124 22.728 2.17876 22.728H5.45182C6.43317 22.728 7.29768 22.0476 7.55428 21.0734C7.97094 19.492 8.59041 17.969 9.39575 16.5462C9.89002 15.6728 9.74947 14.5676 9.05389 13.8584L6.74017 11.4993C6.47322 11.2271 6.47322 10.7843 6.74017 10.5121L10.31 6.87231C10.4394 6.74049 10.6112 6.66787 10.7941 6.66787C10.977 6.66787 11.1489 6.74049 11.2782 6.87231L13.5918 9.2313C14.2873 9.94031 15.3713 10.0838 16.2282 9.57986C17.6231 8.75894 19.1169 8.12722 20.668 7.70238C21.6236 7.44066 22.2909 6.5592 22.2909 5.55861V2.22147C22.2909 1.83655 22.598 1.52343 22.9755 1.52343H28.0241C28.4016 1.52343 28.7087 1.83655 28.7087 2.22147V5.55871C28.7087 6.5593 29.376 7.44076 30.3315 7.70249C31.8826 8.12732 33.3763 8.75904 34.7714 9.57997C35.6284 10.0841 36.712 9.94071 37.4078 9.23151L39.7213 6.87252C39.9884 6.60033 40.4226 6.60033 40.6896 6.87252L44.2594 10.5123C44.3888 10.6441 44.46 10.8194 44.46 11.0059C44.46 11.1924 44.3888 11.3677 44.2594 11.4995L41.9457 13.8586C41.2502 14.5679 41.1096 15.6732 41.6039 16.5465C42.4093 17.9692 43.0289 19.4923 43.4453 21.0736C43.702 22.0478 44.5667 22.7281 45.5479 22.7281H48.8209C49.1985 22.7281 49.5056 23.0412 49.5056 23.4262V24.2226C49.5056 24.6433 49.84 24.9843 50.2526 24.9843C50.6653 24.9843 50.9997 24.6433 50.9997 24.2226V23.4262C51 22.2012 50.0226 21.2047 48.8212 21.2047Z" fill="#F84E1D"/>
<path d="M23.6597 11.8198C16.7117 12.7487 11.4721 18.8448 11.4721 26C11.4721 33.8865 17.7649 40.3028 25.4999 40.3028C33.2348 40.3028 39.5276 33.8866 39.5276 26C39.5276 18.8448 34.2881 12.7487 27.3401 11.8198C26.9321 11.7657 26.5559 12.0589 26.5023 12.476C26.4487 12.8931 26.7367 13.2756 27.1459 13.3304C33.3528 14.1601 38.0334 19.6069 38.0334 26C38.0334 33.0464 32.4109 38.7793 25.4999 38.7793C18.5888 38.7793 12.9663 33.0465 12.9663 26C12.9663 19.6069 17.6469 14.1601 23.8539 13.3304C24.263 13.2756 24.5511 12.8931 24.4975 12.476C24.4438 12.0588 24.0671 11.7657 23.6597 11.8198Z" fill="#F84E1D"/>
</svg>
