<svg width="47" height="52" viewBox="0 0 47 52" fill="none" xmlns="http://www.w3.org/2000/svg">
<path d="M43.3218 21.9977C43.2188 21.9977 43.1158 21.9977 43.0128 21.9977C42.9905 21.9977 42.9018 22.0121 42.8848 21.9977C42.8704 21.9856 42.8766 21.9285 42.8754 21.9058C42.8718 21.8339 42.8682 21.7621 42.8641 21.6902C42.8361 21.1927 42.7884 20.6958 42.7202 20.2022C42.5541 18.9847 42.2711 17.7882 41.8714 16.6246C41.7291 16.2106 41.2782 15.99 40.8639 16.1323C40.4497 16.2746 40.2293 16.7256 40.3716 17.1398C40.5481 17.6538 40.6975 18.1754 40.8246 18.7023H38.3524C37.4095 18.7023 36.6424 19.4694 36.6424 20.4123V21.9977H27.2129V20.4123C27.2129 19.4694 26.4458 18.7023 25.5029 18.7023H19.777C18.8341 18.7023 18.067 19.4694 18.067 20.4123V21.9977H9.43028V20.4123C9.43028 19.4694 8.66318 18.7023 7.72027 18.7023H5.25464C6.43114 13.8611 9.65616 9.68012 14.1646 7.34551L14.7957 9.41129C14.9001 9.75294 15.2142 9.97273 15.5538 9.97273C15.6305 9.97273 15.7086 9.96145 15.7858 9.93789C16.2045 9.80992 16.4403 9.3667 16.3124 8.94786L15.0506 4.81762C15.0477 4.80807 15.0388 4.77912 15.0628 4.74673C15.0869 4.71423 15.1173 4.71423 15.1272 4.71423C15.1865 4.71423 15.2455 4.70762 15.3032 4.69442C15.9848 4.53923 16.677 4.40487 17.3698 4.29041V12.3077C17.3698 12.7457 17.7248 13.1006 18.1627 13.1006C18.6007 13.1006 18.9556 12.7457 18.9556 12.3077V2.02536C18.9556 1.78303 19.1529 1.5859 19.3951 1.5859H26.6777C26.9201 1.5859 27.1172 1.78313 27.1172 2.02536V12.3077C27.1172 12.7457 27.4721 13.1006 27.9101 13.1006C28.348 13.1006 28.703 12.7457 28.703 12.3077V4.29051C29.396 4.40487 30.0881 4.53923 30.7695 4.69442C30.8238 4.70681 30.8792 4.71341 30.9348 4.71413C30.945 4.71534 30.9918 4.72205 31.0101 4.74673C31.034 4.77912 31.0251 4.80827 31.0223 4.81772L29.822 8.74707C29.694 9.16591 29.9299 9.60913 30.3486 9.7371C30.4258 9.76066 30.5038 9.77194 30.5806 9.77194C30.92 9.77194 31.2342 9.55206 31.3386 9.2105L31.9087 7.34429C34.8343 8.86356 37.3242 11.2318 38.9796 14.0892C39.1266 14.343 39.3927 14.4846 39.6664 14.4846C39.8013 14.4846 39.938 14.4501 40.0632 14.3777C40.4421 14.1582 40.5713 13.6731 40.3517 13.2941C38.4974 10.0933 35.6829 7.45459 32.3791 5.80399L32.5389 5.28105C32.6948 4.7707 32.6022 4.23201 32.2848 3.80341C31.9476 3.3476 31.4454 3.16042 31.0514 3.13209C30.2769 2.9574 29.4899 2.80749 28.7029 2.68338V2.02516C28.7032 0.908578 27.7946 0 26.6778 0H19.3952C18.2784 0 17.3698 0.908578 17.3698 2.02536V2.68369C16.5842 2.80759 15.7986 2.95709 15.0252 3.13148C14.5317 3.16083 14.0851 3.40194 13.788 3.80341C13.4706 4.23241 13.378 4.771 13.5339 5.28125L13.6935 5.80338C8.34468 8.4695 4.60159 13.4996 3.50746 19.2736C3.49995 19.2994 3.49334 19.3256 3.48847 19.3524C3.37096 19.9939 3.28758 20.6444 3.23639 21.2977C3.21801 21.5307 3.20369 21.7642 3.19384 21.9979H2.75133C1.23429 21.9979 0 23.2253 0 24.7339V31.5942C0 32.3586 0.54082 33.018 1.28598 33.1622L5.26642 33.9326C5.66292 35.3513 6.22842 36.7159 6.95277 38.0011L4.68213 41.3616C4.25466 41.9942 4.33641 42.8453 4.87612 43.3851L8.60722 47.1162C9.14733 47.6561 9.99822 47.7376 10.6309 47.3102L13.9912 45.0396C15.2762 45.7638 16.6408 46.3294 18.0596 46.7259L18.8301 50.7063C18.9751 51.4559 19.6346 52 20.3981 52H25.6747C26.4382 52 27.0977 51.4559 27.2427 50.7064L27.5726 49.002C27.6558 48.5721 27.3746 48.1561 26.9447 48.0729C26.514 47.989 26.0987 48.2708 26.0156 48.7007L25.6858 50.4051C25.6848 50.4104 25.6801 50.4142 25.6746 50.4142H20.398C20.3926 50.4142 20.3879 50.4103 20.3868 50.4051L19.5218 45.936C19.4633 45.6333 19.2346 45.3921 18.9355 45.3174C17.3277 44.9158 15.7908 44.2787 14.3678 43.4241C14.1037 43.2654 13.7712 43.2744 13.5156 43.4468L9.74269 45.9961C9.73822 45.9994 9.73223 45.9987 9.72847 45.9947L5.99737 42.2636C5.99351 42.2598 5.9929 42.2538 5.99605 42.2494L8.54527 38.4765C8.71782 38.221 8.72666 37.8887 8.56802 37.6243C7.71327 36.2009 7.07637 34.664 6.67469 33.0566C6.59994 32.7575 6.35873 32.5287 6.05607 32.4702L1.58864 31.6066C1.58864 31.6066 1.5857 31.6031 1.5857 31.5942V29.7487H9.63361C10.0453 36.7841 15.8995 42.3816 23.0364 42.3816C30.1733 42.3816 36.0276 36.7841 36.4393 29.7487H44.4702V31.594C44.4702 31.5998 44.4696 31.6045 44.469 31.6083L40.0168 32.47C39.7141 32.5285 39.473 32.7573 39.3982 33.0564C38.9966 34.6639 38.3596 36.2007 37.5049 37.6241C37.3463 37.8884 37.3551 38.2208 37.5276 38.4763L40.0769 42.2491C40.0799 42.2537 40.0793 42.2596 40.0755 42.2634L36.3444 45.9945C36.3406 45.9985 36.3345 45.9992 36.3301 45.9958L32.5573 43.4466C32.3016 43.2742 31.9693 43.2652 31.7051 43.4239C30.2821 44.2785 28.7451 44.9155 27.1374 45.3172C26.7126 45.4233 26.4541 45.8537 26.5602 46.2786C26.6662 46.7035 27.0971 46.9617 27.5216 46.8558C29.1173 46.4571 30.6489 45.8468 32.0818 45.0394L35.4421 47.3098C36.0746 47.7373 36.9258 47.656 37.4659 47.116L41.197 43.3849C41.7368 42.845 41.8185 41.994 41.391 41.3613L39.1203 38.0008C39.8447 36.7157 40.4103 35.3511 40.8067 33.9324L44.7871 33.162C45.5342 33.0174 46.056 32.3725 46.056 31.594V24.7337C46.056 23.2251 44.8295 21.9977 43.3218 21.9977ZM38.2283 20.4123C38.2283 20.3439 38.2842 20.2881 38.3526 20.2881H41.13C41.1476 20.4107 41.1645 20.5335 41.1795 20.6566C41.1902 20.7441 41.1996 20.8318 41.209 20.9194C41.221 21.032 41.2323 21.1445 41.2422 21.2573C41.2485 21.3292 41.2545 21.4011 41.2599 21.4731C41.2719 21.6335 41.2824 21.7941 41.29 21.9552C41.2907 21.9694 41.2919 21.9835 41.2925 21.9976H38.2283V20.4123ZM19.653 20.4123C19.653 20.3439 19.7087 20.2881 19.7772 20.2881H25.5031C25.5715 20.2881 25.6273 20.3439 25.6273 20.4123V21.9977H19.653V20.4123ZM4.8168 21.4276C4.81884 21.4011 4.82117 21.3747 4.8233 21.3482C4.85306 20.9924 4.8944 20.639 4.94569 20.288H7.72038C7.78883 20.288 7.84459 20.3439 7.84459 20.4123V21.9977H4.78065C4.78938 21.8071 4.80188 21.6171 4.8168 21.4276ZM44.4702 28.1629H17.879C17.441 28.1629 17.0861 28.5178 17.0861 28.9558C17.0861 29.3937 17.441 29.7487 17.879 29.7487H34.8494C34.44 35.9089 29.2987 40.7957 23.0365 40.7957C16.7744 40.7957 11.633 35.9089 11.2236 29.7487H13.8086C14.2466 29.7487 14.6015 29.3937 14.6015 28.9558C14.6015 28.5178 14.2466 28.1629 13.8086 28.1629H1.5858V24.7337C1.5858 24.0995 2.10864 23.5836 2.75133 23.5836H43.3218C43.955 23.5836 44.4702 24.0996 44.4702 24.7337V28.1629Z" fill="#F84E1D"/>
</svg>
