<svg width="48" height="52" viewBox="0 0 48 52" fill="none" xmlns="http://www.w3.org/2000/svg">
<path d="M45.9277 27.1662C43.5382 24.7874 40.7758 27.0138 40.7758 27.0138V14.491C40.7758 14.0705 40.435 13.7293 40.0145 13.7293C39.5935 13.7293 39.2527 14.0705 39.2527 14.491V28.0854C39.2527 28.0854 35.6207 30.9486 34.0595 31.6485V9.10063C34.0595 8.05246 34.9121 7.19988 35.9603 7.19988H37.352C38.4002 7.19988 39.2527 8.05246 39.2527 9.10063V11.3727C39.2527 11.7936 39.5935 12.1344 40.0145 12.1344C40.435 12.1344 40.7758 11.7936 40.7758 11.3727V9.10063C40.7758 7.21258 39.24 5.67683 37.352 5.67683H35.9603C34.0722 5.67683 32.5361 7.21258 32.5361 9.10063V32.2523C32.0818 32.3796 31.6157 32.4661 31.142 32.5118V16.4533C31.142 14.5557 29.5983 13.012 27.7011 13.012H26.3431C24.4459 13.012 22.9022 14.5557 22.9022 16.4533V24.2141L21.5077 24.9544V22.3717C21.5077 20.6634 20.118 19.2736 18.41 19.2736H16.3661C14.6578 19.2736 13.2684 20.6634 13.2684 22.3717V29.328L10.7813 30.6479L3.79723 32.6439C2.58205 32.991 1.56721 33.7868 0.94037 34.8842C0.313137 35.982 0.14294 37.2602 0.461118 38.4834L1.24228 41.489C1.34781 41.896 1.76359 42.14 2.17103 42.0345C2.57808 41.9286 2.82246 41.5128 2.71654 41.1054L1.93537 38.1001C1.48231 36.3569 2.48405 34.6033 4.21618 34.1086L10.6016 32.2836L15.4008 45.0925C15.7222 45.9502 15.6714 48.3973 13.1327 49.2991L8.30728 50.3952C6.62553 50.7769 4.96839 49.7688 4.53436 48.0993L3.55483 44.33C3.4489 43.9229 3.03313 43.6786 2.62608 43.7841C2.21864 43.89 1.97465 44.3058 2.08018 44.7132L3.06011 48.483C3.61077 50.6007 5.49207 52 7.58642 52C9.12534 52 13.4703 50.7844 13.4703 50.7844C14.7926 50.4845 15.9202 49.6275 16.5633 48.4342C17.0941 47.4495 17.2516 46.3164 17.0239 45.2369L33.7183 41.1498C35.099 40.8114 36.4098 40.1556 37.5079 39.253L45.6322 32.5776C48.109 30.3809 46.6561 27.891 45.9277 27.1662ZM26.3431 14.5355H27.7011C28.7584 14.5355 29.6185 15.396 29.6185 16.4533V32.5498L24.8121 32.5479C24.3705 32.5439 24.676 32.2523 24.7002 32.2325L26.0844 31.1113C27.3758 30.0651 28.2192 28.6107 28.591 26.7877C28.827 25.6312 28.3859 24.4736 27.4405 23.7666C26.5573 23.1064 25.4215 22.9795 24.4257 23.4159V16.4533C24.4257 15.396 25.2858 14.5355 26.3431 14.5355ZM14.7919 22.3717C14.7919 21.5036 15.498 20.7971 16.3661 20.7971H18.41C19.2781 20.7971 19.9847 21.5036 19.9847 22.3717V25.763L14.7915 28.5194L14.7919 22.3717ZM44.6653 31.4009L36.5407 38.0763C35.6179 38.8349 34.5166 39.3859 33.3561 39.67L16.5387 43.7877L12.0159 31.7179L24.9295 24.8632C25.4544 24.5843 26.0523 24.6307 26.528 24.9865C27.0037 25.3424 27.2171 25.9018 27.0985 26.4834C26.7989 27.9509 26.1352 29.1098 25.1255 29.9274L23.7413 31.049C23.174 31.5084 22.9649 32.2499 23.2085 32.9382C23.4521 33.6262 24.0813 34.0713 24.8113 34.0713L30.3652 34.0737C32.3409 34.0737 34.2396 33.473 35.8559 32.3364L42.0584 27.9747C42.9269 27.3638 44.096 27.4717 44.8379 28.231C45.2652 28.6674 46.1015 29.9643 44.6653 31.4009Z" fill="#F84E1D"/>
<path d="M12.4837 45.5805C12.4837 43.9257 11.1376 42.5792 9.48279 42.5792C7.82803 42.5792 6.48192 43.9257 6.48192 45.5805C6.48192 47.2349 7.82803 48.5814 9.48279 48.5814C11.1376 48.5814 12.4837 47.2349 12.4837 45.5805ZM8.00537 45.5805C8.00537 44.7656 8.66791 44.1027 9.48279 44.1027C10.2973 44.1027 10.9602 44.7656 10.9602 45.5805C10.9602 46.395 10.2977 47.0579 9.48279 47.0579C8.66791 47.0579 8.00537 46.395 8.00537 45.5805Z" fill="#F84E1D"/>
<path d="M4.00512 23.9162L15.0779 12.7581L17.5686 14.0463C18.4608 14.5077 19.5467 14.3498 20.2703 13.6531L26.2975 7.85132C26.2975 7.85132 26.1316 10.8312 28.641 10.8312C29.9327 10.8312 30.9841 9.77983 30.9841 8.48767V2.3431C30.9841 2.33596 30.9837 2.32842 30.9837 2.32088C30.9753 0.717687 29.803 0 28.641 0H22.5499C21.2578 0 20.2068 1.05134 20.2068 2.3431C20.2068 4.91868 22.8281 4.68619 22.8281 4.68619L18.2299 9.11213L15.7031 7.8053C14.7895 7.33239 13.6885 7.50576 12.9633 8.23575L0.678924 20.615C-0.231178 21.5322 -0.225624 23.0188 0.691619 23.9289C1.13358 24.3672 2.64275 25.2785 4.00512 23.9162ZM1.76002 21.6881L14.0444 9.30891C14.2031 9.14942 14.4578 8.87012 15.0033 9.15855L18.0149 10.7161C18.3049 10.8661 18.658 10.8149 18.8933 10.5884L25.2457 4.47354C25.4695 4.25812 25.5401 3.92804 25.4239 3.64001C25.3076 3.35159 25.0283 3.16314 24.7173 3.16314H22.5499C22.0981 3.16314 21.7303 2.79537 21.7303 2.3431C21.7303 1.89122 22.0981 1.52345 22.5499 1.52345H28.641C28.8651 1.52345 29.4602 1.52345 29.4602 2.33834C29.4602 2.34508 29.4606 2.35182 29.4606 2.35897V8.48767C29.4606 8.93955 29.0928 9.30732 28.641 9.30732C28.1887 9.30732 27.8209 8.93955 27.8209 8.48767V6.06087C27.8209 5.75538 27.6384 5.47926 27.3575 5.35984C27.0767 5.24003 26.7513 5.30033 26.5311 5.51219L19.2138 12.5558C18.9607 12.7994 18.5806 12.8549 18.2688 12.6934L15.2814 11.1482C14.9859 10.9954 14.6252 11.0521 14.3908 11.2882L2.92403 22.843C2.42415 23.3429 1.91911 23.0009 1.76438 22.8474C1.44382 22.5288 1.44184 22.0087 1.76002 21.6881Z" fill="#F84E1D"/>
</svg>
