<svg width="52" height="52" viewBox="0 0 52 52" fill="none" xmlns="http://www.w3.org/2000/svg">
<path d="M38.0928 14.4147C37.904 14.2258 37.642 14.1172 37.3749 14.1172C37.1078 14.1172 36.8457 14.2258 36.6568 14.4147C36.4679 14.6037 36.3593 14.8647 36.3593 15.1328C36.3593 15.3999 36.4678 15.6619 36.6568 15.8508C36.8458 16.0397 37.1078 16.1484 37.3749 16.1484C37.642 16.1484 37.904 16.0397 38.0928 15.8508C38.2817 15.6619 38.3905 15.3999 38.3905 15.1328C38.3905 14.8657 38.2818 14.6037 38.0928 14.4147Z" fill="#F84E1D"/>
<path d="M15.2343 28.6406H7.1093C6.54848 28.6406 6.09368 29.0953 6.09368 29.6562V37.7812C6.09368 38.3421 6.54848 38.7968 7.1093 38.7968H15.2343C15.7951 38.7968 16.2499 38.3421 16.2499 37.7812V29.6562C16.2499 29.0953 15.7952 28.6406 15.2343 28.6406ZM14.2187 36.7656H8.12493V30.6718H14.2187V36.7656Z" fill="#F84E1D"/>
<path d="M51.3729 21.3038C50.9934 21.1465 50.5565 21.2336 50.2661 21.5239L39.9166 31.8734L39.9162 31.8739L21.5239 50.2662C21.2336 50.5566 21.1466 50.9935 21.3038 51.373C21.461 51.7525 21.8313 51.9999 22.2421 51.9999H50.9842C51.5451 51.9999 51.9999 51.5452 51.9999 50.9843V22.2422C51.9999 21.8314 51.7525 21.461 51.3729 21.3038ZM49.9686 49.9687H24.6941L28.5698 46.093L29.5393 47.0625C29.7377 47.2608 29.9976 47.36 30.2575 47.36C30.5174 47.36 30.7773 47.2608 30.9756 47.0625C31.3722 46.6659 31.3722 46.0228 30.9756 45.6261L30.0061 44.6566L32.5915 42.0712L33.5609 43.0406C33.7593 43.239 34.0192 43.3381 34.2791 43.3381C34.539 43.3381 34.7989 43.2389 34.9972 43.0406C35.3938 42.644 35.3938 42.0009 34.9972 41.6043L34.0277 40.6348L36.6131 38.0494L37.5826 39.0189C37.7809 39.2173 38.0408 39.3164 38.3007 39.3164C38.5606 39.3164 38.8205 39.2173 39.0189 39.0189C39.4155 38.6223 39.4155 37.9792 39.0189 37.5825L38.0494 36.613L40.6346 34.0278L41.6041 34.9973C41.8025 35.1956 42.0624 35.2948 42.3223 35.2948C42.5822 35.2948 42.8421 35.1956 43.0404 34.9973C43.437 34.6007 43.437 33.9576 43.0404 33.5609L42.0709 32.5914L44.6563 30.006L45.6257 30.9754C45.8241 31.1738 46.084 31.2729 46.3439 31.2729C46.6038 31.2729 46.8637 31.1737 47.062 30.9754C47.4586 30.5788 47.4586 29.9357 47.062 29.5391L46.0925 28.5696L49.9686 24.6941V49.9687Z" fill="#F84E1D"/>
<path d="M46.2948 33.5635C45.9153 33.4062 45.4783 33.4932 45.188 33.7836L33.7836 45.188C33.4933 45.4785 33.4062 45.9153 33.5634 46.2949C33.7207 46.6744 34.091 46.9218 34.5018 46.9218H45.9061C46.4669 46.9218 46.9217 46.4671 46.9217 45.9062V34.5019C46.9217 34.0911 46.6743 33.7207 46.2948 33.5635ZM44.8905 44.8906H36.9538L44.8905 36.9538V44.8906Z" fill="#F84E1D"/>
<path d="M47.0294 15.1593C46.7498 14.8798 46.3336 14.7878 45.962 14.9238L39.0272 17.4633C38.8886 17.5141 38.7628 17.5944 38.6583 17.6988L36.7084 19.6487L23.9759 6.91617C23.7854 6.72574 23.5271 6.61869 23.2578 6.61869C22.9884 6.61869 22.73 6.72574 22.5396 6.91617L7.21355 22.2422H3.46763L23.2578 2.45199L34.1177 13.312C34.5144 13.7086 35.1573 13.7086 35.5541 13.312C35.9507 12.9154 35.9507 12.2723 35.5541 11.8756L23.976 0.297451C23.5793 -0.0991503 22.9364 -0.0991503 22.5396 0.297451L0.297461 22.5396C0.00709429 22.8301 -0.0798431 23.2669 0.0772739 23.6464C0.234492 24.0261 0.604789 24.2735 1.01561 24.2735H2.03123V50.9844C2.03123 51.5453 2.48603 52 3.04686 52H19.1938C19.7547 52 20.2095 51.5453 20.2095 50.9844C20.2095 50.4235 19.7547 49.9688 19.1938 49.9688H4.06248V24.2735H7.63422C7.90357 24.2735 8.16184 24.1664 8.35237 23.976L23.2578 9.07061L35.272 21.0849L20.2109 36.1461V27.0157H27.3203C27.8811 27.0157 28.3359 26.561 28.3359 26C28.3359 25.4391 27.8811 24.9844 27.3203 24.9844H19.1953C18.6344 24.9844 18.1796 25.4391 18.1796 26V37.7813C18.1796 37.8998 18.201 38.0129 18.2382 38.1187L17.3284 39.0286C15.7206 40.6363 15.7206 43.2523 17.3284 44.8601C18.1323 45.664 19.1881 46.066 20.2441 46.0659C21.2999 46.0659 22.3561 45.6639 23.1599 44.8602L31.7248 36.2952C32.1214 35.8986 32.1214 35.2555 31.7248 34.8589C31.3282 34.4623 30.6853 34.4623 30.2884 34.8589L23.7994 41.3479L20.8406 38.3891L39.3967 19.833L42.3555 22.7918L35.265 29.8825C34.8684 30.2791 34.8684 30.9222 35.265 31.3188C35.6617 31.7154 36.3046 31.7154 36.7014 31.3188L44.4898 23.5303C44.5941 23.4259 44.6745 23.3 44.7252 23.1615L47.2649 16.2267C47.4009 15.8554 47.309 15.4389 47.0294 15.1593ZM22.3632 42.7841L21.7236 43.4238C21.3284 43.819 20.8031 44.0366 20.2442 44.0366C19.6853 44.0366 19.1599 43.819 18.7648 43.4238C18.3696 43.0286 18.152 42.5032 18.152 41.9444C18.152 41.3856 18.3695 40.8601 18.7647 40.465L19.4044 39.8253L22.3632 42.7841ZM43.3758 20.9392L41.2493 18.8127L44.6047 17.5839L43.3758 20.9392Z" fill="#F84E1D"/>
<path d="M34.1949 32.3882C34.0061 32.1993 33.744 32.0907 33.4769 32.0907C33.2098 32.0907 32.9478 32.1993 32.7589 32.3882C32.57 32.5782 32.4613 32.8392 32.4613 33.1063C32.4613 33.3744 32.5699 33.6354 32.7589 33.8253C32.9478 34.0142 33.2088 34.1219 33.4769 34.1219C33.744 34.1219 34.0061 34.0142 34.1949 33.8253C34.3838 33.6354 34.4925 33.3734 34.4925 33.1063C34.4925 32.8392 34.3839 32.5782 34.1949 32.3882Z" fill="#F84E1D"/>
<path d="M23.2577 15.3359C21.1297 15.3359 19.3983 17.0673 19.3983 19.1953C19.3983 21.3233 21.1297 23.0547 23.2577 23.0547C25.3858 23.0547 27.1171 21.3233 27.1171 19.1953C27.1171 17.0673 25.3858 15.3359 23.2577 15.3359ZM23.2577 21.0234C22.2497 21.0234 21.4296 20.2034 21.4296 19.1953C21.4296 18.1873 22.2497 17.3672 23.2577 17.3672C24.2657 17.3672 25.0858 18.1873 25.0858 19.1953C25.0858 20.2033 24.2657 21.0234 23.2577 21.0234Z" fill="#F84E1D"/>
</svg>
