<svg width="54" height="47" viewBox="0 0 54 47" fill="none" xmlns="http://www.w3.org/2000/svg">
<path d="M26.9999 18.3363C32.0595 18.3363 36.1757 14.2235 36.1757 9.16816C36.1757 4.11282 32.0595 0 26.9999 0C21.9404 0 17.8242 4.11282 17.8242 9.16816C17.8242 14.2235 21.9404 18.3363 26.9999 18.3363ZM26.9999 3.16144C30.3148 3.16144 33.0117 5.85603 33.0117 9.16816C33.0117 12.4803 30.3148 15.1749 26.9999 15.1749C23.6851 15.1749 20.9882 12.4803 20.9882 9.16816C20.9882 5.85603 23.6851 3.16144 26.9999 3.16144Z" fill="#F84E1D"/>
<path d="M45.5624 18.3363C48.761 18.3363 51.3632 15.7363 51.3632 12.5404C51.3632 9.34446 48.761 6.74439 45.5624 6.74439C42.3639 6.74439 39.7616 9.34446 39.7616 12.5404C39.7616 15.7363 42.3639 18.3363 45.5624 18.3363ZM45.5624 9.90583C47.0163 9.90583 48.1991 11.0877 48.1991 12.5404C48.1991 13.993 47.0163 15.1749 45.5624 15.1749C44.1085 15.1749 42.9257 13.993 42.9257 12.5404C42.9257 11.0877 44.1085 9.90583 45.5624 9.90583Z" fill="#F84E1D"/>
<path d="M46.8386 21.9193H44.3917C41.5083 21.9193 39.0192 23.6214 37.885 26.0662C35.5499 23.5192 32.1956 21.9193 28.4743 21.9193H25.5257C21.8044 21.9193 18.4501 23.5192 16.115 26.0662C14.9806 23.6214 12.4916 21.9193 9.60818 21.9193H7.16131C3.21257 21.9193 0 25.1098 0 29.0315V40.5401C0 42.2427 1.39155 43.6278 3.10204 43.6278H12.7764C12.9386 45.5141 14.5261 47 16.4554 47H37.5446C39.4738 47 41.0613 45.5141 41.2236 43.6278H50.7874C52.5589 43.6278 54 42.1936 54 40.4305V29.0315C53.9999 25.1098 50.7873 21.9193 46.8386 21.9193ZM3.16406 29.0315C3.16406 26.853 4.95723 25.0807 7.16131 25.0807H9.60818C11.8123 25.0807 13.6054 26.853 13.6054 29.0315V30.1138C12.5416 32.8816 12.7617 34.5403 12.7617 40.4664H3.16406V29.0315ZM38.0741 43.3094C38.0741 43.6012 37.8366 43.8386 37.5446 43.8386H16.4553C16.1633 43.8386 15.9258 43.6011 15.9258 43.3094V34.6727C15.9258 29.3836 20.2322 25.0807 25.5256 25.0807H28.4742C33.7677 25.0807 38.0741 29.3836 38.0741 34.6726V43.3094ZM50.8358 40.4305C50.8358 40.485 51.4256 40.4664 41.2382 40.4664C41.2382 34.4964 41.4566 32.877 40.3945 30.1138V29.0315C40.3945 26.853 42.1876 25.0807 44.3917 25.0807H46.8386C49.0427 25.0807 50.8358 26.853 50.8358 29.0315V40.4305Z" fill="#F84E1D"/>
<path d="M8.43748 18.3363C11.636 18.3363 14.2383 15.7363 14.2383 12.5404C14.2383 9.34446 11.636 6.74439 8.43748 6.74439C5.23894 6.74439 2.63671 9.34446 2.63671 12.5404C2.63671 15.7363 5.23894 18.3363 8.43748 18.3363ZM8.43748 9.90583C9.89137 9.90583 11.0742 11.0877 11.0742 12.5404C11.0742 13.993 9.89137 15.1749 8.43748 15.1749C6.9836 15.1749 5.80077 13.993 5.80077 12.5404C5.80077 11.0877 6.9836 9.90583 8.43748 9.90583Z" fill="#F84E1D"/>
</svg>
