<svg width="46" height="50" viewBox="0 0 46 50" fill="none" xmlns="http://www.w3.org/2000/svg">
<path d="M42.6522 46.6554V11.0421H35.1426V0L10.5599 6.89245V16.7633H3.05013V46.6554H0V49.56H45.7024V46.6554H42.6522ZM5.95474 46.6554V19.6679H18.1533V46.6554H5.95474ZM21.0579 46.6554V16.7633H13.4644V9.09472L32.2378 3.83108L32.1958 46.6555L21.0579 46.6554ZM35.1425 46.6554V13.9467H39.7475V46.6554H35.1425Z" fill="#F84E1D"/>
<path d="M10.6017 24.255H13.5063V30.0973H10.6017V24.255Z" fill="#F84E1D"/>
<path d="M10.6017 34.9248H13.5063V40.7671H10.6017V34.9248Z" fill="#F84E1D"/>
<path d="M24.6443 24.255H27.549V30.0973H24.6443V24.255Z" fill="#F84E1D"/>
<path d="M24.6443 13.5852H27.549V19.4275H24.6443V13.5852Z" fill="#F84E1D"/>
<path d="M24.6443 34.9248H27.549V40.7671H24.6443V34.9248Z" fill="#F84E1D"/>
</svg>
