<svg width="27" height="35" viewBox="0 0 27 35" fill="none" xmlns="http://www.w3.org/2000/svg">
<path d="M26.7735 31.5353L22.9117 21.1416C23.2933 20.9081 23.6249 20.5982 23.8868 20.2305C24.1682 19.8347 24.3608 19.3802 24.4508 18.8994C24.5409 18.4186 24.5263 17.9234 24.408 17.4491C24.308 17.0343 24.3248 16.5991 24.4565 16.1937C24.5882 15.7883 24.8293 15.4294 25.152 15.1585C25.5255 14.8451 25.8264 14.4507 26.0327 14.0037C26.2391 13.5566 26.3458 13.0683 26.3452 12.5739C26.3446 12.0795 26.2367 11.5914 26.0292 11.1449C25.8218 10.6985 25.52 10.3047 25.1457 9.99228C24.8242 9.72034 24.5844 9.36077 24.4542 8.95518C24.324 8.54959 24.3086 8.11454 24.4098 7.70037C24.5271 7.22686 24.5411 6.7327 24.4508 6.25303C24.3604 5.77336 24.1679 5.31996 23.887 4.92506C23.5989 4.51942 23.2271 4.18379 22.7978 3.94208C22.3686 3.70037 21.8925 3.55852 21.4036 3.52664C20.983 3.49766 20.5785 3.34947 20.2355 3.09864C19.8925 2.84781 19.6244 2.50423 19.4612 2.10633C19.2785 1.65084 19.0009 1.24163 18.6479 0.90725C18.2948 0.572873 17.8747 0.321383 17.4168 0.170325C16.9525 0.0148989 16.4606 -0.0349898 15.9754 0.0241366C15.4903 0.083263 15.0236 0.249982 14.6079 0.512672C14.2454 0.739381 13.8288 0.859335 13.404 0.859335C12.9792 0.859335 12.5626 0.739381 12.2001 0.512672C11.7844 0.249971 11.3177 0.0832465 10.8325 0.0241199C10.3474 -0.0350067 9.85551 0.0148878 9.39115 0.170325C8.93349 0.321506 8.51355 0.573044 8.16059 0.907402C7.80764 1.24176 7.53018 1.65089 7.34754 2.10628C7.18388 2.50492 6.91496 2.849 6.57096 3.09996C6.22696 3.35091 5.82146 3.49881 5.39994 3.52707C4.91186 3.55946 4.43675 3.70156 4.00842 3.94326C3.58008 4.18496 3.20905 4.52033 2.92172 4.9255C2.64036 5.32135 2.44777 5.77586 2.35767 6.25663C2.26758 6.73741 2.28221 7.2326 2.40051 7.70693C2.5005 8.12169 2.48369 8.55695 2.35202 8.96233C2.22035 9.36771 1.97921 9.72663 1.65652 9.99753C1.28299 10.3109 0.982167 10.7054 0.775809 11.1524C0.569452 11.5994 0.462715 12.0878 0.463319 12.5822C0.463922 13.0766 0.57185 13.5646 0.779298 14.0111C0.986745 14.4576 1.28853 14.8513 1.66282 15.1637C1.98431 15.4357 2.22404 15.7952 2.35427 16.2008C2.4845 16.6063 2.49992 17.0413 2.39875 17.4555C2.2814 17.929 2.2674 18.4232 2.35776 18.9028C2.44811 19.3825 2.64059 19.8359 2.92151 20.2308C3.18349 20.5983 3.51518 20.908 3.89673 21.1413L0.0350212 31.5353C-0.00137048 31.633 -0.00960896 31.7394 0.0112832 31.8417C0.0321753 31.9441 0.081321 32.0382 0.152888 32.1128C0.224454 32.1875 0.315437 32.2395 0.415037 32.2628C0.514638 32.2861 0.618674 32.2796 0.714799 32.2442L4.92099 30.6966L7.05851 34.7145C7.10439 34.8009 7.17216 34.873 7.25471 34.9232C7.33725 34.9735 7.4315 35 7.52753 35C7.53955 35 7.55152 34.9995 7.56354 34.9987C7.66548 34.9916 7.76331 34.9548 7.84543 34.8926C7.92754 34.8303 7.9905 34.7453 8.02684 34.6475L11.6424 24.9218C11.8365 24.8467 12.0234 24.7533 12.2007 24.6429C12.5631 24.4163 12.9796 24.2965 13.4043 24.2965C13.8289 24.2965 14.2454 24.4163 14.6079 24.6429L14.6084 24.6432C14.7852 24.7521 14.9715 24.8441 15.1648 24.9181L18.7817 34.647C18.818 34.7448 18.881 34.8298 18.9631 34.8921C19.0452 34.9543 19.143 34.9911 19.245 34.9982C19.257 34.999 19.269 34.9995 19.281 34.9995C19.377 34.9995 19.4713 34.973 19.5538 34.9227C19.6364 34.8725 19.7041 34.8004 19.75 34.714L21.8875 30.6961L26.0937 32.2437C26.1898 32.2792 26.2939 32.2856 26.3935 32.2623C26.4931 32.239 26.5841 32.187 26.6556 32.1124C26.7272 32.0377 26.7763 31.9436 26.7972 31.8413C26.8181 31.7389 26.8099 31.633 26.7735 31.5353ZM7.44146 33.1473L5.64046 29.7621C5.57945 29.6476 5.48047 29.5592 5.36137 29.5128C5.24227 29.4663 5.11089 29.465 4.99092 29.509L1.44629 30.813L4.88904 21.5476C5.05878 21.5883 5.23131 21.6156 5.40512 21.6292C5.82574 21.6582 6.23018 21.8064 6.57322 22.0572C6.91626 22.3081 7.18436 22.6516 7.34754 23.0495C7.5302 23.505 7.80774 23.9142 8.16079 24.2485C8.51384 24.5829 8.93391 24.8344 9.39168 24.9855C9.72183 25.0946 10.0664 25.151 10.4134 25.1527L7.44146 33.1473ZM11.6387 23.7124C11.3551 23.8917 11.0367 24.0054 10.7057 24.0457C10.3748 24.0859 10.0392 24.0517 9.72243 23.9455C9.41229 23.8434 9.12763 23.6733 8.88829 23.447C8.64896 23.2208 8.46072 22.9438 8.3367 22.6354C8.09671 22.048 7.70161 21.5405 7.19571 21.17C6.6898 20.7995 6.09308 20.5805 5.47244 20.5377C5.14059 20.5159 4.8175 20.4195 4.52615 20.2554C4.2348 20.0914 3.98234 19.8636 3.78672 19.5883C3.5975 19.3222 3.46802 19.0165 3.40751 18.6932C3.347 18.3699 3.35696 18.0369 3.43669 17.718C3.58563 17.1024 3.5614 16.4562 3.36679 15.8541C3.17218 15.2519 2.81513 14.7185 2.33688 14.3153C2.08475 14.1044 1.88168 13.8388 1.74242 13.5376C1.60317 13.2363 1.53122 12.9071 1.53182 12.5739C1.53242 12.2406 1.60554 11.9117 1.74588 11.611C1.88622 11.3103 2.09025 11.0454 2.34313 10.8356C2.82022 10.4314 3.17591 9.89733 3.36914 9.29505C3.56237 8.69277 3.58527 8.04683 3.43519 7.43179C3.35639 7.11367 3.34705 6.78169 3.40782 6.45945C3.4686 6.13722 3.59801 5.83265 3.78683 5.56743C3.98321 5.29156 4.23661 5.06342 4.52899 4.89928C4.82136 4.73514 5.1455 4.63904 5.47831 4.61782C6.09798 4.57414 6.69355 4.3548 7.19838 3.98437C7.70321 3.61394 8.09739 3.10701 8.33681 2.52032C8.46073 2.21191 8.64893 1.93491 8.88828 1.70868C9.12763 1.48245 9.41235 1.31245 9.72254 1.21054C10.0394 1.10438 10.375 1.07024 10.7061 1.1105C11.0371 1.15075 11.3556 1.26444 11.6394 1.44363C12.171 1.77592 12.7818 1.95173 13.4046 1.95173C14.0275 1.95173 14.6383 1.77592 15.1699 1.44363C15.4535 1.26448 15.7719 1.15082 16.1029 1.11057C16.4339 1.07031 16.7694 1.10443 17.0862 1.21054C17.3963 1.31263 17.681 1.48273 17.9203 1.70899C18.1597 1.93525 18.3479 2.21222 18.4719 2.5206C18.7119 3.10806 19.107 3.6155 19.6129 3.98602C20.1188 4.35654 20.7155 4.57551 21.3362 4.61837C21.668 4.64017 21.9911 4.73653 22.2825 4.90061C22.5738 5.06469 22.8263 5.29245 23.0219 5.5677C23.2111 5.83386 23.3406 6.13951 23.4011 6.46282C23.4616 6.78612 23.4517 7.11912 23.3719 7.43803C23.223 8.05365 23.2472 8.69984 23.4418 9.30196C23.6364 9.90409 23.9935 10.4376 24.4717 10.8408C24.7239 11.0516 24.9269 11.3173 25.0662 11.6185C25.2055 11.9197 25.2774 12.2489 25.2768 12.5821C25.2762 12.9154 25.2031 13.2443 25.0627 13.545C24.9224 13.8457 24.7184 14.1106 24.4655 14.3205C23.9884 14.7246 23.6327 15.2586 23.4395 15.8609C23.2462 16.4631 23.2233 17.1091 23.3733 17.7241C23.4521 18.0422 23.4615 18.3742 23.4007 18.6964C23.3399 19.0187 23.2105 19.3232 23.0217 19.5884C22.8253 19.8643 22.5719 20.0925 22.2795 20.2566C21.9872 20.4207 21.663 20.5168 21.3302 20.538C20.7105 20.5817 20.115 20.8011 19.6101 21.1715C19.1053 21.5419 18.7111 22.0489 18.4717 22.6355C18.3478 22.944 18.1596 23.221 17.9202 23.4472C17.6809 23.6734 17.3962 23.8434 17.086 23.9453C16.7692 24.0518 16.4335 24.0861 16.1024 24.0459C15.7713 24.0056 15.4528 23.8917 15.1691 23.7122C14.6376 23.38 14.0268 23.2042 13.4039 23.2043C12.7811 23.2043 12.1703 23.3801 11.6387 23.7124ZM21.8176 29.5088C21.6976 29.4647 21.5662 29.466 21.4471 29.5125C21.328 29.5589 21.229 29.6474 21.1681 29.7619L19.3671 33.1471L16.3956 25.154C16.7424 25.1519 17.0869 25.0952 17.4168 24.9858C17.8747 24.8346 18.2948 24.5831 18.6479 24.2487C19.0011 23.9143 19.2787 23.505 19.4615 23.0495C19.625 22.6509 19.8937 22.3067 20.2377 22.0557C20.5816 21.8048 20.9871 21.6569 21.4086 21.6288C21.5807 21.6153 21.7516 21.5882 21.9197 21.548L25.3622 30.8128L21.8176 29.5088Z" fill="#F84E1D"/>
<path d="M21.418 12.5779C21.418 10.9555 20.948 9.36949 20.0674 8.02048C19.1869 6.67147 17.9353 5.62005 16.471 4.99917C15.0067 4.37829 13.3954 4.21584 11.8409 4.53236C10.2863 4.84888 8.85844 5.63016 7.7377 6.7774C6.61696 7.92463 5.85373 9.3863 5.54452 10.9776C5.23531 12.5688 5.39401 14.2182 6.00055 15.7172C6.60709 17.2161 7.63422 18.4973 8.95207 19.3986C10.2699 20.3 11.8193 20.7811 13.4043 20.7811C15.5289 20.7787 17.5659 19.9137 19.0682 18.3758C20.5706 16.8379 21.4156 14.7528 21.418 12.5779ZM13.4043 19.6874C12.0306 19.6874 10.6878 19.2704 9.5457 18.4892C8.40356 17.708 7.51338 16.5977 6.98771 15.2986C6.46204 13.9995 6.3245 12.57 6.59248 11.1909C6.86047 9.81185 7.52194 8.54507 8.49324 7.5508C9.46455 6.55653 10.7021 5.87942 12.0493 5.6051C13.3966 5.33078 14.793 5.47157 16.0621 6.00967C17.3312 6.54777 18.4158 7.459 19.179 8.62814C19.9422 9.79728 20.3495 11.1718 20.3495 12.5779C20.3474 14.4628 19.615 16.2699 18.313 17.6027C17.0109 18.9355 15.2456 19.6852 13.4043 19.6874Z" fill="#F84E1D"/>
<path d="M17.6532 10.7645L15.0482 10.3771L13.8832 7.96095C13.8341 7.87568 13.764 7.805 13.68 7.75589C13.596 7.70679 13.501 7.68097 13.4043 7.68097C13.3075 7.68097 13.2125 7.70679 13.1285 7.75589C13.0445 7.805 12.9745 7.87568 12.9253 7.96095L11.7603 10.3771L9.15533 10.7645C9.05662 10.7791 8.96388 10.8217 8.8876 10.8875C8.81133 10.9533 8.75455 11.0396 8.72372 11.1367C8.69288 11.2338 8.6892 11.3378 8.71311 11.4369C8.73701 11.536 8.78755 11.6263 8.85898 11.6975L10.7445 13.5782L10.2995 16.2339C10.2827 16.3344 10.2937 16.4377 10.3312 16.5321C10.3688 16.6266 10.4314 16.7084 10.5119 16.7684C10.5925 16.8283 10.6878 16.864 10.7872 16.8715C10.8865 16.8789 10.9859 16.8577 11.0741 16.8104L13.4043 15.5567L15.7343 16.8104C15.8225 16.8577 15.9219 16.8789 16.0212 16.8715C16.1206 16.864 16.2159 16.8283 16.2965 16.7684C16.3771 16.7084 16.4396 16.6266 16.4772 16.5321C16.5147 16.4377 16.5257 16.3344 16.5089 16.2339L16.0639 13.5782L17.9494 11.6975C18.0209 11.6263 18.0714 11.536 18.0953 11.4369C18.1192 11.3378 18.1155 11.2338 18.0847 11.1367C18.0539 11.0396 17.9971 10.9533 17.9208 10.8875C17.8445 10.8217 17.7519 10.7791 17.6532 10.7645ZM15.1171 12.9958C15.0552 13.0578 15.0088 13.1342 14.9821 13.2185C14.9554 13.3028 14.9491 13.3925 14.9637 13.4799L15.2731 15.3267L13.6526 14.4548C13.576 14.4136 13.4907 14.392 13.4042 14.392C13.3176 14.392 13.2323 14.4136 13.1557 14.4548L11.5355 15.3265L11.8448 13.4797C11.8595 13.3923 11.8531 13.3026 11.8264 13.2183C11.7997 13.134 11.7534 13.0575 11.6914 12.9956L10.3804 11.6877L12.1919 11.4182C12.2776 11.4055 12.3591 11.3716 12.4292 11.3194C12.4992 11.2673 12.5559 11.1984 12.5941 11.1189L13.4043 9.43884L14.2145 11.119C14.2528 11.1985 14.3094 11.2674 14.3795 11.3195C14.4496 11.3717 14.531 11.4056 14.6167 11.4183L16.4282 11.6878L15.1171 12.9958Z" fill="#F84E1D"/>
</svg>
