<svg width="34" height="34" viewBox="0 0 34 34" fill="none" xmlns="http://www.w3.org/2000/svg">
<path d="M27.5553 10.5966L23.9513 6.98794C23.877 6.91297 23.7834 6.86024 23.6808 6.83567C23.5783 6.8111 23.4709 6.81567 23.3708 6.84886C23.2707 6.88206 23.1818 6.94256 23.1142 7.02356C23.0466 7.10457 23.0029 7.20286 22.988 7.30738C22.9284 7.7246 22.7539 8.11696 22.4842 8.4405C22.2145 8.76405 21.8601 9.006 21.4607 9.13925C21.0614 9.27249 20.6329 9.29177 20.2233 9.19493C19.8136 9.09808 19.439 8.88893 19.1414 8.59091C18.8437 8.2929 18.6348 7.91778 18.5381 7.5076C18.4414 7.09742 18.4607 6.66837 18.5937 6.26853C18.7268 5.86869 18.9684 5.51385 19.2916 5.24376C19.6147 4.97367 20.0066 4.79901 20.4232 4.73934C20.5276 4.72444 20.6258 4.68066 20.7067 4.61294C20.7876 4.54522 20.848 4.45624 20.8812 4.35601C20.9143 4.25578 20.9189 4.14828 20.8943 4.0456C20.8698 3.94291 20.8171 3.84912 20.7423 3.77477L17.1383 0.166126C17.032 0.0597556 16.8879 0 16.7376 0C16.5874 0 16.4433 0.0597556 16.337 0.166126L13.2073 3.29872C13.0532 2.72122 12.75 2.19452 12.3281 1.7716C11.9062 1.34868 11.3805 1.04444 10.8039 0.889479C10.2273 0.73452 9.62016 0.734305 9.04346 0.888854C8.46677 1.0434 7.94088 1.34727 7.51869 1.76989C7.09649 2.19252 6.79287 2.719 6.63837 3.29639C6.48386 3.87379 6.48391 4.48174 6.63851 5.05911C6.79311 5.63648 7.09682 6.16291 7.51908 6.58546C7.94134 7.00802 8.46728 7.3118 9.044 7.46625L5.9177 10.5966C5.81147 10.703 5.75179 10.8473 5.75179 10.9977C5.75179 11.1482 5.81147 11.2925 5.9177 11.3989L9.04513 14.5343C8.3586 14.719 7.74713 15.1145 7.29673 15.6652C6.84633 16.2159 6.57964 16.8941 6.53417 17.6044C6.4887 18.3147 6.66674 19.0215 7.04325 19.6252C7.41975 20.229 7.97579 20.6994 8.63317 20.9703L7.31 24.7917C7.13423 25.1882 7.05161 25.6198 7.06851 26.0533C7.0854 26.4868 7.20136 26.9106 7.40747 27.2922L9.39647 32.0016C9.40382 32.0197 9.41234 32.0374 9.42197 32.0544C9.56127 32.31 9.63397 32.5967 9.63333 32.8879V33.4326C9.63333 33.5831 9.69304 33.7274 9.79931 33.8338C9.90558 33.9402 10.0497 34 10.2 34C10.3503 34 10.4944 33.9402 10.6007 33.8338C10.707 33.7274 10.7667 33.5831 10.7667 33.4326V32.8879C10.7661 32.4159 10.6493 31.9513 10.4267 31.5352L8.4371 26.8258C8.42921 26.8064 8.42012 26.7874 8.4099 26.7691C8.28002 26.5317 8.20783 26.2671 8.19917 25.9966C8.1905 25.7261 8.24561 25.4574 8.36003 25.2122L9.7461 21.2177C9.8056 21.2177 9.86397 21.2262 9.92403 21.2262C10.6719 21.2269 11.3991 20.9801 11.9925 20.5243C12.586 20.0686 13.0124 19.4293 13.2056 18.7058L14.1667 19.6642V25.489C14.1667 25.6395 14.2264 25.7838 14.3326 25.8903C14.4389 25.9967 14.583 26.0564 14.7333 26.0564C14.8836 26.0564 15.0278 25.9967 15.134 25.8903C15.2403 25.7838 15.3 25.6395 15.3 25.489V17.5455C15.3 17.094 15.4791 16.6611 15.7979 16.3419C16.1167 16.0226 16.5491 15.8433 17 15.8433C17.4509 15.8433 17.8833 16.0226 18.2021 16.3419C18.5209 16.6611 18.7 17.094 18.7 17.5455V24.4172C18.701 25.2099 18.8853 25.9916 19.2383 26.701L19.4457 27.1175C19.7199 27.6692 19.8626 28.2771 19.8626 28.8934C19.8626 29.5097 19.7199 30.1176 19.4457 30.6694L18.8791 31.8042C18.7614 32.0407 18.7001 32.3014 18.7 32.5656V33.4326C18.7 33.5831 18.7597 33.7274 18.866 33.8338C18.9722 33.9402 19.1164 34 19.2667 34C19.417 34 19.5611 33.9402 19.6674 33.8338C19.7736 33.7274 19.8333 33.5831 19.8333 33.4326V32.5656C19.8328 32.4779 19.8521 32.3911 19.89 32.312L20.4567 31.1772C20.8091 30.4677 20.9926 29.6861 20.9926 28.8937C20.9926 28.1013 20.8091 27.3197 20.4567 26.6102L20.2493 26.1938C20.0461 25.7852 19.9144 25.3447 19.86 24.8916C20.228 25.2614 20.6655 25.5547 21.1471 25.7547C21.6288 25.9546 22.1452 26.0571 22.6667 26.0564C23.1175 26.0564 23.5499 25.8771 23.8687 25.5579C24.1876 25.2387 24.3667 24.8057 24.3667 24.3543V21.1201C25.098 20.9389 25.7485 20.5193 26.2157 19.9275C26.6828 19.3356 26.9402 18.605 26.9473 17.8506C26.9544 17.0962 26.7107 16.3609 26.2547 15.7604C25.7988 15.1598 25.1563 14.7281 24.4284 14.5332L27.5553 11.3977C27.6612 11.2914 27.7206 11.1473 27.7206 10.9972C27.7206 10.847 27.6612 10.7029 27.5553 10.5966ZM22.6667 24.9216C21.9155 24.9207 21.1954 24.6216 20.6642 24.0897C20.133 23.5579 19.8342 22.8368 19.8333 22.0847V19.1342L20.2663 18.7007C20.4449 19.3726 20.8252 19.9735 21.3558 20.422C21.8864 20.8705 22.5418 21.1451 23.2333 21.2086V24.3543C23.2333 24.5047 23.1736 24.6491 23.0674 24.7555C22.9611 24.8619 22.817 24.9216 22.6667 24.9216ZM22.7477 14.6138C22.6627 14.6979 22.6064 14.8069 22.587 14.925C22.5675 15.0432 22.5859 15.1644 22.6395 15.2715C22.6931 15.3785 22.7791 15.4659 22.8852 15.521C22.9914 15.5761 23.1123 15.5962 23.2305 15.5783C23.7013 15.5116 24.1811 15.5948 24.6021 15.8162C25.023 16.0376 25.3638 16.3859 25.5762 16.8118C25.7885 17.2378 25.8617 17.7199 25.7854 18.1898C25.7091 18.6597 25.4871 19.0937 25.1509 19.4304C24.8147 19.767 24.3813 19.9893 23.9119 20.0657C23.4426 20.1421 22.9612 20.0688 22.5358 19.8562C22.1103 19.6435 21.7625 19.3023 21.5414 18.8808C21.3203 18.4593 21.2372 17.9789 21.3038 17.5075C21.3216 17.3891 21.3016 17.2681 21.2466 17.1618C21.1915 17.0555 21.1043 16.9693 20.9974 16.9157C20.8905 16.862 20.7694 16.8436 20.6514 16.8631C20.5334 16.8826 20.4246 16.9389 20.3405 17.0241L19.8333 17.533C19.8325 17.1604 19.7584 16.7917 19.6153 16.4478C19.4721 16.1039 19.2627 15.7916 18.9991 15.5288C18.7354 15.2659 18.4226 15.0576 18.0785 14.9158C17.7344 14.774 17.3658 14.7014 16.9938 14.7023C16.6217 14.7031 16.2534 14.7773 15.91 14.9206C15.5665 15.0639 15.2546 15.2736 14.9921 15.5376C14.4619 16.0708 14.165 16.7931 14.1667 17.5455V18.0596L13.128 17.0195C13.0439 16.9344 12.9351 16.878 12.8171 16.8586C12.6991 16.8391 12.578 16.8575 12.4711 16.9112C12.3642 16.9648 12.277 17.0509 12.2219 17.1572C12.1669 17.2635 12.1468 17.3845 12.1646 17.5029C12.2313 17.9743 12.1482 18.4548 11.9271 18.8763C11.706 19.2978 11.3581 19.639 10.9327 19.8516C10.5073 20.0643 10.0258 20.1376 9.55653 20.0611C9.08721 19.9847 8.65377 19.7625 8.31756 19.4258C7.98134 19.0892 7.75937 18.6552 7.68305 18.1853C7.60674 17.7153 7.67994 17.2333 7.8923 16.8073C8.10467 16.3813 8.44544 16.033 8.8664 15.8117C9.28735 15.5903 9.76718 15.5071 10.238 15.5738C10.3563 15.5918 10.4772 15.5718 10.5835 15.5168C10.6897 15.4617 10.7759 15.3744 10.8295 15.2673C10.8832 15.1602 10.9016 15.0389 10.8822 14.9207C10.8628 14.8024 10.8064 14.6934 10.7213 14.6092L7.11903 10.9977L10.7253 7.38909C10.8103 7.30491 10.8666 7.19595 10.886 7.07781C10.9055 6.95967 10.8871 6.8384 10.8335 6.73135C10.7799 6.62431 10.6939 6.53698 10.5878 6.48187C10.4816 6.42675 10.3607 6.40668 10.2425 6.42451C9.77233 6.49031 9.29339 6.40663 8.87326 6.18528C8.45314 5.96392 8.11302 5.61607 7.90091 5.1908C7.6888 4.76554 7.6154 4.28432 7.69107 3.81504C7.76673 3.34576 7.98764 2.91212 8.32263 2.57529C8.75466 2.16319 9.32848 1.93332 9.92517 1.93332C10.5219 1.93332 11.0957 2.16319 11.5277 2.57529C11.7757 2.82424 11.9625 3.12748 12.0734 3.46108C12.1844 3.79468 12.2164 4.14953 12.1669 4.49763C12.1491 4.61603 12.1691 4.73704 12.2242 4.84333C12.2792 4.94963 12.3664 5.03577 12.4733 5.08941C12.5803 5.14306 12.7014 5.16147 12.8194 5.14201C12.9373 5.12254 13.0462 5.06621 13.1302 4.98106L16.7393 1.37128L19.2786 3.91435C18.7877 4.14907 18.3603 4.49827 18.0322 4.93265C17.7041 5.36702 17.4848 5.87388 17.3928 6.41067C17.3008 6.94746 17.3388 7.49851 17.5036 8.01756C17.6683 8.53661 17.9551 9.0085 18.3397 9.39362C18.7243 9.77873 19.1956 10.0658 19.714 10.2308C20.2323 10.3958 20.7827 10.4338 21.3188 10.3417C21.8549 10.2496 22.3611 10.0301 22.7949 9.70151C23.2287 9.37296 23.5775 8.94499 23.8119 8.45352L26.3517 10.996L22.7477 14.6138Z" fill="#F84E1D"/>
<path d="M33.4333 11.8715H30.0333C29.883 11.8715 29.7389 11.8117 29.6326 11.7053C29.5264 11.5989 29.4667 11.4546 29.4667 11.3041C29.4667 11.1536 29.5264 11.0093 29.6326 10.9029C29.7389 10.7965 29.883 10.7367 30.0333 10.7367H33.4333C33.5836 10.7367 33.7278 10.7965 33.834 10.9029C33.9403 11.0093 34 11.1536 34 11.3041C34 11.4546 33.9403 11.5989 33.834 11.7053C33.7278 11.8117 33.5836 11.8715 33.4333 11.8715Z" fill="#F84E1D"/>
<path d="M29.4208 5.34646C29.296 5.34645 29.1748 5.30524 29.0758 5.2292C28.9769 5.15317 28.9057 5.04656 28.8734 4.92592C28.8411 4.80527 28.8495 4.67734 28.8973 4.56194C28.945 4.44655 29.0294 4.35015 29.1374 4.2877L32.0841 2.58551C32.2142 2.51145 32.3682 2.49192 32.5126 2.53118C32.6571 2.57044 32.7801 2.66529 32.8549 2.79505C32.9297 2.92481 32.9503 3.07893 32.912 3.22378C32.8738 3.36863 32.7799 3.49246 32.6508 3.56824L29.7041 5.27043C29.618 5.32043 29.5203 5.34667 29.4208 5.34646Z" fill="#F84E1D"/>
<path d="M32.3646 20.0988C32.2651 20.099 32.1673 20.0728 32.0813 20.0227L29.1346 18.3206C29.0696 18.2836 29.0126 18.2341 28.9668 18.1749C28.921 18.1158 28.8874 18.0482 28.8678 17.976C28.8482 17.9038 28.8431 17.8284 28.8527 17.7542C28.8624 17.68 28.8866 17.6084 28.9239 17.5436C28.9613 17.4788 29.0111 17.422 29.0705 17.3766C29.1298 17.3311 29.1976 17.2979 29.2698 17.2788C29.3421 17.2596 29.4174 17.255 29.4914 17.2651C29.5655 17.2753 29.6368 17.3 29.7013 17.3378L32.6479 19.04C32.756 19.1025 32.8404 19.1989 32.8881 19.3143C32.9358 19.4297 32.9442 19.5576 32.9119 19.6782C32.8796 19.7989 32.8085 19.9055 32.7095 19.9815C32.6106 20.0576 32.4893 20.0988 32.3646 20.0988Z" fill="#F84E1D"/>
<path d="M3.96667 11.8715H0.566667C0.416377 11.8715 0.272243 11.8117 0.165973 11.7053C0.0597022 11.5989 0 11.4546 0 11.3041C0 11.1536 0.0597022 11.0093 0.165973 10.9029C0.272243 10.7965 0.416377 10.7367 0.566667 10.7367H3.96667C4.11696 10.7367 4.26109 10.7965 4.36736 10.9029C4.47363 11.0093 4.53333 11.1536 4.53333 11.3041C4.53333 11.4546 4.47363 11.5989 4.36736 11.7053C4.26109 11.8117 4.11696 11.8715 3.96667 11.8715Z" fill="#F84E1D"/>
<path d="M4.57923 5.34646C4.47973 5.34667 4.38196 5.32043 4.2959 5.27043L1.34923 3.56824C1.22014 3.49246 1.12623 3.36863 1.08798 3.22378C1.04973 3.07893 1.07026 2.92481 1.14508 2.79505C1.2199 2.66529 1.34294 2.57044 1.48735 2.53118C1.63176 2.49192 1.78582 2.51145 1.9159 2.58551L4.86257 4.2877C4.97059 4.35015 5.05501 4.44655 5.10275 4.56194C5.15048 4.67734 5.15885 4.80527 5.12657 4.92592C5.09428 5.04656 5.02314 5.15317 4.92418 5.2292C4.82522 5.30524 4.70397 5.34645 4.57923 5.34646Z" fill="#F84E1D"/>
<path d="M1.6354 20.0988C1.51066 20.0988 1.38941 20.0576 1.29045 19.9815C1.19149 19.9055 1.12035 19.7989 1.08807 19.6782C1.05578 19.5576 1.06416 19.4297 1.11189 19.3143C1.15962 19.1989 1.24404 19.1025 1.35207 19.04L4.29873 17.3378C4.3632 17.3 4.43451 17.2753 4.50856 17.2651C4.5826 17.255 4.65791 17.2596 4.73016 17.2788C4.80241 17.2979 4.87017 17.3311 4.92953 17.3766C4.9889 17.422 5.0387 17.4788 5.07607 17.5436C5.11343 17.6084 5.13763 17.68 5.14726 17.7542C5.15689 17.8284 5.15177 17.9038 5.13219 17.976C5.11261 18.0482 5.07896 18.1158 5.03317 18.1749C4.98738 18.2341 4.93037 18.2836 4.8654 18.3206L1.91873 20.0227C1.83267 20.0728 1.7349 20.099 1.6354 20.0988Z" fill="#F84E1D"/>
</svg>
