<svg width="38" height="35" viewBox="0 0 38 35" fill="none" xmlns="http://www.w3.org/2000/svg">
<path d="M18.9183 9.70381C20.1476 9.70381 21.3257 9.08108 22.2354 7.95085C23.0663 6.91868 23.5428 5.61683 23.5428 4.37791C23.5428 1.88208 21.5549 0 18.9183 0C16.2816 0 14.2938 1.87963 14.2938 4.37791C14.2938 5.61683 14.7702 6.91868 15.6011 7.95085C16.5109 9.08189 17.689 9.70381 18.9183 9.70381ZM18.9183 1.34843C20.8208 1.34843 22.2013 2.6225 22.2013 4.37791C22.2013 6.58443 20.4053 8.35538 18.9183 8.35538C17.0996 8.35538 15.6353 6.17909 15.6353 4.37791C15.6353 2.62576 17.0158 1.34843 18.9183 1.34843Z" fill="#F84E1D"/>
<path d="M13.4458 16.1746L12.9751 22.9242C12.9689 23.0125 12.98 23.1012 13.0079 23.1852C13.0359 23.2691 13.0799 23.3468 13.1377 23.4136C13.1955 23.4805 13.2657 23.5353 13.3446 23.5748C13.4234 23.6144 13.5092 23.6379 13.597 23.6441H13.6442C13.8139 23.644 13.9772 23.5792 14.1013 23.4629C14.2255 23.3466 14.3012 23.1874 14.3133 23.0173L14.7841 16.2735C14.7902 16.1852 14.7791 16.0965 14.7512 16.0125C14.7233 15.9286 14.6792 15.8509 14.6214 15.7841C14.5637 15.7172 14.4934 15.6624 14.4146 15.6229C14.3357 15.5833 14.25 15.5598 14.1621 15.5535C14.0742 15.5473 13.986 15.5586 13.9024 15.5866C13.8189 15.6147 13.7416 15.659 13.6751 15.717C13.6086 15.7751 13.5541 15.8457 13.5148 15.925C13.4754 16.0042 13.452 16.0904 13.4458 16.1787V16.1746Z" fill="#F84E1D"/>
<path d="M28.0152 23.6433C28.1972 23.6271 28.3654 23.5391 28.4829 23.3984C28.6004 23.2578 28.6576 23.0761 28.6421 22.8931C28.6421 22.8931 27.9331 17.783 27.8291 16.0684C27.6364 12.9899 25.7656 10.5202 22.8428 10.0707C21.8151 9.9122 19.9484 9.79288 18.9728 9.79207C17.641 9.81526 16.3112 9.90773 14.9889 10.0691C13.6181 10.2578 12.3625 10.9419 11.4572 11.9937C10.5059 13.0978 10.0807 14.5091 9.99371 16.0717C9.89614 17.7879 9.24979 22.9005 9.24979 22.9005C9.2389 22.9891 9.24564 23.079 9.26961 23.165C9.29358 23.251 9.33432 23.3314 9.38944 23.4014C9.44457 23.4714 9.51299 23.5298 9.59073 23.573C9.66847 23.6163 9.75398 23.6435 9.8423 23.6533C9.93062 23.663 10.02 23.655 10.1052 23.6298C10.1904 23.6045 10.2698 23.5625 10.3387 23.5061C10.4077 23.4498 10.4648 23.3802 10.5067 23.3015C10.5487 23.2228 10.5747 23.1365 10.5831 23.0476C10.5831 23.0476 11.2393 17.8794 11.3328 16.146C11.4661 13.6894 12.9125 11.715 15.1719 11.4061C16.4329 11.2521 17.701 11.1638 18.9711 11.1413C19.8801 11.1413 21.6842 11.2574 22.6387 11.4045C23.6881 11.5641 24.6476 12.0915 25.3477 12.8935C26.0924 13.7532 26.4152 14.9079 26.4859 16.1501C26.5892 17.8859 27.3095 23.0549 27.3095 23.0549C27.3356 23.2226 27.4217 23.3749 27.5517 23.4833C27.6816 23.5916 27.8465 23.6485 28.0152 23.6433Z" fill="#F84E1D"/>
<path d="M23.655 15.5495C23.5667 15.5556 23.4804 15.5792 23.4012 15.6189C23.3221 15.6587 23.2515 15.7138 23.1936 15.7811C23.1357 15.8484 23.0916 15.9266 23.0639 16.0111C23.0362 16.0956 23.0254 16.1848 23.0322 16.2735L23.5038 23.0222C23.5155 23.1924 23.591 23.3518 23.715 23.4683C23.839 23.5848 24.0023 23.6497 24.1721 23.6499H24.22C24.3974 23.6371 24.5625 23.5541 24.6791 23.4191C24.7957 23.2842 24.8543 23.1082 24.842 22.9299L24.3704 16.1804C24.3648 16.0917 24.3417 16.005 24.3027 15.9253C24.2636 15.8456 24.2093 15.7744 24.1429 15.7158C24.0764 15.6572 23.9991 15.6123 23.9154 15.5838C23.8317 15.5552 23.7432 15.5436 23.655 15.5495Z" fill="#F84E1D"/>
<path d="M23.1981 29.748L26.4241 26.587C26.5137 26.4992 26.5771 26.3879 26.607 26.2658C26.637 26.1437 26.6324 26.0156 26.5938 25.896C26.5551 25.7764 26.484 25.6701 26.3883 25.589C26.2927 25.5079 26.1764 25.4553 26.0526 25.4371L21.5948 24.7834L19.6012 20.7258C19.5459 20.6129 19.4602 20.5178 19.3539 20.4514C19.2475 20.3849 19.1248 20.3497 18.9996 20.3497C18.8744 20.3497 18.7517 20.3849 18.6453 20.4514C18.539 20.5178 18.4533 20.6129 18.398 20.7258L16.4044 24.7858L11.9466 25.4396C11.8228 25.4577 11.7065 25.5103 11.6109 25.5914C11.5152 25.6725 11.4441 25.7789 11.4054 25.8985C11.3668 26.0181 11.3622 26.1462 11.3921 26.2683C11.4221 26.3904 11.4855 26.5016 11.575 26.5894L14.8011 29.7505L14.0401 34.2101C14.0186 34.3345 14.0322 34.4624 14.0794 34.5793C14.1266 34.6963 14.2056 34.7976 14.3072 34.8716C14.4089 34.9457 14.5292 34.9896 14.6544 34.9984C14.7797 35.0071 14.9049 34.9804 15.0158 34.9211L18.9996 32.8143L22.9834 34.9211C23.0798 34.9718 23.1869 34.9985 23.2956 34.9988C23.3933 34.9986 23.4898 34.9771 23.5783 34.9356C23.6668 34.8941 23.7453 34.8337 23.8082 34.7587C23.8711 34.6836 23.917 34.5956 23.9427 34.5009C23.9683 34.4061 23.973 34.3069 23.9566 34.2101L23.1981 29.748ZM18.6874 31.4561C17.9085 31.8549 15.5914 33.0905 15.5914 33.0905L16.1825 29.6246C16.2008 29.5169 16.1929 29.4064 16.1593 29.3025C16.1258 29.1985 16.0676 29.1044 15.9898 29.0281L13.4848 26.5764L16.9467 26.0705C17.0542 26.0547 17.1564 26.0129 17.2443 25.9487C17.3323 25.8845 17.4034 25.7998 17.4516 25.7019L18.9963 22.5482L20.5411 25.7019C20.5893 25.7998 20.6604 25.8845 20.7484 25.9487C20.8363 26.0129 20.9384 26.0547 21.046 26.0705L24.5078 26.5764L22.0029 29.0281C21.9251 29.1044 21.8669 29.1985 21.8333 29.3025C21.7998 29.4064 21.7918 29.5169 21.8102 29.6246L22.4013 33.0905C22.4013 33.0905 20.0842 31.8532 19.3053 31.4561C19.2104 31.4046 19.1042 31.3776 18.9963 31.3776C18.8885 31.3776 18.7823 31.4046 18.6874 31.4561Z" fill="#F84E1D"/>
<path d="M37.4252 27.4868L34.1658 27.0103L32.708 24.0421C32.6528 23.9292 32.5672 23.8341 32.4609 23.7676C32.3547 23.701 32.232 23.6658 32.1068 23.6658C31.9816 23.6658 31.8589 23.701 31.7526 23.7676C31.6464 23.8341 31.5608 23.9292 31.5056 24.0421L30.0478 27.0103L26.7884 27.4868C26.6646 27.5049 26.5483 27.5575 26.4526 27.6386C26.357 27.7197 26.2858 27.826 26.2472 27.9457C26.2085 28.0653 26.2039 28.1934 26.2339 28.3155C26.2639 28.4376 26.3273 28.5488 26.4168 28.6366L28.7746 30.9477L28.2177 34.2101C28.1961 34.3345 28.2098 34.4624 28.257 34.5793C28.3042 34.6963 28.3831 34.7976 28.4848 34.8716C28.5864 34.9457 28.7067 34.9896 28.832 34.9984C28.9572 35.0071 29.0824 34.9804 29.1933 34.9211L32.108 33.3806L35.0235 34.9211C35.1199 34.9718 35.227 34.9985 35.3357 34.9988C35.4334 34.9986 35.5299 34.9771 35.6184 34.9356C35.7069 34.8941 35.7854 34.8337 35.8483 34.7587C35.9112 34.6836 35.9571 34.5956 35.9827 34.5009C36.0084 34.4061 36.0131 34.3069 35.9967 34.2101L35.4398 30.9477L37.7976 28.6366C37.8871 28.5488 37.9505 28.4376 37.9805 28.3155C38.0104 28.1934 38.0058 28.0653 37.9672 27.9457C37.9285 27.826 37.8574 27.7197 37.7617 27.6386C37.6661 27.5575 37.5498 27.5049 37.426 27.4868H37.4252ZM31.795 32.0224C31.2836 32.2806 29.7697 33.0922 29.7697 33.0922L30.1567 30.826C30.1751 30.7183 30.1672 30.6077 30.1336 30.5038C30.1001 30.3999 30.0419 30.3057 29.9641 30.2294L28.3258 28.6243L30.5893 28.2975C30.697 28.2818 30.7992 28.24 30.8872 28.1756C30.9752 28.1112 31.0462 28.0263 31.0942 27.9281L32.1064 25.867L33.1186 27.9281C33.1668 28.0262 33.2381 28.1111 33.3261 28.1754C33.4142 28.2398 33.5165 28.2816 33.6243 28.2975L35.8869 28.6243L34.2495 30.2294C34.1716 30.3056 34.1133 30.3998 34.0798 30.5037C34.0462 30.6077 34.0383 30.7183 34.0568 30.826L34.4471 33.0922C34.4471 33.0922 32.934 32.2806 32.4226 32.0224C32.3262 31.9702 32.2184 31.9428 32.1088 31.9428C31.9993 31.9428 31.8914 31.9702 31.795 32.0224Z" fill="#F84E1D"/>
<path d="M11.2108 27.4868L7.95139 27.0103L6.49363 24.0421C6.43841 23.9292 6.35281 23.8341 6.24654 23.7676C6.14027 23.701 6.01759 23.6658 5.8924 23.6658C5.76721 23.6658 5.64452 23.701 5.53826 23.7676C5.43199 23.8341 5.34639 23.9292 5.29117 24.0421L3.83341 27.0103L0.573991 27.4868C0.450183 27.5049 0.33389 27.5575 0.238256 27.6386C0.142622 27.7197 0.071458 27.826 0.0328071 27.9457C-0.00584377 28.0653 -0.0104409 28.1934 0.0195352 28.3155C0.0495113 28.4376 0.112866 28.5488 0.202438 28.6366L2.56021 30.9477L2.00736 34.2101C1.98582 34.3345 1.99943 34.4624 2.04665 34.5793C2.09387 34.6963 2.1728 34.7976 2.27445 34.8716C2.37611 34.9457 2.49641 34.9896 2.62167 34.9984C2.74693 35.0071 2.87212 34.9804 2.98299 34.9211L5.8985 33.3806L8.81319 34.9211C8.90955 34.9718 9.01664 34.9985 9.1254 34.9988C9.22307 34.9986 9.31953 34.9771 9.40806 34.9356C9.49659 34.8941 9.57506 34.8337 9.63799 34.7587C9.70092 34.6836 9.7468 34.5956 9.77243 34.5009C9.79806 34.4061 9.80282 34.3069 9.78638 34.2101L9.22946 30.9477L11.5872 28.6366C11.6768 28.5488 11.7402 28.4376 11.7701 28.3155C11.8001 28.1934 11.7955 28.0653 11.7569 27.9457C11.7182 27.826 11.6471 27.7197 11.5514 27.6386C11.4558 27.5575 11.3395 27.5049 11.2157 27.4868H11.2108ZM5.58467 32.0224L3.55617 33.0922L3.94236 30.826C3.96088 30.7183 3.95301 30.6077 3.91943 30.5037C3.88586 30.3998 3.82759 30.3056 3.74967 30.2294L2.11224 28.6243L4.37489 28.2975C4.48264 28.2816 4.58495 28.2398 4.67304 28.1754C4.76113 28.1111 4.83235 28.0262 4.88059 27.9281L5.89281 25.867L6.90502 27.9281C6.95295 28.0263 7.02399 28.1112 7.11197 28.1756C7.19995 28.24 7.30222 28.2818 7.40991 28.2975L9.67337 28.6243L8.03513 30.2294C7.95732 30.3057 7.89913 30.3999 7.86556 30.5038C7.832 30.6077 7.82406 30.7183 7.84244 30.826L8.22944 33.0922L6.20419 32.0224C6.11095 31.965 6.00375 31.9347 5.89443 31.9347C5.78511 31.9347 5.67792 31.965 5.58467 32.0224Z" fill="#F84E1D"/>
</svg>
