<svg width="57" height="54" viewBox="0 0 57 54" fill="none" xmlns="http://www.w3.org/2000/svg">
<path d="M54.7815 10.5219C52.5957 7.63641 48.7679 5.03195 44.0032 3.18855C39.2641 1.35518 33.7618 0.34136 28.5094 0.334102C23.2565 0.321506 17.7473 1.32486 13.0015 3.14404C8.22853 4.97367 4.39157 7.56682 2.19789 10.4455C0.0908812 13.2104 -0.516367 16.1905 0.441679 19.0636C1.06317 20.9275 2.87612 22.1816 4.95409 22.1845L12.0692 22.1909C12.0715 22.1909 12.0738 22.1909 12.0763 22.1909C13.4951 22.1908 14.828 21.5949 15.7339 20.5554C16.6302 19.527 17.0015 18.1829 16.7526 16.8676C16.7454 16.8291 16.7365 16.7907 16.7263 16.7526L16.3519 15.3562C18.4251 14.4072 23.1225 12.5736 28.4874 12.6027C33.8485 12.6291 38.5426 14.4616 40.6184 15.4111L40.238 16.7995C40.2272 16.8388 40.2181 16.8784 40.2103 16.9182C39.9576 18.2327 40.3248 19.5778 41.218 20.6087C42.1223 21.6526 43.4562 22.2522 44.8787 22.2543L51.9938 22.2607C51.9961 22.2607 51.9986 22.2607 52.0009 22.2607C54.0749 22.2606 55.8884 21.0122 56.5146 19.1523C57.4816 16.2798 56.8823 13.2955 54.7815 10.5219ZM53.2794 18.1496C53.1108 18.65 52.5853 18.999 51.9997 18.999L44.8826 18.9926C44.4727 18.9921 44.0899 18.8212 43.8322 18.5237C43.6921 18.362 43.4735 18.0257 43.545 17.5579L44.2529 14.9745C44.4468 14.2665 44.1254 13.5214 43.4666 13.1519C43.1921 12.998 36.6498 9.38098 28.5048 9.34074C28.4595 9.34052 28.4156 9.34041 28.3704 9.34041C20.2778 9.34041 13.7821 12.9416 13.5081 13.0957C12.8535 13.464 12.5327 14.2037 12.7217 14.9088L13.4155 17.4964C13.4864 17.9651 13.2664 18.3015 13.1257 18.4631C12.8677 18.7592 12.4852 18.9289 12.0753 18.9289L4.9581 18.9225C4.37255 18.9216 3.84685 18.5709 3.67974 18.0694C3.05758 16.2035 3.48237 14.2859 4.9423 12.3701C8.82043 7.28118 18.7002 3.59534 28.4514 3.59534C28.4688 3.59534 28.4873 3.59534 28.5047 3.59534C38.2656 3.60878 48.1601 7.32815 52.0316 12.4391C53.4879 14.3622 53.9079 16.2834 53.2794 18.1496Z" fill="#F84E1D"/>
<path d="M44.5695 29.2293L39.2635 23.8843C38.9425 23.5611 38.4978 23.3782 38.0326 23.3782H34.6036V21.1556C34.6036 20.2549 33.8426 19.5248 32.9038 19.5248C31.9652 19.5248 31.204 20.2549 31.204 21.1556V23.3782H25.7611V21.1556C25.7611 20.2549 25.0001 19.5248 24.0613 19.5248C23.1225 19.5248 22.3615 20.2549 22.3615 21.1556V23.3782H18.9326C18.4674 23.3782 18.0225 23.5612 17.7017 23.8843L12.3958 29.2293C8.23566 33.4202 5.94451 38.9154 5.94451 44.7026V51.4115C5.94451 52.3122 6.70552 53.0423 7.64432 53.0423H49.3208C50.2596 53.0423 51.0206 52.3122 51.0206 51.4115V44.7026C51.0208 38.9152 48.7297 33.4202 44.5695 29.2293ZM9.34412 49.7808V44.7026C9.34412 39.7566 11.3022 35.0603 14.8577 31.4785L19.6612 26.6396H37.3041L42.1076 31.4785C45.6629 35.0601 47.621 39.7566 47.621 44.7026V49.7808H9.34412Z" fill="#F84E1D"/>
<path d="M28.4827 30.0115C23.5773 30.0115 19.5866 33.8403 19.5866 38.5464C19.5866 43.2525 23.5774 47.0813 28.4827 47.0813C33.3879 47.0813 37.3788 43.2525 37.3788 38.5464C37.3788 33.8402 33.388 30.0115 28.4827 30.0115ZM28.4827 43.8196C25.4518 43.8196 22.9862 41.4541 22.9862 38.5462C22.9862 35.6385 25.4519 33.273 28.4827 33.273C31.5134 33.273 33.9792 35.6385 33.9792 38.5462C33.9792 41.4541 31.5134 43.8196 28.4827 43.8196Z" fill="#F84E1D"/>
</svg>
