<svg width="49" height="54" viewBox="0 0 49 54" fill="none" xmlns="http://www.w3.org/2000/svg">
<path d="M33.3519 35.1591C39.2046 26.3579 38.4688 27.4559 38.6375 27.2265C40.7683 24.3462 41.8945 20.9563 41.8945 17.423C41.8945 8.05287 33.9602 0.333984 24.1699 0.333984C14.4115 0.333984 6.44531 8.03764 6.44531 17.423C6.44531 20.9541 7.59516 24.4327 9.7958 27.3517L14.9877 35.1592C9.43669 35.9767 0 38.4129 0 43.7772C0 45.7326 1.33182 48.5194 7.67658 50.6909C12.1069 52.2072 17.9643 53.0423 24.1699 53.0423C35.7742 53.0423 48.3398 49.9053 48.3398 43.7772C48.3398 38.4119 38.9142 35.9783 33.3519 35.1591ZM12.4877 25.653C12.47 25.6265 12.4515 25.6005 12.4321 25.575C10.6009 23.1607 9.66797 20.2994 9.66797 17.423C9.66797 9.70021 16.1569 3.42236 24.1699 3.42236C32.1663 3.42236 38.6719 9.70299 38.6719 17.423C38.6719 20.3041 37.7565 23.0683 36.0244 25.4189C35.8691 25.6151 36.679 24.4094 24.1699 43.2201L12.4877 25.653ZM24.1699 49.9539C11.4948 49.9539 3.22266 46.3835 3.22266 43.7772C3.22266 42.0255 7.47312 39.1451 16.8919 38.0224L22.811 46.9234C23.1069 47.3683 23.6193 47.6377 24.1698 47.6377C24.7204 47.6377 25.2329 47.3682 25.5286 46.9234L31.4476 38.0224C40.8666 39.1451 45.1172 42.0255 45.1172 43.7772C45.1172 46.3613 36.9195 49.9539 24.1699 49.9539Z" fill="#F84E1D"/>
<path d="M24.1699 9.70207C19.7275 9.70207 16.1133 13.1657 16.1133 17.423C16.1133 21.6803 19.7275 25.144 24.1699 25.144C28.6124 25.144 32.2266 21.6803 32.2266 17.423C32.2266 13.1657 28.6124 9.70207 24.1699 9.70207ZM24.1699 22.0556C21.5045 22.0556 19.3359 19.9774 19.3359 17.423C19.3359 14.8686 21.5045 12.7904 24.1699 12.7904C26.8354 12.7904 29.0039 14.8686 29.0039 17.423C29.0039 19.9774 26.8354 22.0556 24.1699 22.0556Z" fill="#F84E1D"/>
</svg>
